<?xml version="1.0" encoding="utf-8"?>
<!-- Generator: Adobe Illustrator 24.3.0, SVG Export Plug-In . SVG Version: 6.00 Build 0)  -->
<svg version="1.1" id="Layer_1" xmlns="http://www.w3.org/2000/svg" xmlns:xlink="http://www.w3.org/1999/xlink" x="0px" y="0px"
	 viewBox="0 0 1920 400" style="enable-background:new 0 0 1920 400;" xml:space="preserve">
<style type="text/css">
	.st0{fill:#FF9738;}
	.st1{fill:#006837;}
	.st2{fill:#50960F;}
	.st3{fill:#50960F;stroke:#231F20;stroke-width:0.9321;}
	.st4{fill:#50960F;stroke:#000000;stroke-width:0.3;}
	.st5{fill:#515151;}
</style>
<circle class="st0" cx="221.5" cy="297.5" r="170.5"/>
<g id="PgDVas_1_">
	<g>
		<g>
			<path class="st1" d="M567.2,94c-5.2-0.8-10.4-2.1-15.7-2.3c-16-0.7-30.9-7-46.9-8c-9.7-0.6-19.2-3.2-28.8-4.9
				c-0.8-0.1-1.7-0.3-2.3-0.8c-8.5-6.8-19-4.4-28.1-4.1c-8.6,0.3-16.7-1.2-24.9-2.2c-9.5-1.2-18.7-4.5-28.2-6c-7.9-1.3-16-1.3-24-2
				c-2-0.2-4.3,0-5.9-0.9c-6.5-3.8-14.3-2.5-21-6.8c-5.6-3.7-13.3-4.6-20.1-6.1c-12.7-2.8-25.4-4.8-38.6-3.5
				c-13.7,1.4-27.6,1.6-41.4,2.3c-2,0.1-4,0.3-6,0.5c-2.2-1.7-4.6-2.9-7.2-3.2c-11.5-1.2-12.9-2.7-10.8-12.3
				c0.1-0.3-0.2-0.6-0.3-0.9c-15.8-7.8-58-14.8-84.5-14.1c-2.5,2-3.7,3.8-5.2,4.1c-5,0.9-8.4,6-14.5,4.4c-3.3-0.9-7.9,4.8-6.9,7.5
				c1.5,4.2-0.3,4.4-3.5,3.8c-0.4-0.1-0.8,0.3-1.2,0.5c0.5,1.2,1,2.2,1.7,3.8c-2.4-1-4.1-1.6-5.7-2.3c-0.1,0.3-0.3,0.7-0.4,1
				l3.1,3.7c-0.2,0.4-0.3,0.9-0.5,1.3c-3-0.2-6.1-1.1-8.8-0.3c-4.7,1.3-8.5-0.5-12.8-1.8c-6.7-2-13.6-3.5-20.5-4.3
				c-4.4-0.5-9.1,1.4-13.6,1c-7.3-0.8-14,0.5-20.5,3.5c-5.7,2.7-11.4,5.3-17.2,7.6C1.1,54-2.5,57.9-8.3,58c-1.5,0-3.5,2.2-6.1,0.9
				c-3.7-1.9-7.4-2.7-10.5,1.3c-0.4,0.5-1.5,1-2.2,0.8c-7.1-1.4-14.1-2.3-21.4-1.4c-7.8,0.9-15.6,1.2-23.4,2.3
				c-4.3,0.6-8.4,2.5-12.7,3.8c1,2.3,1.6,3.7,2.4,5.5c-1.7,0.4-3,0.6-5.1,1.1c2.5,1.9,4.4,3.3,6.9,5.2c-5.2,4.8-11.2,5.4-16.8,6.4
				c-3.2,0.6-7.2-2-10.1-1c-9.4,3.3-19.8,0.9-29,5.8c-8.2,4.3-17.2,7-25.8,10.6c-1.8,0.7-3,2.7-4.7,3.8c-2.7,1.8-5.5,3.4-8.9,5.4
				c2.3,0.8,3.7,1.3,6.2,2.1c-2.8,1.7-4.5,2.8-6.3,3.8c-0.7,0.4-1.5,0.3-2.3,0.5c1.2,5.1-2.8,3-4.9,3.6c-0.8,0.2-1.4,0.8-2.7,1.5
				c5.7,1.2,11.1,4,15.6,3c12.2-2.8,24.1,0.1,36.1,0.2c5.2,0,10.5,2.4,15.9,3.8c0.1-1.1,0.2-2.5,0.4-3.7c1.8,0,3.5,0.4,4.8-0.1
				c5-1.9,13.1-0.1,15.7,4.4c3.5,6.2,9.3,8.3,15.3,10.6c7,2.8,14.2,4.7,19.9,10.6c5.5,5.7,12.3,10.7,19.4,14.2
				c9.5,4.6,19.7,7.7,29.8,11c8.8,2.9,18,4.8,26.7,7.8c17,5.8,33.9,11.7,50.6,18.2c6.3,2.4,12.7,5.6,17.5,10.1
				c8.8,8.2,16.8,17.5,24.5,26.8c10.7,12.9,21.3,25.7,34.4,36.5c5.8,4.7,10.2,11.3,11.5,19.3c1.7,10.6,3.9,21.1,5.8,31.7
				c0.2,0.9,0.2,2-0.2,2.8c-0.6,1.1-1.5,2-2.4,3c1.4,0.1,2.8,0.3,4.5,0.4c0.2,0.6,0.4,1.1,0.4,1.6c1.7,0.4,3.5,0.7,5.3,1
				c4.6,0.5,9.3,1.1,13.9,1.6c0.1-0.1,0.2-0.2,0.3-0.3c-0.3,0-0.5-0.1-0.8-0.1c0.3,0,0.6,0.1,0.8,0.1c0.5-0.5,1-1,1.5-1.6
				c0.4-0.4,0.8-0.8,1.3-1.2c0.7-1.4,1.8-2.6,3.2-3.2c0.2-0.1,0.4-0.2,0.6-0.2c2.2-1.9,4.4-3.7,6.7-5.5c-0.4-0.9-0.5-1.9-0.6-2.9
				c-1.5-0.1-3-0.1-4.6-0.2c0.3-1.8,0.2-2.6,0.5-3.4c7.4-17.7,19.7-30.5,37.5-37.9c2.9-1.2,6-2.2,8.5-4c5.3-3.7,10.3-7.8,15.3-11.9
				c6.6-5.5,13.2-11,19.4-16.8c5.5-5.2,10.3-11.1,15.7-16.4c12.1-11.7,28.4-14.5,43.6-19.5c7.5-2.5,16.4-2.2,23.1-5.9
				c11.6-6.4,23.8-10.2,36.2-13.8c22.5-6.7,38.8-21.2,51.5-40.2c3.8-5.6,7.5-10.7,14.2-13.3c4-1.5,7.3-4.4,6.8-9.8
				c-0.2-2.4,0.5-4.9,0.9-7.4c0.7-4.1,1.8-7.3,6.9-4c1,0.6,2.6,0.3,3.9,0.2c3.9-0.4,7.9-1.2,11.8-1.3c6.7-0.2,13.4-0.2,20.2,0
				c6.6,0.2,13.1,0.7,19.7,0.9c2.9,0.1,5.8-0.1,8.7-0.4c3.6-0.4,7.2-1,10.7-1.9c1.3-0.3,2.3-1.8,3.4-2.8c-0.3-0.6-0.5-1.1-0.8-1.7
				c-3.5,0.3-7,0.5-10.5,0.8c-0.2-0.5-0.5-0.9-0.7-1.4c3.3-1.9,6.5-4,10-5.7c2.6-1.3,5.5-2.1,8.4-2.9c1.7-0.5,3.5-0.5,5.3-0.9
				c3.1-0.7,6.2-1.4,9.2-2.2C567.4,95.4,567.3,94.7,567.2,94z M-80.7,135.7c-3.5-1.6-6.4-2.9-9.3-4.4c-0.2-0.1,0.4-1.7,0.6-2.5
				c-0.8-0.6-1.7-1-2.3-1.7c-1-1.3-2-2.7-2.7-4.2c-0.2-0.5,1-2.1,1.4-2.1c1.9,0.2,4.1,0.3,5.4,1.4c1.5,1.2,2.3,3.4,4,6.1
				c-2.5,0.2-4.3,0.3-6.1,0.4c2.8,0.6,5.6,1.3,8.8,2V135.7z M-85.9,122c3.7,0.2,6.1,0.3,9.5,0.4C-79.8,126.3-82.3,126.5-85.9,122z
				 M426.2,114.8c0.5-1,2.3-1.4,3.8-2.2c2.8,1.6,5.5,2.8,7.7,4.6c0.9,0.7,1.3,2.9,0.8,3.9c-0.4,0.9-2.6,1.7-3.5,1.4
				c-2.7-1-5.2-2.5-7.6-4.2C426.6,117.6,425.8,115.6,426.2,114.8z M364.5,135.4c-1-4.4-0.1-6.1,4-4.9c5.1,1.5,10,3.1,15.3,1.5
				c0.2-0.1,2,2.8,1.6,3.4c-3.9,6-7.8,11.9-12.2,17.5c-2.1,2.6-5.3,4.1-8.4,6.4c-2.2-5.7-1.3-10.1,0.5-14.9
				C366.2,141.9,365.2,138.3,364.5,135.4z M376.8,156c-0.7,2.6-1.4,5.3-2.3,8.6C369.8,159.5,369.8,159.5,376.8,156z M346.7,127.9
				c3.6,2.2,1.9,4.8-0.3,6.3c-5.9,4.2-12,8.2-18.3,12c-5.2,3.2-10.9,3.1-16.4,1.2l-0.5-1.6c2.4-1.8,4.9-3.6,7.7-5.6
				c-4.6-4.1-1.8-7.2,1.4-9.7c4.1-3.2,8.4-6.1,13.9-10C337.9,122.8,342.3,125.2,346.7,127.9z M315.3,122.9c1.3-1,4.2,0.2,6.4,0.4
				c-0.8,1.3-1.5,2.7-2.6,3.8c-1.2,1.2-2.7,2.2-4,3.2c-0.7-0.3-1.4-0.7-2.1-1C313.7,127.1,313.8,124.1,315.3,122.9z M303.9,150.2
				c-8.4,5.6-16.3,11.9-24.8,17.2c-6,3.8-12.6,6.6-19,9.8c-0.5-0.8-1-1.6-1.5-2.4c6.6-5.2,12.7-11.2,19.9-15.4
				c6.1-3.6,8.8-9.5,13-14.4c0.6-0.7,1-1.9,1.8-2.3c6.1-3.2,12.2-6.2,18.4-9.3C312.7,140.1,309.2,146.7,303.9,150.2z M194.8,177.3
				c1.7,7.7,0.2,16.5-2.8,19.4C187.2,189.7,192.9,184.5,194.8,177.3z M193.1,165.4c-2.3,1.6-4.6,3.2-7,4.6c-0.2,0.1-2-1.8-2.1-2.9
				c-0.4-2.3,3.8-5.6,6.5-5.2c1.2,0.2,2.3,0.9,3.5,1.4C193.7,164,193.4,164.7,193.1,165.4z M209.1,137.9c3.2,5.3,3.3,6.3-1.9,9.4
				c-3,1.8-6.1,3.3-9.3,4.9c-0.7,0.4-1.6,0.4-3.4,0.9c-1.2-12.5-2.5-24.2,12.4-29.8c1.8,2,2.4,4.4,0.7,7.9
				C207,132.8,207.9,136,209.1,137.9z M212.9,129.6c4.8-2.5,9.7-4.8,12-10.4c1.1-2.5,8.7-1.6,12.8,1.7c-9.2,5.1-17.9,9.9-26.8,14.8
				C209.1,133.4,209.9,131.2,212.9,129.6z M214.9,184.7c0,4.9,0.3,9.6-0.2,14.3c-0.2,1.8-2.1,3.8-3.6,5.1c-4.4,3.9-9,7.5-13.6,11.1
				c-1.7,1.3-3.7,2.4-6.4,4C192.4,209.8,207.4,188.4,214.9,184.7z M199.6,172.3c0-0.9,1.9-2.4,3.1-2.5c6-0.5,12.1-0.7,19.4-1
				c-7.6,6.9-14.5,13.1-21.8,19.8C199.9,182.7,199.6,177.5,199.6,172.3z M216.5,210.6c0.4-2.8,2.6-6.3,6.9-3.1
				c0.4,0.3,2-0.3,2.3-0.9c3-6.2,5-9.6,10.5-10.2c-0.7,7.1-2.6,13.3-7.2,19.1c-3.9,4.8-6.5,10.8-9.6,16.3c-1.1,1.9-1.9,3.8-2.9,5.7
				c-0.7-0.2-1.3-0.4-2-0.5C215.1,228.2,215.3,219.3,216.5,210.6z M218.3,199c-0.2-4-0.3-8.2-0.8-12.4c-0.5-3.9,0.8-6.6,4.1-8.9
				c7.8-5.2,15.2-11.1,23.2-15.9c5.9-3.6,6.6-2.9,9.9,3.9c2.6-0.7,5.4-1.5,8.1-2.2C253.3,182.2,234.9,189.8,218.3,199z M254.4,157.4
				c1.3-1.2,2.4-2.8,3.9-3.6c4.2-2,8.5-3.8,12.8-5.4c2.6-1,5.3-1.5,7.9-2.2c0.7,2.2,0.7,3.6-2,5c-4.5,2.4-8.4,5.7-12.7,8.5
				c-1.1,0.7-2.7,1.8-3.6,1.5C258.5,160.3,256.5,158.7,254.4,157.4z M311.4,120.5c0,3.4,0.1,6.6-0.1,9.9c0,0.7-0.6,1.7-1.2,2
				c-4.3,2-8.8,3.5-13,5.7c-4,2.1-7.8,4.7-11.6,7.2c-2.1,1.4-4,3.9-6.5,0.9c0,0,0,0,0,0c1.4-0.9,2.8-1.9,4.2-2.8
				c1.1-0.8,2.6-1.5,3.3-2.6c6-8.9,15.4-13.6,23.4-20.1C310.3,120.5,310.9,120.6,311.4,120.5z M286.2,118.5c-0.4-1-0.7-1.4-0.8-1.8
				c-0.6-2.4-1.2-4.8-1.6-7.2c0-0.1,2-1,2.4-0.7c2.2,1.8,4.3,3.9,6.3,6c0.3,0.3-0.2,1.6,0.1,1.8c5.9,3.9,1.7,6.8-1.1,9.5
				c-4.8,4.5-9.4,9.7-15,13c-6.3,3.7-13.6,5.7-20.5,8.4c-0.4-0.5-0.8-1.1-1.2-1.6c1.1-1.2,2-3.3,3.2-3.4c4.7-0.5,6.9-3.8,9.7-6.8
				c1.5-1.7,3.9-2.6,5.5-4.2c2.2-2.4,7.3-2.9,6-8.1c-0.2-0.6,1.6-1.8,2.6-2.5C283.1,119.8,284.6,119.3,286.2,118.5z M270,107.8
				c0.8,0.7,2.2,0.6,3.3,0.9c1.9,0.5,5,0.4,5.5,1.6c1.5,3.1,3.2,6.6-1.5,9.4c-1.7,1-1.7,4.4-3.3,5.7c-4.1,3.4-8.3,6.8-12.9,9.4
				c-4.7,2.6-8.7,5.3-9.9,10.9c-0.3,1.4-1,2.9-2.1,3.9c-13.2,12.1-28.3,19.2-46.6,16.6c-1.3-0.2-3.2-2.4-3.3-3.8
				c-0.2-1.7,0.6-4.4,1.9-5.2c5.6-3.7,11.6-6.9,17.8-10.4c-3.8-7.5-3-8.9,3.8-12.6c8.4-4.6,17.3-8.9,24.4-15.2
				c4.6-4,9.5-7.2,14.4-10.6C264,106.4,266.9,105.3,270,107.8z M257.2,106.3c-3.8,2.6-6.3,4.3-10,6.7c-0.2-4.3-0.3-7.1-0.5-11.1
				C250.3,103.5,253,104.6,257.2,106.3z M225,107.6c0.5-0.6,1.2-1.2,2-1.4c5.1-1.4,10.1-2.9,15.2-4c1-0.2,3.3,1,3.3,1.4
				c-0.2,3.3,0.2,7.4-1.6,9.7c-2.8,3.8-7.8,6-12.2,2.8c-3.7-2.7-6.7-2.8-10.4-0.7c-0.8,0.4-2,0-3.1-0.1
				C220.8,112.4,222.9,110,225,107.6z M221.9,121.8c-2.5,1.6-4.9,3.5-7.5,4.7c-0.8,0.4-2.9-0.5-3.4-1.3c-0.8-1.5-1.4-3.7-1-5.2
				c0.2-0.8,3-1.4,4.5-1.1C216.7,119.2,218.7,120.4,221.9,121.8z M210.4,98.8c0.9,4.9-0.9,6.8-7,8
				C202.8,101.5,207.4,101.2,210.4,98.8z M213.7,108.3c0.7,0.2,1.5,1.4,1.5,2.1c-0.1,1-0.8,2.4-1.6,2.6c-3.7,1.1-7.5,1.8-11.4,2.7
				C203.2,110.6,209.4,106.9,213.7,108.3z M193.2,121.5c-0.3-0.3-0.6-0.6-0.9-0.9c2-2.4,3.9-4.7,6.7-8.1
				C199.8,118.9,196.5,120.2,193.2,121.5z M190,99.4c0.6-0.2,1.2-0.4,1.8-0.7c2,2.3,4,4.6,6,6.8c-2.7,1.9-5.5,3.7-8.2,5.6
				c-0.6-0.4-1.3-0.9-1.9-1.3C188.5,106.4,189.2,102.9,190,99.4z M188.8,149.4c0,2.5-2.7,5.9-4.9,6.5c-1.5-7.3-2.8-14.3-4.5-22.6
				C187,137.4,188.7,143,188.8,149.4z M172.6,98.6c3.6,1.1,6.9,2.7,10.4,4.1c0.1,0.7,0.3,1.3,0.4,2c-2.3,1.9-4.6,3.9-6.9,5.8
				c-2.3-3-4.6-5.9-6.6-9.1C169.7,101.2,172,98.5,172.6,98.6z M176.9,123c0,6.5-1.7,7.8-9.4,6.5C171,127.1,173.6,125.3,176.9,123z
				 M163.3,127.5c-0.5-6.3,5.6-11.2,11.3-9.4c0.5,0.2,1.3,0.9,1.2,1.3c0,0.7-0.4,1.8-1,2.1C171.2,123.5,167.4,125.4,163.3,127.5z
				 M160.1,110.7c0.6-2.1,2-4,3.2-6.4c2.3,3,5,6.4,8.1,10.4c-3,0.7-5.1,1.4-7.4,1.6c-1.2,0.1-3.2-0.3-3.6-1.1
				C159.8,114,159.7,112.1,160.1,110.7z M161.6,133.1c-3.4,3.8-6.9,7.6-10.4,11.4c-5.1-6-4.2-9,2.2-10.4c2.5-0.6,5.1-1.3,7.6-1.9
				C161.2,132.5,161.4,132.8,161.6,133.1z M152.6,102.2c1.7-1.7,3.1-3.2,4.3-4.4c0.9,2.3,1.3,3.9,2.1,5.4c1.9,3.8,0,7-5.4,8.7
				c1.3,2.2,3.4,4.3,3.6,6.6c0.2,1.9-2,4-3.1,6c-1.2-1.4-2.9-2.7-3.3-4.4c-1.4-6-2.4-12.1-3.7-19.1
				C150.1,101.7,151.5,102,152.6,102.2z M145.5,107.8c0.3,4,0.6,8.1,1,13.6c-2.3-1.5-4-2.7-5.2-3.5c1-4.4,1.7-7.4,2.5-10.4
				C144.4,107.6,145,107.7,145.5,107.8z M135.1,99.6c0.1-0.5,4.5-0.8,5.3,0.1c1.4,1.7,2.2,4.5,2.1,6.7c-0.1,1.7-2,3.3-3.4,5.5
				c-1.7-0.9-4.9-1.6-5-2.8C133.6,106.1,134.2,102.7,135.1,99.6z M133.2,113.2c1.2,0.3,2.4,1.1,3.2,2c2.4,2.5,4.3,5.6,7,7.7
				c4.5,3.4,5,6-0.3,8.1c-5.3,2.1-7.9,4.9-6.7,10.8c-7-2.6-8.5-5.2-6.8-10.4c-4.1-4.4-8.3-8.6-12.2-13c-1.1-1.3-1.7-3.2-2-5
				c-0.6-3,1.2-3.9,3.8-3.4C123.9,111,128.6,112,133.2,113.2z M109,142.5c-1.5-1.3-2-4.8-1.6-7c1.1-5.8,0.5-11.1-2.6-16.2
				c-3.5-5.8-2.7-8.2,3.1-11.7c1.4-0.9,3-1.4,4.4-2.3c2.8-1.9,4-0.5,5.2,2.3c-1.6,0.6-2.9,1.1-4.3,1.7c-0.2,5.6,1.4,10.2,6,13.9
				c3.5,2.9,6.5,5.7,6.5,11.4c0,2.8,4.6,6,7.6,8.5c6.5,5.5,13.5,10.3,12,20.7c-0.8,5.4,0.4,11.2,0.6,16.8c0.1,1.5-0.4,3.1-0.6,4.7
				c-10-10.3-21-18-32.9-24.3c-3.2-1.7-3.7-3.7-1.7-6.8C113.4,150,113.3,146.2,109,142.5z M98.3,143.4c0.8-2.9-1.9-5.4-5.6-4.9
				c-8.5,1.1-8.8,1-12.9-6.5c-0.5-0.9-0.7-2-1.5-2.6c-7.2-5.2-4-11.4-2-17.6c0.3-0.8,0.4-1.6,0.5-2.4c0-0.3-0.3-0.6-0.6-1.1
				c-1.4,0.6-2.8,1.2-4.6,2c-1-1.2-2.1-2.4-2.8-3.3c4.7-1.4,9.2-3.4,13.9-3.8c2.9-0.2,6,2.5,9.1,2.9c4.2,0.6,4.7,3,5.2,6.5
				c0.4,2.5,2,4.8,3.4,7c3.2,4.9,3.4,10,1.6,15.3c-1.4,4.4-0.3,8.2,2.6,11.5c2.5,2.7,2,5-1,7.4C100.5,151,96.7,149.2,98.3,143.4z
				 M100.8,169.9c-4.4-2.2-5.2-4.9-2.7-9C102.2,163.2,102.1,166.1,100.8,169.9z M-3.6,153.5c1.8,0.8,3.8,1.3,5.4,2.5
				c0.8,0.6,0.8,2.3,1.2,3.5c-1.5,0.1-3.5,0.8-4.3,0.2c-1.5-1.2-2.2-3.3-3.2-5C-4.2,154.3-3.9,153.9-3.6,153.5z M-7.6,134.5
				c0.8,1.9,1.6,3.7,2.5,5.8c4.4-0.3,6.1,1.4,6.4,7C-8.5,146.5-9.5,145.3-7.6,134.5z M-4.5,131.9c0.9-0.4,2.2-1,3.7-1.6v-3.5
				c1.9,0.3,3.6,0.4,5.3,0.7c1,0.2,2.4,0.2,2.8,0.7c5.3,8.4,15.5,8.5,22.8,13.5c4.6,3.1,10.1,4.8,15.2,7.2c1,0.5,3,1.3,2.9,1.6
				c-1.2,6.3,5.8,8.2,7.1,12.8c-6.7-2.4-14-3.5-19.4-7.3c-6-4.2-12.6-2.3-18.6-4.5c-5.6-2-11.1-3-13.7-9.7
				C2.1,138.3-1.5,135.5-4.5,131.9z M53.4,154.9c-0.7-1.4-0.6-3.5-0.3-5.2c0.4-2.7,0.9-5.6,2.2-8.1c0.8-1.6,3-2.5,4.5-3.7
				c1,1.5,3,3.3,2.7,4.5c-1.2,4.8,0.5,7.7,4.3,10.5c2.1,1.5,3.3,4.3,4.2,5.5c6.9,2.8,12.6,5.1,18.3,7.6c0.9,0.4,2.1,2.4,1.8,2.9
				c-3.2,5.6-0.1,8,4.8,10.6c-1.1,0.1-2.2,0.7-3.2,0.4c-9.3-3.1-18.6-6.3-27.8-9.7c-1.6-0.6-3.1-2-4.1-3.4
				C58.1,163.1,55.6,159,53.4,154.9z M86.7,155.2c2.3,1.3,3.6,4.4,5.7,7.2c-10.8,0.1-25.2-9.8-26.7-17.8
				C73,148.1,80.1,151.3,86.7,155.2z M70.6,133.8c0.8-0.8,1.3-1.9,1.5-2.3c6.4,6.6,12.1,12.6,17.9,18.6c-0.1,0.3-0.2,0.5-0.3,0.8
				c-2.6-1.1-5.3-2.2-7.8-3.5c-3.6-1.8-7.2-3.5-10.5-5.7C66.9,138.9,67,137.8,70.6,133.8z M120.2,99.4c5.9-6.3,5.9-6.3,12.1-4.6
				c0,3.6,0.1,6.7,0,9.7c0,0.9-0.6,2.5-1,2.5c-3.4,0.4-7.1,1.4-10.1,0.4C117.3,106.1,117.2,102.6,120.2,99.4z M117.6,95.9
				c-0.7,1.5-1.5,3.1-2.7,5.7c-1.5-2.7-2.3-4.1-3.9-6.9C114.1,95.3,115.9,95.6,117.6,95.9z M97.7,95.3c9.1-1.4,10-0.7,14.3,7.2
				c-3.1,1.7-6.2,3.3-8.1,4.3c-4.6-2.1-8.1-3.7-12.9-5.9C93.6,98.7,95.4,95.7,97.7,95.3z M92.3,96.8c-3.8,3.3-6.5,4.4-9.9,0H92.3z
				 M80.8,102.4c-5,0.3-9.3,0.5-14.8,0.8C70.3,96.6,77,96.3,80.8,102.4z M55.4,97.1c1.9,7.7,5.8,13.6,12.9,17c3.9,1.9,2.2,4.4,1,8.1
				c-2.6-3.7-7.7-4.1-7.4-9.5c0-0.5-0.9-1.4-1.6-1.7C54.2,108,54.2,103,55.4,97.1z M47.9,96.4c1.1,1.5,2.7,2.9,3,4.5
				c0.3,2,1.8,5.1-1.9,6c-0.8-3.2-1.6-6.5-2.5-9.7C47,97,47.5,96.7,47.9,96.4z M49,107.1c6,6.5,11.9,12.9,18.1,19.6
				c-9.2,3.5-20.9-3.2-21.8-12C44.9,111.8,44.9,108.2,49,107.1z M24.7,103c2.6-1.3,5.4-3.1,8-2.9c2.9,0.2,5.7,2.2,8.3,3.8
				c0.7,0.5,0.9,2.4,0.8,3.6c-0.2,2.5-1.1,4.9-1,7.4c0.1,2.2,1,4.3,1.7,6.8c-4.8-0.6-9.4-1.1-13.9-1.8c-1-0.2-2.3-1.1-2.6-1.9
				c-1.1-3.9-2.1-7.9-2.8-11.9C23.1,105,23.9,103.4,24.7,103z M23.1,123.8c1.6,0.1,3.3,0.1,4.8-0.3c10-2.4,18.3,0.7,25.5,7.7
				c2.5,2.5,3.4,4.7-0.1,7.3c-1.4,1-2.2,3.3-2.5,5.1c-0.4,3.2-1.7,4.1-4.6,2.8c-8.2-3.6-16.6-6.7-24.4-10.9
				c-7.9-4.2-8.1-5.2-11.7-15.2c2.9,1.6,4.5,2.5,6.2,3.5c0-0.3,0-0.5,0-0.8C18.6,123.2,20.8,123.6,23.1,123.8z M19.2,115
				c-2.3-0.6-4.5-0.7-6.2-1.7c-1-0.6-1.7-2.6-1.6-4c0-0.6,2.1-1.3,3.3-1.7c1.7-0.6,3.4-1,6-1.7C20.2,108.8,19.7,111.6,19.2,115z
				 M-10.9,101.2c3.4-1.6,6.9-2.9,10.4-4.2c0.3-0.1,0.8-0.2,1-0.1c5.4,4.8,11,0.6,16.6,0.5c0.3,0,0.6,0.3,1.4,0.6
				c-0.1,1.4-0.1,2.7-0.3,4c-0.3,1.3-0.9,2.6-1.4,3.9c-1.1-0.5-2.4-0.8-3.3-1.6c-3.5-3.3-7.5-2.4-11.5-1.7c-4,0.7-8,1.9-12,2.6
				c-0.8,0.2-1.9-0.8-2.8-1.2C-12.2,103-11.8,101.7-10.9,101.2z M-12,134.8c0.8,1.1-0.4,3.6-0.7,5.5c-2.2-1.3-4.3-2.6-6.9-4.2
				C-16.3,132.1-13.6,132.6-12,134.8z M-67.1,120.5c1.9,0.6,3.7,1.3,6.9,2.3c0.6,0.1,2.3,0.2,3.9,0.4c0.9,0.1,2.1,0.8,2.6,0.5
				c4.8-3.1,7.6-0.6,10,4c4.7-4,9.5-3.2,13.7,0c1.1,0.8,1.6,4.8,1,5.2c-3.4,2.2-7.2,3.7-11.1,5.3c2.5-0.5,4.8,1.1,8.1,0.2
				c2.7-0.7,7.8-2.5,8,4c0,1.1,1.8,2.1,3.1,3.6c-5.2,0-9.9,0.6-14.3-0.1c-8.2-1.3-17.1-1-23.3-8.2c-3.3-3.8-6.8-7.5-9.7-11.6
				C-69,125.1-67.5,122.5-67.1,120.5z M52,188.9C37.1,183.6,22.4,178,7.4,173c-8.6-2.9-17.8-4.3-26.4-7.1c-9-2.9-18.6-4.3-26.3-11.1
				c-7-6.1-15.1-10.8-22.6-16.2c-1.1-0.8-1.7-2.5-2.5-3.8c0.4-0.4,0.8-0.8,1.2-1.2c1.2,0.7,2.6,1.1,3.5,2.1
				c6.5,7.6,15.1,11.1,24.7,12.5c8.9,1.2,17.9,2.3,26.8,3.4c4.8,0.6,7.6,3.7,9.8,7.3c2.5,4,5.5,4.9,8.7,1.6c2.7-2.7,4.9-2.4,8-1
				c3,1.3,6.4,1.5,9.5,2.6c2.3,0.9,5.7,2.3,6.2,4.1c1.7,6.9,7.9,9,12.5,12.6c2.5,2,5.9,3,9.1,3.8c5,1.2,8.5,4.1,12.3,9.1
				C57.8,190.5,54.8,189.9,52,188.9z M64.4,189.4c-5.1-6-11.3-9.3-18.8-11.6c-4.7-1.5-8.8-5-13-7.9c-1-0.7-1.3-2.4-2-3.9
				c12.1-1.7,43.5,13.7,42.9,29.8C69.9,193.3,66.6,191.9,64.4,189.4z M131.4,254c-5.6-6.5-11-13.2-16.7-19.7
				c-4.2-4.7-8.7-9.1-13-13.7c-11-11.6-21.3-23.7-28.7-38c-0.3-0.6-0.4-1.4-0.8-2.8c2.3,0.5,4.1,0.6,5.7,1.2
				c8.1,2.8,16.9,4.7,24.1,9c5.3,3.2,9.1,9.3,12.8,14.7c3.2,4.5,6,9.5,5.1,15.7c-0.2,1.5,1.4,3.3,2.1,5c4.1,9.9,8.3,19.8,12.7,30.4
				C133.2,255,132.1,254.8,131.4,254z M149.7,257.8c-0.5,0.2-0.9,0.5-1.4,0.7c-1.7-2.6-3.8-5-5-7.8c-4.4-10.5-8.2-21.4-12.9-31.8
				c-5.3-11.7-11.5-23.1-17.2-34.7c-2.6-5.2-4.9-10.6-7.3-15.8c0.7-0.4,1.4-0.9,2-1.3c11.8,5.4,22.6,12.4,30.6,22.9
				c1.8,2.4,4.5,6.1-1.6,7.3c0.3,0.5,0.3,1,0.6,1.1c8.1,3.7,10,10.7,10.3,18.8c0.5,12.5,1.5,24.9,2.2,37.3
				C150.1,255.6,149.8,256.7,149.7,257.8z M158.5,184.2c0,1.7-0.9,3.4-1.3,5.1c-0.6-0.1-1.3-0.3-1.9-0.4c0.4-3.4,0.9-6.9,1.4-11.1
				c-3.1-2.3-2.5-6.5-1.7-10.5c0.9-4.4,0.2-8-3-11.5c-3.5-3.8-2.4-7.9,2.1-10.7c0.7-0.4,1.5-1,1.7-1.7c3.2-8.2,10.3-10,18.4-11.3
				c0.8,6,1.7,11.9,2.5,17.9c0.2,1.2,0.1,2.5,0.3,3.8c0.7,4.4,0.8,7.4-4.3,10.4C165.5,168.4,158.4,174,158.5,184.2z M178,168.5
				c-1.1,11.8-9.8,19.1-15.9,27.7C166.1,186.4,163.5,173,178,168.5z M163.6,255.2c-1.2-15.8-5.6-32,0.9-47
				c5.8-13.4,13.7-26.1,24.5-36.3l2.7,1.6c-1.7,3.4-2.8,7.2-5.1,10.2c-2.1,2.8-2.2,5.1-1.4,8.2c0.9,4.1,1,8.4,1.4,12.6
				c-0.6,0.1-1.2,0.2-1.8,0.2c-0.5-1.9-1-3.8-1.5-5.7l-0.7,0c-0.1,0.6-0.4,1.2-0.3,1.7c1.5,10.8-1.7,20.4-7,29.9
				c-3.8,6.7-6.1,14.3-9.2,21.5C165.6,253.3,164.8,254.3,163.6,255.2z M210.5,249.4c-1.3,7.4-2.3,14.8-4.4,21.9c-1,3.3-4,6.8-7,8.3
				c-5.6,2.9-8.1,7.9-11.6,12.4c-1.6,2.1-2.5,4.8-4.3,6.6c-1.6,1.5-4.1,3-6.1,2.8c-1.8-0.2-4.4-2.5-4.7-4.2
				c-1.1-6.6-2.5-13.5-1.7-20.1c1.6-13.6,5.7-26.9,13.2-38.4c5-7.7,12.3-13.9,18.7-20.5c2.7-2.8,5.9-5,8.8-7.5
				c0.5,0.3,1,0.6,1.5,0.8c-0.9,7.6-1.9,15.3-3,24.4C212.7,238.9,211.3,244.2,210.5,249.4z M296.8,207.5c3.8-8.4,11.1-9.6,18.9-10.4
				C314.4,202.3,305.7,207,296.8,207.5z M317.2,187.9c-0.8,4.1-2.9,6-6.9,6.6c-6.1,0.9-11.1,4-14.7,9.1c-0.7,1-1.7,1.8-3.1,3.4
				c-0.6-6.4-1.1-11.9-1.5-17.3c-0.3,0-0.6,0-0.9,0c0.2,2.7,0.2,5.5,0.6,8.1c1.2,7.8-1.6,15-8.3,18.6c-8.3,4.4-14.8,10.5-21,17.4
				c-7.8,8.6-16.6,16.2-25.2,23.9c-2.7,2.4-6.2,4.1-9.6,5.3c-3.7,1.4-7.7,1.9-12.1,2.9c-0.1-8.8,2.2-16.2,6-23.3
				c3.6-6.7,6.4-14,10.8-20.1c5.7-8.1,8.5-17,10.9-26.3c1.3-5,4.6-7.1,10-7c2.5,0,4.9-2.2,7.5-3.2c2-0.7,4.1-1,7-1.6
				c-0.1-5.7,6-7.6,10.6-10.8c5.7-3.9,11.4-7.8,17.1-11.7c7.6-5.1,15.1-10.1,24.8-10c7.9,0.1,14.1-3.9,20-8.7
				c3.4-2.7,7.7-4.3,11.4-6.6c1.9-1.1,3.4-2.8,5.1-4.2c1.1-0.9,2.3-2,3.6-2.1c0.7-0.1,1.8,1.6,2.3,2.7c2.6,5.6,3.1,11.1-0.4,16.6
				c-2.2,3.5-4,7.3-6.5,10.6c-1.1,1.5-3.6,2.9-5.3,2.7c-7.8-0.7-13.1,3.5-18.3,8.3c-0.8,0.8-1.6,2.2-2.5,2.3
				C319.7,174.6,318.5,181.3,317.2,187.9z M355.7,161.9c1.9-3.2,3.4-5.6,5.5-9C364,160,363.4,161,355.7,161.9z M345.7,169.1
				c-2.6,1.3-5.2,2.7-7.8,4c-0.4-0.6-0.7-1.3-1.1-1.9c2.5-1.5,5-3,7.5-4.5C344.8,167.5,345.3,168.3,345.7,169.1z M323.3,199.7
				c-0.2-3.5-0.4-5.6-0.5-7.8c-0.3-8-0.2-7.8,7.2-11.3c5.6-2.7,10.9-6,16.5-8.8c1.8-0.9,4.1-1.3,6.1-1.3c5,0.1,10,0.6,15.4,1
				c0.3,4.1-1.7,7.8-6.6,10.3c-9.1,4.6-18,9.6-27.2,14.2C331.1,197.6,327.5,198.4,323.3,199.7z M438.4,142.4
				c-4.8,9.7-11.8,17.6-19.9,24.6c-10.3,8.9-22.1,15.1-35.2,18c-12.3,2.7-23.6,7.8-35,12.5c-0.8,0.3-1.8,0.2-3.8,0.5
				c6.7-4.4,12.4-8.3,18.3-12c4.4-2.8,8.6-5.5,10.4-10.9c0.9-2.6,2.8-4.9,4.6-7c2.5-3,4.7-5.9,3.3-10.3c-0.3-1,0.7-3.1,1.8-3.7
				c5.9-3.4,7.5-9,8.4-15.1c0.4-2.3,1-4.5,1.7-7.8c6.6,1.1,12.8,2.5,19.1,2.9c4.3,0.3,8.6,1.6,13.3,0c3.3-1.1,7.3-0.7,10.9-0.2
				C439,134.3,440.2,138.9,438.4,142.4z M441.8,128.1c0.8-5.5,1.5-11,2.3-16.7h11.1c-4.6,6.6-8.4,12-12.1,17.4L441.8,128.1z
				 M454.8,131.3c-1.7,1.7-4.9,2.1-7.5,2.8c-0.3,0.1-2-2.3-1.7-2.7c3.5-5.2,7.3-10.3,11-15.4c0.1-0.2,0.6-0.1,1.9-0.3
				C458.5,121.5,458.8,127.1,454.8,131.3z"/>
			<path class="st1" d="M146.9,323.7c0.6-0.5,1.3-0.9,1.9-1.4c-0.5-0.7-1.1-1.4-1.6-2.1c-0.9,0.6-1.7,1.2-2.6,1.8
				C145.4,322.6,146.1,323.2,146.9,323.7z"/>
		</g>
	</g>
</g>
<g id="HMjUHO_1_">
	<g>
		<g>
			<path class="st1" d="M1870.5,169.5c3.4-2.2,6.5-4.1,9.6-6.2c-3.1-6.6-8.4-9.6-16.8-9.6c-6.4,0-12.8-0.4-19.8-0.7
				c0.5-2.1,1.2-4,0.9-4.2c-8.1-4-10.1-17.1-24.1-12.5c-1.1,0.4-2.8-0.3-4.2-0.7c-10.6-2.6-21.2-5.5-31.9-7.9
				c-4.6-1-7.1-2.2-5.9-7.1c0.8-3.6-0.7-6.8-6.7-6.4c-5.7,0.4-11.4,0.1-17.2-0.1c-11-0.4-21.9-3.8-33.2-1.2
				c-1.3,0.3-3.2-1.3-4.7-2.1c-1.4-0.8-2.3-2.3-3.8-2.8c-5.6-1.8-11.3-3.3-17-4.9c0.4-0.8,0.8-1.8,0.8-1.8c-3.1,0.6-6.3,1.8-9.5,1.6
				c-5.8-0.4-11.6-2.1-17.4-2.3c-8.8-0.2-17.7,0.3-26.5,0.8c-10.8,0.6-21.5,1.4-32.2,2.4c-8.3,0.8-16.5,2.2-24.8,2.8
				c-2.8,0.2-7.2-0.4-8.3-1.9c-3.8-5.5-8.9-2.5-13.2-2.1c-6.7,0.7-13.2,3.3-19.9,3.7c-5.7,0.4-10.8,1.1-15.7,3.9
				c-1.4,0.8-3.7,0.9-5.4,0.7c-14.1-1.4-25.9,5-38.2,9.1c-6.8,2.2-12.1,7.6-19.7,9c-1.7,0.3-3,1.9-4.7,2.7
				c-6.4,3.1-12.8,6.2-20.6,4.7c-3.6-0.7-7.3-1.4-10.9-1.3c-6.5,0.2-13,1-20.4,1.7c-7.8,10.3-24.8,9.6-35.4,18.2
				c1,1.3,2.1,2.5,2.8,3.8c1.1,2.2-0.7,6.4,5.7,3.2c3.7-1.8,9.6-0.3,12.6-0.3c-1,0.7-3.3,2.2-5.7,3.7c0.7,0.7,1.5,1.4,2.2,2.1
				c2.4-0.3,4.8-0.6,7.7-1c-1.6,2.4-2.6,4.3-4.1,5.8c-1.8,1.7-4.1,3-6,4.3c6.3-0.4,12.9-1.1,19.5-1.2c7.5-0.1,12.3-4.1,16.9-8.2
				c3.8,10.1,8.4-1.3,12,1.4c0.8,4.7,4,7.5,9.9,7.4c3.4,0,6.9-0.3,10.3-0.2c4,0.1,8,0.5,13.8,0.9c2.3-2.7,7.1-4.9,11.3-2.9
				c6.6-2.6,11.7-4.6,16.7-6.5c3,4.1,2.3,5.3-2.6,6.4c-4.6,1-8.5,4-12.8,6.1c0.2,0.2,0.4,0.5,0.6,0.7c3-1,6.1-2,10.5-3.5
				c-1.4,3-2.1,4.4-2.8,5.9c2,0.2,4,0.4,5.3,0.6c0.7,2.4,1.3,4.1,2.3,7.4c3.5-7.5,6.2-13.3,9.5-20.3c6.8,3.2,13.2,6.1,19.4,9.1
				c5.4,2.6,10.4,5.9,16.1,8c7.1,2.6,14.8,4.1,22,6.4c11.2,3.6,22.5,7.3,33.5,11.4c3.4,1.3,6.6,3.6,9.1,6
				c7.5,7.3,14.1,15.5,22.2,22.2c5.3,4.4,6.7,9.1,4,13.7c-2.9,5.1-0.3,8.3,1.7,12.3c3.4,6.8,6.4,13.7,9.9,21.5
				c-5.4-0.5-9.2-0.9-15-1.5c5.3,5.9,10.5,8,17.3,8.5c9.4,0.7,18.2,3.1,25.2,8.9c1.4,1.1,2.6,3,2.7,4.6c0.2,2.6-0.6,5.2-1,7.9
				c-0.8-0.5-1.8-1.2-2.8-1.9c-3.8,4.6-9.3,4.1-14.5,4c0,0,0,0,0,0.1c0,0.4,0,0.7-0.1,1.1c3,0.1,5.6,1,6.3,5.1
				c0.1,0.8,2.1,1.9,3.4,2c10.9,1.4,10.8,8.4,10.8,15.3c-2.1,1-3.9,2.1-5.9,2.8c0.2,0.4,0.4,0.7,0.6,1.1c0.8,1.8,2.3,5.8,2.6,6.5
				c0.8,1.7,1.2,3.4,1.3,5.1c3.3-1.2,6.6-2.4,10.5-3.7c0.2,0.1,2,1,3.7,0.8c5.8-0.5,11.2-0.8,16,3.1c1.2,0.9,4.9-0.5,7.5-0.9
				c0-0.5-0.1-1-0.1-1.4c2,0.9,4,1.8,4.2,1.9c6.5-4.2,8.9-8.8,1.9-13.3c-0.5,0.7-1.1,1.3-1.6,2c-0.5-4.2-0.7-8.3,1.1-11.5
				c1.8-3.3,1.8-5.2-1.5-7.3c-3.1-1.9-6.4-3.7-9-6.1c-2.8-2.6-6.3-5.6-7-8.8c-1.1-5-4.7-7.6-8.9-9.7c-5.8-3-12.1-5.2-18.2-7.8
				c5.7,1.1,8.7-0.8,8.7-7.7c4.7,6.2,8.1,10.8,12.4,16.5c5.3-14.7-1.2-27.4-14.3-33.5c1.8-2.1,3.7-4.3,5.6-6.5
				c-12.8-2.4-20.8-9.9-25.6-19.7c-2.8-5.8,5.3-8.4,7.8-12.8c1.3-2.4,3.4-4.4,5.1-6.6c-0.6-0.5-1.2-1-1.8-1.4
				c-3.2,2.1-6.4,4.3-9.8,6.6c-1.5-11.8,9.4-22.8,19.6-28.8c9-5.3,12.5,4.8,20.1-0.8c1.4-4.7,8.4,0.2,13-1.3c2.6-0.8,5.4-1,8-2.3
				c8.6,0.4,12.3,6.9,17.1,12c1,1.1-0.3,4.6-1.7,6.4c-1.5,1.9-4.3,3-6.5,4.5c-5.1,3.2-9.9,7.4-15.4,4.2c-0.2,2.5,0.6,5.8-0.9,7.4
				c-5.8,6.4-11.9,12.8-18.8,18.3c-8,6.3-8.6,6.6-2.9,16c-3-0.5-5.2-0.8-7.4-1.1c1.4,1.6,2.8,3.2,4.1,4.7
				c14.2-7.3,25.6-15.6,33.5-27.1c6.6-9.6,15.5-16,28.5-17.7c2.2-0.3,4.2-1.4,6.3-2.1c-0.1-0.5-0.2-0.9-0.3-1.4
				c-2.1-0.4-4.2-0.9-6.8-1.4c0.7-2.8,1.2-7.2,2-7.2c7.4-0.6,5.5-6.4,7.1-8.1c-1.5-3.7-4.1-6.8-3.3-8.7c1.9-4.3,6.1-2.2,9.8-1.1
				c1.5,0.4,3.3,0.1,4.9,0.1c-2.7-2.3-5-4.2-7.8-6.6c11.7-1.2,21.8-1.3,31.4,2.4c-0.9,1.8-1.5,3-1.5,2.9c10.7,1,21.3,2,33.7,3.1
				c-0.9-4-1.9-8.1-3.3-14.1c5.9,2.2,10.6,3.9,15.3,5.7c1.3,0.5,2.7,2,3.7,1.8c6.4-1.2,12.8-2.8,18.8-4.2c1.5-6.1-14.2-5.3-6.5-13.5
				C1863.1,166.4,1867.2,168.1,1870.5,169.5z M1563,186.2c-11.9-4.5-23.7-9.2-35.6-13.9c-1.3-0.5-2.8-0.9-3.7-1.8
				c-1.4-1.3-2.3-3-3.4-4.6c1.9-0.6,3.7-1.5,5.6-1.6c3.6-0.2,7.3,0.2,11,0.4c-0.3,0.6-0.9,1.6-1.2,2.1c7.1-1.2,14.6-2.4,22.1-3.6
				c0.3,0.6,0.6,1.1,0.8,1.7c-2.7,1.4-5.4,2.7-8.5,4.3c1.4,0.9,3,2,4.5,3c3.1-1,6.9-2.2,9.8-3.1c3.3,6.6,6.5,12.8,10.3,20.2
				C1570.3,188.1,1566.5,187.5,1563,186.2z M1649.6,180c1.9,1.3,2.4,4.2,3.5,6.4c-2,0.5-4.3,1.9-5.9,1.4c-4.9-1.5-9.5-3.7-14.6-5.7
				C1638,177,1643.8,175.9,1649.6,180z M1634.9,225c-5.2-6.2-9.5-11.4-14.2-16.9C1629.7,208.3,1635.8,215.2,1634.9,225z
				 M1638.8,201.6c-1,0.9-3.9,1.1-5.6,0.7c-6-1.6-11.8-3.7-17.9-5.7c1.4-2.1,2.8-4.2,4.4-6.6c0.8,1.3,1.4,2.4,2.8,4.7v-7.9
				c4.3,1.6,10.5-1.6,11.4,5.3c0.1,0.4,2.5,0.9,3.8,0.8c2.7-0.3,5.3-0.9,8-1.4c0.2,0.5,0.3,1,0.5,1.6
				C1643.9,195.9,1641.7,199,1638.8,201.6z M1648,217.2c-3.8-6.5-2.2-11.1,5.8-17.1c2.4,3.9,1.9,16.4-0.9,18.4
				C1652.1,219.1,1648.5,218.2,1648,217.2z M1676.7,277.2c-2.9,3.1-4.6,4.9-5.9,6.3c-4.5-2.9-9-5.7-13.4-8.5l0.7-1.1
				c1.5,0.1,3,0.2,5.8,0.4c-9.9-8-15.1-16.9-11.9-28.7C1660.3,256.2,1668.5,266.7,1676.7,277.2z"/>
		</g>
	</g>
</g>
<g id="PgDVas_3_">
	<g>
		<path class="st2" d="M1355.9,330.7c-1.9-0.1-3.7-0.5-5.6-0.8c0.8-1.6,1.7-3.2,2.5-4.8c0.1-0.2-0.1-0.6-0.2-1.4h-17.4
			c2.7,2,4.9,3.6,7.1,5.4c-3.3,2.1-5.2-0.1-7.1-2.5c-2.2-2.9-5-4.9-7.9-2.3c-2.5,2.1-4.3,1.7-6.6,0.2c-0.8-0.5-1.9-1.1-2.8-1.1
			c-6.9,0.2-13.8,0.7-20.7,0.8c-11.3,0.1-22.6,0.1-33.9,0c-1.5,0-3.2-0.9-4.5-1.9c-3-2.4-8.4-2.4-11.5-0.7c-3,1.6-6.4,2.1-9.6,2.9
			c-2,0.5-4.7,0.1-6.1,1.4c-5.9,5.9-5.8,6.1-13,1.3c2.8-0.4,5.5-0.8,8.3-1.2c-2-1.5-4.8-1.1-5.8-2.4c-3.6-4.7-6.6-2-9.7,0.3
			c-3.5,2.7-8.5,2.1-12-1c-1.3-1.1-4.2-1.2-5.6-0.2c-2.3,1.5-3.9,2.9-6.9,1.8c-1.6-0.6-3.9,1.2-5.8,1.7c-1.6,0.5-4.3,1.6-4.6,1
			c-2.5-4.2-4.7-2.1-7.3,0.5c-2.5-3.3-3.7-8.8-9.1-7c-0.4,2-0.8,4.1-1.2,6.5c-2.8-1-5.2-2.4-7.7-2.5c-8.2-0.3-16.4-0.4-24.6-0.1
			c-3.6,0.1-7.2,1.7-10.7,1.6c-4.7-0.2-9.3-1.7-14-2c-2.5-0.1-5,1.3-7.4,2c0.8,4,1.4,6.9,2.2,10.6c-4.5-0.5-8.3-0.9-12.1-1.4
			l0.1-1.3c5.4,0.1,7.3-2.1,7.8-9.2c-2.9,0-5.7,0-8.6,0c-6,0.1-12.1,0-18.1,0.3c-2.9,0.1-5.8,1-9.2,1.6c-9.2,0.4-18.8-2.7-29.1-0.8
			c-10,1.8-20.5,0-31-0.3c0.2-1.8,0.2-2.6,0.4-3.4c0.2-0.5,0.4-1,0.6-1.6c-0.3,0-0.6,0.1-0.9,0.1c-1.3,0.4-2.6,0.6-3.9,0.8
			c-1.4,0.2-2.8,0.3-4.3,0.4c-1.1,0.1-2.1,0.3-3.2,0.4c-4.3,0.5-8.5,0.7-12.8,0.3c-0.4,0-0.8-0.1-1.2-0.2c-0.6,0-1.3,0-1.9,0
			c0.4,2.6,0.9,5.3,1.3,7.9c0.1,0.9,0.1,2-0.2,2.8c-0.5,1.1-1.3,2-2,3c1.2,0.1,2.5,0.3,3.9,0.4c1.1,3.5-0.1,5.1-3.3,5.2
			c-1.6,0.1-3.1,0.5-4.7,0.7c-4.8,0.7-9.6,1.4-14.4,2c-0.1-0.8-0.2-1.5-0.3-2.3c1.2-0.3,2.5-0.5,3.7-0.8c3.5-1,7.1-1.8,10.5-3.1
			c0.6-0.2,0.7-2.3,1-3.5c-1.2-0.4-2.3-0.9-3.5-1.2c-1.5-0.3-3.6,0.1-4.6-0.8c-1.8-1.8-3-4.4-4.4-6.7c-4.2,3.6-6,3.5-10,0.3
			c-4.2,0.3-7.2,0.5-10.3,0.6c-3.7,0.2-7.4,0.7-11,0.4c-5.6-0.5-11.6,1.9-16.8-2.6c-0.5-0.5-1.6-0.2-2.5-0.1
			c-4.6,0.4-9.3,1-13.9,1.1c-18.6,0.3-37.3,0.5-55.9,0.7c-2.4,0-4.8,0.7-7.2,0.6c-3.3-0.2-6.5-1.2-9.8-1.2
			c-21.8,0.2-43.6,0.7-65.5,0.7c-12,0-24-0.8-36-1c-14.9-0.2-29.8,0-44.7,0.1v74h127.7c0.5-2.7,0.9-5.3,1.5-8.3
			c3.1,1.5,3.4,4.9,3.7,8.3h173.8c-0.3-2.6-0.5-5.2-0.8-8.2c3.1,1.2,5.3,3.6,5.2,8.2h16.5c0.7-2.3,1.4-4.5,2-6.8
			c0.5-1.6,0.8-3.3,1.4-5.8c3.8,4,7.2,7.2,7.8,12.6h63.4c0.5-4.3,3.6-7.2,7.5-7c4.4,0.2,3.9,3.7,3.8,7h33c1.6-3.6,4.8-3.3,7.6-3.5
			c0.6,0,1.3,2.3,2,3.5h9.6c-1.3-3.2-2.5-6.3-3.9-9.8c2-0.5,3.5-0.9,4.5-1.2c2,2.7,3.8,5.2,5.6,7.6l1.2-0.9c0.1,1.4,0.3,2.9,0.4,4.3
			h8.7l-3.1-7.2c0.4-0.3,0.9-0.5,1.3-0.8c2.1,2.6,4.1,5.2,6.2,7.8c-0.7-3.5-1.3-6.9-2-10.4c0.5-0.1,0.9-0.2,1.4-0.4
			c1.1,3.7,2.1,7.3,3.2,11h3.5c-0.8-1.5-1.6-3-2.9-5.6c3.8,1.1,7.1,0.7,7.2,5.6h198.1v-69C1361.2,330.9,1358.5,330.9,1355.9,330.7z
			 M820.2,352.5c2.9-2.3,5.8-4.6,9.1,0.7C825.8,352.9,823,352.7,820.2,352.5z M909.2,395.7c-2.4-1.2-2.7-3.1-0.3-6.5
			c1.1,2.4,2,4.2,2.8,6C910.8,395.4,909.8,396,909.2,395.7z M940,372.4l0.1-1.6c3.1,0,6.2-0.2,9.2,0.2c0.5,0.1,0.7,3.2,1.1,5.4
			C946.3,374.9,943.1,373.6,940,372.4z M1003.7,344.9c-1.2,0.6-2.3,1.3-3.4,1.9c3.3-6.2,3.3-6.2,6.9-3.7
			C1005.9,343.8,1004.8,344.3,1003.7,344.9z M1014,336.1c-2.2-0.1-4.3-0.5-6.5-0.8c0.1-0.7,0.1-1.4,0.2-2.1c2.1-0.3,4.1-0.7,6.2-0.7
			c0.6,0,1.2,1.2,1.8,1.8C1015.1,334.9,1014.6,336.1,1014,336.1z M1077,336.9c-1,0.3-2.1,0-3,0.5c-5.4,3.1-10.2-2-15.4-1.3
			c-0.5,0.1-1.3-2.3-1.8-3.4c2.6-4.2,5.1-0.7,7.6-0.6c2.4,0,4.7-0.1,7.1-0.2c2.6,0.9,4.8,3.1,7.2-2.3c1,2.5,1.5,4.1,2.1,5.6
			C1079.5,335.9,1078.3,336.5,1077,336.9z M1099.4,396.8c-1.5-2.5-3.1-5-2-8.4c0.4-0.2,0.9-0.3,1.3-0.5c0.8,2.8,1.6,5.5,2.5,8.3
			C1100.6,396.4,1100,396.6,1099.4,396.8z M1099.7,338.1c-0.2-0.5-0.3-1.1-0.5-1.6c1.5-0.6,3-1.8,4.4-1.7c0.7,0.1,1.4,2.4,2.5,4.7
			C1103.1,338.8,1101.4,338.4,1099.7,338.1z M1129,343.6c-3.1-3,4.8-6.1-0.2-8.9c-2.1,2.2-4,4.3-6,6.3c-0.3-0.1-0.7-0.2-1-0.3
			c0.4-2.4,0.3-5.3,1.4-6.9c1.1-1.6,4.6-3.1,5.4-2.3c2.5,2.3,4.2,5.7,6.5,9.2C1132.2,342.1,1130.6,342.9,1129,343.6z"/>
		<path class="st2" d="M962.3,328.3c-1.3,1-2.5,2.2-3.9,3c-0.1,0.1-1-1.2-1.5-1.9c1.3-1.1,2.7-2.2,4-3.3
			C961.4,326.9,961.9,327.6,962.3,328.3z"/>
	</g>
	<g>
		<path class="st2" d="M1355.9,330.7c-1.9-0.1-3.7-0.5-5.6-0.8c0.8-1.6,1.7-3.2,2.5-4.8c0.1-0.2-0.1-0.6-0.2-1.4h-17.4
			c2.7,2,4.9,3.6,7.1,5.4c-3.3,2.1-5.2-0.1-7.1-2.5c-2.2-2.9-5-4.9-7.9-2.3c-2.5,2.1-4.3,1.7-6.6,0.2c-0.8-0.5-1.9-1.1-2.8-1.1
			c-6.9,0.2-13.8,0.7-20.7,0.8c-11.3,0.1-22.6,0.1-33.9,0c-1.5,0-3.2-0.9-4.5-1.9c-3-2.4-8.4-2.4-11.5-0.7c-3,1.6-6.4,2.1-9.6,2.9
			c-2,0.5-4.7,0.1-6.1,1.4c-5.9,5.9-5.8,6.1-13,1.3c2.8-0.4,5.5-0.8,8.3-1.2c-2-1.5-4.8-1.1-5.8-2.4c-3.6-4.7-6.6-2-9.7,0.3
			c-3.5,2.7-8.5,2.1-12-1c-1.3-1.1-4.2-1.2-5.6-0.2c-2.3,1.5-3.9,2.9-6.9,1.8c-1.6-0.6-3.9,1.2-5.8,1.7c-1.6,0.5-4.3,1.6-4.6,1
			c-2.5-4.2-4.7-2.1-7.3,0.5c-2.5-3.3-3.7-8.8-9.1-7c-0.4,2-0.8,4.1-1.2,6.5c-2.8-1-5.2-2.4-7.7-2.5c-8.2-0.3-16.4-0.4-24.6-0.1
			c-3.6,0.1-7.2,1.7-10.7,1.6c-4.7-0.2-9.3-1.7-14-2c-2.5-0.1-5,1.3-7.4,2c0.8,4,1.4,6.9,2.2,10.6c-4.5-0.5-8.3-0.9-12.1-1.4
			l0.1-1.3c5.4,0.1,7.3-2.1,7.8-9.2c-2.9,0-5.7,0-8.6,0c-6,0.1-12.1,0-18.1,0.3c-2.9,0.1-5.8,1-9.2,1.6c-9.2,0.4-18.8-2.7-29.1-0.8
			c-10,1.8-20.5,0-31-0.3c0.2-1.8,0.2-2.6,0.4-3.4c0.2-0.5,0.4-1,0.6-1.6c-0.3,0-0.6,0.1-0.9,0.1c-1.3,0.4-2.6,0.6-3.9,0.8
			c-1.4,0.2-2.8,0.3-4.3,0.4c-1.1,0.1-2.1,0.3-3.2,0.4c-4.3,0.5-8.5,0.7-12.8,0.3c-0.4,0-0.8-0.1-1.2-0.2c-0.6,0-1.3,0-1.9,0
			c0.4,2.6,0.9,5.3,1.3,7.9c0.1,0.9,0.1,2-0.2,2.8c-0.5,1.1-1.3,2-2,3c1.2,0.1,2.5,0.3,3.9,0.4c1.1,3.5-0.1,5.1-3.3,5.2
			c-1.6,0.1-3.1,0.5-4.7,0.7c-4.8,0.7-9.6,1.4-14.4,2c-0.1-0.8-0.2-1.5-0.3-2.3c1.2-0.3,2.5-0.5,3.7-0.8c3.5-1,7.1-1.8,10.5-3.1
			c0.6-0.2,0.7-2.3,1-3.5c-1.2-0.4-2.3-0.9-3.5-1.2c-1.5-0.3-3.6,0.1-4.6-0.8c-1.8-1.8-3-4.4-4.4-6.7c-4.2,3.6-6,3.5-10,0.3
			c-4.2,0.3-7.2,0.5-10.3,0.6c-3.7,0.2-7.4,0.7-11,0.4c-5.6-0.5-11.6,1.9-16.8-2.6c-0.5-0.5-1.6-0.2-2.5-0.1
			c-4.6,0.4-9.3,1-13.9,1.1c-18.6,0.3-37.3,0.5-55.9,0.7c-2.4,0-4.8,0.7-7.2,0.6c-3.3-0.2-6.5-1.2-9.8-1.2
			c-21.8,0.2-43.6,0.7-65.5,0.7c-12,0-24-0.8-36-1c-14.9-0.2-29.8,0-44.7,0.1v74h127.7c0.5-2.7,0.9-5.3,1.5-8.3
			c3.1,1.5,3.4,4.9,3.7,8.3h173.8c-0.3-2.6-0.5-5.2-0.8-8.2c3.1,1.2,5.3,3.6,5.2,8.2h16.5c0.7-2.3,1.4-4.5,2-6.8
			c0.5-1.6,0.8-3.3,1.4-5.8c3.8,4,7.2,7.2,7.8,12.6h63.4c0.5-4.3,3.6-7.2,7.5-7c4.4,0.2,3.9,3.7,3.8,7h33c1.6-3.6,4.8-3.3,7.6-3.5
			c0.6,0,1.3,2.3,2,3.5h9.6c-1.3-3.2-2.5-6.3-3.9-9.8c2-0.5,3.5-0.9,4.5-1.2c2,2.7,3.8,5.2,5.6,7.6l1.2-0.9c0.1,1.4,0.3,2.9,0.4,4.3
			h8.7l-3.1-7.2c0.4-0.3,0.9-0.5,1.3-0.8c2.1,2.6,4.1,5.2,6.2,7.8c-0.7-3.5-1.3-6.9-2-10.4c0.5-0.1,0.9-0.2,1.4-0.4
			c1.1,3.7,2.1,7.3,3.2,11h3.5c-0.8-1.5-1.6-3-2.9-5.6c3.8,1.1,7.1,0.7,7.2,5.6h198.1v-69C1361.2,330.9,1358.5,330.9,1355.9,330.7z
			 M820.2,352.5c2.9-2.3,5.8-4.6,9.1,0.7C825.8,352.9,823,352.7,820.2,352.5z M909.2,395.7c-2.4-1.2-2.7-3.1-0.3-6.5
			c1.1,2.4,2,4.2,2.8,6C910.8,395.4,909.8,396,909.2,395.7z M940,372.4l0.1-1.6c3.1,0,6.2-0.2,9.2,0.2c0.5,0.1,0.7,3.2,1.1,5.4
			C946.3,374.9,943.1,373.6,940,372.4z M1003.7,344.9c-1.2,0.6-2.3,1.3-3.4,1.9c3.3-6.2,3.3-6.2,6.9-3.7
			C1005.9,343.8,1004.8,344.3,1003.7,344.9z M1014,336.1c-2.2-0.1-4.3-0.5-6.5-0.8c0.1-0.7,0.1-1.4,0.2-2.1c2.1-0.3,4.1-0.7,6.2-0.7
			c0.6,0,1.2,1.2,1.8,1.8C1015.1,334.9,1014.6,336.1,1014,336.1z M1077,336.9c-1,0.3-2.1,0-3,0.5c-5.4,3.1-10.2-2-15.4-1.3
			c-0.5,0.1-1.3-2.3-1.8-3.4c2.6-4.2,5.1-0.7,7.6-0.6c2.4,0,4.7-0.1,7.1-0.2c2.6,0.9,4.8,3.1,7.2-2.3c1,2.5,1.5,4.1,2.1,5.6
			C1079.5,335.9,1078.3,336.5,1077,336.9z M1099.4,396.8c-1.5-2.5-3.1-5-2-8.4c0.4-0.2,0.9-0.3,1.3-0.5c0.8,2.8,1.6,5.5,2.5,8.3
			C1100.6,396.4,1100,396.6,1099.4,396.8z M1099.7,338.1c-0.2-0.5-0.3-1.1-0.5-1.6c1.5-0.6,3-1.8,4.4-1.7c0.7,0.1,1.4,2.4,2.5,4.7
			C1103.1,338.8,1101.4,338.4,1099.7,338.1z M1129,343.6c-3.1-3,4.8-6.1-0.2-8.9c-2.1,2.2-4,4.3-6,6.3c-0.3-0.1-0.7-0.2-1-0.3
			c0.4-2.4,0.3-5.3,1.4-6.9c1.1-1.6,4.6-3.1,5.4-2.3c2.5,2.3,4.2,5.7,6.5,9.2C1132.2,342.1,1130.6,342.9,1129,343.6z"/>
		<path class="st2" d="M962.3,328.3c-1.3,1-2.5,2.2-3.9,3c-0.1,0.1-1-1.2-1.5-1.9c1.3-1.1,2.7-2.2,4-3.3
			C961.4,326.9,961.9,327.6,962.3,328.3z"/>
	</g>
	<g>
		<g>
			<path class="st3" d="M962.3,328.3c-0.5-0.7-0.9-1.4-1.4-2.1c-1.3,1.1-2.7,2.2-4,3.3c0.5,0.7,1.3,1.9,1.5,1.9
				C959.8,330.5,961,329.4,962.3,328.3z"/>
		</g>
		<line class="st4" x1="902.3" y1="325.5" x2="938.3" y2="325.5"/>
		<line class="st4" x1="902.3" y1="331.9" x2="938.3" y2="331.9"/>
		<line class="st4" x1="956.3" y1="385.9" x2="956.3" y2="349.9"/>
		<line class="st4" x1="1017" y1="325.5" x2="981" y2="325.5"/>
		<line class="st4" x1="1017" y1="331.9" x2="981" y2="331.9"/>
		<line class="st4" x1="963" y1="385.9" x2="963" y2="349.9"/>
	</g>
</g>
<g id="PgDVas_4_">
	<g>
		<path class="st2" d="M1913.4,330.3c-1.9-0.1-3.7-0.5-5.6-0.8c0.8-1.6,1.7-3.2,2.5-4.8c0.1-0.2-0.1-0.6-0.2-1.4h-17.4
			c2.7,2,4.9,3.6,7.1,5.4c-3.3,2.1-5.2-0.1-7.1-2.5c-2.2-2.9-5-4.9-7.9-2.3c-2.5,2.1-4.3,1.7-6.6,0.2c-0.8-0.5-1.9-1.1-2.8-1.1
			c-6.9,0.2-13.8,0.7-20.7,0.8c-11.3,0.1-22.6,0.1-33.9,0c-1.5,0-3.2-0.9-4.5-1.9c-3-2.4-8.4-2.4-11.5-0.7c-3,1.6-6.4,2.1-9.6,2.9
			c-2,0.5-4.7,0.1-6.1,1.4c-5.9,5.9-5.8,6.1-13,1.3c2.8-0.4,5.5-0.8,8.3-1.2c-2-1.5-4.8-1.1-5.8-2.4c-3.6-4.7-6.6-2-9.7,0.3
			c-3.5,2.7-8.5,2.1-12-1c-1.3-1.1-4.2-1.2-5.6-0.2c-2.3,1.5-3.9,2.9-6.9,1.8c-1.6-0.6-3.9,1.2-5.8,1.7c-1.6,0.5-4.3,1.6-4.6,1
			c-2.5-4.2-4.7-2.1-7.3,0.5c-2.5-3.3-3.7-8.8-9.1-7c-0.4,2-0.8,4.1-1.2,6.5c-2.8-1-5.2-2.4-7.7-2.5c-8.2-0.3-16.4-0.4-24.6-0.1
			c-3.6,0.1-7.2,1.7-10.7,1.6c-4.7-0.2-9.3-1.7-14-2c-2.5-0.1-5,1.3-7.4,2c0.8,4,1.4,6.9,2.2,10.6c-4.5-0.5-8.3-0.9-12.1-1.4
			l0.1-1.3c5.4,0.1,7.3-2.1,7.8-9.2c-2.9,0-5.7,0-8.6,0c-6,0.1-12.1,0-18.1,0.3c-2.9,0.1-5.8,1-9.2,1.6c-9.2,0.4-18.8-2.7-29.1-0.8
			c-10,1.8-20.5,0-31-0.3c0.2-1.8,0.2-2.6,0.4-3.4c0.2-0.5,0.4-1,0.6-1.6c-0.3,0-0.6,0.1-0.9,0.1c-1.3,0.4-2.6,0.6-3.9,0.8
			c-1.4,0.2-2.8,0.3-4.3,0.4c-1.1,0.1-2.1,0.3-3.2,0.4c-4.3,0.5-8.5,0.7-12.8,0.3c-0.4,0-0.8-0.1-1.2-0.2c-0.6,0-1.3,0-1.9,0
			c0.4,2.6,0.9,5.3,1.3,7.9c0.1,0.9,0.1,2-0.2,2.8c-0.5,1.1-1.3,2-2,3c1.2,0.1,2.5,0.3,3.9,0.4c1.1,3.5-0.1,5.1-3.3,5.2
			c-1.6,0.1-3.1,0.5-4.7,0.7c-4.8,0.7-9.6,1.4-14.4,2c-0.1-0.8-0.2-1.5-0.3-2.3c1.2-0.3,2.5-0.5,3.7-0.8c3.5-1,7.1-1.8,10.5-3.1
			c0.6-0.2,0.7-2.3,1-3.5c-1.2-0.4-2.3-0.9-3.5-1.2c-1.5-0.3-3.6,0.1-4.6-0.8c-1.8-1.8-3-4.4-4.4-6.7c-4.2,3.6-6,3.5-10,0.3
			c-4.2,0.3-7.2,0.5-10.3,0.6c-3.7,0.2-7.4,0.7-11,0.4c-5.6-0.5-11.6,1.9-16.8-2.6c-0.5-0.5-1.6-0.2-2.5-0.1
			c-4.6,0.4-9.3,1-13.9,1.1c-18.6,0.3-37.3,0.5-55.9,0.7c-2.4,0-4.8,0.7-7.2,0.6c-3.3-0.2-6.5-1.2-9.8-1.2
			c-21.8,0.2-43.6,0.7-65.5,0.7c-12,0-24-0.8-36-1c-14.9-0.2-29.8,0-44.7,0.1v74h127.7c0.5-2.7,0.9-5.3,1.5-8.3
			c3.1,1.5,3.4,4.9,3.7,8.3h173.8c-0.3-2.6-0.5-5.2-0.8-8.2c3.1,1.2,5.3,3.6,5.2,8.2h16.5c0.7-2.3,1.4-4.5,2-6.8
			c0.5-1.6,0.8-3.3,1.4-5.8c3.8,4,7.2,7.2,7.8,12.6h63.4c0.5-4.3,3.6-7.2,7.5-7c4.4,0.2,3.9,3.7,3.8,7h33c1.6-3.6,4.8-3.3,7.6-3.5
			c0.6,0,1.3,2.3,2,3.5h9.6c-1.3-3.2-2.5-6.3-3.9-9.8c2-0.5,3.5-0.9,4.5-1.2c2,2.7,3.8,5.2,5.6,7.6l1.2-0.9c0.1,1.4,0.3,2.9,0.4,4.3
			h8.7l-3.1-7.2c0.4-0.3,0.9-0.5,1.3-0.8c2.1,2.6,4.1,5.2,6.2,7.8c-0.7-3.5-1.3-6.9-2-10.4c0.5-0.1,0.9-0.2,1.4-0.4
			c1.1,3.7,2.1,7.3,3.2,11h3.5c-0.8-1.5-1.6-3-2.9-5.6c3.8,1.1,7.1,0.7,7.2,5.6h198.1v-69C1918.8,330.5,1916.1,330.5,1913.4,330.3z
			 M1377.8,352.1c2.9-2.3,5.8-4.6,9.1,0.7C1383.4,352.5,1380.6,352.3,1377.8,352.1z M1466.7,395.3c-2.4-1.2-2.7-3.1-0.3-6.5
			c1.1,2.4,2,4.2,2.8,6C1468.4,395,1467.4,395.6,1466.7,395.3z M1497.5,372l0.1-1.6c3.1,0,6.2-0.2,9.2,0.2c0.5,0.1,0.7,3.2,1.1,5.4
			C1503.9,374.5,1500.7,373.2,1497.5,372z M1561.3,344.5c-1.2,0.6-2.3,1.3-3.4,1.9c3.3-6.2,3.3-6.2,6.9-3.7
			C1563.5,343.4,1562.4,343.9,1561.3,344.5z M1571.6,335.7c-2.2-0.1-4.3-0.5-6.5-0.8c0.1-0.7,0.1-1.4,0.2-2.1
			c2.1-0.3,4.1-0.7,6.2-0.7c0.6,0,1.2,1.2,1.8,1.8C1572.7,334.5,1572.1,335.8,1571.6,335.7z M1634.6,336.5c-1,0.3-2.1,0-3,0.5
			c-5.4,3.1-10.2-2-15.4-1.3c-0.5,0.1-1.3-2.3-1.8-3.4c2.6-4.2,5.1-0.7,7.6-0.6c2.4,0,4.7-0.1,7.1-0.2c2.6,0.9,4.8,3.1,7.2-2.3
			c1,2.5,1.5,4.1,2.1,5.6C1637.1,335.5,1635.9,336.1,1634.6,336.5z M1657,396.4c-1.5-2.5-3.1-5-2-8.4c0.4-0.2,0.9-0.3,1.3-0.5
			c0.8,2.8,1.6,5.5,2.5,8.3C1658.1,396,1657.5,396.2,1657,396.4z M1657.2,337.7c-0.2-0.5-0.3-1.1-0.5-1.6c1.5-0.6,3-1.8,4.4-1.7
			c0.7,0.1,1.4,2.4,2.5,4.7C1660.7,338.4,1658.9,338.1,1657.2,337.7z M1686.6,343.2c-3.1-3,4.8-6.1-0.2-8.9c-2.1,2.2-4,4.3-6,6.3
			c-0.3-0.1-0.7-0.2-1-0.3c0.4-2.4,0.3-5.3,1.4-6.9c1.1-1.6,4.6-3.1,5.4-2.3c2.5,2.3,4.2,5.7,6.5,9.2
			C1689.8,341.7,1688.1,342.5,1686.6,343.2z"/>
		<path class="st2" d="M1519.9,327.9c-1.3,1-2.5,2.2-3.9,3c-0.1,0.1-1-1.2-1.5-1.9c1.3-1.1,2.7-2.2,4-3.3
			C1519,326.5,1519.4,327.2,1519.9,327.9z"/>
	</g>
	<g>
		<path class="st2" d="M1913.4,330.3c-1.9-0.1-3.7-0.5-5.6-0.8c0.8-1.6,1.7-3.2,2.5-4.8c0.1-0.2-0.1-0.6-0.2-1.4h-17.4
			c2.7,2,4.9,3.6,7.1,5.4c-3.3,2.1-5.2-0.1-7.1-2.5c-2.2-2.9-5-4.9-7.9-2.3c-2.5,2.1-4.3,1.7-6.6,0.2c-0.8-0.5-1.9-1.1-2.8-1.1
			c-6.9,0.2-13.8,0.7-20.7,0.8c-11.3,0.1-22.6,0.1-33.9,0c-1.5,0-3.2-0.9-4.5-1.9c-3-2.4-8.4-2.4-11.5-0.7c-3,1.6-6.4,2.1-9.6,2.9
			c-2,0.5-4.7,0.1-6.1,1.4c-5.9,5.9-5.8,6.1-13,1.3c2.8-0.4,5.5-0.8,8.3-1.2c-2-1.5-4.8-1.1-5.8-2.4c-3.6-4.7-6.6-2-9.7,0.3
			c-3.5,2.7-8.5,2.1-12-1c-1.3-1.1-4.2-1.2-5.6-0.2c-2.3,1.5-3.9,2.9-6.9,1.8c-1.6-0.6-3.9,1.2-5.8,1.7c-1.6,0.5-4.3,1.6-4.6,1
			c-2.5-4.2-4.7-2.1-7.3,0.5c-2.5-3.3-3.7-8.8-9.1-7c-0.4,2-0.8,4.1-1.2,6.5c-2.8-1-5.2-2.4-7.7-2.5c-8.2-0.3-16.4-0.4-24.6-0.1
			c-3.6,0.1-7.2,1.7-10.7,1.6c-4.7-0.2-9.3-1.7-14-2c-2.5-0.1-5,1.3-7.4,2c0.8,4,1.4,6.9,2.2,10.6c-4.5-0.5-8.3-0.9-12.1-1.4
			l0.1-1.3c5.4,0.1,7.3-2.1,7.8-9.2c-2.9,0-5.7,0-8.6,0c-6,0.1-12.1,0-18.1,0.3c-2.9,0.1-5.8,1-9.2,1.6c-9.2,0.4-18.8-2.7-29.1-0.8
			c-10,1.8-20.5,0-31-0.3c0.2-1.8,0.2-2.6,0.4-3.4c0.2-0.5,0.4-1,0.6-1.6c-0.3,0-0.6,0.1-0.9,0.1c-1.3,0.4-2.6,0.6-3.9,0.8
			c-1.4,0.2-2.8,0.3-4.3,0.4c-1.1,0.1-2.1,0.3-3.2,0.4c-4.3,0.5-8.5,0.7-12.8,0.3c-0.4,0-0.8-0.1-1.2-0.2c-0.6,0-1.3,0-1.9,0
			c0.4,2.6,0.9,5.3,1.3,7.9c0.1,0.9,0.1,2-0.2,2.8c-0.5,1.1-1.3,2-2,3c1.2,0.1,2.5,0.3,3.9,0.4c1.1,3.5-0.1,5.1-3.3,5.2
			c-1.6,0.1-3.1,0.5-4.7,0.7c-4.8,0.7-9.6,1.4-14.4,2c-0.1-0.8-0.2-1.5-0.3-2.3c1.2-0.3,2.5-0.5,3.7-0.8c3.5-1,7.1-1.8,10.5-3.1
			c0.6-0.2,0.7-2.3,1-3.5c-1.2-0.4-2.3-0.9-3.5-1.2c-1.5-0.3-3.6,0.1-4.6-0.8c-1.8-1.8-3-4.4-4.4-6.7c-4.2,3.6-6,3.5-10,0.3
			c-4.2,0.3-7.2,0.5-10.3,0.6c-3.7,0.2-7.4,0.7-11,0.4c-5.6-0.5-11.6,1.9-16.8-2.6c-0.5-0.5-1.6-0.2-2.5-0.1
			c-4.6,0.4-9.3,1-13.9,1.1c-18.6,0.3-37.3,0.5-55.9,0.7c-2.4,0-4.8,0.7-7.2,0.6c-3.3-0.2-6.5-1.2-9.8-1.2
			c-21.8,0.2-43.6,0.7-65.5,0.7c-12,0-24-0.8-36-1c-14.9-0.2-29.8,0-44.7,0.1v74h127.7c0.5-2.7,0.9-5.3,1.5-8.3
			c3.1,1.5,3.4,4.9,3.7,8.3h173.8c-0.3-2.6-0.5-5.2-0.8-8.2c3.1,1.2,5.3,3.6,5.2,8.2h16.5c0.7-2.3,1.4-4.5,2-6.8
			c0.5-1.6,0.8-3.3,1.4-5.8c3.8,4,7.2,7.2,7.8,12.6h63.4c0.5-4.3,3.6-7.2,7.5-7c4.4,0.2,3.9,3.7,3.8,7h33c1.6-3.6,4.8-3.3,7.6-3.5
			c0.6,0,1.3,2.3,2,3.5h9.6c-1.3-3.2-2.5-6.3-3.9-9.8c2-0.5,3.5-0.9,4.5-1.2c2,2.7,3.8,5.2,5.6,7.6l1.2-0.9c0.1,1.4,0.3,2.9,0.4,4.3
			h8.7l-3.1-7.2c0.4-0.3,0.9-0.5,1.3-0.8c2.1,2.6,4.1,5.2,6.2,7.8c-0.7-3.5-1.3-6.9-2-10.4c0.5-0.1,0.9-0.2,1.4-0.4
			c1.1,3.7,2.1,7.3,3.2,11h3.5c-0.8-1.5-1.6-3-2.9-5.6c3.8,1.1,7.1,0.7,7.2,5.6h198.1v-69C1918.8,330.5,1916.1,330.5,1913.4,330.3z
			 M1377.8,352.1c2.9-2.3,5.8-4.6,9.1,0.7C1383.4,352.5,1380.6,352.3,1377.8,352.1z M1466.7,395.3c-2.4-1.2-2.7-3.1-0.3-6.5
			c1.1,2.4,2,4.2,2.8,6C1468.4,395,1467.4,395.6,1466.7,395.3z M1497.5,372l0.1-1.6c3.1,0,6.2-0.2,9.2,0.2c0.5,0.1,0.7,3.2,1.1,5.4
			C1503.9,374.5,1500.7,373.2,1497.5,372z M1561.3,344.5c-1.2,0.6-2.3,1.3-3.4,1.9c3.3-6.2,3.3-6.2,6.9-3.7
			C1563.5,343.4,1562.4,343.9,1561.3,344.5z M1571.6,335.7c-2.2-0.1-4.3-0.5-6.5-0.8c0.1-0.7,0.1-1.4,0.2-2.1
			c2.1-0.3,4.1-0.7,6.2-0.7c0.6,0,1.2,1.2,1.8,1.8C1572.7,334.5,1572.1,335.8,1571.6,335.7z M1634.6,336.5c-1,0.3-2.1,0-3,0.5
			c-5.4,3.1-10.2-2-15.4-1.3c-0.5,0.1-1.3-2.3-1.8-3.4c2.6-4.2,5.1-0.7,7.6-0.6c2.4,0,4.7-0.1,7.1-0.2c2.6,0.9,4.8,3.1,7.2-2.3
			c1,2.5,1.5,4.1,2.1,5.6C1637.1,335.5,1635.9,336.1,1634.6,336.5z M1657,396.4c-1.5-2.5-3.1-5-2-8.4c0.4-0.2,0.9-0.3,1.3-0.5
			c0.8,2.8,1.6,5.5,2.5,8.3C1658.1,396,1657.5,396.2,1657,396.4z M1657.2,337.7c-0.2-0.5-0.3-1.1-0.5-1.6c1.5-0.6,3-1.8,4.4-1.7
			c0.7,0.1,1.4,2.4,2.5,4.7C1660.7,338.4,1658.9,338.1,1657.2,337.7z M1686.6,343.2c-3.1-3,4.8-6.1-0.2-8.9c-2.1,2.2-4,4.3-6,6.3
			c-0.3-0.1-0.7-0.2-1-0.3c0.4-2.4,0.3-5.3,1.4-6.9c1.1-1.6,4.6-3.1,5.4-2.3c2.5,2.3,4.2,5.7,6.5,9.2
			C1689.8,341.7,1688.1,342.5,1686.6,343.2z"/>
		<path class="st2" d="M1519.9,327.9c-1.3,1-2.5,2.2-3.9,3c-0.1,0.1-1-1.2-1.5-1.9c1.3-1.1,2.7-2.2,4-3.3
			C1519,326.5,1519.4,327.2,1519.9,327.9z"/>
	</g>
	<g>
		<g>
			<path class="st3" d="M1519.9,327.9c-0.5-0.7-0.9-1.4-1.4-2.1c-1.3,1.1-2.7,2.2-4,3.3c0.5,0.7,1.3,1.9,1.5,1.9
				C1517.4,330.1,1518.6,329,1519.9,327.9z"/>
		</g>
		<line class="st4" x1="1459.9" y1="325.1" x2="1495.9" y2="325.1"/>
		<line class="st4" x1="1459.9" y1="331.5" x2="1495.9" y2="331.5"/>
		<line class="st4" x1="1513.9" y1="385.5" x2="1513.9" y2="349.5"/>
		<line class="st4" x1="1574.5" y1="325.1" x2="1538.5" y2="325.1"/>
		<line class="st4" x1="1574.5" y1="331.5" x2="1538.5" y2="331.5"/>
		<line class="st4" x1="1520.5" y1="385.5" x2="1520.5" y2="349.5"/>
	</g>
</g>
<g id="PgDVas_2_">
	<g>
		<path class="st2" d="M686.7,330.2c-1.9-0.1-3.7-0.5-5.6-0.8c0.8-1.6,1.7-3.2,2.5-4.8c0.1-0.2-0.1-0.6-0.2-1.4H666
			c2.7,2,4.9,3.6,7.1,5.4c-3.3,2.1-5.2-0.1-7.1-2.5c-2.2-2.9-5-4.9-7.9-2.3c-2.5,2.1-4.3,1.7-6.6,0.2c-0.8-0.5-1.9-1.1-2.8-1.1
			c-6.9,0.2-13.8,0.7-20.7,0.8c-11.3,0.1-22.6,0.1-33.9,0c-1.5,0-3.2-0.9-4.5-1.9c-3-2.4-8.4-2.4-11.5-0.7c-3,1.6-6.4,2.1-9.6,2.9
			c-2,0.5-4.7,0.1-6.1,1.4c-5.9,5.9-5.8,6.1-13,1.3c2.8-0.4,5.5-0.8,8.3-1.2c-2-1.5-4.8-1.1-5.8-2.4c-3.6-4.7-6.6-2-9.7,0.3
			c-3.5,2.7-8.5,2.1-12-1c-1.3-1.1-4.2-1.2-5.6-0.2c-2.3,1.5-3.9,2.9-6.9,1.8c-1.6-0.6-3.9,1.2-5.8,1.7c-1.6,0.5-4.3,1.6-4.6,1
			c-2.5-4.2-4.7-2.1-7.3,0.5c-2.5-3.3-3.7-8.8-9.1-7c-0.4,2-0.8,4.1-1.2,6.5c-2.8-1-5.2-2.4-7.7-2.5c-8.2-0.3-16.4-0.4-24.6-0.1
			c-3.6,0.1-7.2,1.7-10.7,1.6c-4.7-0.2-9.3-1.7-14-2c-2.5-0.1-5,1.3-7.4,2c0.8,4,1.4,6.9,2.2,10.6c-4.5-0.5-8.3-0.9-12.1-1.4
			l0.1-1.3c5.4,0.1,7.3-2.1,7.8-9.2c-2.9,0-5.7,0-8.6,0c-6,0.1-12.1,0-18.1,0.3c-2.9,0.1-5.8,1-9.2,1.6c-9.2,0.4-18.8-2.7-29.1-0.8
			c-10,1.8-20.5,0-31-0.3c0.2-1.8,0.2-2.6,0.4-3.4c0.2-0.5,0.4-1,0.6-1.6c-0.3,0-0.6,0.1-0.9,0.1c-1.3,0.4-2.6,0.6-3.9,0.8
			c-1.4,0.2-2.8,0.3-4.3,0.4c-1.1,0.1-2.1,0.3-3.2,0.4c-4.3,0.5-8.5,0.7-12.8,0.3c-0.4,0-0.8-0.1-1.2-0.2c-0.6,0-1.3,0-1.9,0
			c0.4,2.6,0.9,5.3,1.3,7.9c0.1,0.9,0.1,2-0.2,2.8c-0.5,1.1-1.3,2-2,3c1.2,0.1,2.5,0.3,3.9,0.4c1.1,3.5-0.1,5.1-3.3,5.2
			c-1.6,0.1-3.1,0.5-4.7,0.7c-4.8,0.7-9.6,1.4-14.4,2c-0.1-0.8-0.2-1.5-0.3-2.3c1.2-0.3,2.5-0.5,3.7-0.8c3.5-1,7.1-1.8,10.5-3.1
			c0.6-0.2,0.7-2.3,1-3.5c-1.2-0.4-2.3-0.9-3.5-1.2c-1.5-0.3-3.6,0.1-4.6-0.8c-1.8-1.8-3-4.4-4.4-6.7c-4.2,3.6-6,3.5-10,0.3
			c-4.2,0.3-7.2,0.5-10.3,0.6c-3.7,0.2-7.4,0.7-11,0.4c-5.6-0.5-11.6,1.9-16.8-2.6c-0.5-0.5-1.6-0.2-2.5-0.1
			c-4.6,0.4-9.3,1-13.9,1.1c-18.6,0.3-37.3,0.5-55.9,0.7c-2.4,0-4.8,0.7-7.2,0.6c-3.3-0.2-6.5-1.2-9.8-1.2
			c-21.8,0.2-43.6,0.7-65.5,0.7c-12,0-24-0.8-36-1c-14.9-0.2-29.8,0-44.7,0.1v74h127.7c0.5-2.7,0.9-5.3,1.5-8.3
			c3.1,1.5,3.4,4.9,3.7,8.3h173.7c-0.3-2.6-0.5-5.2-0.8-8.2c3.1,1.2,5.3,3.6,5.2,8.2h16.5c0.7-2.3,1.4-4.5,2-6.8
			c0.5-1.6,0.8-3.3,1.4-5.8c3.8,4,7.2,7.2,7.8,12.6h63.4c0.5-4.3,3.6-7.2,7.5-7c4.4,0.2,3.9,3.7,3.8,7h33c1.6-3.6,4.8-3.3,7.6-3.5
			c0.6,0,1.3,2.3,2,3.5h9.6c-1.3-3.2-2.5-6.3-3.9-9.8c2-0.5,3.5-0.9,4.5-1.2c2,2.7,3.8,5.2,5.6,7.6l1.2-0.9c0.1,1.4,0.3,2.9,0.4,4.3
			h8.7l-3.1-7.2c0.4-0.3,0.9-0.5,1.3-0.8c2.1,2.6,4.1,5.2,6.2,7.8c-0.7-3.5-1.3-6.9-2-10.4c0.5-0.1,0.9-0.2,1.4-0.4
			c1.1,3.7,2.1,7.3,3.2,11h3.5c-0.8-1.5-1.6-3-2.9-5.6c3.8,1.1,7.1,0.7,7.2,5.6h198.1v-69C692,330.5,689.3,330.4,686.7,330.2z
			 M151,352c2.9-2.3,5.8-4.6,9.1,0.7C156.6,352.4,153.8,352.2,151,352z M239.9,395.3c-2.4-1.2-2.7-3.1-0.3-6.5c1.1,2.4,2,4.2,2.8,6
			C241.6,395,240.6,395.6,239.9,395.3z M270.8,372l0.1-1.6c3.1,0,6.2-0.2,9.2,0.2c0.5,0.1,0.7,3.2,1.1,5.4
			C277.1,374.4,273.9,373.2,270.8,372z M334.5,344.4c-1.2,0.6-2.3,1.3-3.4,1.9c3.3-6.2,3.3-6.2,6.9-3.7
			C336.7,343.3,335.6,343.8,334.5,344.4z M344.8,335.7c-2.2-0.1-4.3-0.5-6.5-0.8c0.1-0.7,0.1-1.4,0.2-2.1c2.1-0.3,4.1-0.7,6.2-0.7
			c0.6,0,1.2,1.2,1.8,1.8C345.9,334.5,345.3,335.7,344.8,335.7z M407.8,336.5c-1,0.3-2.1,0-3,0.5c-5.4,3.1-10.2-2-15.4-1.3
			c-0.5,0.1-1.3-2.3-1.8-3.4c2.6-4.2,5.1-0.7,7.6-0.6c2.4,0,4.7-0.1,7.1-0.2c2.6,0.9,4.8,3.1,7.2-2.3c1,2.5,1.5,4.1,2.1,5.6
			C410.3,335.4,409.1,336.1,407.8,336.5z M430.2,396.4c-1.5-2.5-3.1-5-2-8.4c0.4-0.2,0.9-0.3,1.3-0.5c0.8,2.8,1.6,5.5,2.5,8.3
			C431.3,396,430.8,396.2,430.2,396.4z M430.4,337.6c-0.2-0.5-0.3-1.1-0.5-1.6c1.5-0.6,3-1.8,4.4-1.7c0.7,0.1,1.4,2.4,2.5,4.7
			C433.9,338.4,432.2,338,430.4,337.6z M459.8,343.1c-3.1-3,4.8-6.1-0.2-8.9c-2.1,2.2-4,4.3-6,6.3c-0.3-0.1-0.7-0.2-1-0.3
			c0.4-2.4,0.3-5.3,1.4-6.9c1.1-1.6,4.6-3.1,5.4-2.3c2.5,2.3,4.2,5.7,6.5,9.2C463,341.6,461.3,342.4,459.8,343.1z"/>
		<path class="st2" d="M293.1,327.9c-1.3,1-2.5,2.2-3.9,3c-0.1,0.1-1-1.2-1.5-1.9c1.3-1.1,2.7-2.2,4-3.3
			C292.2,326.5,292.6,327.2,293.1,327.9z"/>
	</g>
	<g>
		<path class="st2" d="M686.7,330.2c-1.9-0.1-3.7-0.5-5.6-0.8c0.8-1.6,1.7-3.2,2.5-4.8c0.1-0.2-0.1-0.6-0.2-1.4H666
			c2.7,2,4.9,3.6,7.1,5.4c-3.3,2.1-5.2-0.1-7.1-2.5c-2.2-2.9-5-4.9-7.9-2.3c-2.5,2.1-4.3,1.7-6.6,0.2c-0.8-0.5-1.9-1.1-2.8-1.1
			c-6.9,0.2-13.8,0.7-20.7,0.8c-11.3,0.1-22.6,0.1-33.9,0c-1.5,0-3.2-0.9-4.5-1.9c-3-2.4-8.4-2.4-11.5-0.7c-3,1.6-6.4,2.1-9.6,2.9
			c-2,0.5-4.7,0.1-6.1,1.4c-5.9,5.9-5.8,6.1-13,1.3c2.8-0.4,5.5-0.8,8.3-1.2c-2-1.5-4.8-1.1-5.8-2.4c-3.6-4.7-6.6-2-9.7,0.3
			c-3.5,2.7-8.5,2.1-12-1c-1.3-1.1-4.2-1.2-5.6-0.2c-2.3,1.5-3.9,2.9-6.9,1.8c-1.6-0.6-3.9,1.2-5.8,1.7c-1.6,0.5-4.3,1.6-4.6,1
			c-2.5-4.2-4.7-2.1-7.3,0.5c-2.5-3.3-3.7-8.8-9.1-7c-0.4,2-0.8,4.1-1.2,6.5c-2.8-1-5.2-2.4-7.7-2.5c-8.2-0.3-16.4-0.4-24.6-0.1
			c-3.6,0.1-7.2,1.7-10.7,1.6c-4.7-0.2-9.3-1.7-14-2c-2.5-0.1-5,1.3-7.4,2c0.8,4,1.4,6.9,2.2,10.6c-4.5-0.5-8.3-0.9-12.1-1.4
			l0.1-1.3c5.4,0.1,7.3-2.1,7.8-9.2c-2.9,0-5.7,0-8.6,0c-6,0.1-12.1,0-18.1,0.3c-2.9,0.1-5.8,1-9.2,1.6c-9.2,0.4-18.8-2.7-29.1-0.8
			c-10,1.8-20.5,0-31-0.3c0.2-1.8,0.2-2.6,0.4-3.4c0.2-0.5,0.4-1,0.6-1.6c-0.3,0-0.6,0.1-0.9,0.1c-1.3,0.4-2.6,0.6-3.9,0.8
			c-1.4,0.2-2.8,0.3-4.3,0.4c-1.1,0.1-2.1,0.3-3.2,0.4c-4.3,0.5-8.5,0.7-12.8,0.3c-0.4,0-0.8-0.1-1.2-0.2c-0.6,0-1.3,0-1.9,0
			c0.4,2.6,0.9,5.3,1.3,7.9c0.1,0.9,0.1,2-0.2,2.8c-0.5,1.1-1.3,2-2,3c1.2,0.1,2.5,0.3,3.9,0.4c1.1,3.5-0.1,5.1-3.3,5.2
			c-1.6,0.1-3.1,0.5-4.7,0.7c-4.8,0.7-9.6,1.4-14.4,2c-0.1-0.8-0.2-1.5-0.3-2.3c1.2-0.3,2.5-0.5,3.7-0.8c3.5-1,7.1-1.8,10.5-3.1
			c0.6-0.2,0.7-2.3,1-3.5c-1.2-0.4-2.3-0.9-3.5-1.2c-1.5-0.3-3.6,0.1-4.6-0.8c-1.8-1.8-3-4.4-4.4-6.7c-4.2,3.6-6,3.5-10,0.3
			c-4.2,0.3-7.2,0.5-10.3,0.6c-3.7,0.2-7.4,0.7-11,0.4c-5.6-0.5-11.6,1.9-16.8-2.6c-0.5-0.5-1.6-0.2-2.5-0.1
			c-4.6,0.4-9.3,1-13.9,1.1c-18.6,0.3-37.3,0.5-55.9,0.7c-2.4,0-4.8,0.7-7.2,0.6c-3.3-0.2-6.5-1.2-9.8-1.2
			c-21.8,0.2-43.6,0.7-65.5,0.7c-12,0-24-0.8-36-1c-14.9-0.2-29.8,0-44.7,0.1v74h127.7c0.5-2.7,0.9-5.3,1.5-8.3
			c3.1,1.5,3.4,4.9,3.7,8.3h173.7c-0.3-2.6-0.5-5.2-0.8-8.2c3.1,1.2,5.3,3.6,5.2,8.2h16.5c0.7-2.3,1.4-4.5,2-6.8
			c0.5-1.6,0.8-3.3,1.4-5.8c3.8,4,7.2,7.2,7.8,12.6h63.4c0.5-4.3,3.6-7.2,7.5-7c4.4,0.2,3.9,3.7,3.8,7h33c1.6-3.6,4.8-3.3,7.6-3.5
			c0.6,0,1.3,2.3,2,3.5h9.6c-1.3-3.2-2.5-6.3-3.9-9.8c2-0.5,3.5-0.9,4.5-1.2c2,2.7,3.8,5.2,5.6,7.6l1.2-0.9c0.1,1.4,0.3,2.9,0.4,4.3
			h8.7l-3.1-7.2c0.4-0.3,0.9-0.5,1.3-0.8c2.1,2.6,4.1,5.2,6.2,7.8c-0.7-3.5-1.3-6.9-2-10.4c0.5-0.1,0.9-0.2,1.4-0.4
			c1.1,3.7,2.1,7.3,3.2,11h3.5c-0.8-1.5-1.6-3-2.9-5.6c3.8,1.1,7.1,0.7,7.2,5.6h198.1v-69C692,330.5,689.3,330.4,686.7,330.2z
			 M151,352c2.9-2.3,5.8-4.6,9.1,0.7C156.6,352.4,153.8,352.2,151,352z M239.9,395.3c-2.4-1.2-2.7-3.1-0.3-6.5c1.1,2.4,2,4.2,2.8,6
			C241.6,395,240.6,395.6,239.9,395.3z M270.8,372l0.1-1.6c3.1,0,6.2-0.2,9.2,0.2c0.5,0.1,0.7,3.2,1.1,5.4
			C277.1,374.4,273.9,373.2,270.8,372z M334.5,344.4c-1.2,0.6-2.3,1.3-3.4,1.9c3.3-6.2,3.3-6.2,6.9-3.7
			C336.7,343.3,335.6,343.8,334.5,344.4z M344.8,335.7c-2.2-0.1-4.3-0.5-6.5-0.8c0.1-0.7,0.1-1.4,0.2-2.1c2.1-0.3,4.1-0.7,6.2-0.7
			c0.6,0,1.2,1.2,1.8,1.8C345.9,334.5,345.3,335.7,344.8,335.7z M407.8,336.5c-1,0.3-2.1,0-3,0.5c-5.4,3.1-10.2-2-15.4-1.3
			c-0.5,0.1-1.3-2.3-1.8-3.4c2.6-4.2,5.1-0.7,7.6-0.6c2.4,0,4.7-0.1,7.1-0.2c2.6,0.9,4.8,3.1,7.2-2.3c1,2.5,1.5,4.1,2.1,5.6
			C410.3,335.4,409.1,336.1,407.8,336.5z M430.2,396.4c-1.5-2.5-3.1-5-2-8.4c0.4-0.2,0.9-0.3,1.3-0.5c0.8,2.8,1.6,5.5,2.5,8.3
			C431.3,396,430.8,396.2,430.2,396.4z M430.4,337.6c-0.2-0.5-0.3-1.1-0.5-1.6c1.5-0.6,3-1.8,4.4-1.7c0.7,0.1,1.4,2.4,2.5,4.7
			C433.9,338.4,432.2,338,430.4,337.6z M459.8,343.1c-3.1-3,4.8-6.1-0.2-8.9c-2.1,2.2-4,4.3-6,6.3c-0.3-0.1-0.7-0.2-1-0.3
			c0.4-2.4,0.3-5.3,1.4-6.9c1.1-1.6,4.6-3.1,5.4-2.3c2.5,2.3,4.2,5.7,6.5,9.2C463,341.6,461.3,342.4,459.8,343.1z"/>
		<path class="st2" d="M293.1,327.9c-1.3,1-2.5,2.2-3.9,3c-0.1,0.1-1-1.2-1.5-1.9c1.3-1.1,2.7-2.2,4-3.3
			C292.2,326.5,292.6,327.2,293.1,327.9z"/>
	</g>
	<g>
		<g>
			<path class="st3" d="M293.1,327.9c-0.5-0.7-0.9-1.4-1.4-2.1c-1.3,1.1-2.7,2.2-4,3.3c0.5,0.7,1.3,1.9,1.5,1.9
				C290.6,330.1,291.8,329,293.1,327.9z"/>
		</g>
		<line class="st4" x1="233.1" y1="325.1" x2="269.1" y2="325.1"/>
		<line class="st4" x1="233.1" y1="331.4" x2="269.1" y2="331.4"/>
		<line class="st4" x1="287.1" y1="385.4" x2="287.1" y2="349.4"/>
		<line class="st4" x1="347.7" y1="325.1" x2="311.7" y2="325.1"/>
		<line class="st4" x1="347.7" y1="331.4" x2="311.7" y2="331.4"/>
		<line class="st4" x1="293.7" y1="385.4" x2="293.7" y2="349.4"/>
	</g>
</g>
<g id="bkwvWy_1_">
	<g>
		<g>
			<path class="st5" d="M1288,289c-14.1,5.6-19.1,8.8-33.5-5.2c-1.3-1.2-2.6-2.5-5.3-3.5c0,3.3-0.1,6.7,0,10
				c0.3,5.5,0.5,11,1.3,16.4c0.6,4,1.4,8.3,3.5,11.6c6.2,9.8,13.2,19.1,19.6,28.8c0.9,1.3,0.8,4.8-0.1,5.4
				c-5.5,3.6-11.3,6.7-18.5,10.8c0.2-3.7,0.4-5.8,0.4-8c0-2.4,0.7-5.5-0.4-7.2c-6-9.1-10.2-19.7-20.3-25.5c-0.7-0.4-1.4-0.8-2.7-1.6
				c-0.8,2-1.8,3.6-2.3,5.4c-2.2,8.9-4.2,17.8-6.3,26.7c-0.1,0.3-0.2,0.6-0.2,1c-0.1,2.3,0.8,5.7-0.4,6.7c-1.6,1.3-4.7,0.9-7.2,1.1
				c-3.2,0.2-6.3,0.3-9.5,0.3c-3.6,0-4.3-2.3-2.2-4.5c6.8-7.1,8-16.4,9.7-25.3c1-5.2,0.2-10.8,0.2-16.2c-6.9,0-13,0.8-18.7-0.2
				c-5.6-1-10.8-3.9-17-6.2c-0.3,1.8-1,3.7-0.7,5.4c2.3,13.9,4.7,27.8,7.2,41.8c0.5,3,0.1,4.9-3.5,4.9c-5.6-0.1-11.2,0-18.5,0
				c1.7-3.2,2.4-5.5,3.9-7.1c2.5-2.6,3.1-5.3,2.2-8.6c-1.6-6-3.1-12.1-5-19.4c-2,2.3-3.2,3.4-3.9,4.7c-4,7.4-10.5,13.8-9.4,23.4
				c0.1,0.8-2.6,3-3.5,2.8c-5.4-1.3-10.7-3.2-16.4-5c0.7-1.3,0.8-2.3,1.4-2.7c6.6-3.9,8.3-10.6,10.7-17.2c2.7-7.7,6-15.2,10.1-22.2
				c4.3-7.4,0.3-17.1-8.6-22.5c-7.8-4.7-13.7-3.5-20.2,3.5c-8.2,8.8-18,15.1-30.7,14.5c-1.8-0.1-6.2,2.1-5.1-3.3
				c0-0.2-2.3-1-3.6-1.3c-5.4-1.4-9.5-4.3-12.9-8.8c-1.3-1.7-5.1-2.9-7.2-2.4c-3.1,0.8-4.4-0.7-6.7-1.9
				c-10.6-5.6-15.3-15.3-19.6-25.6c-2.7-6.4-5.6-12.8-8.4-19.1c-0.3-0.7-1-1.2-2.2-2.7c-1.7,8.8-8.1,14.8-7.7,23.8
				c0.3,7.7-2.6,15.5,1,23.1c1.4,2.9,2.2,6.3,4.1,8.8c7.3,10.1,15.8,19.6,19,32c1.6,6.3,1.6,13.1,2.2,19.6c0.3,3.4,0.8,6.9,0.2,10.2
				c-0.3,1.6-3,3.9-4.6,3.9c-9.6,0-19.3-0.4-28.9-1.1c-1.1-0.1-2.9-2.6-2.9-3.9c0.1-1.7,1.5-3.5,2.6-5.1c2.2-3.6,6.1-6.9,6.5-10.6
				c0.8-7.3-0.8-14.7-5.5-20.8c-6.4-8.3-15.2-13.7-25-19.4c-3.3,9.4-6.3,18.3-9.5,27.2c-1.7,4.7-3.6,9.3-5.1,14
				c-0.4,1.3-0.2,3.1,0.3,4.5c2,5.4-0.4,9.3-6.2,9.4c-7,0.1-14,0-21-0.2c-1.7-0.1-4.6-0.9-4.7-1.5c-0.2-2.1,0.2-4.7,1.3-6.5
				c2.5-4.1,5.8-7.7,8.3-11.8c2-3.4,3.4-7.1,4.9-10.8c1.3-3.4,1.8-7.1,3.4-10.4c4.5-9.6,4.5-19.6,3.5-29.9
				c-10.3-0.7-20.8,0-30.3-2.6c-9.4-2.6-17.8-8.7-26.9-13.5c-2.2,4.7-4.1,9.2-3.7,14.9c1.2,17.8,1.2,35.6-3.6,53.1
				c-1,3.6,0.1,8.1,1.3,11.9c1.7,5.2,0.6,8.5-4.8,8.7c-8.6,0.3-17.2-0.1-25.8-0.2c-3-0.1-4.7-1.8-3.1-4.5c2.2-3.7,1.3-7,0.5-10.9
				c-1.7-9.5-5.4-17.6-12.4-24.4c-8.4-8.2-9.5-16.4-4.4-27.9c4.8-10.8,9.6-21.6,14.5-32.3c3.7-8.2,1.7-15.2-5.5-20.5
				c-9.4-6.9-18.5-14.1-27.8-21.1c-1.2-0.9-2.5-1.6-3.9-2c-4.2-1.3-8.4-3.1-12.7-3.5c-2.8-0.3-5.8,1.4-8.6,2.6c-1.6,0.7-3,2-4.5,3
				c-7.2,4.3-15.8,3.5-23.6,5.7c-7.7,2.2-15.9,3.2-23.9,3.9c-6.1,0.5-11.9-1.3-16.3-6.1c0-0.7,0-1.3,0-2c4.4,0.9,8.8,1.9,13.2,2.8
				c0.1-0.4,0.2-0.8,0.3-1.2c-0.9-1.2-1.9-2.3-3.4-4.2c2.8,0.2,4.7,0.4,7.3,0.6c-0.9-1.3-1.3-2.3-2-3c-6.5-6.1-9.6-13.9-10.9-22.5
				c-2.6-17.3,9.2-34.6,25.4-37.5c2.4-0.4,5-0.4,7.4-0.2c8.4,0.6,12.1-1.7,15.1-9.7c0.2-0.6,0.7-1.1,1.4-2.3
				c1.3,5.4,4.5,5.5,8.4,3.7c-1.9,12.1-8.1,18.9-19.2,21.4c-0.7,0.1-1.3,0.3-2,0.4c-16,3-20.6,14.6-10.8,27.6c1.3,1.8,4.5,2.9,6.8,3
				c1.3,0,3.4-2.5,4-4.3c6.4-19.5,19.6-33.4,36-44.7c6.5-4.4,13.8-4.5,21.2-2.8c4.5,1.1,9.1,2,13.6,3.3c7.1,2,13.3,0.1,19.4-3.4
				c7.6-4.4,15.4-8.5,23.4-12.1c7.7-3.5,15.9-3.2,24-0.8c6.8,1.9,8.7,4.9,7.5,11.8c-0.5,2.8-1.3,5.5-2.1,8.2
				c-0.8,2.7-1.8,5.3-3.1,9.2c6.2-0.6,11.4-0.9,16.5-1.6c2.8-0.4,5.7-0.9,8.2-2c14.2-5.9,27.3-1.9,39.8,4.7
				c22,11.5,35.2,30.4,43.6,53.1c5.9,16.1,10.9,32.5,16.9,48.5c4.3,11.4,8.8,17.1,14,20.7c7.3-5.6,12-5.6,18.8,0.7
				c5.8,5.3,12.6,6.6,19.9,6.2c5.3-0.2,7.4-3.1,9.3-10c2.1-7.5,4.5-14.9,7.4-22c1.6-3.8,4.1-7.5,7.1-10.2c2.8-2.5,6.7-4.1,10.3-5
				c3.2-0.8,5.5-1.5,6.5-5c0.6-2.2,2.1-4.2,3.1-6.2c1.8-3.6,3.6-7.1,5.7-11.3c3.8,3.7,0.5,9.9,3.7,14c5.3-0.9,10.6-1.9,16-2.8
				c4.3-0.8,7,0.8,6.7,5.4c-0.2,3.9,1.5,5.8,5.1,5.6c5.1-0.3,10.6,0,15.1-1.9c15.2-6.3,27.8-1,39.5,7.8c8.7,6.5,15.8,14.5,19.6,25.3
				c2.4,6.8,8,11.8,14.7,15c4.8,2.3,9.5,2.3,14.4-0.1c1.9-0.9,4.4-0.8,6.6-1.1C1288,288.3,1288,288.7,1288,289z M878.4,310.7
				c0.3,0,0.6,0.1,0.9,0.1c-1.2-4.6-2.3-9.2-3.5-13.8c-0.7,0-1.5,0-2.2,0c-0.2,2.1-1.3,4.5-0.6,6.1
				C874.3,305.9,876.6,308.2,878.4,310.7z"/>
		</g>
	</g>
</g>
</svg>
