<?xml version="1.0" encoding="utf-8"?>
<!-- Generator: Adobe Illustrator 24.3.0, SVG Export Plug-In . SVG Version: 6.00 Build 0)  -->
<svg version="1.1" id="Layer_1" xmlns="http://www.w3.org/2000/svg" xmlns:xlink="http://www.w3.org/1999/xlink" x="0px" y="0px"
	 viewBox="0 0 2500 600" style="enable-background:new 0 0 2500 600;" xml:space="preserve">
<style type="text/css">
	.st0{fill:#FF9738;}
	.st1{fill:#50960F;}
	.st2{fill:#50960F;stroke:#231F20;stroke-width:0.9321;}
	.st3{fill:#50960F;stroke:#000000;stroke-width:0.3;}
	.st4{fill:#515151;}
	.st5{fill:#006837;}
</style>
<circle class="st0" cx="467" cy="395" r="243"/>
<g id="PgDVas_3_">
	<g>
		<path class="st1" d="M1645.9,430.7c-1.9-0.1-3.7-0.5-5.6-0.8c0.8-1.6,1.7-3.2,2.5-4.8c0.1-0.2-0.1-0.6-0.2-1.4h-17.4
			c2.7,2,4.9,3.6,7.1,5.4c-3.3,2.1-5.2-0.1-7.1-2.5c-2.2-2.9-5-4.9-7.9-2.3c-2.5,2.1-4.3,1.7-6.6,0.2c-0.8-0.5-1.9-1.1-2.8-1.1
			c-6.9,0.2-13.8,0.7-20.7,0.8c-11.3,0.1-22.6,0.1-33.9,0c-1.5,0-3.2-0.9-4.5-1.9c-3-2.4-8.4-2.4-11.5-0.7c-3,1.6-6.4,2.1-9.6,2.9
			c-2,0.5-4.7,0.1-6.1,1.4c-5.9,5.9-5.8,6.1-13,1.3c2.8-0.4,5.5-0.8,8.3-1.2c-2-1.5-4.8-1.1-5.8-2.4c-3.6-4.7-6.6-2-9.7,0.3
			c-3.5,2.7-8.5,2.1-12-1c-1.3-1.1-4.2-1.2-5.6-0.2c-2.3,1.5-3.9,2.9-6.9,1.8c-1.6-0.6-3.9,1.2-5.8,1.7c-1.6,0.5-4.3,1.6-4.6,1
			c-2.5-4.2-4.7-2.1-7.3,0.5c-2.5-3.3-3.7-8.8-9.1-7c-0.4,2-0.8,4.1-1.2,6.5c-2.8-1-5.2-2.4-7.7-2.5c-8.2-0.3-16.4-0.4-24.6-0.1
			c-3.6,0.1-7.2,1.7-10.7,1.6c-4.7-0.2-9.3-1.7-14-2c-2.5-0.1-5,1.3-7.4,2c0.8,4,1.4,6.9,2.2,10.6c-4.5-0.5-8.3-0.9-12.1-1.4
			l0.1-1.3c5.4,0.1,7.3-2.1,7.8-9.2c-2.9,0-5.7,0-8.6,0c-6,0.1-12.1,0-18.1,0.3c-2.9,0.1-5.8,1-9.2,1.6c-9.2,0.4-18.8-2.7-29.1-0.8
			c-10,1.8-20.5,0-31-0.3c0.2-1.8,0.2-2.6,0.4-3.4c0.2-0.5,0.4-1,0.6-1.6c-0.3,0-0.6,0.1-0.9,0.1c-1.3,0.4-2.6,0.6-3.9,0.8
			c-1.4,0.2-2.8,0.3-4.3,0.4c-1.1,0.1-2.1,0.3-3.2,0.4c-4.3,0.5-8.5,0.7-12.8,0.3c-0.4,0-0.8-0.1-1.2-0.2c-0.6,0-1.3,0-1.9,0
			c0.4,2.6,0.9,5.3,1.3,7.9c0.1,0.9,0.1,2-0.2,2.8c-0.5,1.1-1.3,2-2,3c1.2,0.1,2.5,0.3,3.9,0.4c1.1,3.5-0.1,5.1-3.3,5.2
			c-1.6,0.1-3.1,0.5-4.7,0.7c-4.8,0.7-9.6,1.4-14.4,2c-0.1-0.8-0.2-1.5-0.3-2.3c1.2-0.3,2.5-0.5,3.7-0.8c3.5-1,7.1-1.8,10.5-3.1
			c0.6-0.2,0.7-2.3,1-3.5c-1.2-0.4-2.3-0.9-3.5-1.2c-1.5-0.3-3.6,0.1-4.6-0.8c-1.8-1.8-3-4.4-4.4-6.7c-4.2,3.6-6,3.5-10,0.3
			c-4.2,0.3-7.2,0.5-10.3,0.6c-3.7,0.2-7.4,0.7-11,0.4c-5.6-0.5-11.6,1.9-16.8-2.6c-0.5-0.5-1.6-0.2-2.5-0.1
			c-4.6,0.4-9.3,1-13.9,1.1c-18.6,0.3-37.3,0.5-55.9,0.7c-2.4,0-4.8,0.7-7.2,0.6c-3.3-0.2-6.5-1.2-9.8-1.2
			c-21.8,0.2-43.6,0.7-65.5,0.7c-12,0-24-0.8-36-1c-14.9-0.2-29.8,0-44.7,0.1v74h127.7c0.5-2.7,0.9-5.3,1.5-8.3
			c3.1,1.5,3.4,4.9,3.7,8.3h173.8c-0.3-2.6-0.5-5.2-0.8-8.2c3.1,1.2,5.3,3.6,5.2,8.2h16.5c0.7-2.3,1.4-4.5,2-6.8
			c0.5-1.6,0.8-3.3,1.4-5.8c3.8,4,7.2,7.2,7.8,12.6h63.4c0.5-4.3,3.6-7.2,7.5-7c4.4,0.2,3.9,3.7,3.8,7h33c1.6-3.6,4.8-3.3,7.6-3.5
			c0.6,0,1.3,2.3,2,3.5h9.6c-1.3-3.2-2.5-6.3-3.9-9.8c2-0.5,3.5-0.9,4.5-1.2c2,2.7,3.8,5.2,5.6,7.6l1.2-0.9c0.1,1.4,0.3,2.9,0.4,4.3
			h8.7l-3.1-7.2c0.4-0.3,0.9-0.5,1.3-0.8c2.1,2.6,4.1,5.2,6.2,7.8c-0.7-3.5-1.3-6.9-2-10.4c0.5-0.1,0.9-0.2,1.4-0.4
			c1.1,3.7,2.1,7.3,3.2,11h3.5c-0.8-1.5-1.6-3-2.9-5.6c3.8,1.1,7.1,0.7,7.2,5.6h198.1v-69C1651.2,430.9,1648.5,430.9,1645.9,430.7z
			 M1110.2,452.5c2.9-2.3,5.8-4.6,9.1,0.7C1115.8,452.9,1113,452.7,1110.2,452.5z M1199.2,495.7c-2.4-1.2-2.7-3.1-0.3-6.5
			c1.1,2.4,2,4.2,2.8,6C1200.8,495.4,1199.8,496,1199.2,495.7z M1230,472.4l0.1-1.6c3.1,0,6.2-0.2,9.2,0.2c0.5,0.1,0.7,3.2,1.1,5.4
			C1236.3,474.9,1233.1,473.6,1230,472.4z M1293.7,444.9c-1.2,0.6-2.3,1.3-3.4,1.9c3.3-6.2,3.3-6.2,6.9-3.7
			C1295.9,443.8,1294.8,444.3,1293.7,444.9z M1304,436.1c-2.2-0.1-4.3-0.5-6.5-0.8c0.1-0.7,0.1-1.4,0.2-2.1c2.1-0.3,4.1-0.7,6.2-0.7
			c0.6,0,1.2,1.2,1.8,1.8C1305.1,434.9,1304.6,436.1,1304,436.1z M1367,436.9c-1,0.3-2.1,0-3,0.5c-5.4,3.1-10.2-2-15.4-1.3
			c-0.5,0.1-1.3-2.3-1.8-3.4c2.6-4.2,5.1-0.7,7.6-0.6c2.4,0,4.7-0.1,7.1-0.2c2.6,0.9,4.8,3.1,7.2-2.3c1,2.5,1.5,4.1,2.1,5.6
			C1369.5,435.9,1368.3,436.5,1367,436.9z M1389.4,496.8c-1.5-2.5-3.1-5-2-8.4c0.4-0.2,0.9-0.3,1.3-0.5c0.8,2.8,1.6,5.5,2.5,8.3
			C1390.6,496.4,1390,496.6,1389.4,496.8z M1389.7,438.1c-0.2-0.5-0.3-1.1-0.5-1.6c1.5-0.6,3-1.8,4.4-1.7c0.7,0.1,1.4,2.4,2.5,4.7
			C1393.1,438.8,1391.4,438.4,1389.7,438.1z M1419,443.6c-3.1-3,4.8-6.1-0.2-8.9c-2.1,2.2-4,4.3-6,6.3c-0.3-0.1-0.7-0.2-1-0.3
			c0.4-2.4,0.3-5.3,1.4-6.9c1.1-1.6,4.6-3.1,5.4-2.3c2.5,2.3,4.2,5.7,6.5,9.2C1422.2,442.1,1420.6,442.9,1419,443.6z"/>
		<path class="st1" d="M1252.3,428.3c-1.3,1-2.5,2.2-3.9,3c-0.1,0.1-1-1.2-1.5-1.9c1.3-1.1,2.7-2.2,4-3.3
			C1251.4,426.9,1251.9,427.6,1252.3,428.3z"/>
	</g>
	<g>
		<path class="st1" d="M1645.9,430.7c-1.9-0.1-3.7-0.5-5.6-0.8c0.8-1.6,1.7-3.2,2.5-4.8c0.1-0.2-0.1-0.6-0.2-1.4h-17.4
			c2.7,2,4.9,3.6,7.1,5.4c-3.3,2.1-5.2-0.1-7.1-2.5c-2.2-2.9-5-4.9-7.9-2.3c-2.5,2.1-4.3,1.7-6.6,0.2c-0.8-0.5-1.9-1.1-2.8-1.1
			c-6.9,0.2-13.8,0.7-20.7,0.8c-11.3,0.1-22.6,0.1-33.9,0c-1.5,0-3.2-0.9-4.5-1.9c-3-2.4-8.4-2.4-11.5-0.7c-3,1.6-6.4,2.1-9.6,2.9
			c-2,0.5-4.7,0.1-6.1,1.4c-5.9,5.9-5.8,6.1-13,1.3c2.8-0.4,5.5-0.8,8.3-1.2c-2-1.5-4.8-1.1-5.8-2.4c-3.6-4.7-6.6-2-9.7,0.3
			c-3.5,2.7-8.5,2.1-12-1c-1.3-1.1-4.2-1.2-5.6-0.2c-2.3,1.5-3.9,2.9-6.9,1.8c-1.6-0.6-3.9,1.2-5.8,1.7c-1.6,0.5-4.3,1.6-4.6,1
			c-2.5-4.2-4.7-2.1-7.3,0.5c-2.5-3.3-3.7-8.8-9.1-7c-0.4,2-0.8,4.1-1.2,6.5c-2.8-1-5.2-2.4-7.7-2.5c-8.2-0.3-16.4-0.4-24.6-0.1
			c-3.6,0.1-7.2,1.7-10.7,1.6c-4.7-0.2-9.3-1.7-14-2c-2.5-0.1-5,1.3-7.4,2c0.8,4,1.4,6.9,2.2,10.6c-4.5-0.5-8.3-0.9-12.1-1.4
			l0.1-1.3c5.4,0.1,7.3-2.1,7.8-9.2c-2.9,0-5.7,0-8.6,0c-6,0.1-12.1,0-18.1,0.3c-2.9,0.1-5.8,1-9.2,1.6c-9.2,0.4-18.8-2.7-29.1-0.8
			c-10,1.8-20.5,0-31-0.3c0.2-1.8,0.2-2.6,0.4-3.4c0.2-0.5,0.4-1,0.6-1.6c-0.3,0-0.6,0.1-0.9,0.1c-1.3,0.4-2.6,0.6-3.9,0.8
			c-1.4,0.2-2.8,0.3-4.3,0.4c-1.1,0.1-2.1,0.3-3.2,0.4c-4.3,0.5-8.5,0.7-12.8,0.3c-0.4,0-0.8-0.1-1.2-0.2c-0.6,0-1.3,0-1.9,0
			c0.4,2.6,0.9,5.3,1.3,7.9c0.1,0.9,0.1,2-0.2,2.8c-0.5,1.1-1.3,2-2,3c1.2,0.1,2.5,0.3,3.9,0.4c1.1,3.5-0.1,5.1-3.3,5.2
			c-1.6,0.1-3.1,0.5-4.7,0.7c-4.8,0.7-9.6,1.4-14.4,2c-0.1-0.8-0.2-1.5-0.3-2.3c1.2-0.3,2.5-0.5,3.7-0.8c3.5-1,7.1-1.8,10.5-3.1
			c0.6-0.2,0.7-2.3,1-3.5c-1.2-0.4-2.3-0.9-3.5-1.2c-1.5-0.3-3.6,0.1-4.6-0.8c-1.8-1.8-3-4.4-4.4-6.7c-4.2,3.6-6,3.5-10,0.3
			c-4.2,0.3-7.2,0.5-10.3,0.6c-3.7,0.2-7.4,0.7-11,0.4c-5.6-0.5-11.6,1.9-16.8-2.6c-0.5-0.5-1.6-0.2-2.5-0.1
			c-4.6,0.4-9.3,1-13.9,1.1c-18.6,0.3-37.3,0.5-55.9,0.7c-2.4,0-4.8,0.7-7.2,0.6c-3.3-0.2-6.5-1.2-9.8-1.2
			c-21.8,0.2-43.6,0.7-65.5,0.7c-12,0-24-0.8-36-1c-14.9-0.2-29.8,0-44.7,0.1v74h127.7c0.5-2.7,0.9-5.3,1.5-8.3
			c3.1,1.5,3.4,4.9,3.7,8.3h173.8c-0.3-2.6-0.5-5.2-0.8-8.2c3.1,1.2,5.3,3.6,5.2,8.2h16.5c0.7-2.3,1.4-4.5,2-6.8
			c0.5-1.6,0.8-3.3,1.4-5.8c3.8,4,7.2,7.2,7.8,12.6h63.4c0.5-4.3,3.6-7.2,7.5-7c4.4,0.2,3.9,3.7,3.8,7h33c1.6-3.6,4.8-3.3,7.6-3.5
			c0.6,0,1.3,2.3,2,3.5h9.6c-1.3-3.2-2.5-6.3-3.9-9.8c2-0.5,3.5-0.9,4.5-1.2c2,2.7,3.8,5.2,5.6,7.6l1.2-0.9c0.1,1.4,0.3,2.9,0.4,4.3
			h8.7l-3.1-7.2c0.4-0.3,0.9-0.5,1.3-0.8c2.1,2.6,4.1,5.2,6.2,7.8c-0.7-3.5-1.3-6.9-2-10.4c0.5-0.1,0.9-0.2,1.4-0.4
			c1.1,3.7,2.1,7.3,3.2,11h3.5c-0.8-1.5-1.6-3-2.9-5.6c3.8,1.1,7.1,0.7,7.2,5.6h198.1v-69C1651.2,430.9,1648.5,430.9,1645.9,430.7z
			 M1110.2,452.5c2.9-2.3,5.8-4.6,9.1,0.7C1115.8,452.9,1113,452.7,1110.2,452.5z M1199.2,495.7c-2.4-1.2-2.7-3.1-0.3-6.5
			c1.1,2.4,2,4.2,2.8,6C1200.8,495.4,1199.8,496,1199.2,495.7z M1230,472.4l0.1-1.6c3.1,0,6.2-0.2,9.2,0.2c0.5,0.1,0.7,3.2,1.1,5.4
			C1236.3,474.9,1233.1,473.6,1230,472.4z M1293.7,444.9c-1.2,0.6-2.3,1.3-3.4,1.9c3.3-6.2,3.3-6.2,6.9-3.7
			C1295.9,443.8,1294.8,444.3,1293.7,444.9z M1304,436.1c-2.2-0.1-4.3-0.5-6.5-0.8c0.1-0.7,0.1-1.4,0.2-2.1c2.1-0.3,4.1-0.7,6.2-0.7
			c0.6,0,1.2,1.2,1.8,1.8C1305.1,434.9,1304.6,436.1,1304,436.1z M1367,436.9c-1,0.3-2.1,0-3,0.5c-5.4,3.1-10.2-2-15.4-1.3
			c-0.5,0.1-1.3-2.3-1.8-3.4c2.6-4.2,5.1-0.7,7.6-0.6c2.4,0,4.7-0.1,7.1-0.2c2.6,0.9,4.8,3.1,7.2-2.3c1,2.5,1.5,4.1,2.1,5.6
			C1369.5,435.9,1368.3,436.5,1367,436.9z M1389.4,496.8c-1.5-2.5-3.1-5-2-8.4c0.4-0.2,0.9-0.3,1.3-0.5c0.8,2.8,1.6,5.5,2.5,8.3
			C1390.6,496.4,1390,496.6,1389.4,496.8z M1389.7,438.1c-0.2-0.5-0.3-1.1-0.5-1.6c1.5-0.6,3-1.8,4.4-1.7c0.7,0.1,1.4,2.4,2.5,4.7
			C1393.1,438.8,1391.4,438.4,1389.7,438.1z M1419,443.6c-3.1-3,4.8-6.1-0.2-8.9c-2.1,2.2-4,4.3-6,6.3c-0.3-0.1-0.7-0.2-1-0.3
			c0.4-2.4,0.3-5.3,1.4-6.9c1.1-1.6,4.6-3.1,5.4-2.3c2.5,2.3,4.2,5.7,6.5,9.2C1422.2,442.1,1420.6,442.9,1419,443.6z"/>
		<path class="st1" d="M1252.3,428.3c-1.3,1-2.5,2.2-3.9,3c-0.1,0.1-1-1.2-1.5-1.9c1.3-1.1,2.7-2.2,4-3.3
			C1251.4,426.9,1251.9,427.6,1252.3,428.3z"/>
	</g>
	<g>
		<g>
			<path class="st2" d="M1252.3,428.3c-0.5-0.7-0.9-1.4-1.4-2.1c-1.3,1.1-2.7,2.2-4,3.3c0.5,0.7,1.3,1.9,1.5,1.9
				C1249.8,430.5,1251,429.4,1252.3,428.3z"/>
		</g>
		<line class="st3" x1="1192.3" y1="425.5" x2="1228.3" y2="425.5"/>
		<line class="st3" x1="1192.3" y1="431.9" x2="1228.3" y2="431.9"/>
		<line class="st3" x1="1246.3" y1="485.9" x2="1246.3" y2="449.9"/>
		<line class="st3" x1="1307" y1="425.5" x2="1271" y2="425.5"/>
		<line class="st3" x1="1307" y1="431.9" x2="1271" y2="431.9"/>
		<line class="st3" x1="1253" y1="485.9" x2="1253" y2="449.9"/>
	</g>
</g>
<g id="PgDVas_4_">
	<g>
		<path class="st1" d="M2203.4,430.3c-1.9-0.1-3.7-0.5-5.6-0.8c0.8-1.6,1.7-3.2,2.5-4.8c0.1-0.2-0.1-0.6-0.2-1.4h-17.4
			c2.7,2,4.9,3.6,7.1,5.4c-3.3,2.1-5.2-0.1-7.1-2.5c-2.2-2.9-5-4.9-7.9-2.3c-2.5,2.1-4.3,1.7-6.6,0.2c-0.8-0.5-1.9-1.1-2.8-1.1
			c-6.9,0.2-13.8,0.7-20.7,0.8c-11.3,0.1-22.6,0.1-33.9,0c-1.5,0-3.2-0.9-4.5-1.9c-3-2.4-8.4-2.4-11.5-0.7c-3,1.6-6.4,2.1-9.6,2.9
			c-2,0.5-4.7,0.1-6.1,1.4c-5.9,5.9-5.8,6.1-13,1.3c2.8-0.4,5.5-0.8,8.3-1.2c-2-1.5-4.8-1.1-5.8-2.4c-3.6-4.7-6.6-2-9.7,0.3
			c-3.5,2.7-8.5,2.1-12-1c-1.3-1.1-4.2-1.2-5.6-0.2c-2.3,1.5-3.9,2.9-6.9,1.8c-1.6-0.6-3.9,1.2-5.8,1.7c-1.6,0.5-4.3,1.6-4.6,1
			c-2.5-4.2-4.7-2.1-7.3,0.5c-2.5-3.3-3.7-8.8-9.1-7c-0.4,2-0.8,4.1-1.2,6.5c-2.8-1-5.2-2.4-7.7-2.5c-8.2-0.3-16.4-0.4-24.6-0.1
			c-3.6,0.1-7.2,1.7-10.7,1.6c-4.7-0.2-9.3-1.7-14-2c-2.5-0.1-5,1.3-7.4,2c0.8,4,1.4,6.9,2.2,10.6c-4.5-0.5-8.3-0.9-12.1-1.4
			l0.1-1.3c5.4,0.1,7.3-2.1,7.8-9.2c-2.9,0-5.7,0-8.6,0c-6,0.1-12.1,0-18.1,0.3c-2.9,0.1-5.8,1-9.2,1.6c-9.2,0.4-18.8-2.7-29.1-0.8
			c-10,1.8-20.5,0-31-0.3c0.2-1.8,0.2-2.6,0.4-3.4c0.2-0.5,0.4-1,0.6-1.6c-0.3,0-0.6,0.1-0.9,0.1c-1.3,0.4-2.6,0.6-3.9,0.8
			c-1.4,0.2-2.8,0.3-4.3,0.4c-1.1,0.1-2.1,0.3-3.2,0.4c-4.3,0.5-8.5,0.7-12.8,0.3c-0.4,0-0.8-0.1-1.2-0.2c-0.6,0-1.3,0-1.9,0
			c0.4,2.6,0.9,5.3,1.3,7.9c0.1,0.9,0.1,2-0.2,2.8c-0.5,1.1-1.3,2-2,3c1.2,0.1,2.5,0.3,3.9,0.4c1.1,3.5-0.1,5.1-3.3,5.2
			c-1.6,0.1-3.1,0.5-4.7,0.7c-4.8,0.7-9.6,1.4-14.4,2c-0.1-0.8-0.2-1.5-0.3-2.3c1.2-0.3,2.5-0.5,3.7-0.8c3.5-1,7.1-1.8,10.5-3.1
			c0.6-0.2,0.7-2.3,1-3.5c-1.2-0.4-2.3-0.9-3.5-1.2c-1.5-0.3-3.6,0.1-4.6-0.8c-1.8-1.8-3-4.4-4.4-6.7c-4.2,3.6-6,3.5-10,0.3
			c-4.2,0.3-7.2,0.5-10.3,0.6c-3.7,0.2-7.4,0.7-11,0.4c-5.6-0.5-11.6,1.9-16.8-2.6c-0.5-0.5-1.6-0.2-2.5-0.1
			c-4.6,0.4-9.3,1-13.9,1.1c-18.6,0.3-37.3,0.5-55.9,0.7c-2.4,0-4.8,0.7-7.2,0.6c-3.3-0.2-6.5-1.2-9.8-1.2
			c-21.8,0.2-43.6,0.7-65.5,0.7c-12,0-24-0.8-36-1c-14.9-0.2-29.8,0-44.7,0.1v74h127.7c0.5-2.7,0.9-5.3,1.5-8.3
			c3.1,1.5,3.4,4.9,3.7,8.3h173.8c-0.3-2.6-0.5-5.2-0.8-8.2c3.1,1.2,5.3,3.6,5.2,8.2h16.5c0.7-2.3,1.4-4.5,2-6.8
			c0.5-1.6,0.8-3.3,1.4-5.8c3.8,4,7.2,7.2,7.8,12.6h63.4c0.5-4.3,3.6-7.2,7.5-7c4.4,0.2,3.9,3.7,3.8,7h33c1.6-3.6,4.8-3.3,7.6-3.5
			c0.6,0,1.3,2.3,2,3.5h9.6c-1.3-3.2-2.5-6.3-3.9-9.8c2-0.5,3.5-0.9,4.5-1.2c2,2.7,3.8,5.2,5.6,7.6l1.2-0.9c0.1,1.4,0.3,2.9,0.4,4.3
			h8.7l-3.1-7.2c0.4-0.3,0.9-0.5,1.3-0.8c2.1,2.6,4.1,5.2,6.2,7.8c-0.7-3.5-1.3-6.9-2-10.4c0.5-0.1,0.9-0.2,1.4-0.4
			c1.1,3.7,2.1,7.3,3.2,11h3.5c-0.8-1.5-1.6-3-2.9-5.6c3.8,1.1,7.1,0.7,7.2,5.6h198.1v-69C2208.8,430.5,2206.1,430.5,2203.4,430.3z
			 M1667.8,452.1c2.9-2.3,5.8-4.6,9.1,0.7C1673.4,452.5,1670.6,452.3,1667.8,452.1z M1756.7,495.3c-2.4-1.2-2.7-3.1-0.3-6.5
			c1.1,2.4,2,4.2,2.8,6C1758.4,495,1757.4,495.6,1756.7,495.3z M1787.5,472l0.1-1.6c3.1,0,6.2-0.2,9.2,0.2c0.5,0.1,0.7,3.2,1.1,5.4
			C1793.9,474.5,1790.7,473.2,1787.5,472z M1851.3,444.5c-1.2,0.6-2.3,1.3-3.4,1.9c3.3-6.2,3.3-6.2,6.9-3.7
			C1853.5,443.4,1852.4,443.9,1851.3,444.5z M1861.6,435.7c-2.2-0.1-4.3-0.5-6.5-0.8c0.1-0.7,0.1-1.4,0.2-2.1
			c2.1-0.3,4.1-0.7,6.2-0.7c0.6,0,1.2,1.2,1.8,1.8C1862.7,434.5,1862.1,435.8,1861.6,435.7z M1924.6,436.5c-1,0.3-2.1,0-3,0.5
			c-5.4,3.1-10.2-2-15.4-1.3c-0.5,0.1-1.3-2.3-1.8-3.4c2.6-4.2,5.1-0.7,7.6-0.6c2.4,0,4.7-0.1,7.1-0.2c2.6,0.9,4.8,3.1,7.2-2.3
			c1,2.5,1.5,4.1,2.1,5.6C1927.1,435.5,1925.9,436.1,1924.6,436.5z M1947,496.4c-1.5-2.5-3.1-5-2-8.4c0.4-0.2,0.9-0.3,1.3-0.5
			c0.8,2.8,1.6,5.5,2.5,8.3C1948.1,496,1947.5,496.2,1947,496.4z M1947.2,437.7c-0.2-0.5-0.3-1.1-0.5-1.6c1.5-0.6,3-1.8,4.4-1.7
			c0.7,0.1,1.4,2.4,2.5,4.7C1950.7,438.4,1948.9,438.1,1947.2,437.7z M1976.6,443.2c-3.1-3,4.8-6.1-0.2-8.9c-2.1,2.2-4,4.3-6,6.3
			c-0.3-0.1-0.7-0.2-1-0.3c0.4-2.4,0.3-5.3,1.4-6.9c1.1-1.6,4.6-3.1,5.4-2.3c2.5,2.3,4.2,5.7,6.5,9.2
			C1979.8,441.7,1978.1,442.5,1976.6,443.2z"/>
		<path class="st1" d="M1809.9,427.9c-1.3,1-2.5,2.2-3.9,3c-0.1,0.1-1-1.2-1.5-1.9c1.3-1.1,2.7-2.2,4-3.3
			C1809,426.5,1809.4,427.2,1809.9,427.9z"/>
	</g>
	<g>
		<path class="st1" d="M2203.4,430.3c-1.9-0.1-3.7-0.5-5.6-0.8c0.8-1.6,1.7-3.2,2.5-4.8c0.1-0.2-0.1-0.6-0.2-1.4h-17.4
			c2.7,2,4.9,3.6,7.1,5.4c-3.3,2.1-5.2-0.1-7.1-2.5c-2.2-2.9-5-4.9-7.9-2.3c-2.5,2.1-4.3,1.7-6.6,0.2c-0.8-0.5-1.9-1.1-2.8-1.1
			c-6.9,0.2-13.8,0.7-20.7,0.8c-11.3,0.1-22.6,0.1-33.9,0c-1.5,0-3.2-0.9-4.5-1.9c-3-2.4-8.4-2.4-11.5-0.7c-3,1.6-6.4,2.1-9.6,2.9
			c-2,0.5-4.7,0.1-6.1,1.4c-5.9,5.9-5.8,6.1-13,1.3c2.8-0.4,5.5-0.8,8.3-1.2c-2-1.5-4.8-1.1-5.8-2.4c-3.6-4.7-6.6-2-9.7,0.3
			c-3.5,2.7-8.5,2.1-12-1c-1.3-1.1-4.2-1.2-5.6-0.2c-2.3,1.5-3.9,2.9-6.9,1.8c-1.6-0.6-3.9,1.2-5.8,1.7c-1.6,0.5-4.3,1.6-4.6,1
			c-2.5-4.2-4.7-2.1-7.3,0.5c-2.5-3.3-3.7-8.8-9.1-7c-0.4,2-0.8,4.1-1.2,6.5c-2.8-1-5.2-2.4-7.7-2.5c-8.2-0.3-16.4-0.4-24.6-0.1
			c-3.6,0.1-7.2,1.7-10.7,1.6c-4.7-0.2-9.3-1.7-14-2c-2.5-0.1-5,1.3-7.4,2c0.8,4,1.4,6.9,2.2,10.6c-4.5-0.5-8.3-0.9-12.1-1.4
			l0.1-1.3c5.4,0.1,7.3-2.1,7.8-9.2c-2.9,0-5.7,0-8.6,0c-6,0.1-12.1,0-18.1,0.3c-2.9,0.1-5.8,1-9.2,1.6c-9.2,0.4-18.8-2.7-29.1-0.8
			c-10,1.8-20.5,0-31-0.3c0.2-1.8,0.2-2.6,0.4-3.4c0.2-0.5,0.4-1,0.6-1.6c-0.3,0-0.6,0.1-0.9,0.1c-1.3,0.4-2.6,0.6-3.9,0.8
			c-1.4,0.2-2.8,0.3-4.3,0.4c-1.1,0.1-2.1,0.3-3.2,0.4c-4.3,0.5-8.5,0.7-12.8,0.3c-0.4,0-0.8-0.1-1.2-0.2c-0.6,0-1.3,0-1.9,0
			c0.4,2.6,0.9,5.3,1.3,7.9c0.1,0.9,0.1,2-0.2,2.8c-0.5,1.1-1.3,2-2,3c1.2,0.1,2.5,0.3,3.9,0.4c1.1,3.5-0.1,5.1-3.3,5.2
			c-1.6,0.1-3.1,0.5-4.7,0.7c-4.8,0.7-9.6,1.4-14.4,2c-0.1-0.8-0.2-1.5-0.3-2.3c1.2-0.3,2.5-0.5,3.7-0.8c3.5-1,7.1-1.8,10.5-3.1
			c0.6-0.2,0.7-2.3,1-3.5c-1.2-0.4-2.3-0.9-3.5-1.2c-1.5-0.3-3.6,0.1-4.6-0.8c-1.8-1.8-3-4.4-4.4-6.7c-4.2,3.6-6,3.5-10,0.3
			c-4.2,0.3-7.2,0.5-10.3,0.6c-3.7,0.2-7.4,0.7-11,0.4c-5.6-0.5-11.6,1.9-16.8-2.6c-0.5-0.5-1.6-0.2-2.5-0.1
			c-4.6,0.4-9.3,1-13.9,1.1c-18.6,0.3-37.3,0.5-55.9,0.7c-2.4,0-4.8,0.7-7.2,0.6c-3.3-0.2-6.5-1.2-9.8-1.2
			c-21.8,0.2-43.6,0.7-65.5,0.7c-12,0-24-0.8-36-1c-14.9-0.2-29.8,0-44.7,0.1v74h127.7c0.5-2.7,0.9-5.3,1.5-8.3
			c3.1,1.5,3.4,4.9,3.7,8.3h173.8c-0.3-2.6-0.5-5.2-0.8-8.2c3.1,1.2,5.3,3.6,5.2,8.2h16.5c0.7-2.3,1.4-4.5,2-6.8
			c0.5-1.6,0.8-3.3,1.4-5.8c3.8,4,7.2,7.2,7.8,12.6h63.4c0.5-4.3,3.6-7.2,7.5-7c4.4,0.2,3.9,3.7,3.8,7h33c1.6-3.6,4.8-3.3,7.6-3.5
			c0.6,0,1.3,2.3,2,3.5h9.6c-1.3-3.2-2.5-6.3-3.9-9.8c2-0.5,3.5-0.9,4.5-1.2c2,2.7,3.8,5.2,5.6,7.6l1.2-0.9c0.1,1.4,0.3,2.9,0.4,4.3
			h8.7l-3.1-7.2c0.4-0.3,0.9-0.5,1.3-0.8c2.1,2.6,4.1,5.2,6.2,7.8c-0.7-3.5-1.3-6.9-2-10.4c0.5-0.1,0.9-0.2,1.4-0.4
			c1.1,3.7,2.1,7.3,3.2,11h3.5c-0.8-1.5-1.6-3-2.9-5.6c3.8,1.1,7.1,0.7,7.2,5.6h198.1v-69C2208.8,430.5,2206.1,430.5,2203.4,430.3z
			 M1667.8,452.1c2.9-2.3,5.8-4.6,9.1,0.7C1673.4,452.5,1670.6,452.3,1667.8,452.1z M1756.7,495.3c-2.4-1.2-2.7-3.1-0.3-6.5
			c1.1,2.4,2,4.2,2.8,6C1758.4,495,1757.4,495.6,1756.7,495.3z M1787.5,472l0.1-1.6c3.1,0,6.2-0.2,9.2,0.2c0.5,0.1,0.7,3.2,1.1,5.4
			C1793.9,474.5,1790.7,473.2,1787.5,472z M1851.3,444.5c-1.2,0.6-2.3,1.3-3.4,1.9c3.3-6.2,3.3-6.2,6.9-3.7
			C1853.5,443.4,1852.4,443.9,1851.3,444.5z M1861.6,435.7c-2.2-0.1-4.3-0.5-6.5-0.8c0.1-0.7,0.1-1.4,0.2-2.1
			c2.1-0.3,4.1-0.7,6.2-0.7c0.6,0,1.2,1.2,1.8,1.8C1862.7,434.5,1862.1,435.8,1861.6,435.7z M1924.6,436.5c-1,0.3-2.1,0-3,0.5
			c-5.4,3.1-10.2-2-15.4-1.3c-0.5,0.1-1.3-2.3-1.8-3.4c2.6-4.2,5.1-0.7,7.6-0.6c2.4,0,4.7-0.1,7.1-0.2c2.6,0.9,4.8,3.1,7.2-2.3
			c1,2.5,1.5,4.1,2.1,5.6C1927.1,435.5,1925.9,436.1,1924.6,436.5z M1947,496.4c-1.5-2.5-3.1-5-2-8.4c0.4-0.2,0.9-0.3,1.3-0.5
			c0.8,2.8,1.6,5.5,2.5,8.3C1948.1,496,1947.5,496.2,1947,496.4z M1947.2,437.7c-0.2-0.5-0.3-1.1-0.5-1.6c1.5-0.6,3-1.8,4.4-1.7
			c0.7,0.1,1.4,2.4,2.5,4.7C1950.7,438.4,1948.9,438.1,1947.2,437.7z M1976.6,443.2c-3.1-3,4.8-6.1-0.2-8.9c-2.1,2.2-4,4.3-6,6.3
			c-0.3-0.1-0.7-0.2-1-0.3c0.4-2.4,0.3-5.3,1.4-6.9c1.1-1.6,4.6-3.1,5.4-2.3c2.5,2.3,4.2,5.7,6.5,9.2
			C1979.8,441.7,1978.1,442.5,1976.6,443.2z"/>
		<path class="st1" d="M1809.9,427.9c-1.3,1-2.5,2.2-3.9,3c-0.1,0.1-1-1.2-1.5-1.9c1.3-1.1,2.7-2.2,4-3.3
			C1809,426.5,1809.4,427.2,1809.9,427.9z"/>
	</g>
	<g>
		<g>
			<path class="st2" d="M1809.9,427.9c-0.5-0.7-0.9-1.4-1.4-2.1c-1.3,1.1-2.7,2.2-4,3.3c0.5,0.7,1.3,1.9,1.5,1.9
				C1807.4,430.1,1808.6,429,1809.9,427.9z"/>
		</g>
		<line class="st3" x1="1749.9" y1="425.1" x2="1785.9" y2="425.1"/>
		<line class="st3" x1="1749.9" y1="431.5" x2="1785.9" y2="431.5"/>
		<line class="st3" x1="1803.9" y1="485.5" x2="1803.9" y2="449.5"/>
		<line class="st3" x1="1864.5" y1="425.1" x2="1828.5" y2="425.1"/>
		<line class="st3" x1="1864.5" y1="431.5" x2="1828.5" y2="431.5"/>
		<line class="st3" x1="1810.5" y1="485.5" x2="1810.5" y2="449.5"/>
	</g>
</g>
<g id="PgDVas_2_">
	<g>
		<path class="st1" d="M976.7,430.2c-1.9-0.1-3.7-0.5-5.6-0.8c0.8-1.6,1.7-3.2,2.5-4.8c0.1-0.2-0.1-0.6-0.2-1.4H956
			c2.7,2,4.9,3.6,7.1,5.4c-3.3,2.1-5.2-0.1-7.1-2.5c-2.2-2.9-5-4.9-7.9-2.3c-2.5,2.1-4.3,1.7-6.6,0.2c-0.8-0.5-1.9-1.1-2.8-1.1
			c-6.9,0.2-13.8,0.7-20.7,0.8c-11.3,0.1-22.6,0.1-33.9,0c-1.5,0-3.2-0.9-4.5-1.9c-3-2.4-8.4-2.4-11.5-0.7c-3,1.6-6.4,2.1-9.6,2.9
			c-2,0.5-4.7,0.1-6.1,1.4c-5.9,5.9-5.8,6.1-13,1.3c2.8-0.4,5.5-0.8,8.3-1.2c-2-1.5-4.8-1.1-5.8-2.4c-3.6-4.7-6.6-2-9.7,0.3
			c-3.5,2.7-8.5,2.1-12-1c-1.3-1.1-4.2-1.2-5.6-0.2c-2.3,1.5-3.9,2.9-6.9,1.8c-1.6-0.6-3.9,1.2-5.8,1.7c-1.6,0.5-4.3,1.6-4.6,1
			c-2.5-4.2-4.7-2.1-7.3,0.5c-2.5-3.3-3.7-8.8-9.1-7c-0.4,2-0.8,4.1-1.2,6.5c-2.8-1-5.2-2.4-7.7-2.5c-8.2-0.3-16.4-0.4-24.6-0.1
			c-3.6,0.1-7.2,1.7-10.7,1.6c-4.7-0.2-9.3-1.7-14-2c-2.5-0.1-5,1.3-7.4,2c0.8,4,1.4,6.9,2.2,10.6c-4.5-0.5-8.3-0.9-12.1-1.4
			l0.1-1.3c5.4,0.1,7.3-2.1,7.8-9.2c-2.9,0-5.7,0-8.6,0c-6,0.1-12.1,0-18.1,0.3c-2.9,0.1-5.8,1-9.2,1.6c-9.2,0.4-18.8-2.7-29.1-0.8
			c-10,1.8-20.5,0-31-0.3c0.2-1.8,0.2-2.6,0.4-3.4c0.2-0.5,0.4-1,0.6-1.6c-0.3,0-0.6,0.1-0.9,0.1c-1.3,0.4-2.6,0.6-3.9,0.8
			c-1.4,0.2-2.8,0.3-4.3,0.4c-1.1,0.1-2.1,0.3-3.2,0.4c-4.3,0.5-8.5,0.7-12.8,0.3c-0.4,0-0.8-0.1-1.2-0.2c-0.6,0-1.3,0-1.9,0
			c0.4,2.6,0.9,5.3,1.3,7.9c0.1,0.9,0.1,2-0.2,2.8c-0.5,1.1-1.3,2-2,3c1.2,0.1,2.5,0.3,3.9,0.4c1.1,3.5-0.1,5.1-3.3,5.2
			c-1.6,0.1-3.1,0.5-4.7,0.7c-4.8,0.7-9.6,1.4-14.4,2c-0.1-0.8-0.2-1.5-0.3-2.3c1.2-0.3,2.5-0.5,3.7-0.8c3.5-1,7.1-1.8,10.5-3.1
			c0.6-0.2,0.7-2.3,1-3.5c-1.2-0.4-2.3-0.9-3.5-1.2c-1.5-0.3-3.6,0.1-4.6-0.8c-1.8-1.8-3-4.4-4.4-6.7c-4.2,3.6-6,3.5-10,0.3
			c-4.2,0.3-7.2,0.5-10.3,0.6c-3.7,0.2-7.4,0.7-11,0.4c-5.6-0.5-11.6,1.9-16.8-2.6c-0.5-0.5-1.6-0.2-2.5-0.1
			c-4.6,0.4-9.3,1-13.9,1.1c-18.6,0.3-37.3,0.5-55.9,0.7c-2.4,0-4.8,0.7-7.2,0.6c-3.3-0.2-6.5-1.2-9.8-1.2
			c-21.8,0.2-43.6,0.7-65.5,0.7c-12,0-24-0.8-36-1c-14.9-0.2-29.8,0-44.7,0.1v74h127.7c0.5-2.7,0.9-5.3,1.5-8.3
			c3.1,1.5,3.4,4.9,3.7,8.3h173.8c-0.3-2.6-0.5-5.2-0.8-8.2c3.1,1.2,5.3,3.6,5.2,8.2h16.5c0.7-2.3,1.4-4.5,2-6.8
			c0.5-1.6,0.8-3.3,1.4-5.8c3.8,4,7.2,7.2,7.8,12.6h63.4c0.5-4.3,3.6-7.2,7.5-7c4.4,0.2,3.9,3.7,3.8,7h33c1.6-3.6,4.8-3.3,7.6-3.5
			c0.6,0,1.3,2.3,2,3.5h9.6c-1.3-3.2-2.5-6.3-3.9-9.8c2-0.5,3.5-0.9,4.5-1.2c2,2.7,3.8,5.2,5.6,7.6l1.2-0.9c0.1,1.4,0.3,2.9,0.4,4.3
			h8.7l-3.1-7.2c0.4-0.3,0.9-0.5,1.3-0.8c2.1,2.6,4.1,5.2,6.2,7.8c-0.7-3.5-1.3-6.9-2-10.4c0.5-0.1,0.9-0.2,1.4-0.4
			c1.1,3.7,2.1,7.3,3.2,11h3.5c-0.8-1.5-1.6-3-2.9-5.6c3.8,1.1,7.1,0.7,7.2,5.6h198.1v-69C982,430.5,979.3,430.4,976.7,430.2z
			 M441,452c2.9-2.3,5.8-4.6,9.1,0.7C446.6,452.4,443.8,452.2,441,452z M529.9,495.3c-2.4-1.2-2.7-3.1-0.3-6.5c1.1,2.4,2,4.2,2.8,6
			C531.6,495,530.6,495.6,529.9,495.3z M560.8,472l0.1-1.6c3.1,0,6.2-0.2,9.2,0.2c0.5,0.1,0.7,3.2,1.1,5.4
			C567.1,474.4,563.9,473.2,560.8,472z M624.5,444.4c-1.2,0.6-2.3,1.3-3.4,1.9c3.3-6.2,3.3-6.2,6.9-3.7
			C626.7,443.3,625.6,443.8,624.5,444.4z M634.8,435.7c-2.2-0.1-4.3-0.5-6.5-0.8c0.1-0.7,0.1-1.4,0.2-2.1c2.1-0.3,4.1-0.7,6.2-0.7
			c0.6,0,1.2,1.2,1.8,1.8C635.9,434.5,635.3,435.7,634.8,435.7z M697.8,436.5c-1,0.3-2.1,0-3,0.5c-5.4,3.1-10.2-2-15.4-1.3
			c-0.5,0.1-1.3-2.3-1.8-3.4c2.6-4.2,5.1-0.7,7.6-0.6c2.4,0,4.7-0.1,7.1-0.2c2.6,0.9,4.8,3.1,7.2-2.3c1,2.5,1.5,4.1,2.1,5.6
			C700.3,435.4,699.1,436.1,697.8,436.5z M720.2,496.4c-1.5-2.5-3.1-5-2-8.4c0.4-0.2,0.9-0.3,1.3-0.5c0.8,2.8,1.6,5.5,2.5,8.3
			C721.3,496,720.8,496.2,720.2,496.4z M720.4,437.6c-0.2-0.5-0.3-1.1-0.5-1.6c1.5-0.6,3-1.8,4.4-1.7c0.7,0.1,1.4,2.4,2.5,4.7
			C723.9,438.4,722.2,438,720.4,437.6z M749.8,443.1c-3.1-3,4.8-6.1-0.2-8.9c-2.1,2.2-4,4.3-6,6.3c-0.3-0.1-0.7-0.2-1-0.3
			c0.4-2.4,0.3-5.3,1.4-6.9c1.1-1.6,4.6-3.1,5.4-2.3c2.5,2.3,4.2,5.7,6.5,9.2C753,441.6,751.3,442.4,749.8,443.1z"/>
		<path class="st1" d="M583.1,427.9c-1.3,1-2.5,2.2-3.9,3c-0.1,0.1-1-1.2-1.5-1.9c1.3-1.1,2.7-2.2,4-3.3
			C582.2,426.5,582.6,427.2,583.1,427.9z"/>
	</g>
	<g>
		<path class="st1" d="M976.7,430.2c-1.9-0.1-3.7-0.5-5.6-0.8c0.8-1.6,1.7-3.2,2.5-4.8c0.1-0.2-0.1-0.6-0.2-1.4H956
			c2.7,2,4.9,3.6,7.1,5.4c-3.3,2.1-5.2-0.1-7.1-2.5c-2.2-2.9-5-4.9-7.9-2.3c-2.5,2.1-4.3,1.7-6.6,0.2c-0.8-0.5-1.9-1.1-2.8-1.1
			c-6.9,0.2-13.8,0.7-20.7,0.8c-11.3,0.1-22.6,0.1-33.9,0c-1.5,0-3.2-0.9-4.5-1.9c-3-2.4-8.4-2.4-11.5-0.7c-3,1.6-6.4,2.1-9.6,2.9
			c-2,0.5-4.7,0.1-6.1,1.4c-5.9,5.9-5.8,6.1-13,1.3c2.8-0.4,5.5-0.8,8.3-1.2c-2-1.5-4.8-1.1-5.8-2.4c-3.6-4.7-6.6-2-9.7,0.3
			c-3.5,2.7-8.5,2.1-12-1c-1.3-1.1-4.2-1.2-5.6-0.2c-2.3,1.5-3.9,2.9-6.9,1.8c-1.6-0.6-3.9,1.2-5.8,1.7c-1.6,0.5-4.3,1.6-4.6,1
			c-2.5-4.2-4.7-2.1-7.3,0.5c-2.5-3.3-3.7-8.8-9.1-7c-0.4,2-0.8,4.1-1.2,6.5c-2.8-1-5.2-2.4-7.7-2.5c-8.2-0.3-16.4-0.4-24.6-0.1
			c-3.6,0.1-7.2,1.7-10.7,1.6c-4.7-0.2-9.3-1.7-14-2c-2.5-0.1-5,1.3-7.4,2c0.8,4,1.4,6.9,2.2,10.6c-4.5-0.5-8.3-0.9-12.1-1.4
			l0.1-1.3c5.4,0.1,7.3-2.1,7.8-9.2c-2.9,0-5.7,0-8.6,0c-6,0.1-12.1,0-18.1,0.3c-2.9,0.1-5.8,1-9.2,1.6c-9.2,0.4-18.8-2.7-29.1-0.8
			c-10,1.8-20.5,0-31-0.3c0.2-1.8,0.2-2.6,0.4-3.4c0.2-0.5,0.4-1,0.6-1.6c-0.3,0-0.6,0.1-0.9,0.1c-1.3,0.4-2.6,0.6-3.9,0.8
			c-1.4,0.2-2.8,0.3-4.3,0.4c-1.1,0.1-2.1,0.3-3.2,0.4c-4.3,0.5-8.5,0.7-12.8,0.3c-0.4,0-0.8-0.1-1.2-0.2c-0.6,0-1.3,0-1.9,0
			c0.4,2.6,0.9,5.3,1.3,7.9c0.1,0.9,0.1,2-0.2,2.8c-0.5,1.1-1.3,2-2,3c1.2,0.1,2.5,0.3,3.9,0.4c1.1,3.5-0.1,5.1-3.3,5.2
			c-1.6,0.1-3.1,0.5-4.7,0.7c-4.8,0.7-9.6,1.4-14.4,2c-0.1-0.8-0.2-1.5-0.3-2.3c1.2-0.3,2.5-0.5,3.7-0.8c3.5-1,7.1-1.8,10.5-3.1
			c0.6-0.2,0.7-2.3,1-3.5c-1.2-0.4-2.3-0.9-3.5-1.2c-1.5-0.3-3.6,0.1-4.6-0.8c-1.8-1.8-3-4.4-4.4-6.7c-4.2,3.6-6,3.5-10,0.3
			c-4.2,0.3-7.2,0.5-10.3,0.6c-3.7,0.2-7.4,0.7-11,0.4c-5.6-0.5-11.6,1.9-16.8-2.6c-0.5-0.5-1.6-0.2-2.5-0.1
			c-4.6,0.4-9.3,1-13.9,1.1c-18.6,0.3-37.3,0.5-55.9,0.7c-2.4,0-4.8,0.7-7.2,0.6c-3.3-0.2-6.5-1.2-9.8-1.2
			c-21.8,0.2-43.6,0.7-65.5,0.7c-12,0-24-0.8-36-1c-14.9-0.2-29.8,0-44.7,0.1v74h127.7c0.5-2.7,0.9-5.3,1.5-8.3
			c3.1,1.5,3.4,4.9,3.7,8.3h173.8c-0.3-2.6-0.5-5.2-0.8-8.2c3.1,1.2,5.3,3.6,5.2,8.2h16.5c0.7-2.3,1.4-4.5,2-6.8
			c0.5-1.6,0.8-3.3,1.4-5.8c3.8,4,7.2,7.2,7.8,12.6h63.4c0.5-4.3,3.6-7.2,7.5-7c4.4,0.2,3.9,3.7,3.8,7h33c1.6-3.6,4.8-3.3,7.6-3.5
			c0.6,0,1.3,2.3,2,3.5h9.6c-1.3-3.2-2.5-6.3-3.9-9.8c2-0.5,3.5-0.9,4.5-1.2c2,2.7,3.8,5.2,5.6,7.6l1.2-0.9c0.1,1.4,0.3,2.9,0.4,4.3
			h8.7l-3.1-7.2c0.4-0.3,0.9-0.5,1.3-0.8c2.1,2.6,4.1,5.2,6.2,7.8c-0.7-3.5-1.3-6.9-2-10.4c0.5-0.1,0.9-0.2,1.4-0.4
			c1.1,3.7,2.1,7.3,3.2,11h3.5c-0.8-1.5-1.6-3-2.9-5.6c3.8,1.1,7.1,0.7,7.2,5.6h198.1v-69C982,430.5,979.3,430.4,976.7,430.2z
			 M441,452c2.9-2.3,5.8-4.6,9.1,0.7C446.6,452.4,443.8,452.2,441,452z M529.9,495.3c-2.4-1.2-2.7-3.1-0.3-6.5c1.1,2.4,2,4.2,2.8,6
			C531.6,495,530.6,495.6,529.9,495.3z M560.8,472l0.1-1.6c3.1,0,6.2-0.2,9.2,0.2c0.5,0.1,0.7,3.2,1.1,5.4
			C567.1,474.4,563.9,473.2,560.8,472z M624.5,444.4c-1.2,0.6-2.3,1.3-3.4,1.9c3.3-6.2,3.3-6.2,6.9-3.7
			C626.7,443.3,625.6,443.8,624.5,444.4z M634.8,435.7c-2.2-0.1-4.3-0.5-6.5-0.8c0.1-0.7,0.1-1.4,0.2-2.1c2.1-0.3,4.1-0.7,6.2-0.7
			c0.6,0,1.2,1.2,1.8,1.8C635.9,434.5,635.3,435.7,634.8,435.7z M697.8,436.5c-1,0.3-2.1,0-3,0.5c-5.4,3.1-10.2-2-15.4-1.3
			c-0.5,0.1-1.3-2.3-1.8-3.4c2.6-4.2,5.1-0.7,7.6-0.6c2.4,0,4.7-0.1,7.1-0.2c2.6,0.9,4.8,3.1,7.2-2.3c1,2.5,1.5,4.1,2.1,5.6
			C700.3,435.4,699.1,436.1,697.8,436.5z M720.2,496.4c-1.5-2.5-3.1-5-2-8.4c0.4-0.2,0.9-0.3,1.3-0.5c0.8,2.8,1.6,5.5,2.5,8.3
			C721.3,496,720.8,496.2,720.2,496.4z M720.4,437.6c-0.2-0.5-0.3-1.1-0.5-1.6c1.5-0.6,3-1.8,4.4-1.7c0.7,0.1,1.4,2.4,2.5,4.7
			C723.9,438.4,722.2,438,720.4,437.6z M749.8,443.1c-3.1-3,4.8-6.1-0.2-8.9c-2.1,2.2-4,4.3-6,6.3c-0.3-0.1-0.7-0.2-1-0.3
			c0.4-2.4,0.3-5.3,1.4-6.9c1.1-1.6,4.6-3.1,5.4-2.3c2.5,2.3,4.2,5.7,6.5,9.2C753,441.6,751.3,442.4,749.8,443.1z"/>
		<path class="st1" d="M583.1,427.9c-1.3,1-2.5,2.2-3.9,3c-0.1,0.1-1-1.2-1.5-1.9c1.3-1.1,2.7-2.2,4-3.3
			C582.2,426.5,582.6,427.2,583.1,427.9z"/>
	</g>
	<g>
		<g>
			<path class="st2" d="M583.1,427.9c-0.5-0.7-0.9-1.4-1.4-2.1c-1.3,1.1-2.7,2.2-4,3.3c0.5,0.7,1.3,1.9,1.5,1.9
				C580.6,430.1,581.8,429,583.1,427.9z"/>
		</g>
		<line class="st3" x1="523.1" y1="425.1" x2="559.1" y2="425.1"/>
		<line class="st3" x1="523.1" y1="431.4" x2="559.1" y2="431.4"/>
		<line class="st3" x1="577.1" y1="485.4" x2="577.1" y2="449.4"/>
		<line class="st3" x1="637.7" y1="425.1" x2="601.7" y2="425.1"/>
		<line class="st3" x1="637.7" y1="431.4" x2="601.7" y2="431.4"/>
		<line class="st3" x1="583.7" y1="485.4" x2="583.7" y2="449.4"/>
	</g>
</g>
<g id="bkwvWy_1_">
	<g>
		<g>
			<path class="st4" d="M2139,380c-14.1,5.6-19.1,8.8-33.5-5.2c-1.3-1.2-2.6-2.5-5.3-3.5c0,3.3-0.1,6.7,0,10
				c0.3,5.5,0.5,11,1.3,16.4c0.6,4,1.4,8.3,3.5,11.6c6.2,9.8,13.2,19.1,19.6,28.8c0.9,1.3,0.8,4.8-0.1,5.4
				c-5.5,3.6-11.3,6.7-18.5,10.8c0.2-3.7,0.4-5.8,0.4-8c0-2.4,0.7-5.5-0.4-7.2c-6-9.1-10.2-19.7-20.3-25.5c-0.7-0.4-1.4-0.8-2.7-1.6
				c-0.8,2-1.8,3.6-2.3,5.4c-2.2,8.9-4.2,17.8-6.3,26.7c-0.1,0.3-0.2,0.6-0.2,1c-0.1,2.3,0.8,5.7-0.4,6.7c-1.6,1.3-4.7,0.9-7.2,1.1
				c-3.2,0.2-6.3,0.3-9.5,0.3c-3.6,0-4.3-2.3-2.2-4.5c6.8-7.1,8-16.4,9.7-25.3c1-5.2,0.2-10.8,0.2-16.2c-6.9,0-13,0.8-18.7-0.2
				c-5.6-1-10.8-3.9-17-6.2c-0.3,1.8-1,3.7-0.7,5.4c2.3,13.9,4.7,27.8,7.2,41.8c0.5,3,0.1,4.9-3.5,4.9c-5.6-0.1-11.2,0-18.5,0
				c1.7-3.2,2.4-5.5,3.9-7.1c2.5-2.6,3.1-5.3,2.2-8.6c-1.6-6-3.1-12.1-5-19.4c-2,2.3-3.2,3.4-3.9,4.7c-4,7.4-10.5,13.8-9.4,23.4
				c0.1,0.8-2.6,3-3.5,2.8c-5.4-1.3-10.7-3.2-16.4-5c0.7-1.3,0.8-2.3,1.4-2.7c6.6-3.9,8.3-10.6,10.7-17.2c2.7-7.7,6-15.2,10.1-22.2
				c4.3-7.4,0.3-17.1-8.6-22.5c-7.8-4.7-13.7-3.5-20.2,3.5c-8.2,8.8-18,15.1-30.7,14.5c-1.8-0.1-6.2,2.1-5.1-3.3
				c0-0.2-2.3-1-3.6-1.3c-5.4-1.4-9.5-4.3-12.9-8.8c-1.3-1.7-5.1-2.9-7.2-2.4c-3.1,0.8-4.4-0.7-6.7-1.9
				c-10.6-5.6-15.3-15.3-19.6-25.6c-2.7-6.4-5.6-12.8-8.4-19.1c-0.3-0.7-1-1.2-2.2-2.7c-1.7,8.8-8.1,14.8-7.7,23.8
				c0.3,7.7-2.6,15.5,1,23.1c1.4,2.9,2.2,6.3,4.1,8.8c7.3,10.1,15.8,19.6,19,32c1.6,6.3,1.6,13.1,2.2,19.6c0.3,3.4,0.8,6.9,0.2,10.2
				c-0.3,1.6-3,3.9-4.6,3.9c-9.6,0-19.3-0.4-28.9-1.1c-1.1-0.1-2.9-2.6-2.9-3.9c0.1-1.7,1.5-3.5,2.6-5.1c2.2-3.6,6.1-6.9,6.5-10.6
				c0.8-7.3-0.8-14.7-5.5-20.8c-6.4-8.3-15.2-13.7-25-19.4c-3.3,9.4-6.3,18.3-9.5,27.2c-1.7,4.7-3.6,9.3-5.1,14
				c-0.4,1.3-0.2,3.1,0.3,4.5c2,5.4-0.4,9.3-6.2,9.4c-7,0.1-14,0-21-0.2c-1.7-0.1-4.6-0.9-4.7-1.5c-0.2-2.1,0.2-4.7,1.3-6.5
				c2.5-4.1,5.8-7.7,8.3-11.8c2-3.4,3.4-7.1,4.9-10.8c1.3-3.4,1.8-7.1,3.4-10.4c4.5-9.6,4.5-19.6,3.5-29.9
				c-10.3-0.7-20.8,0-30.3-2.6c-9.4-2.6-17.8-8.7-26.9-13.5c-2.2,4.7-4.1,9.2-3.7,14.9c1.2,17.8,1.2,35.6-3.6,53.1
				c-1,3.6,0.1,8.1,1.3,11.9c1.7,5.2,0.6,8.5-4.8,8.7c-8.6,0.3-17.2-0.1-25.8-0.2c-3-0.1-4.7-1.8-3.1-4.5c2.2-3.7,1.3-7,0.5-10.9
				c-1.7-9.5-5.4-17.6-12.4-24.4c-8.4-8.2-9.5-16.4-4.4-27.9c4.8-10.8,9.6-21.6,14.5-32.3c3.7-8.2,1.7-15.2-5.5-20.5
				c-9.4-6.9-18.5-14.1-27.8-21.1c-1.2-0.9-2.5-1.6-3.9-2c-4.2-1.3-8.4-3.1-12.7-3.5c-2.8-0.3-5.8,1.4-8.6,2.6c-1.6,0.7-3,2-4.5,3
				c-7.2,4.3-15.8,3.5-23.6,5.7c-7.7,2.2-15.9,3.2-23.9,3.9c-6.1,0.5-11.9-1.3-16.3-6.1c0-0.7,0-1.3,0-2c4.4,0.9,8.8,1.9,13.2,2.8
				c0.1-0.4,0.2-0.8,0.3-1.2c-0.9-1.2-1.9-2.3-3.4-4.2c2.8,0.2,4.7,0.4,7.3,0.6c-0.9-1.3-1.3-2.3-2-3c-6.5-6.1-9.6-13.9-10.9-22.5
				c-2.6-17.3,9.2-34.6,25.4-37.5c2.4-0.4,5-0.4,7.4-0.2c8.4,0.6,12.1-1.7,15.1-9.7c0.2-0.6,0.7-1.1,1.4-2.3
				c1.3,5.4,4.5,5.5,8.4,3.7c-1.9,12.1-8.1,18.9-19.2,21.4c-0.7,0.1-1.3,0.3-2,0.4c-16,3-20.6,14.6-10.8,27.6c1.3,1.8,4.5,2.9,6.8,3
				c1.3,0,3.4-2.5,4-4.3c6.4-19.5,19.6-33.4,36-44.7c6.5-4.4,13.8-4.5,21.2-2.8c4.5,1.1,9.1,2,13.6,3.3c7.1,2,13.3,0.1,19.4-3.4
				c7.6-4.4,15.4-8.5,23.4-12.1c7.7-3.5,15.9-3.2,24-0.8c6.8,1.9,8.7,4.9,7.5,11.8c-0.5,2.8-1.3,5.5-2.1,8.2
				c-0.8,2.7-1.8,5.3-3.1,9.2c6.2-0.6,11.4-0.9,16.5-1.6c2.8-0.4,5.7-0.9,8.2-2c14.2-5.9,27.3-1.9,39.8,4.7
				c22,11.5,35.2,30.4,43.6,53.1c5.9,16.1,10.9,32.5,16.9,48.5c4.3,11.4,8.8,17.1,14,20.7c7.3-5.6,12-5.6,18.8,0.7
				c5.8,5.3,12.6,6.6,19.9,6.2c5.3-0.2,7.4-3.1,9.3-10c2.1-7.5,4.5-14.9,7.4-22c1.6-3.8,4.1-7.5,7.1-10.2c2.8-2.5,6.7-4.1,10.3-5
				c3.2-0.8,5.5-1.5,6.5-5c0.6-2.2,2.1-4.2,3.1-6.2c1.8-3.6,3.6-7.1,5.7-11.3c3.8,3.7,0.5,9.9,3.7,14c5.3-0.9,10.6-1.9,16-2.8
				c4.3-0.8,7,0.8,6.7,5.4c-0.2,3.9,1.5,5.8,5.1,5.6c5.1-0.3,10.6,0,15.1-1.9c15.2-6.3,27.8-1,39.5,7.8c8.7,6.5,15.8,14.5,19.6,25.3
				c2.4,6.8,8,11.8,14.7,15c4.8,2.3,9.5,2.3,14.4-0.1c1.9-0.9,4.4-0.8,6.6-1.1C2139,379.3,2139,379.7,2139,380z M1729.4,401.7
				c0.3,0,0.6,0.1,0.9,0.1c-1.2-4.6-2.3-9.2-3.5-13.8c-0.7,0-1.5,0-2.2,0c-0.2,2.1-1.3,4.5-0.6,6.1
				C1725.3,396.9,1727.6,399.2,1729.4,401.7z"/>
		</g>
	</g>
</g>
<g id="PgDVas_5_">
	<g>
		<path class="st1" d="M283.4,430.9c-1.9-0.1-3.7-0.5-5.6-0.8c0.8-1.6,1.7-3.2,2.5-4.8c0.1-0.2-0.1-0.6-0.2-1.4h-17.4
			c2.7,2,4.9,3.6,7.1,5.4c-3.3,2.1-5.2-0.1-7.1-2.5c-2.2-2.9-5-4.9-7.9-2.3c-2.5,2.1-4.3,1.7-6.6,0.2c-0.8-0.5-1.9-1.1-2.8-1.1
			c-6.9,0.2-13.8,0.7-20.7,0.8c-11.3,0.1-22.6,0.1-33.9,0c-1.5,0-3.2-0.9-4.5-1.9c-3-2.4-8.4-2.4-11.5-0.7c-3,1.6-6.4,2.1-9.6,2.9
			c-2,0.5-4.7,0.1-6.1,1.4c-5.9,5.9-5.8,6.1-13,1.3c2.8-0.4,5.5-0.8,8.3-1.2c-2-1.5-4.8-1.1-5.8-2.4c-3.6-4.7-6.6-2-9.7,0.3
			c-3.5,2.7-8.5,2.1-12-1c-1.3-1.1-4.2-1.2-5.6-0.2c-2.3,1.5-3.9,2.9-6.9,1.8c-1.6-0.6-3.9,1.2-5.8,1.7c-1.6,0.5-4.3,1.6-4.6,1
			c-2.5-4.2-4.7-2.1-7.3,0.5c-2.5-3.3-3.7-8.8-9.1-7c-0.4,2-0.8,4.1-1.2,6.5c-2.8-1-5.2-2.4-7.7-2.5c-8.2-0.3-16.4-0.4-24.6-0.1
			c-3.6,0.1-7.2,1.7-10.7,1.6c-4.7-0.2-9.3-1.7-14-2c-2.5-0.1-5,1.3-7.4,2c0.8,4,1.4,6.9,2.2,10.6c-4.5-0.5-8.3-0.9-12.1-1.4
			l0.1-1.3c5.4,0.1,7.3-2.1,7.8-9.2c-2.9,0-5.7,0-8.6,0c-6,0.1-12.1,0-18.1,0.3c-2.9,0.1-5.8,1-9.2,1.6c-9.2,0.4-18.8-2.7-29.1-0.8
			c-10,1.8-20.5,0-31-0.3c0.2-1.8,0.2-2.6,0.4-3.4c0.2-0.5,0.4-1,0.6-1.6c-0.3,0-0.6,0.1-0.9,0.1c-1.3,0.4-2.6,0.6-3.9,0.8
			c-1.4,0.2-2.8,0.3-4.3,0.4c-1.1,0.1-2.1,0.3-3.2,0.4c-4.3,0.5-8.5,0.7-12.8,0.3c-0.4,0-0.8-0.1-1.2-0.2c-0.6,0-1.3,0-1.9,0
			c0.4,2.6,0.9,5.3,1.3,7.9c0.1,0.9,0.1,2-0.2,2.8c-0.5,1.1-1.3,2-2,3c1.2,0.1,2.5,0.3,3.9,0.4c1.1,3.5-0.1,5.1-3.3,5.2
			c-1.6,0.1-3.1,0.5-4.7,0.7c-4.8,0.7-9.6,1.4-14.4,2c-0.1-0.8-0.2-1.5-0.3-2.3c1.2-0.3,2.5-0.5,3.7-0.8c3.5-1,7.1-1.8,10.5-3.1
			c0.6-0.2,0.7-2.3,1-3.5c-1.2-0.4-2.3-0.9-3.5-1.2c-1.5-0.3-3.6,0.1-4.6-0.8c-1.8-1.8-3-4.4-4.4-6.7c-4.2,3.6-6,3.5-10,0.3
			c-4.2,0.3-7.2,0.5-10.3,0.6c-3.7,0.2-7.4,0.7-11,0.4c-5.6-0.5-11.6,1.9-16.8-2.6c-0.5-0.5-1.6-0.2-2.5-0.1
			c-4.6,0.4-9.3,1-13.9,1.1c-18.6,0.3-37.3,0.5-55.9,0.7c-2.4,0-4.8,0.7-7.2,0.6c-3.3-0.2-6.5-1.2-9.8-1.2
			c-21.8,0.2-43.6,0.7-65.5,0.7c-12,0-24-0.8-36-1c-14.9-0.2-29.8,0-44.7,0.1v74h127.7c0.5-2.7,0.9-5.3,1.5-8.3
			c3.1,1.5,3.4,4.9,3.7,8.3H-97c-0.3-2.6-0.5-5.2-0.8-8.2c3.1,1.2,5.3,3.6,5.2,8.2h16.5c0.7-2.3,1.4-4.5,2-6.8
			c0.5-1.6,0.8-3.3,1.4-5.8c3.8,4,7.2,7.2,7.8,12.6h63.4c0.5-4.3,3.6-7.2,7.5-7c4.4,0.2,3.9,3.7,3.8,7h33c1.6-3.6,4.8-3.3,7.6-3.5
			c0.6,0,1.3,2.3,2,3.5H62c-1.3-3.2-2.5-6.3-3.9-9.8c2-0.5,3.5-0.9,4.5-1.2c2,2.7,3.8,5.2,5.6,7.6l1.2-0.9c0.1,1.4,0.3,2.9,0.4,4.3
			h8.7l-3.1-7.2c0.4-0.3,0.9-0.5,1.3-0.8c2.1,2.6,4.1,5.2,6.2,7.8c-0.7-3.5-1.3-6.9-2-10.4c0.5-0.1,0.9-0.2,1.4-0.4
			c1.1,3.7,2.1,7.3,3.2,11h3.5c-0.8-1.5-1.6-3-2.9-5.6c3.8,1.1,7.1,0.7,7.2,5.6h198.1v-69C288.7,431.2,286,431.1,283.4,430.9z
			 M-252.3,452.7c2.9-2.3,5.8-4.6,9.1,0.7C-246.7,453.1-249.5,452.9-252.3,452.7z M-163.3,496c-2.4-1.2-2.7-3.1-0.3-6.5
			c1.1,2.4,2,4.2,2.8,6C-161.7,495.7-162.7,496.3-163.3,496z M-132.5,472.7l0.1-1.6c3.1,0,6.2-0.2,9.2,0.2c0.5,0.1,0.7,3.2,1.1,5.4
			C-126.2,475.1-129.4,473.9-132.5,472.7z M-68.8,445.1c-1.2,0.6-2.3,1.3-3.4,1.9c3.3-6.2,3.3-6.2,6.9-3.7
			C-66.6,444-67.7,444.5-68.8,445.1z M-58.5,436.4c-2.2-0.1-4.3-0.5-6.5-0.8c0.1-0.7,0.1-1.4,0.2-2.1c2.1-0.3,4.1-0.7,6.2-0.7
			c0.6,0,1.2,1.2,1.8,1.8C-57.4,435.2-58,436.4-58.5,436.4z M4.5,437.2c-1,0.3-2.1,0-3,0.5c-5.4,3.1-10.2-2-15.4-1.3
			c-0.5,0.1-1.3-2.3-1.8-3.4c2.6-4.2,5.1-0.7,7.6-0.6c2.4,0,4.7-0.1,7.1-0.2c2.6,0.9,4.8,3.1,7.2-2.3c1,2.5,1.5,4.1,2.1,5.6
			C7,436.1,5.8,436.8,4.5,437.2z M26.9,497.1c-1.5-2.5-3.1-5-2-8.4c0.4-0.2,0.9-0.3,1.3-0.5c0.8,2.8,1.6,5.5,2.5,8.3
			C28,496.7,27.5,496.9,26.9,497.1z M27.2,438.3c-0.2-0.5-0.3-1.1-0.5-1.6c1.5-0.6,3-1.8,4.4-1.7c0.7,0.1,1.4,2.4,2.5,4.7
			C30.6,439.1,28.9,438.7,27.2,438.3z M56.5,443.8c-3.1-3,4.8-6.1-0.2-8.9c-2.1,2.2-4,4.3-6,6.3c-0.3-0.1-0.7-0.2-1-0.3
			c0.4-2.4,0.3-5.3,1.4-6.9c1.1-1.6,4.6-3.1,5.4-2.3c2.5,2.3,4.2,5.7,6.5,9.2C59.7,442.3,58,443.1,56.5,443.8z"/>
		<path class="st1" d="M-110.2,428.6c-1.3,1-2.5,2.2-3.9,3c-0.1,0.1-1-1.2-1.5-1.9c1.3-1.1,2.7-2.2,4-3.3
			C-111.1,427.2-110.6,427.9-110.2,428.6z"/>
	</g>
	<g>
		<path class="st1" d="M283.4,430.9c-1.9-0.1-3.7-0.5-5.6-0.8c0.8-1.6,1.7-3.2,2.5-4.8c0.1-0.2-0.1-0.6-0.2-1.4h-17.4
			c2.7,2,4.9,3.6,7.1,5.4c-3.3,2.1-5.2-0.1-7.1-2.5c-2.2-2.9-5-4.9-7.9-2.3c-2.5,2.1-4.3,1.7-6.6,0.2c-0.8-0.5-1.9-1.1-2.8-1.1
			c-6.9,0.2-13.8,0.7-20.7,0.8c-11.3,0.1-22.6,0.1-33.9,0c-1.5,0-3.2-0.9-4.5-1.9c-3-2.4-8.4-2.4-11.5-0.7c-3,1.6-6.4,2.1-9.6,2.9
			c-2,0.5-4.7,0.1-6.1,1.4c-5.9,5.9-5.8,6.1-13,1.3c2.8-0.4,5.5-0.8,8.3-1.2c-2-1.5-4.8-1.1-5.8-2.4c-3.6-4.7-6.6-2-9.7,0.3
			c-3.5,2.7-8.5,2.1-12-1c-1.3-1.1-4.2-1.2-5.6-0.2c-2.3,1.5-3.9,2.9-6.9,1.8c-1.6-0.6-3.9,1.2-5.8,1.7c-1.6,0.5-4.3,1.6-4.6,1
			c-2.5-4.2-4.7-2.1-7.3,0.5c-2.5-3.3-3.7-8.8-9.1-7c-0.4,2-0.8,4.1-1.2,6.5c-2.8-1-5.2-2.4-7.7-2.5c-8.2-0.3-16.4-0.4-24.6-0.1
			c-3.6,0.1-7.2,1.7-10.7,1.6c-4.7-0.2-9.3-1.7-14-2c-2.5-0.1-5,1.3-7.4,2c0.8,4,1.4,6.9,2.2,10.6c-4.5-0.5-8.3-0.9-12.1-1.4
			l0.1-1.3c5.4,0.1,7.3-2.1,7.8-9.2c-2.9,0-5.7,0-8.6,0c-6,0.1-12.1,0-18.1,0.3c-2.9,0.1-5.8,1-9.2,1.6c-9.2,0.4-18.8-2.7-29.1-0.8
			c-10,1.8-20.5,0-31-0.3c0.2-1.8,0.2-2.6,0.4-3.4c0.2-0.5,0.4-1,0.6-1.6c-0.3,0-0.6,0.1-0.9,0.1c-1.3,0.4-2.6,0.6-3.9,0.8
			c-1.4,0.2-2.8,0.3-4.3,0.4c-1.1,0.1-2.1,0.3-3.2,0.4c-4.3,0.5-8.5,0.7-12.8,0.3c-0.4,0-0.8-0.1-1.2-0.2c-0.6,0-1.3,0-1.9,0
			c0.4,2.6,0.9,5.3,1.3,7.9c0.1,0.9,0.1,2-0.2,2.8c-0.5,1.1-1.3,2-2,3c1.2,0.1,2.5,0.3,3.9,0.4c1.1,3.5-0.1,5.1-3.3,5.2
			c-1.6,0.1-3.1,0.5-4.7,0.7c-4.8,0.7-9.6,1.4-14.4,2c-0.1-0.8-0.2-1.5-0.3-2.3c1.2-0.3,2.5-0.5,3.7-0.8c3.5-1,7.1-1.8,10.5-3.1
			c0.6-0.2,0.7-2.3,1-3.5c-1.2-0.4-2.3-0.9-3.5-1.2c-1.5-0.3-3.6,0.1-4.6-0.8c-1.8-1.8-3-4.4-4.4-6.7c-4.2,3.6-6,3.5-10,0.3
			c-4.2,0.3-7.2,0.5-10.3,0.6c-3.7,0.2-7.4,0.7-11,0.4c-5.6-0.5-11.6,1.9-16.8-2.6c-0.5-0.5-1.6-0.2-2.5-0.1
			c-4.6,0.4-9.3,1-13.9,1.1c-18.6,0.3-37.3,0.5-55.9,0.7c-2.4,0-4.8,0.7-7.2,0.6c-3.3-0.2-6.5-1.2-9.8-1.2
			c-21.8,0.2-43.6,0.7-65.5,0.7c-12,0-24-0.8-36-1c-14.9-0.2-29.8,0-44.7,0.1v74h127.7c0.5-2.7,0.9-5.3,1.5-8.3
			c3.1,1.5,3.4,4.9,3.7,8.3H-97c-0.3-2.6-0.5-5.2-0.8-8.2c3.1,1.2,5.3,3.6,5.2,8.2h16.5c0.7-2.3,1.4-4.5,2-6.8
			c0.5-1.6,0.8-3.3,1.4-5.8c3.8,4,7.2,7.2,7.8,12.6h63.4c0.5-4.3,3.6-7.2,7.5-7c4.4,0.2,3.9,3.7,3.8,7h33c1.6-3.6,4.8-3.3,7.6-3.5
			c0.6,0,1.3,2.3,2,3.5H62c-1.3-3.2-2.5-6.3-3.9-9.8c2-0.5,3.5-0.9,4.5-1.2c2,2.7,3.8,5.2,5.6,7.6l1.2-0.9c0.1,1.4,0.3,2.9,0.4,4.3
			h8.7l-3.1-7.2c0.4-0.3,0.9-0.5,1.3-0.8c2.1,2.6,4.1,5.2,6.2,7.8c-0.7-3.5-1.3-6.9-2-10.4c0.5-0.1,0.9-0.2,1.4-0.4
			c1.1,3.7,2.1,7.3,3.2,11h3.5c-0.8-1.5-1.6-3-2.9-5.6c3.8,1.1,7.1,0.7,7.2,5.6h198.1v-69C288.7,431.2,286,431.1,283.4,430.9z
			 M-252.3,452.7c2.9-2.3,5.8-4.6,9.1,0.7C-246.7,453.1-249.5,452.9-252.3,452.7z M-163.3,496c-2.4-1.2-2.7-3.1-0.3-6.5
			c1.1,2.4,2,4.2,2.8,6C-161.7,495.7-162.7,496.3-163.3,496z M-132.5,472.7l0.1-1.6c3.1,0,6.2-0.2,9.2,0.2c0.5,0.1,0.7,3.2,1.1,5.4
			C-126.2,475.1-129.4,473.9-132.5,472.7z M-68.8,445.1c-1.2,0.6-2.3,1.3-3.4,1.9c3.3-6.2,3.3-6.2,6.9-3.7
			C-66.6,444-67.7,444.5-68.8,445.1z M-58.5,436.4c-2.2-0.1-4.3-0.5-6.5-0.8c0.1-0.7,0.1-1.4,0.2-2.1c2.1-0.3,4.1-0.7,6.2-0.7
			c0.6,0,1.2,1.2,1.8,1.8C-57.4,435.2-58,436.4-58.5,436.4z M4.5,437.2c-1,0.3-2.1,0-3,0.5c-5.4,3.1-10.2-2-15.4-1.3
			c-0.5,0.1-1.3-2.3-1.8-3.4c2.6-4.2,5.1-0.7,7.6-0.6c2.4,0,4.7-0.1,7.1-0.2c2.6,0.9,4.8,3.1,7.2-2.3c1,2.5,1.5,4.1,2.1,5.6
			C7,436.1,5.8,436.8,4.5,437.2z M26.9,497.1c-1.5-2.5-3.1-5-2-8.4c0.4-0.2,0.9-0.3,1.3-0.5c0.8,2.8,1.6,5.5,2.5,8.3
			C28,496.7,27.5,496.9,26.9,497.1z M27.2,438.3c-0.2-0.5-0.3-1.1-0.5-1.6c1.5-0.6,3-1.8,4.4-1.7c0.7,0.1,1.4,2.4,2.5,4.7
			C30.6,439.1,28.9,438.7,27.2,438.3z M56.5,443.8c-3.1-3,4.8-6.1-0.2-8.9c-2.1,2.2-4,4.3-6,6.3c-0.3-0.1-0.7-0.2-1-0.3
			c0.4-2.4,0.3-5.3,1.4-6.9c1.1-1.6,4.6-3.1,5.4-2.3c2.5,2.3,4.2,5.7,6.5,9.2C59.7,442.3,58,443.1,56.5,443.8z"/>
		<path class="st1" d="M-110.2,428.6c-1.3,1-2.5,2.2-3.9,3c-0.1,0.1-1-1.2-1.5-1.9c1.3-1.1,2.7-2.2,4-3.3
			C-111.1,427.2-110.6,427.9-110.2,428.6z"/>
	</g>
	<g>
		<g>
			<path class="st2" d="M-110.2,428.6c-0.5-0.7-0.9-1.4-1.4-2.1c-1.3,1.1-2.7,2.2-4,3.3c0.5,0.7,1.3,1.9,1.5,1.9
				C-112.7,430.8-111.5,429.7-110.2,428.6z"/>
		</g>
		<line class="st3" x1="-170.2" y1="425.8" x2="-134.2" y2="425.8"/>
		<line class="st3" x1="-170.2" y1="432.1" x2="-134.2" y2="432.1"/>
		<line class="st3" x1="-116.2" y1="486.1" x2="-116.2" y2="450.1"/>
		<line class="st3" x1="-55.6" y1="425.8" x2="-91.6" y2="425.8"/>
		<line class="st3" x1="-55.6" y1="432.1" x2="-91.6" y2="432.1"/>
		<line class="st3" x1="-109.6" y1="486.1" x2="-109.6" y2="450.1"/>
	</g>
</g>
<g id="PgDVas_6_">
	<g>
		<path class="st1" d="M2882.4,429.9c-1.9-0.1-3.7-0.5-5.6-0.8c0.8-1.6,1.7-3.2,2.5-4.8c0.1-0.2-0.1-0.6-0.2-1.4h-17.4
			c2.7,2,4.9,3.6,7.1,5.4c-3.3,2.1-5.2-0.1-7.1-2.5c-2.2-2.9-5-4.9-7.9-2.3c-2.5,2.1-4.3,1.7-6.6,0.2c-0.8-0.5-1.9-1.1-2.8-1.1
			c-6.9,0.2-13.8,0.7-20.7,0.8c-11.3,0.1-22.6,0.1-33.9,0c-1.5,0-3.2-0.9-4.5-1.9c-3-2.4-8.4-2.4-11.5-0.7c-3,1.6-6.4,2.1-9.6,2.9
			c-2,0.5-4.7,0.1-6.1,1.4c-5.9,5.9-5.8,6.1-13,1.3c2.8-0.4,5.5-0.8,8.3-1.2c-2-1.5-4.8-1.1-5.8-2.4c-3.6-4.7-6.6-2-9.7,0.3
			c-3.5,2.7-8.5,2.1-12-1c-1.3-1.1-4.2-1.2-5.6-0.2c-2.3,1.5-3.9,2.9-6.9,1.8c-1.6-0.6-3.9,1.2-5.8,1.7c-1.6,0.5-4.3,1.6-4.6,1
			c-2.5-4.2-4.7-2.1-7.3,0.5c-2.5-3.3-3.7-8.8-9.1-7c-0.4,2-0.8,4.1-1.2,6.5c-2.8-1-5.2-2.4-7.7-2.5c-8.2-0.3-16.4-0.4-24.6-0.1
			c-3.6,0.1-7.2,1.7-10.7,1.6c-4.7-0.2-9.3-1.7-14-2c-2.5-0.1-5,1.3-7.4,2c0.8,4,1.4,6.9,2.2,10.6c-4.5-0.5-8.3-0.9-12.1-1.4
			l0.1-1.3c5.4,0.1,7.3-2.1,7.8-9.2c-2.9,0-5.7,0-8.6,0c-6,0.1-12.1,0-18.1,0.3c-2.9,0.1-5.8,1-9.2,1.6c-9.2,0.4-18.8-2.7-29.1-0.8
			c-10,1.8-20.5,0-31-0.3c0.2-1.8,0.2-2.6,0.4-3.4c0.2-0.5,0.4-1,0.6-1.6c-0.3,0-0.6,0.1-0.9,0.1c-1.3,0.4-2.6,0.6-3.9,0.8
			c-1.4,0.2-2.8,0.3-4.3,0.4c-1.1,0.1-2.1,0.3-3.2,0.4c-4.3,0.5-8.5,0.7-12.8,0.3c-0.4,0-0.8-0.1-1.2-0.2c-0.6,0-1.3,0-1.9,0
			c0.4,2.6,0.9,5.3,1.3,7.9c0.1,0.9,0.1,2-0.2,2.8c-0.5,1.1-1.3,2-2,3c1.2,0.1,2.5,0.3,3.9,0.4c1.1,3.5-0.1,5.1-3.3,5.2
			c-1.6,0.1-3.1,0.5-4.7,0.7c-4.8,0.7-9.6,1.4-14.4,2c-0.1-0.8-0.2-1.5-0.3-2.3c1.2-0.3,2.5-0.5,3.7-0.8c3.5-1,7.1-1.8,10.5-3.1
			c0.6-0.2,0.7-2.3,1-3.5c-1.2-0.4-2.3-0.9-3.5-1.2c-1.5-0.3-3.6,0.1-4.6-0.8c-1.8-1.8-3-4.4-4.4-6.7c-4.2,3.6-6,3.5-10,0.3
			c-4.2,0.3-7.2,0.5-10.3,0.6c-3.7,0.2-7.4,0.7-11,0.4c-5.6-0.5-11.6,1.9-16.8-2.6c-0.5-0.5-1.6-0.2-2.5-0.1
			c-4.6,0.4-9.3,1-13.9,1.1c-18.6,0.3-37.3,0.5-55.9,0.7c-2.4,0-4.8,0.7-7.2,0.6c-3.3-0.2-6.5-1.2-9.8-1.2
			c-21.8,0.2-43.6,0.7-65.5,0.7c-12,0-24-0.8-36-1c-14.9-0.2-29.8,0-44.7,0.1v74h127.7c0.5-2.7,0.9-5.3,1.5-8.3
			c3.1,1.5,3.4,4.9,3.7,8.3H2502c-0.3-2.6-0.5-5.2-0.8-8.2c3.1,1.2,5.3,3.6,5.2,8.2h16.5c0.7-2.3,1.4-4.5,2-6.8
			c0.5-1.6,0.8-3.3,1.4-5.8c3.8,4,7.2,7.2,7.8,12.6h63.4c0.5-4.3,3.6-7.2,7.5-7c4.4,0.2,3.9,3.7,3.8,7h33c1.6-3.6,4.8-3.3,7.6-3.5
			c0.6,0,1.3,2.3,2,3.5h9.6c-1.3-3.2-2.5-6.3-3.9-9.8c2-0.5,3.5-0.9,4.5-1.2c2,2.7,3.8,5.2,5.6,7.6l1.2-0.9c0.1,1.4,0.3,2.9,0.4,4.3
			h8.7l-3.1-7.2c0.4-0.3,0.9-0.5,1.3-0.8c2.1,2.6,4.1,5.2,6.2,7.8c-0.7-3.5-1.3-6.9-2-10.4c0.5-0.1,0.9-0.2,1.4-0.4
			c1.1,3.7,2.1,7.3,3.2,11h3.5c-0.8-1.5-1.6-3-2.9-5.6c3.8,1.1,7.1,0.7,7.2,5.6h198.1v-69C2887.7,430.2,2885,430.1,2882.4,429.9z
			 M2346.7,451.7c2.9-2.3,5.8-4.6,9.1,0.7C2352.3,452.1,2349.5,451.9,2346.7,451.7z M2435.7,495c-2.4-1.2-2.7-3.1-0.3-6.5
			c1.1,2.4,2,4.2,2.8,6C2437.3,494.7,2436.3,495.3,2435.7,495z M2466.5,471.7l0.1-1.6c3.1,0,6.2-0.2,9.2,0.2
			c0.5,0.1,0.7,3.2,1.1,5.4C2472.8,474.1,2469.6,472.9,2466.5,471.7z M2530.2,444.1c-1.2,0.6-2.3,1.3-3.4,1.9
			c3.3-6.2,3.3-6.2,6.9-3.7C2532.4,443,2531.3,443.5,2530.2,444.1z M2540.5,435.4c-2.2-0.1-4.3-0.5-6.5-0.8c0.1-0.7,0.1-1.4,0.2-2.1
			c2.1-0.3,4.1-0.7,6.2-0.7c0.6,0,1.2,1.2,1.8,1.8C2541.6,434.2,2541,435.4,2540.5,435.4z M2603.5,436.2c-1,0.3-2.1,0-3,0.5
			c-5.4,3.1-10.2-2-15.4-1.3c-0.5,0.1-1.3-2.3-1.8-3.4c2.6-4.2,5.1-0.7,7.6-0.6c2.4,0,4.7-0.1,7.1-0.2c2.6,0.9,4.8,3.1,7.2-2.3
			c1,2.5,1.5,4.1,2.1,5.6C2606,435.1,2604.8,435.8,2603.5,436.2z M2625.9,496.1c-1.5-2.5-3.1-5-2-8.4c0.4-0.2,0.9-0.3,1.3-0.5
			c0.8,2.8,1.6,5.5,2.5,8.3C2627,495.7,2626.5,495.9,2625.9,496.1z M2626.2,437.3c-0.2-0.5-0.3-1.1-0.5-1.6c1.5-0.6,3-1.8,4.4-1.7
			c0.7,0.1,1.4,2.4,2.5,4.7C2629.6,438.1,2627.9,437.7,2626.2,437.3z M2655.5,442.8c-3.1-3,4.8-6.1-0.2-8.9c-2.1,2.2-4,4.3-6,6.3
			c-0.3-0.1-0.7-0.2-1-0.3c0.4-2.4,0.3-5.3,1.4-6.9c1.1-1.6,4.6-3.1,5.4-2.3c2.5,2.3,4.2,5.7,6.5,9.2
			C2658.7,441.3,2657,442.1,2655.5,442.8z"/>
		<path class="st1" d="M2488.8,427.6c-1.3,1-2.5,2.2-3.9,3c-0.1,0.1-1-1.2-1.5-1.9c1.3-1.1,2.7-2.2,4-3.3
			C2487.9,426.2,2488.4,426.9,2488.8,427.6z"/>
	</g>
	<g>
		<path class="st1" d="M2882.4,429.9c-1.9-0.1-3.7-0.5-5.6-0.8c0.8-1.6,1.7-3.2,2.5-4.8c0.1-0.2-0.1-0.6-0.2-1.4h-17.4
			c2.7,2,4.9,3.6,7.1,5.4c-3.3,2.1-5.2-0.1-7.1-2.5c-2.2-2.9-5-4.9-7.9-2.3c-2.5,2.1-4.3,1.7-6.6,0.2c-0.8-0.5-1.9-1.1-2.8-1.1
			c-6.9,0.2-13.8,0.7-20.7,0.8c-11.3,0.1-22.6,0.1-33.9,0c-1.5,0-3.2-0.9-4.5-1.9c-3-2.4-8.4-2.4-11.5-0.7c-3,1.6-6.4,2.1-9.6,2.9
			c-2,0.5-4.7,0.1-6.1,1.4c-5.9,5.9-5.8,6.1-13,1.3c2.8-0.4,5.5-0.8,8.3-1.2c-2-1.5-4.8-1.1-5.8-2.4c-3.6-4.7-6.6-2-9.7,0.3
			c-3.5,2.7-8.5,2.1-12-1c-1.3-1.1-4.2-1.2-5.6-0.2c-2.3,1.5-3.9,2.9-6.9,1.8c-1.6-0.6-3.9,1.2-5.8,1.7c-1.6,0.5-4.3,1.6-4.6,1
			c-2.5-4.2-4.7-2.1-7.3,0.5c-2.5-3.3-3.7-8.8-9.1-7c-0.4,2-0.8,4.1-1.2,6.5c-2.8-1-5.2-2.4-7.7-2.5c-8.2-0.3-16.4-0.4-24.6-0.1
			c-3.6,0.1-7.2,1.7-10.7,1.6c-4.7-0.2-9.3-1.7-14-2c-2.5-0.1-5,1.3-7.4,2c0.8,4,1.4,6.9,2.2,10.6c-4.5-0.5-8.3-0.9-12.1-1.4
			l0.1-1.3c5.4,0.1,7.3-2.1,7.8-9.2c-2.9,0-5.7,0-8.6,0c-6,0.1-12.1,0-18.1,0.3c-2.9,0.1-5.8,1-9.2,1.6c-9.2,0.4-18.8-2.7-29.1-0.8
			c-10,1.8-20.5,0-31-0.3c0.2-1.8,0.2-2.6,0.4-3.4c0.2-0.5,0.4-1,0.6-1.6c-0.3,0-0.6,0.1-0.9,0.1c-1.3,0.4-2.6,0.6-3.9,0.8
			c-1.4,0.2-2.8,0.3-4.3,0.4c-1.1,0.1-2.1,0.3-3.2,0.4c-4.3,0.5-8.5,0.7-12.8,0.3c-0.4,0-0.8-0.1-1.2-0.2c-0.6,0-1.3,0-1.9,0
			c0.4,2.6,0.9,5.3,1.3,7.9c0.1,0.9,0.1,2-0.2,2.8c-0.5,1.1-1.3,2-2,3c1.2,0.1,2.5,0.3,3.9,0.4c1.1,3.5-0.1,5.1-3.3,5.2
			c-1.6,0.1-3.1,0.5-4.7,0.7c-4.8,0.7-9.6,1.4-14.4,2c-0.1-0.8-0.2-1.5-0.3-2.3c1.2-0.3,2.5-0.5,3.7-0.8c3.5-1,7.1-1.8,10.5-3.1
			c0.6-0.2,0.7-2.3,1-3.5c-1.2-0.4-2.3-0.9-3.5-1.2c-1.5-0.3-3.6,0.1-4.6-0.8c-1.8-1.8-3-4.4-4.4-6.7c-4.2,3.6-6,3.5-10,0.3
			c-4.2,0.3-7.2,0.5-10.3,0.6c-3.7,0.2-7.4,0.7-11,0.4c-5.6-0.5-11.6,1.9-16.8-2.6c-0.5-0.5-1.6-0.2-2.5-0.1
			c-4.6,0.4-9.3,1-13.9,1.1c-18.6,0.3-37.3,0.5-55.9,0.7c-2.4,0-4.8,0.7-7.2,0.6c-3.3-0.2-6.5-1.2-9.8-1.2
			c-21.8,0.2-43.6,0.7-65.5,0.7c-12,0-24-0.8-36-1c-14.9-0.2-29.8,0-44.7,0.1v74h127.7c0.5-2.7,0.9-5.3,1.5-8.3
			c3.1,1.5,3.4,4.9,3.7,8.3H2502c-0.3-2.6-0.5-5.2-0.8-8.2c3.1,1.2,5.3,3.6,5.2,8.2h16.5c0.7-2.3,1.4-4.5,2-6.8
			c0.5-1.6,0.8-3.3,1.4-5.8c3.8,4,7.2,7.2,7.8,12.6h63.4c0.5-4.3,3.6-7.2,7.5-7c4.4,0.2,3.9,3.7,3.8,7h33c1.6-3.6,4.8-3.3,7.6-3.5
			c0.6,0,1.3,2.3,2,3.5h9.6c-1.3-3.2-2.5-6.3-3.9-9.8c2-0.5,3.5-0.9,4.5-1.2c2,2.7,3.8,5.2,5.6,7.6l1.2-0.9c0.1,1.4,0.3,2.9,0.4,4.3
			h8.7l-3.1-7.2c0.4-0.3,0.9-0.5,1.3-0.8c2.1,2.6,4.1,5.2,6.2,7.8c-0.7-3.5-1.3-6.9-2-10.4c0.5-0.1,0.9-0.2,1.4-0.4
			c1.1,3.7,2.1,7.3,3.2,11h3.5c-0.8-1.5-1.6-3-2.9-5.6c3.8,1.1,7.1,0.7,7.2,5.6h198.1v-69C2887.7,430.2,2885,430.1,2882.4,429.9z
			 M2346.7,451.7c2.9-2.3,5.8-4.6,9.1,0.7C2352.3,452.1,2349.5,451.9,2346.7,451.7z M2435.7,495c-2.4-1.2-2.7-3.1-0.3-6.5
			c1.1,2.4,2,4.2,2.8,6C2437.3,494.7,2436.3,495.3,2435.7,495z M2466.5,471.7l0.1-1.6c3.1,0,6.2-0.2,9.2,0.2
			c0.5,0.1,0.7,3.2,1.1,5.4C2472.8,474.1,2469.6,472.9,2466.5,471.7z M2530.2,444.1c-1.2,0.6-2.3,1.3-3.4,1.9
			c3.3-6.2,3.3-6.2,6.9-3.7C2532.4,443,2531.3,443.5,2530.2,444.1z M2540.5,435.4c-2.2-0.1-4.3-0.5-6.5-0.8c0.1-0.7,0.1-1.4,0.2-2.1
			c2.1-0.3,4.1-0.7,6.2-0.7c0.6,0,1.2,1.2,1.8,1.8C2541.6,434.2,2541,435.4,2540.5,435.4z M2603.5,436.2c-1,0.3-2.1,0-3,0.5
			c-5.4,3.1-10.2-2-15.4-1.3c-0.5,0.1-1.3-2.3-1.8-3.4c2.6-4.2,5.1-0.7,7.6-0.6c2.4,0,4.7-0.1,7.1-0.2c2.6,0.9,4.8,3.1,7.2-2.3
			c1,2.5,1.5,4.1,2.1,5.6C2606,435.1,2604.8,435.8,2603.5,436.2z M2625.9,496.1c-1.5-2.5-3.1-5-2-8.4c0.4-0.2,0.9-0.3,1.3-0.5
			c0.8,2.8,1.6,5.5,2.5,8.3C2627,495.7,2626.5,495.9,2625.9,496.1z M2626.2,437.3c-0.2-0.5-0.3-1.1-0.5-1.6c1.5-0.6,3-1.8,4.4-1.7
			c0.7,0.1,1.4,2.4,2.5,4.7C2629.6,438.1,2627.9,437.7,2626.2,437.3z M2655.5,442.8c-3.1-3,4.8-6.1-0.2-8.9c-2.1,2.2-4,4.3-6,6.3
			c-0.3-0.1-0.7-0.2-1-0.3c0.4-2.4,0.3-5.3,1.4-6.9c1.1-1.6,4.6-3.1,5.4-2.3c2.5,2.3,4.2,5.7,6.5,9.2
			C2658.7,441.3,2657,442.1,2655.5,442.8z"/>
		<path class="st1" d="M2488.8,427.6c-1.3,1-2.5,2.2-3.9,3c-0.1,0.1-1-1.2-1.5-1.9c1.3-1.1,2.7-2.2,4-3.3
			C2487.9,426.2,2488.4,426.9,2488.8,427.6z"/>
	</g>
	<g>
		<g>
			<path class="st2" d="M2488.8,427.6c-0.5-0.7-0.9-1.4-1.4-2.1c-1.3,1.1-2.7,2.2-4,3.3c0.5,0.7,1.3,1.9,1.5,1.9
				C2486.3,429.8,2487.5,428.7,2488.8,427.6z"/>
		</g>
		<line class="st3" x1="2428.8" y1="424.8" x2="2464.8" y2="424.8"/>
		<line class="st3" x1="2428.8" y1="431.1" x2="2464.8" y2="431.1"/>
		<line class="st3" x1="2482.8" y1="485.1" x2="2482.8" y2="449.1"/>
		<line class="st3" x1="2543.4" y1="424.8" x2="2507.4" y2="424.8"/>
		<line class="st3" x1="2543.4" y1="431.1" x2="2507.4" y2="431.1"/>
		<line class="st3" x1="2489.4" y1="485.1" x2="2489.4" y2="449.1"/>
	</g>
</g>
<g id="PgDVas_1_">
	<g>
		<g>
			<path class="st5" d="M722.7,102.1c-5.6-1.1-11.2-2.8-16.9-3.1c-17.2-0.9-33.3-9.5-50.5-10.8c-10.4-0.8-20.7-4.3-31-6.7
				c-0.9-0.2-1.9-0.4-2.5-1c-9.2-9.2-20.4-6-30.3-5.5c-9.3,0.5-18-1.6-26.8-2.9c-10.2-1.6-20.2-6.1-30.4-8.2
				c-8.5-1.7-17.2-1.8-25.8-2.7c-2.1-0.2-4.6,0.1-6.3-1.2c-7-5.1-15.4-3.4-22.6-9.3c-6.1-5-14.3-6.2-21.7-8.3
				c-13.7-3.8-27.4-6.5-41.6-4.7c-14.8,1.9-29.7,2.1-44.6,3.1c-2.2,0.1-4.3,0.5-6.5,0.7c-2.3-2.3-5-4-7.7-4.3
				c-12.4-1.6-13.9-3.7-11.6-16.7c0.1-0.4-0.2-0.8-0.4-1.2C328.6,8.6,283.2-1,254.6,0.1c-2.7,2.7-4,5.2-5.6,5.6
				c-5.4,1.2-9,8.1-15.6,5.9c-3.5-1.2-8.5,6.5-7.5,10.1c1.6,5.7-0.4,6-3.8,5.1c-0.4-0.1-0.9,0.4-1.3,0.6c0.6,1.6,1.1,3,1.8,5.1
				c-2.6-1.3-4.4-2.2-6.2-3.2c-0.1,0.5-0.3,0.9-0.4,1.4l3.4,5.1c-0.2,0.6-0.4,1.2-0.5,1.7c-3.2-0.2-6.6-1.4-9.5-0.4
				c-5.1,1.8-9.2-0.7-13.8-2.4c-7.2-2.7-14.6-4.8-22-5.9c-4.8-0.7-9.8,2-14.6,1.3c-7.9-1.1-15,0.6-22.1,4.8
				c-6.1,3.6-12.2,7.2-18.5,10.4c-5,2.5-9,7.7-15.1,7.9c-1.6,0-3.8,3-6.5,1.2c-4-2.6-7.9-3.7-11.3,1.7c-0.5,0.7-1.6,1.3-2.4,1.1
				c-7.6-1.9-15.2-3.1-23-1.9c-8.4,1.3-16.8,1.6-25.2,3.1c-4.6,0.9-9,3.4-13.6,5.2c1.1,3.1,1.7,5.1,2.6,7.4
				c-1.9,0.5-3.3,0.9-5.5,1.5c2.7,2.6,4.8,4.5,7.4,7c-5.5,6.5-12.1,7.3-18.1,8.7c-3.4,0.8-7.7-2.7-10.8-1.3
				c-10.1,4.5-21.3,1.2-31.2,7.8c-8.8,5.9-18.5,9.5-27.8,14.4c-1.9,1-3.2,3.6-5,5.1c-2.9,2.4-6,4.6-9.6,7.3c2.5,1.1,4,1.7,6.7,2.9
				c-3,2.3-4.9,3.8-6.8,5.2c-0.7,0.5-1.6,0.5-2.4,0.7c1.3,6.9-3,4-5.3,4.9c-0.8,0.3-1.5,1.1-2.9,2c6.2,1.6,12,5.4,16.8,4
				c13.1-3.8,25.9,0.1,38.8,0.2c5.6,0,11.2,3.2,17.2,5.1c0.1-1.5,0.3-3.4,0.4-5.1c2,0,3.8,0.6,5.2-0.1c5.4-2.6,14.1-0.2,16.9,6
				c3.7,8.4,10,11.2,16.5,14.4c7.5,3.7,15.3,6.4,21.5,14.4c6,7.7,13.2,14.5,20.9,19.3c10.2,6.3,21.2,10.5,32.1,15
				c9.5,3.9,19.3,6.6,28.8,10.6c18.3,7.8,36.5,15.9,54.5,24.7c6.7,3.3,13.7,7.6,18.9,13.7c9.5,11.2,18.1,23.7,26.4,36.3
				c11.5,17.5,22.9,34.9,37,49.5c6.2,6.4,11,15.3,12.4,26.2c1.9,14.4,4.2,28.7,6.2,43c0.2,1.2,0.2,2.7-0.3,3.8
				c-0.6,1.5-1.7,2.7-2.5,4c1.5,0.2,3,0.4,4.8,0.6c0.2,0.8,0.4,1.5,0.5,2.2c1.9,0.5,3.8,0.9,5.7,1.3c5,0.7,10,1.4,14.9,2.2
				c0.1-0.1,0.2-0.3,0.3-0.4c-0.3,0-0.6-0.1-0.9-0.1c0.3,0,0.6,0.1,0.9,0.1c0.5-0.7,1.1-1.4,1.6-2.1c0.4-0.6,0.9-1.1,1.4-1.6
				c0.8-1.9,1.9-3.5,3.4-4.4c0.2-0.1,0.4-0.2,0.6-0.3c2.3-2.6,4.7-5.1,7.2-7.4c-0.4-1.3-0.6-2.6-0.6-4c-1.6-0.1-3.3-0.2-4.9-0.2
				c0.3-2.4,0.2-3.6,0.5-4.6c7.9-24,21.2-41.4,40.3-51.4c3.1-1.6,6.5-3,9.2-5.4c5.7-5,11.1-10.6,16.5-16.2
				c7.1-7.4,14.2-14.9,20.9-22.8c5.9-7,11.1-15.1,16.9-22.2c13.1-15.9,30.6-19.7,46.9-26.4c8.1-3.4,17.6-2.9,24.8-8
				c12.4-8.6,25.7-13.8,39-18.7c24.2-9,41.7-28.8,55.4-54.5c4.1-7.6,8.1-14.5,15.3-18.1c4.3-2.1,7.8-6,7.3-13.2
				c-0.2-3.3,0.6-6.7,1-10.1c0.7-5.5,1.9-9.9,7.4-5.5c1,0.8,2.8,0.4,4.2,0.3c4.2-0.5,8.5-1.6,12.7-1.7c7.2-0.3,14.5-0.2,21.7,0
				c7.1,0.2,14.2,0.9,21.2,1.2c3.1,0.1,6.3-0.1,9.3-0.6c3.9-0.6,7.7-1.4,11.5-2.6c1.4-0.5,2.5-2.5,3.7-3.8c-0.3-0.8-0.6-1.5-0.9-2.3
				c-3.8,0.4-7.6,0.7-11.3,1.1c-0.3-0.6-0.5-1.2-0.8-1.9c3.6-2.6,7-5.5,10.7-7.7c2.8-1.7,5.9-2.8,9-3.9c1.8-0.7,3.8-0.7,5.7-1.2
				c3.3-0.9,6.6-2,9.9-3C722.9,104,722.8,103.1,722.7,102.1z M25.4,158.8c-3.7-2.1-6.9-3.9-10-5.9c-0.2-0.1,0.4-2.2,0.7-3.4
				c-0.8-0.8-1.8-1.3-2.4-2.3c-1.1-1.8-2.2-3.7-2.9-5.7c-0.2-0.6,1.1-2.9,1.5-2.8c2,0.2,4.4,0.4,5.9,1.9c1.7,1.6,2.5,4.6,4.3,8.3
				c-2.7,0.2-4.6,0.4-6.5,0.6c3,0.9,6,1.7,9.5,2.7V158.8z M19.7,140.1c4,0.2,6.6,0.4,10.3,0.6C26.3,146,23.6,146.2,19.7,140.1z
				 M570.9,130.4c0.6-1.4,2.5-1.9,4.1-3c3,2.1,5.9,3.8,8.3,6.2c0.9,0.9,1.4,3.9,0.9,5.3c-0.4,1.2-2.8,2.3-3.8,1.9
				c-2.9-1.4-5.7-3.4-8.2-5.7C571.4,134.2,570.5,131.4,570.9,130.4z M504.5,158.3c-1.1-6-0.1-8.3,4.3-6.6c5.5,2,10.7,4.1,16.5,2
				c0.2-0.1,2.1,3.8,1.7,4.7c-4.2,8.1-8.4,16.2-13.2,23.7c-2.2,3.5-5.7,5.6-9.1,8.7c-2.4-7.7-1.4-13.7,0.5-20.2
				C506.3,167.1,505.3,162.3,504.5,158.3z M517.8,186.3c-0.8,3.6-1.5,7.2-2.5,11.7C510.2,191,510.2,191,517.8,186.3z M485.3,148.1
				c3.9,3,2,6.5-0.4,8.6c-6.4,5.7-13,11.1-19.7,16.2c-5.6,4.3-11.7,4.2-17.7,1.7l-0.5-2.1c2.6-2.4,5.3-4.8,8.2-7.6
				c-5-5.6-1.9-9.7,1.5-13.2c4.4-4.4,9.1-8.2,15-13.5C475.9,141.2,480.7,144.5,485.3,148.1z M451.5,141.3c1.4-1.3,4.5,0.2,6.9,0.5
				c-0.9,1.8-1.6,3.7-2.8,5.2c-1.3,1.7-2.9,2.9-4.3,4.4c-0.7-0.5-1.5-0.9-2.2-1.4C449.8,147,449.9,142.9,451.5,141.3z M439.3,178.4
				c-9,7.5-17.6,16.1-26.7,23.4c-6.5,5.2-13.6,8.9-20.5,13.3c-0.5-1.1-1.1-2.2-1.6-3.3c7.1-7.1,13.7-15.2,21.5-20.9
				c6.6-4.9,9.5-12.9,14-19.6c0.7-1,1.1-2.6,1.9-3.1c6.5-4.3,13.2-8.4,19.8-12.6C448.8,164.7,445,173.6,439.3,178.4z M321.9,215.2
				c1.8,10.4,0.2,22.3-3.1,26.3C313.7,231.9,319.8,225,321.9,215.2z M320,199c-2.5,2.1-5,4.4-7.6,6.2c-0.2,0.1-2.1-2.4-2.3-3.9
				c-0.4-3.2,4.1-7.6,7-7.1c1.3,0.3,2.5,1.3,3.8,1.9C320.6,197.1,320.3,198.1,320,199z M337.2,161.6c3.5,7.2,3.5,8.6-2,12.8
				c-3.2,2.4-6.6,4.5-10,6.7c-0.8,0.5-1.7,0.6-3.6,1.2c-1.3-17-2.7-32.9,13.4-40.4c1.9,2.7,2.6,5.9,0.8,10.7
				C334.9,154.8,336,159.1,337.2,161.6z M341.3,150.4c5.2-3.5,10.4-6.5,12.9-14.1c1.1-3.4,9.3-2.1,13.8,2.3
				c-9.9,6.9-19.2,13.4-28.9,20.1C337.2,155.6,338,152.6,341.3,150.4z M343.5,225.3c0,6.7,0.4,13.1-0.2,19.4
				c-0.2,2.5-2.2,5.1-3.9,6.9c-4.7,5.2-9.7,10.2-14.6,15c-1.9,1.8-4,3.2-6.9,5.5C319.2,259.2,335.4,230.3,343.5,225.3z M327,208.4
				c0-1.2,2.1-3.3,3.3-3.4c6.5-0.7,13-0.9,20.8-1.4c-8.2,9.3-15.6,17.8-23.5,26.9C327.4,222.5,327,215.5,327,208.4z M345.2,260.3
				c0.4-3.9,2.9-8.5,7.5-4.2c0.4,0.4,2.2-0.4,2.5-1.2c3.2-8.4,5.4-13.1,11.3-13.8c-0.8,9.6-2.8,18.1-7.8,25.9
				c-4.2,6.6-7,14.6-10.3,22.1c-1.1,2.5-2.1,5.2-3.1,7.8c-0.7-0.2-1.4-0.5-2.1-0.7C343.7,284.2,343.9,272.2,345.2,260.3z
				 M347.2,244.5c-0.2-5.4-0.3-11.2-0.8-16.8c-0.5-5.3,0.9-9,4.4-12c8.4-7.1,16.4-15,25-21.6c6.3-4.8,7.1-3.9,10.6,5.3
				c2.8-1,5.8-2,8.7-3C384.8,221.8,365,232.1,347.2,244.5z M386,188.2c1.4-1.6,2.5-3.8,4.2-4.8c4.5-2.7,9.1-5.1,13.8-7.3
				c2.7-1.3,5.7-2,8.5-3c0.8,2.9,0.8,4.9-2.1,6.8c-4.8,3.2-9.1,7.7-13.7,11.5c-1.2,1-2.9,2.5-3.8,2C390.4,192,388.3,189.9,386,188.2
				z M447.4,138.1c0,4.6,0.1,9-0.1,13.4c0,1-0.7,2.3-1.3,2.7c-4.6,2.7-9.5,4.8-14,7.7c-4.3,2.8-8.4,6.3-12.5,9.8
				c-2.3,2-4.3,5.3-7,1.2c0,0,0,0,0,0c1.5-1.3,3-2.5,4.5-3.9c1.2-1.1,2.8-2,3.6-3.5c6.4-12.1,16.6-18.5,25.2-27.2
				C446.2,138,446.8,138.2,447.4,138.1z M420.2,135.4c-0.5-1.3-0.8-1.9-0.9-2.5c-0.6-3.2-1.3-6.5-1.7-9.7c0-0.2,2.2-1.4,2.6-1
				c2.4,2.5,4.7,5.3,6.8,8.2c0.4,0.5-0.2,2.2,0.1,2.5c6.4,5.3,1.9,9.2-1.1,12.8c-5.2,6.2-10.1,13.1-16.1,17.6
				c-6.8,5-14.6,7.7-22,11.4c-0.4-0.7-0.9-1.5-1.3-2.2c1.1-1.6,2.2-4.5,3.4-4.7c5-0.6,7.5-5.2,10.4-9.3c1.6-2.3,4.2-3.5,5.9-5.7
				c2.4-3.3,7.9-3.9,6.4-11c-0.2-0.8,1.7-2.5,2.8-3.4C416.9,137.2,418.6,136.4,420.2,135.4z M402.8,120.9c0.9,0.9,2.3,0.9,3.5,1.2
				c2.1,0.7,5.3,0.6,5.9,2.1c1.6,4.2,3.4,9-1.6,12.7c-1.8,1.3-1.9,5.9-3.6,7.7c-4.4,4.7-8.9,9.2-13.9,12.7
				c-5.1,3.5-9.3,7.2-10.7,14.8c-0.3,1.9-1.1,4-2.2,5.3C366,193.8,349.8,203.5,330,200c-1.4-0.3-3.4-3.2-3.6-5.2
				c-0.2-2.3,0.7-5.9,2.1-7.1c6.1-5,12.5-9.3,19.1-14.1c-4-10.2-3.2-12.1,4.1-17.1c9.1-6.3,18.6-12.1,26.3-20.6
				c4.9-5.4,10.2-9.7,15.5-14.4C396.4,119,399.5,117.4,402.8,120.9z M389,118.8c-4.1,3.5-6.8,5.8-10.7,9.2
				c-0.2-5.8-0.4-9.6-0.6-15.1C381.6,115,384.5,116.5,389,118.8z M354.4,120.6c0.6-0.8,1.3-1.6,2.1-1.9c5.4-1.9,10.9-3.9,16.4-5.4
				c1.1-0.3,3.6,1.3,3.6,1.9c-0.2,4.5,0.2,10-1.7,13.2c-3,5.1-8.4,8.1-13.1,3.8c-4-3.6-7.2-3.8-11.2-1c-0.8,0.6-2.2,0-3.3-0.1
				C349.8,127.1,352.1,123.8,354.4,120.6z M351,139.8c-2.7,2.2-5.2,4.7-8.1,6.4c-0.8,0.5-3.1-0.7-3.6-1.8c-0.9-2.1-1.5-5-1.1-7.1
				c0.2-1.1,3.3-1.9,4.8-1.5C345.4,136.3,347.6,138,351,139.8z M338.7,108.6c1,6.6-0.9,9.2-7.6,10.9
				C330.4,112.3,335.4,112,338.7,108.6z M342.2,121.6c0.7,0.3,1.7,1.9,1.6,2.8c-0.1,1.3-0.9,3.3-1.7,3.6c-4,1.5-8,2.4-12.3,3.7
				C330.9,124.7,337.6,119.6,342.2,121.6z M320.1,139.5c-0.3-0.4-0.7-0.9-1-1.3c2.1-3.2,4.2-6.4,7.2-11
				C327.2,135.9,323.6,137.7,320.1,139.5z M316.7,109.5c0.6-0.3,1.3-0.6,1.9-0.9c2.2,3.1,4.3,6.2,6.5,9.3c-2.9,2.5-5.9,5.1-8.8,7.6
				c-0.7-0.6-1.4-1.2-2-1.8C315,119,315.9,114.3,316.7,109.5z M315.3,177.3c0,3.4-2.9,8-5.3,8.8c-1.6-9.9-3.1-19.5-4.8-30.6
				C313.4,161,315.3,168.5,315.3,177.3z M297.9,108.4c3.8,1.5,7.5,3.7,11.2,5.6c0.2,0.9,0.3,1.8,0.5,2.7c-2.5,2.6-4.9,5.3-7.4,7.9
				c-2.4-4.1-5-8-7.1-12.3C294.8,111.9,297.3,108.2,297.9,108.4z M302.6,141.4c0,8.8-1.9,10.5-10.1,8.9
				C296.2,147,299,144.6,302.6,141.4z M287.9,147.6c-0.6-8.5,6-15.2,12.1-12.7c0.6,0.2,1.4,1.2,1.3,1.8c0,1-0.4,2.5-1,2.9
				C296.4,142.2,292.4,144.7,287.9,147.6z M284.5,124.8c0.7-2.8,2.1-5.4,3.5-8.7c2.5,4,5.3,8.6,8.7,14.1c-3.2,0.9-5.5,1.9-7.9,2.2
				c-1.3,0.2-3.4-0.4-3.9-1.5C284.2,129.3,284.1,126.7,284.5,124.8z M286.1,155.1c-3.7,5.1-7.4,10.2-11.2,15.5
				c-5.5-8.1-4.5-12.2,2.4-14.2c2.7-0.8,5.4-1.7,8.2-2.6C285.6,154.3,285.9,154.7,286.1,155.1z M276.4,113.3c1.8-2.3,3.4-4.3,4.7-6
				c1,3.2,1.4,5.3,2.2,7.3c2.1,5.2-0.1,9.6-5.8,11.7c1.4,3,3.7,5.9,3.9,9c0.2,2.6-2.1,5.4-3.3,8.1c-1.2-2-3.2-3.7-3.6-5.9
				c-1.5-8.1-2.6-16.4-4-25.8C273.7,112.6,275.3,113,276.4,113.3z M268.8,120.9c0.3,5.5,0.7,11,1.1,18.5c-2.5-2.1-4.3-3.7-5.6-4.8
				c1.1-5.9,1.9-10,2.6-14.1C267.6,120.6,268.2,120.8,268.8,120.9z M257.6,109.8c0.1-0.7,4.9-1.1,5.7,0.1c1.5,2.3,2.3,6.1,2.2,9.1
				c-0.1,2.3-2.1,4.5-3.7,7.5c-1.9-1.2-5.3-2.2-5.4-3.8C256,118.5,256.7,114,257.6,109.8z M255.6,128.2c1.3,0.4,2.5,1.5,3.5,2.7
				c2.6,3.4,4.6,7.6,7.5,10.4c4.9,4.6,5.4,8.1-0.4,11c-5.7,2.9-8.5,6.7-7.2,14.6c-7.5-3.5-9.2-7.1-7.4-14.2
				c-4.5-6-8.9-11.6-13.1-17.6c-1.2-1.7-1.8-4.4-2.2-6.8c-0.6-4.1,1.3-5.3,4.1-4.6C245.5,125.2,250.6,126.6,255.6,128.2z
				 M229.5,167.9c-1.6-1.7-2.2-6.5-1.7-9.6c1.2-7.9,0.5-15-2.8-22c-3.7-7.9-2.9-11.1,3.4-15.9c1.5-1.2,3.3-1.9,4.7-3.1
				c3-2.5,4.3-0.6,5.6,3.1c-1.7,0.8-3.1,1.5-4.7,2.3c-0.2,7.6,1.6,13.8,6.4,18.9c3.7,3.9,7,7.8,7,15.5c0,3.9,5,8.2,8.1,11.5
				c7,7.5,14.5,13.9,12.9,28.1c-0.9,7.4,0.5,15.2,0.7,22.8c0.1,2.1-0.4,4.2-0.7,6.3c-10.8-14-22.6-24.4-35.4-32.9
				c-3.4-2.3-4-5-1.8-9.2C234.3,178.1,234.2,173,229.5,167.9z M217.9,169.2c0.8-3.9-2-7.3-6-6.7c-9.2,1.5-9.5,1.3-13.9-8.8
				c-0.5-1.2-0.8-2.8-1.6-3.5c-7.7-7-4.3-15.5-2.1-23.9c0.3-1,0.4-2.1,0.5-3.2c0-0.3-0.3-0.7-0.7-1.5c-1.5,0.8-3.1,1.7-4.9,2.7
				c-1.1-1.6-2.2-3.2-3.1-4.5c5.1-1.9,9.9-4.6,14.9-5.1c3.1-0.3,6.4,3.3,9.8,3.9c4.5,0.8,5,4.1,5.6,8.8c0.4,3.4,2.2,6.6,3.7,9.5
				c3.4,6.6,3.6,13.5,1.7,20.7c-1.6,5.9-0.3,11.1,2.8,15.5c2.7,3.7,2.2,6.7-1,10C220.3,179.4,216.3,177.1,217.9,169.2z M220.7,205.1
				c-4.7-3-5.5-6.6-3-12.3C222.1,196.1,222.1,200,220.7,205.1z M108.3,182.9c2,1.1,4.1,1.8,5.8,3.4c0.9,0.8,0.9,3.1,1.3,4.8
				c-1.6,0.1-3.7,1.1-4.6,0.2c-1.6-1.7-2.4-4.5-3.5-6.8C107.6,183.9,107.9,183.4,108.3,182.9z M104,157.1c0.9,2.5,1.7,5,2.7,7.8
				c4.7-0.4,6.6,1.9,6.8,9.5C103,173.4,101.9,171.7,104,157.1z M107.4,153.5c0.9-0.5,2.4-1.3,4-2.2v-4.8c2,0.3,3.9,0.6,5.7,1
				c1,0.2,2.6,0.2,3,1c5.7,11.4,16.6,11.6,24.5,18.4c4.9,4.3,10.9,6.6,16.4,9.8c1.1,0.7,3.2,1.8,3.1,2.2c-1.3,8.5,6.3,11.1,7.6,17.4
				c-7.3-3.3-15.1-4.8-20.8-9.9c-6.5-5.7-13.6-3.1-20.1-6.1c-6-2.8-12-4.1-14.7-13.2C114.5,162.2,110.5,158.4,107.4,153.5z
				 M169.7,184.7c-0.8-1.9-0.6-4.7-0.3-7c0.5-3.7,1-7.6,2.3-10.9c0.9-2.2,3.2-3.4,4.9-5c1,2.1,3.2,4.5,2.9,6.1
				c-1.3,6.5,0.6,10.5,4.6,14.3c2.3,2.1,3.5,5.9,4.5,7.5c7.4,3.8,13.6,6.9,19.7,10.3c1,0.5,2.2,3.3,1.9,4
				c-3.5,7.7-0.1,10.9,5.2,14.4c-1.1,0.2-2.4,0.9-3.4,0.5c-10-4.2-20-8.5-29.9-13.1c-1.7-0.8-3.4-2.7-4.4-4.6
				C174.7,195.8,172,190.4,169.7,184.7z M205.5,185.1c2.5,1.8,3.9,6,6.2,9.7c-11.6,0.1-27.2-13.3-28.7-24.1
				C190.7,175.6,198.4,179.9,205.5,185.1z M188.2,156.2c0.8-1.1,1.4-2.6,1.6-3.1c6.9,9,13.1,17.1,19.3,25.2
				c-0.1,0.4-0.2,0.7-0.3,1.1c-2.8-1.6-5.7-3-8.4-4.7c-3.8-2.4-7.7-4.8-11.3-7.7C184.2,163,184.2,161.6,188.2,156.2z M241.6,109.4
				c6.3-8.5,6.3-8.5,13-6.3c0,4.9,0.1,9.1-0.1,13.2c0,1.2-0.6,3.4-1.1,3.4c-3.6,0.5-7.6,1.9-10.9,0.5
				C238.4,118.5,238.4,113.8,241.6,109.4z M238.8,104.7c-0.8,2.1-1.6,4.2-2.9,7.7c-1.6-3.7-2.5-5.6-4.2-9.3
				C235,103.9,236.9,104.3,238.8,104.7z M217.3,103.9c9.8-1.9,10.8-0.9,15.4,9.8c-3.3,2.3-6.7,4.5-8.7,5.9c-4.9-2.8-8.7-5-13.9-8
				C212.9,108.6,214.9,104.4,217.3,103.9z M211.6,105.9c-4.1,4.5-7,5.9-10.7,0H211.6z M199.2,113.5c-5.4,0.4-10,0.7-16,1.1
				C187.8,105.7,195.1,105.3,199.2,113.5z M171.8,106.4c2.1,10.5,6.3,18.4,13.9,23.1c4.2,2.6,2.4,6,1,11c-2.8-5-8.3-5.6-8-12.8
				c0-0.7-1-1.9-1.7-2.3C170.5,121.2,170.5,114.3,171.8,106.4z M163.8,105.4c1.1,2,2.9,3.9,3.2,6.1c0.3,2.8,1.9,6.9-2.1,8.2
				c-0.9-4.4-1.8-8.8-2.6-13.1C162.8,106.2,163.3,105.8,163.8,105.4z M164.9,119.9c6.4,8.8,12.8,17.5,19.5,26.6
				c-9.9,4.7-22.5-4.4-23.5-16.3C160.5,126.2,160.5,121.4,164.9,119.9z M138.7,114.3c2.8-1.7,5.8-4.2,8.6-4c3.1,0.3,6.2,3,9,5.1
				c0.8,0.6,1,3.2,0.9,4.9c-0.2,3.4-1.1,6.7-1.1,10c0.1,3,1.1,5.9,1.8,9.2c-5.2-0.8-10.1-1.5-15-2.5c-1-0.2-2.5-1.5-2.8-2.6
				c-1.2-5.3-2.2-10.7-3-16.2C137,117.1,137.9,114.9,138.7,114.3z M137,142.5c1.7,0.1,3.5,0.1,5.2-0.4c10.8-3.2,19.7,1,27.4,10.5
				c2.7,3.4,3.7,6.3-0.1,9.9c-1.5,1.4-2.4,4.4-2.7,6.9c-0.5,4.4-1.8,5.5-5,3.8c-8.8-4.9-17.8-9.1-26.3-14.8
				c-8.5-5.7-8.7-7.1-12.6-20.6c3.1,2.2,4.9,3.4,6.6,4.7c0-0.4,0-0.7,0-1.1C132.1,141.8,134.6,142.3,137,142.5z M132.8,130.6
				c-2.5-0.8-4.8-1-6.7-2.4c-1.1-0.9-1.8-3.6-1.8-5.4c0-0.8,2.2-1.8,3.5-2.3c1.8-0.8,3.7-1.3,6.5-2.3
				C133.9,122.2,133.4,126,132.8,130.6z M100.5,112c3.7-2.1,7.5-3.9,11.2-5.7c0.3-0.2,0.9-0.3,1-0.1c5.8,6.5,11.9,0.9,17.8,0.7
				c0.3,0,0.6,0.3,1.5,0.8c-0.1,1.9-0.1,3.7-0.4,5.4c-0.3,1.8-1,3.5-1.5,5.3c-1.2-0.7-2.6-1.1-3.5-2.2c-3.7-4.4-8.1-3.3-12.3-2.3
				c-4.3,1-8.6,2.5-12.9,3.5c-0.9,0.2-2-1-3-1.6C99,114.4,99.5,112.5,100.5,112z M99.3,157.5c0.9,1.5-0.4,4.9-0.8,7.4
				c-2.3-1.8-4.7-3.6-7.4-5.7C94.6,153.9,97.5,154.5,99.3,157.5z M39.9,138.1c2,0.9,4,1.7,7.4,3.2c0.7,0.1,2.5,0.3,4.2,0.6
				c1,0.2,2.2,1.1,2.8,0.7c5.2-4.2,8.2-0.8,10.7,5.4c5.1-5.5,10.2-4.3,14.7,0c1.2,1.1,1.7,6.5,1,7c-3.6,3-7.7,5.1-11.9,7.1
				c2.7-0.6,5.2,1.5,8.7,0.3c2.9-0.9,8.4-3.4,8.6,5.4c0,1.5,2,2.9,3.4,4.9c-5.6,0-10.6,0.8-15.4-0.2c-8.8-1.8-18.4-1.4-25.1-11.1
				c-3.6-5.2-7.4-10.1-10.4-15.8C37.9,144.3,39.5,140.7,39.9,138.1z M168.1,230.9c-16-7.2-31.9-14.8-48-21.6
				c-9.3-3.9-19.1-5.8-28.4-9.7c-9.7-4-20-5.9-28.3-15c-7.5-8.2-16.3-14.6-24.3-22c-1.2-1.1-1.8-3.4-2.7-5.2
				c0.4-0.6,0.9-1.1,1.3-1.7c1.3,0.9,2.8,1.5,3.7,2.8c7,10.4,16.2,15.1,26.6,16.9c9.6,1.7,19.2,3.2,28.9,4.6c5.1,0.7,8.1,5,10.6,10
				c2.6,5.4,5.9,6.6,9.4,2.1c2.9-3.7,5.2-3.2,8.6-1.4c3.2,1.8,6.9,2,10.2,3.6c2.5,1.2,6.2,3.1,6.7,5.5c1.8,9.4,8.5,12.2,13.5,17.1
				c2.7,2.7,6.4,4,9.8,5.1c5.3,1.7,9.2,5.5,13.2,12.3C174.4,233,171.1,232.3,168.1,230.9z M181.5,231.6
				c-5.5-8.1-12.2-12.6-20.2-15.8c-5.1-2-9.5-6.9-14-10.8c-1.1-0.9-1.4-3.3-2.2-5.2c13-2.3,46.8,18.6,46.2,40.5
				C187.4,236.9,183.8,235,181.5,231.6z M253.6,319.2c-6-8.8-11.9-17.9-18-26.7c-4.5-6.4-9.3-12.3-14-18.5
				c-11.8-15.8-22.9-32.2-30.9-51.6c-0.4-0.9-0.4-1.9-0.8-3.8c2.5,0.6,4.4,0.9,6.2,1.6c8.8,3.8,18.2,6.4,26,12.2
				c5.7,4.3,9.8,12.7,13.8,19.9c3.4,6.2,6.5,12.9,5.5,21.3c-0.2,2.1,1.5,4.5,2.2,6.7c4.5,13.4,8.9,26.8,13.7,41.3
				C255.6,320.6,254.3,320.2,253.6,319.2z M273.3,324.4c-0.5,0.3-1,0.6-1.5,1c-1.8-3.5-4.1-6.8-5.4-10.6c-4.8-14.3-8.8-29-13.9-43.1
				c-5.7-15.9-12.3-31.4-18.5-47.1c-2.8-7.1-5.3-14.3-7.9-21.5c0.7-0.6,1.5-1.2,2.2-1.8c12.7,7.4,24.3,16.8,32.9,31.1
				c2,3.3,4.8,8.3-1.7,9.9c0.3,0.7,0.4,1.3,0.6,1.5c8.7,5,10.7,14.5,11.1,25.5c0.6,16.9,1.6,33.8,2.3,50.7
				C273.7,321.4,273.5,322.9,273.3,324.4z M282.8,224.5c0,2.3-0.9,4.6-1.4,6.9c-0.7-0.2-1.4-0.4-2-0.5c0.5-4.7,1-9.3,1.5-15.1
				c-3.3-3.1-2.7-8.8-1.8-14.3c0.9-5.9,0.2-10.9-3.2-15.5c-3.8-5.1-2.6-10.8,2.3-14.6c0.7-0.6,1.6-1.3,1.9-2.3
				c3.4-11.1,11.1-13.5,19.8-15.3c0.9,8.1,1.8,16.2,2.7,24.3c0.2,1.7,0.1,3.4,0.3,5.1c0.8,5.9,0.8,10-4.6,14.1
				C290.3,203.1,282.7,210.7,282.8,224.5z M303.7,203.2c-1.1,16-10.5,25.9-17.1,37.6C291,227.5,288.2,209.3,303.7,203.2z
				 M288.2,320.8c-1.3-21.4-6.1-43.4,1-63.7c6.3-18.2,14.7-35.5,26.4-49.2l2.9,2.1c-1.8,4.7-3.1,9.8-5.5,13.8
				c-2.3,3.8-2.3,6.9-1.5,11.2c1,5.6,1.1,11.4,1.6,17.2c-0.6,0.1-1.3,0.2-1.9,0.3c-0.5-2.6-1.1-5.1-1.6-7.7l-0.8,0
				c-0.1,0.8-0.4,1.6-0.3,2.3c1.6,14.7-1.8,27.7-7.5,40.5c-4.1,9.2-6.6,19.4-9.9,29.1C290.4,318.3,289.5,319.6,288.2,320.8z
				 M338.7,313c-1.3,10-2.4,20.1-4.8,29.7c-1.1,4.4-4.3,9.2-7.6,11.3c-6,3.9-8.8,10.7-12.5,16.8c-1.7,2.8-2.7,6.5-4.7,9
				c-1.7,2.1-4.5,4.1-6.6,3.8c-1.9-0.2-4.8-3.4-5.1-5.7c-1.2-9-2.7-18.4-1.9-27.3c1.7-18.5,6.1-36.5,14.2-52.1
				c5.4-10.4,13.2-18.8,20.2-27.9c2.9-3.8,6.3-6.8,9.5-10.2c0.5,0.4,1,0.7,1.6,1.1c-1,10.3-2,20.7-3.2,33.1
				C341.1,298.7,339.6,305.9,338.7,313z M431.6,256.1c4.1-11.4,12-13,20.4-14.1C450.6,249,441.2,255.4,431.6,256.1z M453.6,229.5
				c-0.9,5.5-3.1,8.1-7.5,8.9c-6.6,1.3-11.9,5.4-15.9,12.4c-0.8,1.4-1.8,2.5-3.4,4.6c-0.6-8.7-1.1-16.1-1.7-23.5c-0.3,0-0.7,0-1,0
				c0.2,3.7,0.2,7.4,0.6,11c1.3,10.5-1.7,20.4-9,25.3c-8.9,6-15.9,14.3-22.6,23.6c-8.4,11.6-17.8,22-27.2,32.5
				c-2.9,3.2-6.7,5.5-10.4,7.2c-3.9,1.8-8.2,2.5-13.1,3.9c-0.1-11.9,2.4-22,6.4-31.6c3.8-9.1,6.9-19,11.6-27.3
				c6.2-11,9.2-23.1,11.8-35.7c1.4-6.8,5-9.6,10.7-9.6c2.7,0,5.3-3,8.1-4.3c2.1-1,4.4-1.3,7.5-2.2c-0.1-7.8,6.5-10.3,11.4-14.6
				c6.1-5.4,12.2-10.6,18.4-15.8c8.1-6.9,16.3-13.7,26.7-13.6c8.5,0.1,15.1-5.3,21.6-11.8c3.7-3.6,8.2-5.8,12.3-8.9
				c2-1.5,3.6-3.8,5.5-5.7c1.2-1.2,2.5-2.7,3.9-2.9c0.8-0.1,1.9,2.2,2.5,3.7c2.8,7.6,3.3,15.1-0.4,22.6c-2.4,4.8-4.3,10-7,14.4
				c-1.2,2-3.8,3.9-5.7,3.7c-8.4-1-14.1,4.8-19.7,11.3c-0.9,1.1-1.7,3-2.7,3.2C456.3,211.4,454.9,220.6,453.6,229.5z M495,194.3
				c2.1-4.3,3.7-7.6,5.9-12.3C504,191.7,503.3,193,495,194.3z M484.3,204c-2.8,1.8-5.6,3.6-8.4,5.4c-0.4-0.9-0.8-1.7-1.2-2.6
				c2.7-2,5.4-4.1,8.1-6.1C483.3,201.9,483.8,202.9,484.3,204z M460.2,245.6c-0.2-4.7-0.5-7.6-0.5-10.5c-0.3-10.9-0.2-10.6,7.7-15.3
				c6.1-3.6,11.8-8.2,17.8-12c1.9-1.2,4.4-1.8,6.6-1.7c5.4,0.1,10.7,0.8,16.6,1.3c0.3,5.6-1.8,10.6-7.1,14
				c-9.8,6.2-19.4,13.1-29.3,19.3C468.6,242.7,464.7,243.7,460.2,245.6z M584.1,167.8c-5.1,13.2-12.7,23.8-21.5,33.3
				c-11.1,12-23.8,20.5-37.8,24.4c-13.3,3.7-25.4,10.6-37.7,17c-0.9,0.5-2,0.3-4.1,0.6c7.2-6,13.4-11.3,19.6-16.2
				c4.7-3.8,9.2-7.4,11.2-14.7c0.9-3.5,3-6.6,4.9-9.5c2.7-4.1,5.1-8,3.5-13.9c-0.3-1.3,0.8-4.2,1.9-5c6.3-4.6,8-12.2,9.1-20.5
				c0.4-3.1,1-6.1,1.8-10.6c7.1,1.4,13.8,3.4,20.5,4c4.7,0.4,9.3,2.1,14.3,0c3.5-1.5,7.8-0.9,11.7-0.3
				C584.7,156.9,585.9,163,584.1,167.8z M587.7,148.4c0.8-7.5,1.6-14.9,2.5-22.7h11.9c-4.9,9-9,16.3-13,23.6L587.7,148.4z
				 M601.7,152.7c-1.8,2.4-5.2,2.8-8,3.7c-0.4,0.1-2.1-3.1-1.8-3.7c3.8-7.1,7.8-14,11.8-20.9c0.1-0.3,0.7-0.2,2-0.4
				C605.7,139.4,606,147,601.7,152.7z"/>
			<path class="st5" d="M270.3,413.8c0.7-0.6,1.4-1.3,2.1-1.9c-0.6-1-1.1-1.9-1.7-2.9c-0.9,0.8-1.8,1.7-2.8,2.5
				C268.6,412.3,269.4,413,270.3,413.8z"/>
		</g>
	</g>
</g>
<g id="HMjUHO_1_">
	<g>
		<g>
			<path class="st5" d="M2458.8,257.5c3.4-2.2,6.5-4.1,9.6-6.2c-3.1-6.6-8.4-9.6-16.8-9.6c-6.4,0-12.8-0.4-19.8-0.7
				c0.5-2.1,1.2-4,0.9-4.2c-8.1-4-10.1-17.1-24.1-12.5c-1.1,0.4-2.8-0.3-4.2-0.7c-10.6-2.6-21.2-5.5-31.9-7.9
				c-4.6-1-7.1-2.2-5.9-7.1c0.8-3.6-0.7-6.8-6.7-6.4c-5.7,0.4-11.4,0.1-17.2-0.1c-11-0.4-21.9-3.8-33.2-1.2
				c-1.3,0.3-3.2-1.3-4.7-2.1c-1.4-0.8-2.3-2.3-3.8-2.8c-5.6-1.8-11.3-3.3-17-4.9c0.4-0.8,0.8-1.8,0.8-1.8c-3.1,0.6-6.3,1.8-9.5,1.6
				c-5.8-0.4-11.6-2.1-17.4-2.3c-8.8-0.2-17.7,0.3-26.5,0.8c-10.8,0.6-21.5,1.4-32.2,2.4c-8.3,0.8-16.5,2.2-24.8,2.8
				c-2.8,0.2-7.2-0.4-8.3-1.9c-3.8-5.5-8.9-2.5-13.2-2.1c-6.7,0.7-13.2,3.3-19.9,3.7c-5.7,0.4-10.8,1.1-15.7,3.9
				c-1.4,0.8-3.7,0.9-5.4,0.7c-14.1-1.4-25.9,5-38.2,9.1c-6.8,2.2-12.1,7.6-19.7,9c-1.7,0.3-3,1.9-4.7,2.7
				c-6.4,3.1-12.8,6.2-20.6,4.7c-3.6-0.7-7.3-1.4-10.9-1.3c-6.5,0.2-13,1-20.4,1.7c-7.8,10.3-24.8,9.6-35.4,18.2
				c1,1.3,2.1,2.5,2.8,3.8c1.1,2.2-0.7,6.4,5.7,3.2c3.7-1.8,9.6-0.3,12.6-0.3c-1,0.7-3.3,2.2-5.7,3.7c0.7,0.7,1.5,1.4,2.2,2.1
				c2.4-0.3,4.8-0.6,7.7-1c-1.6,2.4-2.6,4.3-4.1,5.8c-1.8,1.7-4.1,3-6,4.3c6.3-0.4,12.9-1.1,19.5-1.2c7.5-0.1,12.3-4.1,16.9-8.2
				c3.8,10.1,8.4-1.3,12,1.4c0.8,4.7,4,7.5,9.9,7.4c3.4,0,6.9-0.3,10.3-0.2c4,0.1,8,0.5,13.8,0.9c2.3-2.7,7.1-4.9,11.3-2.9
				c6.6-2.6,11.7-4.6,16.7-6.5c3,4.1,2.3,5.3-2.6,6.4c-4.6,1-8.5,4-12.8,6.1c0.2,0.2,0.4,0.5,0.6,0.7c3-1,6.1-2,10.5-3.5
				c-1.4,3-2.1,4.4-2.8,5.9c2,0.2,4,0.4,5.3,0.6c0.7,2.4,1.3,4.1,2.3,7.4c3.5-7.5,6.2-13.3,9.5-20.3c6.8,3.2,13.2,6.1,19.4,9.1
				c5.4,2.6,10.4,5.9,16.1,8c7.1,2.6,14.8,4.1,22,6.4c11.2,3.6,22.5,7.3,33.5,11.4c3.4,1.3,6.6,3.6,9.1,6
				c7.5,7.3,14.1,15.5,22.2,22.2c5.3,4.4,6.7,9.1,4,13.7c-2.9,5.1-0.3,8.3,1.7,12.3c3.4,6.8,6.4,13.7,9.9,21.5
				c-5.4-0.5-9.2-0.9-15-1.5c5.3,5.9,10.5,8,17.3,8.5c9.4,0.7,18.2,3.1,25.2,8.9c1.4,1.1,2.6,3,2.7,4.6c0.2,2.6-0.6,5.2-1,7.9
				c-0.8-0.5-1.8-1.2-2.8-1.9c-3.8,4.6-9.3,4.1-14.5,4c0,0,0,0,0,0.1c0,0.4,0,0.7-0.1,1.1c3,0.1,5.6,1,6.3,5.1
				c0.1,0.8,2.1,1.9,3.4,2c10.9,1.4,10.8,8.4,10.8,15.3c-2.1,1-3.9,2.1-5.9,2.8c0.2,0.4,0.4,0.7,0.6,1.1c0.8,1.8,2.3,5.8,2.6,6.5
				c0.8,1.7,1.2,3.4,1.3,5.1c3.3-1.2,6.6-2.4,10.5-3.7c0.2,0.1,2,1,3.7,0.8c5.8-0.5,11.2-0.8,16,3.1c1.2,0.9,4.9-0.5,7.5-0.9
				c0-0.5-0.1-1-0.1-1.4c2,0.9,4,1.8,4.2,1.9c6.5-4.2,8.9-8.8,1.9-13.3c-0.5,0.7-1.1,1.3-1.6,2c-0.5-4.2-0.7-8.3,1.1-11.5
				c1.8-3.3,1.8-5.2-1.5-7.3c-3.1-1.9-6.4-3.7-9-6.1c-2.8-2.6-6.3-5.6-7-8.8c-1.1-5-4.7-7.6-8.9-9.7c-5.8-3-12.1-5.2-18.2-7.8
				c5.7,1.1,8.7-0.8,8.7-7.7c4.7,6.2,8.1,10.8,12.4,16.5c5.3-14.7-1.2-27.4-14.3-33.5c1.8-2.1,3.7-4.3,5.6-6.5
				c-12.8-2.4-20.8-9.9-25.6-19.7c-2.8-5.8,5.3-8.4,7.8-12.8c1.3-2.4,3.4-4.4,5.1-6.6c-0.6-0.5-1.2-1-1.8-1.4
				c-3.2,2.1-6.4,4.3-9.8,6.6c-1.5-11.8,9.4-22.8,19.6-28.8c9-5.3,12.5,4.8,20.1-0.8c1.4-4.7,8.4,0.2,13-1.3c2.6-0.8,5.4-1,8-2.3
				c8.6,0.4,12.3,6.9,17.1,12c1,1.1-0.3,4.6-1.7,6.4c-1.5,1.9-4.3,3-6.5,4.5c-5.1,3.2-9.9,7.4-15.4,4.2c-0.2,2.5,0.6,5.8-0.9,7.4
				c-5.8,6.4-11.9,12.8-18.8,18.3c-8,6.3-8.6,6.6-2.9,16c-3-0.5-5.2-0.8-7.4-1.1c1.4,1.6,2.8,3.2,4.1,4.7
				c14.2-7.3,25.6-15.6,33.5-27.1c6.6-9.6,15.5-16,28.5-17.7c2.2-0.3,4.2-1.4,6.3-2.1c-0.1-0.5-0.2-0.9-0.3-1.4
				c-2.1-0.4-4.2-0.9-6.8-1.4c0.7-2.8,1.2-7.2,2-7.2c7.4-0.6,5.5-6.4,7.1-8.1c-1.5-3.7-4.1-6.8-3.3-8.7c1.9-4.3,6.1-2.2,9.8-1.1
				c1.5,0.4,3.3,0.1,4.9,0.1c-2.7-2.3-5-4.2-7.8-6.6c11.7-1.2,21.8-1.3,31.4,2.4c-0.9,1.8-1.5,3-1.5,2.9c10.7,1,21.3,2,33.7,3.1
				c-0.9-4-1.9-8.1-3.3-14.1c5.9,2.2,10.6,3.9,15.3,5.7c1.3,0.5,2.7,2,3.7,1.8c6.4-1.2,12.8-2.8,18.8-4.2c1.5-6.1-14.2-5.3-6.5-13.5
				C2451.5,254.4,2455.6,256.1,2458.8,257.5z M2151.4,274.2c-11.9-4.5-23.7-9.2-35.6-13.9c-1.3-0.5-2.8-0.9-3.7-1.8
				c-1.4-1.3-2.3-3-3.4-4.6c1.9-0.6,3.7-1.5,5.6-1.6c3.6-0.2,7.3,0.2,11,0.4c-0.3,0.6-0.9,1.6-1.2,2.1c7.1-1.2,14.6-2.4,22.1-3.6
				c0.3,0.6,0.6,1.1,0.8,1.7c-2.7,1.4-5.4,2.7-8.5,4.3c1.4,0.9,3,2,4.5,3c3.1-1,6.9-2.2,9.8-3.1c3.3,6.6,6.5,12.8,10.3,20.2
				C2158.7,276.1,2154.9,275.5,2151.4,274.2z M2237.9,268c1.9,1.3,2.4,4.2,3.5,6.4c-2,0.5-4.3,1.9-5.9,1.4
				c-4.9-1.5-9.5-3.7-14.6-5.7C2226.4,265,2232.1,263.9,2237.9,268z M2223.3,313c-5.2-6.2-9.5-11.4-14.2-16.9
				C2218.1,296.3,2224.2,303.2,2223.3,313z M2227.2,289.6c-1,0.9-3.9,1.1-5.6,0.7c-6-1.6-11.8-3.7-17.9-5.7c1.4-2.1,2.8-4.2,4.4-6.6
				c0.8,1.3,1.4,2.4,2.8,4.7v-7.9c4.3,1.6,10.5-1.6,11.4,5.3c0.1,0.4,2.5,0.9,3.8,0.8c2.7-0.3,5.3-0.9,8-1.4c0.2,0.5,0.3,1,0.5,1.6
				C2232.2,283.9,2230.1,287,2227.2,289.6z M2236.3,305.2c-3.8-6.5-2.2-11.1,5.8-17.1c2.4,3.9,1.9,16.4-0.9,18.4
				C2240.5,307.1,2236.9,306.2,2236.3,305.2z M2265.1,365.2c-2.9,3.1-4.6,4.9-5.9,6.3c-4.5-2.9-9-5.7-13.4-8.5l0.7-1.1
				c1.5,0.1,3,0.2,5.8,0.4c-9.9-8-15.1-16.9-11.9-28.7C2248.6,344.2,2256.9,354.7,2265.1,365.2z"/>
		</g>
	</g>
</g>
</svg>
