<svg xmlns="http://www.w3.org/2000/svg" viewBox="0 0 1800 600"><defs><style>.cls-1{isolation:isolate;font-size:138px;fill:#89d333;stroke-width:3px;font-family:ChelseaMarketPro, Chelsea Market Pro;}.cls-1,.cls-10,.cls-11,.cls-12,.cls-3,.cls-4,.cls-5,.cls-6,.cls-7,.cls-8,.cls-9{stroke:#000;stroke-miterlimit:10;}.cls-2{letter-spacing:-0.01em;}.cls-3,.cls-4,.cls-5,.cls-6,.cls-7,.cls-8,.cls-9{fill:none;}.cls-3{stroke-width:3.52px;}.cls-4{stroke-width:2.51px;}.cls-5{stroke-width:3.96px;}.cls-6{stroke-width:3.02px;}.cls-7{stroke-width:2.99px;}.cls-8{stroke-width:3.5px;}.cls-9{stroke-width:4.15px;}.cls-10{stroke-width:2.74px;}.cls-11{stroke-width:3.86px;}.cls-12{stroke-width:2.97px;}</style></defs><g id="Text"><text class="cls-1" transform="translate(500.64 263.81)">Annabelle’s<tspan x="-39.33" y="165.6">S</tspan><tspan class="cls-2" x="31.6" y="165.6">w</tspan><tspan x="152.49" y="165.6">eet Safari</tspan></text><path d="M22-78.65-58.6-129c-119.93,153-176.61,261.8-206.15,334.32-14.08,34.55-30.92,82.78-71.73,139.61-43.35,60.36-72.9,73.55-107.14,128-20.59,32.76-42.59,80-52.62,146.28q23,28.95,45.92,57.89c40-121.84,89-208.8,126.84-266.11,60.13-91.08,110.31-135.09,164.24-250.42,16.2-34.66,23.72-56.46,46.1-92.39C-69.1-2.52-16.32-49.63,22-78.65Z"/><path class="cls-3" d="M22-78.65-58.6-129c-119.93,153-176.61,261.8-206.15,334.32-14.08,34.55-30.92,82.78-71.73,139.61-43.35,60.36-72.9,73.55-107.14,128-20.59,32.76-42.59,80-52.62,146.28q23,28.95,45.92,57.89c40-121.84,89-208.8,126.84-266.11,60.13-91.08,110.31-135.09,164.24-250.42,16.2-34.66,23.72-56.46,46.1-92.39C-69.1-2.52-16.32-49.63,22-78.65Z"/><path d="M174.88-84.17,76.64-62.44c5,97.78-35.45,180.85-49.76,208.11-11.14,21.2-22.93,40-40.27,67.58C-67.64,299.63-90.57,318.7-131.76,387c-31.8,52.69-26.8,55.7-56,105.31A899.48,899.48,0,0,1-302.8,646.55l21.9,13.69c79-87.07,120.66-155.39,144.27-202.56,16.71-33.4,22-51.54,45-87.79,36.71-57.89,55.35-62.43,97.54-128,3.84-6,19.13-30.14,49.22-78.52,42.18-67.83,63.43-102,70.8-115.91C141.58,18,162.42-27.41,174.88-84.17Z"/><path class="cls-4" d="M174.88-84.17,76.64-62.44c5,97.78-35.45,180.85-49.76,208.11-11.14,21.2-22.93,40-40.27,67.58C-67.64,299.63-90.57,318.7-131.76,387c-31.8,52.69-26.8,55.7-56,105.31A899.48,899.48,0,0,1-302.8,646.55l21.9,13.69c79-87.07,120.66-155.39,144.27-202.56,16.71-33.4,22-51.54,45-87.79,36.71-57.89,55.35-62.43,97.54-128,3.84-6,19.13-30.14,49.22-78.52,42.18-67.83,63.43-102,70.8-115.91C141.58,18,162.42-27.41,174.88-84.17Z"/><path d="M-94,753.2l-118.26-63.73C-140.37,630.23-98.8,572-73.86,528.64-8.47,415-24.2,345.9,47.44,272.46c17.32-17.76,49.3-45.55,75.09-95.35a301,301,0,0,0,24.37-63.82c12.2-45.43,47.94-126.9,151-285.06Q319.24-93.87,340.59-16a883,883,0,0,0-91.87,84.23C121,202.91,29.5,382.13-12,504.08-22,533.62-51,578.46-70.27,641.54A645.19,645.19,0,0,0-94,753.2Z"/><path class="cls-3" d="M-94,753.2l-118.26-63.73C-140.37,630.23-98.8,572-73.86,528.64-8.47,415-24.2,345.9,47.44,272.46c17.32-17.76,49.3-45.55,75.09-95.35a301,301,0,0,0,24.37-63.82c12.2-45.43,47.94-126.9,151-285.06Q319.24-93.87,340.59-16a883,883,0,0,0-91.87,84.23C121,202.91,29.5,382.13-12,504.08-22,533.62-51,578.46-70.27,641.54A645.19,645.19,0,0,0-94,753.2Z"/><path d="M-38.88,795.93l-94.64-59.13C20.67,629.47,83.46,533,111.92,463.15,130.08,418.6,135.86,381,175,293.88c20.58-45.8,36.39-74.15,89.69-170.64,21.2-38.39,59.6-107.94,111-201.36L470.34-19C421-7,387,16.39,363.23,40.39,342.62,61.21,334.13,78,300.34,130c-64.17,98.69-60.77,79.9-77.17,112.7-34.39,68.76-24.67,103.62-79.27,224.89l0,.06C109.07,546.11,53.05,657.39-38.88,795.93Z"/><path class="cls-5" d="M-38.88,795.93l-94.64-59.13C20.67,629.47,83.46,533,111.92,463.15,130.08,418.6,135.86,381,175,293.88c20.58-45.8,36.39-74.15,89.69-170.64,21.2-38.39,59.6-107.94,111-201.36L470.34-19C421-7,387,16.39,363.23,40.39,342.62,61.21,334.13,78,300.34,130c-64.17,98.69-60.77,79.9-77.17,112.7-34.39,68.76-24.67,103.62-79.27,224.89l0,.06C109.07,546.11,53.05,657.39-38.88,795.93Z"/><path d="M50.55,713.83l-59.15-37c82-147.51,150.78-241.09,200.42-300.81,28.56-34.36,72.59-83.77,100.24-158.89C311.26,165,306,145.54,323.77,104.11,341.29,63.32,378.37,7.84,466.34-48l56.47,6.1C467.2-7,398.16,48.26,364.71,129.7c-11.26,27.42-4.44,23.6-17.93,63.71,0,0-45.08,111.75-154.57,256.47-23,30.41-38.13,47.45-60.61,83.33A725.25,725.25,0,0,0,50.55,713.83Z"/><path class="cls-6" d="M50.55,713.83l-59.15-37c82-147.51,150.78-241.09,200.42-300.81,28.56-34.36,72.59-83.77,100.24-158.89C311.26,165,306,145.54,323.77,104.11,341.29,63.32,378.37,7.84,466.34-48l56.47,6.1C467.2-7,398.16,48.26,364.71,129.7c-11.26,27.42-4.44,23.6-17.93,63.71,0,0-45.08,111.75-154.57,256.47-23,30.41-38.13,47.45-60.61,83.33A725.25,725.25,0,0,0,50.55,713.83Z"/><path d="M116.72,710.05,63.63,596.23c111-22.47,170.33-90.5,189-114,14.51-18.26,25.84-36.54,42.51-63.42,52.15-84.1,55.09-114.67,97.61-179.28,32.82-49.89,40-45.27,71.53-91.4,43.72-64,66.46-126.5,78.93-170.12L575.33-1.87c-33.57,111.36-75.76,176.55-109,215.89-23.49,27.85-39.2,38.86-60.92,74.41-34.66,56.74-25,78.47-63.88,143.42-3.54,5.92-18,29.56-47.48,76.34-41.27,65.59-62.1,98.63-71.54,110.67A360,360,0,0,1,116.72,710.05Z"/><path class="cls-7" d="M116.72,710.05,63.63,596.23c111-22.47,170.33-90.5,189-114,14.51-18.26,25.84-36.54,42.51-63.42,52.15-84.1,55.09-114.67,97.61-179.28,32.82-49.89,40-45.27,71.53-91.4,43.72-64,66.46-126.5,78.93-170.12L575.33-1.87c-33.57,111.36-75.76,176.55-109,215.89-23.49,27.85-39.2,38.86-60.92,74.41-34.66,56.74-25,78.47-63.88,143.42-3.54,5.92-18,29.56-47.48,76.34-41.27,65.59-62.1,98.63-71.54,110.67A360,360,0,0,1,116.72,710.05Z"/><path d="M1828.25-48.91,1719.08-127.2C1697.78-37.34,1664,25,1636.23,66c-72.84,107.55-141.57,123.29-175.67,219.08-8.25,23.16-19,63.75-52.18,108.33A295.54,295.54,0,0,1,1362,442.73c-35.26,30.53-92.38,97.66-188.42,258.09l158.2-29a869,869,0,0,1,34.83-118.54c64.15-172.34,184.1-331.57,274.9-421.31,22-21.73,49.31-67,97.26-111.48A634.93,634.93,0,0,1,1828.25-48.91Z"/><path class="cls-8" d="M1828.25-48.91,1719.08-127.2C1697.78-37.34,1664,25,1636.23,66c-72.84,107.55-141.57,123.29-175.67,219.08-8.25,23.16-19,63.75-52.18,108.33A295.54,295.54,0,0,1,1362,442.73c-35.26,30.53-92.38,97.66-188.42,258.09l158.2-29a869,869,0,0,1,34.83-118.54c64.15-172.34,184.1-331.57,274.9-421.31,22-21.73,49.31-67,97.26-111.48A634.93,634.93,0,0,1,1828.25-48.91Z"/><path d="M1910.88-29,1806.27-94.39C1784.86,94,1726.41,191.93,1675.36,246.79c-32.58,35-65,55.58-126.84,127.46-32.51,37.79-51,64.08-114.38,153.08-25.2,35.4-70.87,99.53-132.29,185.52l104.61,65.37c3.44-49.68,15.29-125.38,58.17-205.25,14.06-26.18,29.78-49.69,84.7-119.42,81-102.82,145.52-177,146.76-178.45C1752,210.76,1827.89,113.27,1910.88-29Z"/><path class="cls-9" d="M1910.88-29,1806.27-94.39C1784.86,94,1726.41,191.93,1675.36,246.79c-32.58,35-65,55.58-126.84,127.46-32.51,37.79-51,64.08-114.38,153.08-25.2,35.4-70.87,99.53-132.29,185.52l104.61,65.37c3.44-49.68,15.29-125.38,58.17-205.25,14.06-26.18,29.78-49.69,84.7-119.42,81-102.82,145.52-177,146.76-178.45C1752,210.76,1827.89,113.27,1910.88-29Z"/><path d="M1976.08,6l-80.56-50.34c-119,151.49-175,259.28-204.18,331.18-13.9,34.26-30.49,82.09-70.95,138.36-43,59.77-72.4,72.74-106.31,126.7-20.4,32.44-42.14,79.27-51.87,145.06l46,57.7c27.17-122.67,69.11-207.55,104-263.76,47.32-76.34,108.1-167.62,108.1-167.62,24.24-36.39,40.56-60.1,60.11-98.1,30.74-59.73,28.11-81,48.51-109.89C1872,54.23,1931.33,23,1976.08,6Z"/><path class="cls-8" d="M1976.08,6l-80.56-50.34c-119,151.49-175,259.28-204.18,331.18-13.9,34.26-30.49,82.09-70.95,138.36-43,59.77-72.4,72.74-106.31,126.7-20.4,32.44-42.14,79.27-51.87,145.06l46,57.7c27.17-122.67,69.11-207.55,104-263.76,47.32-76.34,108.1-167.62,108.1-167.62,24.24-36.39,40.56-60.1,60.11-98.1,30.74-59.73,28.11-81,48.51-109.89C1872,54.23,1931.33,23,1976.08,6Z"/><path d="M2063.41,19.18,1906.32,3.35c51.59,126,19.64,213.36,7.38,241.56-9.54,21.94-21.26,40.5-38.5,67.81-53.93,85.44-84.42,99.47-124.19,167.73-30.7,52.69-20.9,58.7-48.5,108.65-38.31,69.31-89.27,115.78-127.16,144.6l43.2,27c95.54-75.42,136.15-143.53,155.4-192.84,14.63-37.49,15.31-52.57,37.66-91.3,35.54-61.62,63.93-69.65,111.77-143.52,23.1-35.66,37.58-66.36,46-84.33,22.06-47.19,26.41-69.13,49.38-127.42C2028.11,97.52,2042.75,62.16,2063.41,19.18Z"/><path class="cls-8" d="M2063.41,19.18,1906.32,3.35c51.59,126,19.64,213.36,7.38,241.56-9.54,21.94-21.26,40.5-38.5,67.81-53.93,85.44-84.42,99.47-124.19,167.73-30.7,52.69-20.9,58.7-48.5,108.65-38.31,69.31-89.27,115.78-127.16,144.6l43.2,27c95.54-75.42,136.15-143.53,155.4-192.84,14.63-37.49,15.31-52.57,37.66-91.3,35.54-61.62,63.93-69.65,111.77-143.52,23.1-35.66,37.58-66.36,46-84.33,22.06-47.19,26.41-69.13,49.38-127.42C2028.11,97.52,2042.75,62.16,2063.41,19.18Z"/><path class="cls-10" d="M723,931.85c33.41-94.38,61.59-148.74,83.14-182.31,12-18.61,33.86-49.54,31.52-85.92-1-14.9-5.12-24.33-5-46.24.07-19.41,6.41-34.27,10.94-53.89,7.7-33.36,23-80,57-134.07a270.92,270.92,0,0,0-23.22,72.86A188.57,188.57,0,0,0,874.37,535,414.55,414.55,0,0,0,877,579.87v0s3.21,29.38,5.46,53.88c3,32.25-35.33,128.62-44.24,153.55-13.08,36.6-24.69,92.27-12.55,170.67Z"/><path class="cls-10" d="M774.33,932.37c44-89.94,78.18-140.72,103.43-171.61,14-17.13,39.29-45.35,41.12-81.75.75-14.92-2.3-24.76.28-46.52,2.28-19.27,10.28-33.32,17-52.29,11.46-32.26,32-76.83,71.89-126.69a271.16,271.16,0,0,0-31.39,69.74,187.91,187.91,0,0,0-6.6,32.13,413.08,413.08,0,0,0-2.51,44.92v0s-.16,29.55-.73,54.16c-.74,32.37-49.79,123.73-61.49,147.49-17.18,34.86-35.07,88.84-32,168.11Z"/><path class="cls-10" d="M1325.08,1000.48c-16-98.83-34-157.35-49.18-194.24-8.43-20.45-24.45-54.8-15.64-90.17,4.41-17.71,6.24-20.51,13.23-44.59,7.07-24.35,26-89.75,1.26-150.17-11.3-27.53-29.65-49-34.41-46.91-5.21,2.33,10.56,30.74,9.8,75.84-.39,23.22-5,41.74-13.64,76.39-6.78,27.21-13.29,42.13-15,52-11.53,66,8.19,111.24,16.06,159,6.32,38.35,7.78,95.19-18.19,170.16Z"/><path class="cls-10" d="M805.9-342.83c-43.35,90.24-77.21,141.26-102.24,172.32-13.88,17.22-39,45.62-40.56,82-.65,14.92,2.47,24.74,0,46.51C661-22.67,653.09-8.57,646.49,10.45c-11.24,32.34-31.49,77.05-71,127.18a271,271,0,0,0,30.91-69.95,190,190,0,0,0,6.38-32.18A412.28,412.28,0,0,0,615-9.44v0s0-29.54.36-54.15c.52-32.38,48.94-124.08,60.48-147.91,16.93-35,34.45-89.09,30.8-168.34Z"/><path class="cls-11" d="M839.93,956.28c54.84-89.88,103.92-139.8,142.34-169.77,21.29-16.62,60.72-43.8,52.08-81.6-3.54-15.49-12.72-26-15-48.47-2-19.9,8.72-33.84,15.39-53,11.34-32.62,36.14-77.27,96.46-125.73-12.88,14.36-30.31,37.91-37.3,69.93-2.9,13.31-3.08,23.89-2,32.93,1.94,16.21,4.52,27.75,10.17,46.61v0s9.57,30.79,16.7,56.4c9.38,33.69-54.79,124.6-69.44,148.33-21.52,34.83-38,89.53-5.53,172.47Z"/><path class="cls-10" d="M951.14-333.84c-43.36,90.25-77.21,141.26-102.25,172.33-13.87,17.22-39,45.61-40.56,82-.65,14.92,2.47,24.74,0,46.51-2.15,19.3-10,33.39-16.66,52.41-11.24,32.34-31.49,77.05-71,127.18a271,271,0,0,0,30.91-69.95A187.81,187.81,0,0,0,758,44.49a414.49,414.49,0,0,0,2.2-44.93v0s0-29.55.35-54.16C761.06-87,809.48-178.7,821-202.53c16.94-35,34.46-89.08,30.8-168.33Z"/><path class="cls-10" d="M1100.77-333.84c-43.35,90.25-77.21,141.26-102.24,172.33-13.88,17.22-39,45.61-40.56,82-.65,14.92,2.47,24.74,0,46.51-2.15,19.3-10,33.39-16.66,52.41-11.23,32.34-31.49,77.05-71,127.18a271,271,0,0,0,30.9-69.95,187.81,187.81,0,0,0,6.38-32.18,412,412,0,0,0,2.2-44.93v0s0-29.55.36-54.16C910.7-87,959.12-178.7,970.66-202.53c16.93-35,34.45-89.08,30.8-168.33Z"/><path class="cls-10" d="M773.75-355.7C817.1-265.46,851-214.44,876-183.38c13.88,17.22,39,45.62,40.56,82,.65,14.93-2.47,24.75,0,46.52,2.15,19.29,10,33.39,16.66,52.41,11.23,32.34,31.49,77.05,71,127.18a271,271,0,0,1-30.9-69.95,188,188,0,0,1-6.38-32.18,412.16,412.16,0,0,1-2.2-44.94v0s0-29.55-.36-54.15c-.52-32.39-48.94-124.08-60.48-147.91-16.93-35-34.45-89.09-30.8-168.34Z"/><path class="cls-10" d="M261.08,884.22c33.41-94.38,61.59-148.73,83.14-182.31,11.95-18.61,33.86-49.54,31.52-85.91-1-14.91-5.12-24.34-5.05-46.24.07-19.42,6.41-34.28,10.94-53.9,7.7-33.36,23-80,56.95-134.07a270.92,270.92,0,0,0-23.22,72.86,188.65,188.65,0,0,0-2.89,32.68,414.41,414.41,0,0,0,2.64,44.91v0s3.21,29.37,5.46,53.88c3,32.25-35.33,128.61-44.24,153.55-13.08,36.6-24.69,92.27-12.55,170.67Z"/><path class="cls-10" d="M1484.9-333.84c-43.36,90.25-77.21,141.26-102.25,172.33-13.87,17.22-39,45.61-40.56,82-.65,14.92,2.47,24.74.05,46.51-2.15,19.3-10.05,33.39-16.66,52.41-11.24,32.34-31.49,77.05-71,127.18a271,271,0,0,0,30.91-69.95,187.81,187.81,0,0,0,6.38-32.18A414.49,414.49,0,0,0,1294-.44v0s0-29.55.35-54.16c.52-32.38,48.94-124.08,60.48-147.91,16.94-35,34.46-89.08,30.8-168.33Z"/><path class="cls-11" d="M1284.18-425.41c-28.58,101.35-62.37,162.65-91.29,201.87-16,21.74-46.66,58.55-28.15,92.62,7.58,14,19.26,21.63,27.53,42.63,7.33,18.61.73,34.93-.52,55.2-2.12,34.47-14,84.16-59,147.08,8.53-17.3,19-44.68,17.06-77.4-.8-13.59-3.47-23.84-6.95-32.24-6.24-15.09-11.84-25.51-22.36-42.15l0,0S1103-64.89,1089.22-87.63c-18.12-29.91,19.15-134.76,26.87-161.57,11.32-39.34,12.46-96.46-41.19-167.56Z"/><path class="cls-11" d="M919,1010.74C890.46,909.4,856.66,848.1,827.74,808.87c-16-21.74-46.66-58.54-28.15-92.61,7.59-14,19.26-21.63,27.54-42.64,7.33-18.61.72-34.93-.52-55.2-2.13-34.47-14-84.15-59-147.08,8.53,17.3,19,44.68,17.06,77.4-.8,13.6-3.47,23.84-6.95,32.24-6.24,15.09-11.84,25.51-22.36,42.15l0,0S737.84,650.23,724.07,673C706,702.88,743.23,807.72,750.94,834.53c11.32,39.34,12.46,96.46-41.19,167.56Z"/><path class="cls-11" d="M707.35,986.34C678.78,885,645,823.7,616.06,784.48c-16-21.74-46.66-58.55-28.15-92.62,7.59-14,19.26-21.63,27.54-42.63,7.32-18.61.72-34.93-.52-55.2-2.13-34.48-14-84.16-59-147.08,8.53,17.3,19,44.67,17.06,77.39-.8,13.6-3.47,23.84-7,32.25-6.24,15.08-11.84,25.5-22.36,42.15h0s-17.51,27.08-31.28,49.82c-18.12,29.91,19.16,134.76,26.87,161.56,11.32,39.34,12.46,96.47-41.19,167.57Z"/><path class="cls-10" d="M479.9-401.94c39.56,92,71.27,144.35,95,176.43C588-207.73,611.94-178.32,612-141.86c0,18.25-1.07,21.41-2,46.47-.93,25.33-3.42,93.39,35.33,146C663,74.52,686,90.92,690.14,87.69c4.49-3.52-17.72-27.25-28-71.17-5.27-22.61-5.3-41.71-5.36-77.41,0-28,2.64-44.1,1.9-54.15-4.88-66.81-35-105.9-54.27-150.29C589-301,573.72-355.77,580.67-434.8Z"/><path class="cls-12" d="M1692.15-213.35c-63.45,84-109.53,129.38-142.41,156-18.23,14.77-50.72,38.63-58.93,76.09-4.12,18.77-3.63,22.3-8.24,48.31-4.65,26.29-17.16,96.92-70.92,140.63-24.5,19.92-53.13,30.63-56.86,26.22-4.08-4.82,25.31-23.29,46.23-65.71,10.77-21.84,15.07-41.46,23.11-78.15,6.31-28.82,7-46,10-56.18,20.22-67.39,61.62-99.53,92.42-140,24.74-32.53,53.52-84.78,63.65-167.89Z"/></g></svg>