<?xml version="1.0" encoding="utf-8"?>
<!-- Generator: Adobe Illustrator 24.3.0, SVG Export Plug-In . SVG Version: 6.00 Build 0)  -->
<svg version="1.1" xmlns="http://www.w3.org/2000/svg" xmlns:xlink="http://www.w3.org/1999/xlink" x="0px" y="0px"
	 viewBox="0 0 2500 600" style="enable-background:new 0 0 2500 600;" xml:space="preserve">
<style type="text/css">
	.st0{fill:#FF9738;}
	.st1{fill:#50960F;}
	.st2{fill:#FACF5A;}
	.st3{fill:#50960F;stroke:#231F20;stroke-width:0.9321;}
	.st4{fill:none;stroke:#000000;stroke-width:0.3;}
	.st5{fill:#515151;}
	.st6{fill:#006837;}
</style>
<g id="Layer_2">
	<circle class="st0" cx="371.4" cy="502.1" r="243"/>
	<g>
		<g>
			<g id="PgDVas_3_">
				<g>
					<path class="st1" d="M1651.9,536.7c-1.9-0.1-3.7-0.5-5.6-0.8c0.8-1.6,1.7-3.2,2.5-4.8c0.1-0.2-0.1-0.6-0.2-1.4h-17.4
						c2.7,2,4.9,3.6,7.1,5.4c-3.3,2.1-5.2-0.1-7.1-2.5c-2.2-2.9-5-4.9-7.9-2.3c-2.5,2.1-4.3,1.7-6.6,0.2c-0.8-0.5-1.9-1.1-2.8-1.1
						c-6.9,0.2-13.8,0.7-20.7,0.8c-11.3,0.1-22.6,0.1-33.9,0c-1.5,0-3.2-0.9-4.5-1.9c-3-2.4-8.4-2.4-11.5-0.7
						c-3,1.6-6.4,2.1-9.6,2.9c-2,0.5-4.7,0.1-6.1,1.4c-5.9,5.9-5.8,6.1-13,1.3c2.8-0.4,5.5-0.8,8.3-1.2c-2-1.5-4.8-1.1-5.8-2.4
						c-3.6-4.7-6.6-2-9.7,0.3c-3.5,2.7-8.5,2.1-12-1c-1.3-1.1-4.2-1.2-5.6-0.2c-2.3,1.5-3.9,2.9-6.9,1.8c-1.6-0.6-3.9,1.2-5.8,1.7
						c-1.6,0.5-4.3,1.6-4.6,1c-2.5-4.2-4.7-2.1-7.3,0.5c-2.5-3.3-3.7-8.8-9.1-7c-0.4,2-0.8,4.1-1.2,6.5c-2.8-1-5.2-2.4-7.7-2.5
						c-8.2-0.3-16.4-0.4-24.6-0.1c-3.6,0.1-7.2,1.7-10.7,1.6c-4.7-0.2-9.3-1.7-14-2c-2.5-0.1-5,1.3-7.4,2c0.8,4,1.4,6.9,2.2,10.6
						c-4.5-0.5-8.3-0.9-12.1-1.4l0.1-1.3c5.4,0.1,7.3-2.1,7.8-9.2c-2.9,0-5.7,0-8.6,0c-6,0.1-12.1,0-18.1,0.3
						c-2.9,0.1-5.8,1-9.2,1.6c-9.2,0.4-18.8-2.7-29.1-0.8c-10,1.8-20.5,0-31-0.3c0.2-1.8,0.2-2.6,0.4-3.4c0.2-0.5,0.4-1,0.6-1.6
						c-0.3,0-0.6,0.1-0.9,0.1c-1.3,0.4-2.6,0.6-3.9,0.8c-1.4,0.2-2.8,0.3-4.3,0.4c-1.1,0.1-2.1,0.3-3.2,0.4
						c-4.3,0.5-8.5,0.7-12.8,0.3c-0.4,0-0.8-0.1-1.2-0.2c-0.6,0-1.3,0-1.9,0c0.4,2.6,0.9,5.3,1.3,7.9c0.1,0.9,0.1,2-0.2,2.8
						c-0.5,1.1-1.3,2-2,3c1.2,0.1,2.5,0.3,3.9,0.4c1.1,3.5-0.1,5.1-3.3,5.2c-1.6,0.1-3.1,0.5-4.7,0.7c-4.8,0.7-9.6,1.4-14.4,2
						c-0.1-0.8-0.2-1.5-0.3-2.3c1.2-0.3,2.5-0.5,3.7-0.8c3.5-1,7.1-1.8,10.5-3.1c0.6-0.2,0.7-2.3,1-3.5c-1.2-0.4-2.3-0.9-3.5-1.2
						c-1.5-0.3-3.6,0.1-4.6-0.8c-1.8-1.8-3-4.4-4.4-6.7c-4.2,3.6-6,3.5-10,0.3c-4.2,0.3-7.2,0.5-10.3,0.6c-3.7,0.2-7.4,0.7-11,0.4
						c-5.6-0.5-11.6,1.9-16.8-2.6c-0.5-0.5-1.6-0.2-2.5-0.1c-4.6,0.4-9.3,1-13.9,1.1c-18.6,0.3-37.3,0.5-55.9,0.7
						c-2.4,0-4.8,0.7-7.2,0.6c-3.3-0.2-6.5-1.2-9.8-1.2c-21.8,0.2-43.6,0.7-65.5,0.7c-12,0-24-0.8-36-1c-14.9-0.2-29.8,0-44.7,0.1
						v74h127.7c0.5-2.7,0.9-5.3,1.5-8.3c3.1,1.5,3.4,4.9,3.7,8.3h173.8c-0.3-2.6-0.5-5.2-0.8-8.2c3.1,1.2,5.3,3.6,5.2,8.2h16.5
						c0.7-2.3,1.4-4.5,2-6.8c0.5-1.6,0.8-3.3,1.4-5.8c3.8,4,7.2,7.2,7.8,12.6h63.4c0.5-4.3,3.6-7.2,7.5-7c4.4,0.2,3.9,3.7,3.8,7h33
						c1.6-3.6,4.8-3.3,7.6-3.5c0.6,0,1.3,2.3,2,3.5h9.6c-1.3-3.2-2.5-6.3-3.9-9.8c2-0.5,3.5-0.9,4.5-1.2c2,2.7,3.8,5.2,5.6,7.6
						l1.2-0.9c0.1,1.4,0.3,2.9,0.4,4.3h8.7l-3.1-7.2c0.4-0.3,0.9-0.5,1.3-0.8c2.1,2.6,4.1,5.2,6.2,7.8c-0.7-3.5-1.3-6.9-2-10.4
						c0.5-0.1,0.9-0.2,1.4-0.4c1.1,3.7,2.1,7.3,3.2,11h3.5c-0.8-1.5-1.6-3-2.9-5.6c3.8,1.1,7.1,0.7,7.2,5.6h198.1v-69
						C1657.2,536.9,1654.5,536.9,1651.9,536.7z M1116.2,558.5c2.9-2.3,5.8-4.6,9.1,0.7C1121.8,558.9,1119,558.7,1116.2,558.5z
						 M1205.2,601.7c-2.4-1.2-2.7-3.1-0.3-6.5c1.1,2.4,2,4.2,2.8,6C1206.8,601.4,1205.8,602,1205.2,601.7z M1236,578.4l0.1-1.6
						c3.1,0,6.2-0.2,9.2,0.2c0.5,0.1,0.7,3.2,1.1,5.4C1242.3,580.9,1239.1,579.6,1236,578.4z M1299.7,550.9
						c-1.2,0.6-2.3,1.3-3.4,1.9c3.3-6.2,3.3-6.2,6.9-3.7C1301.9,549.8,1300.8,550.3,1299.7,550.9z M1310,542.1
						c-2.2-0.1-4.3-0.5-6.5-0.8c0.1-0.7,0.1-1.4,0.2-2.1c2.1-0.3,4.1-0.7,6.2-0.7c0.6,0,1.2,1.2,1.8,1.8
						C1311.1,540.9,1310.6,542.1,1310,542.1z M1373,542.9c-1,0.3-2.1,0-3,0.5c-5.4,3.1-10.2-2-15.4-1.3c-0.5,0.1-1.3-2.3-1.8-3.4
						c2.6-4.2,5.1-0.7,7.6-0.6c2.4,0,4.7-0.1,7.1-0.2c2.6,0.9,4.8,3.1,7.2-2.3c1,2.5,1.5,4.1,2.1,5.6
						C1375.5,541.9,1374.3,542.5,1373,542.9z M1395.4,602.8c-1.5-2.5-3.1-5-2-8.4c0.4-0.2,0.9-0.3,1.3-0.5c0.8,2.8,1.6,5.5,2.5,8.3
						C1396.6,602.4,1396,602.6,1395.4,602.8z M1395.7,544.1c-0.2-0.5-0.3-1.1-0.5-1.6c1.5-0.6,3-1.8,4.4-1.7
						c0.7,0.1,1.4,2.4,2.5,4.7C1399.1,544.8,1397.4,544.4,1395.7,544.1z M1425,549.6c-3.1-3,4.8-6.1-0.2-8.9c-2.1,2.2-4,4.3-6,6.3
						c-0.3-0.1-0.7-0.2-1-0.3c0.4-2.4,0.3-5.3,1.4-6.9c1.1-1.6,4.6-3.1,5.4-2.3c2.5,2.3,4.2,5.7,6.5,9.2
						C1428.2,548.1,1426.6,548.9,1425,549.6z"/>
					<path class="st1" d="M1258.3,534.3c-1.3,1-2.5,2.2-3.9,3c-0.1,0.1-1-1.2-1.5-1.9c1.3-1.1,2.7-2.2,4-3.3
						C1257.4,532.9,1257.9,533.6,1258.3,534.3z"/>
				</g>
				<g>
					<path class="st2" d="M1651.9,536.7c-1.9-0.1-3.7-0.5-5.6-0.8c0.8-1.6,1.7-3.2,2.5-4.8c0.1-0.2-0.1-0.6-0.2-1.4h-17.4
						c2.7,2,4.9,3.6,7.1,5.4c-3.3,2.1-5.2-0.1-7.1-2.5c-2.2-2.9-5-4.9-7.9-2.3c-2.5,2.1-4.3,1.7-6.6,0.2c-0.8-0.5-1.9-1.1-2.8-1.1
						c-6.9,0.2-13.8,0.7-20.7,0.8c-11.3,0.1-22.6,0.1-33.9,0c-1.5,0-3.2-0.9-4.5-1.9c-3-2.4-8.4-2.4-11.5-0.7
						c-3,1.6-6.4,2.1-9.6,2.9c-2,0.5-4.7,0.1-6.1,1.4c-5.9,5.9-5.8,6.1-13,1.3c2.8-0.4,5.5-0.8,8.3-1.2c-2-1.5-4.8-1.1-5.8-2.4
						c-3.6-4.7-6.6-2-9.7,0.3c-3.5,2.7-8.5,2.1-12-1c-1.3-1.1-4.2-1.2-5.6-0.2c-2.3,1.5-3.9,2.9-6.9,1.8c-1.6-0.6-3.9,1.2-5.8,1.7
						c-1.6,0.5-4.3,1.6-4.6,1c-2.5-4.2-4.7-2.1-7.3,0.5c-2.5-3.3-3.7-8.8-9.1-7c-0.4,2-0.8,4.1-1.2,6.5c-2.8-1-5.2-2.4-7.7-2.5
						c-8.2-0.3-16.4-0.4-24.6-0.1c-3.6,0.1-7.2,1.7-10.7,1.6c-4.7-0.2-9.3-1.7-14-2c-2.5-0.1-5,1.3-7.4,2c0.8,4,1.4,6.9,2.2,10.6
						c-4.5-0.5-8.3-0.9-12.1-1.4l0.1-1.3c5.4,0.1,7.3-2.1,7.8-9.2c-2.9,0-5.7,0-8.6,0c-6,0.1-12.1,0-18.1,0.3
						c-2.9,0.1-5.8,1-9.2,1.6c-9.2,0.4-18.8-2.7-29.1-0.8c-10,1.8-20.5,0-31-0.3c0.2-1.8,0.2-2.6,0.4-3.4c0.2-0.5,0.4-1,0.6-1.6
						c-0.3,0-0.6,0.1-0.9,0.1c-1.3,0.4-2.6,0.6-3.9,0.8c-1.4,0.2-2.8,0.3-4.3,0.4c-1.1,0.1-2.1,0.3-3.2,0.4
						c-4.3,0.5-8.5,0.7-12.8,0.3c-0.4,0-0.8-0.1-1.2-0.2c-0.6,0-1.3,0-1.9,0c0.4,2.6,0.9,5.3,1.3,7.9c0.1,0.9,0.1,2-0.2,2.8
						c-0.5,1.1-1.3,2-2,3c1.2,0.1,2.5,0.3,3.9,0.4c1.1,3.5-0.1,5.1-3.3,5.2c-1.6,0.1-3.1,0.5-4.7,0.7c-4.8,0.7-9.6,1.4-14.4,2
						c-0.1-0.8-0.2-1.5-0.3-2.3c1.2-0.3,2.5-0.5,3.7-0.8c3.5-1,7.1-1.8,10.5-3.1c0.6-0.2,0.7-2.3,1-3.5c-1.2-0.4-2.3-0.9-3.5-1.2
						c-1.5-0.3-3.6,0.1-4.6-0.8c-1.8-1.8-3-4.4-4.4-6.7c-4.2,3.6-6,3.5-10,0.3c-4.2,0.3-7.2,0.5-10.3,0.6c-3.7,0.2-7.4,0.7-11,0.4
						c-5.6-0.5-11.6,1.9-16.8-2.6c-0.5-0.5-1.6-0.2-2.5-0.1c-4.6,0.4-9.3,1-13.9,1.1c-18.6,0.3-37.3,0.5-55.9,0.7
						c-2.4,0-4.8,0.7-7.2,0.6c-3.3-0.2-6.5-1.2-9.8-1.2c-21.8,0.2-43.6,0.7-65.5,0.7c-12,0-24-0.8-36-1c-14.9-0.2-29.8,0-44.7,0.1
						v74h127.7c0.5-2.7,0.9-5.3,1.5-8.3c3.1,1.5,3.4,4.9,3.7,8.3h173.8c-0.3-2.6-0.5-5.2-0.8-8.2c3.1,1.2,5.3,3.6,5.2,8.2h16.5
						c0.7-2.3,1.4-4.5,2-6.8c0.5-1.6,0.8-3.3,1.4-5.8c3.8,4,7.2,7.2,7.8,12.6h63.4c0.5-4.3,3.6-7.2,7.5-7c4.4,0.2,3.9,3.7,3.8,7h33
						c1.6-3.6,4.8-3.3,7.6-3.5c0.6,0,1.3,2.3,2,3.5h9.6c-1.3-3.2-2.5-6.3-3.9-9.8c2-0.5,3.5-0.9,4.5-1.2c2,2.7,3.8,5.2,5.6,7.6
						l1.2-0.9c0.1,1.4,0.3,2.9,0.4,4.3h8.7l-3.1-7.2c0.4-0.3,0.9-0.5,1.3-0.8c2.1,2.6,4.1,5.2,6.2,7.8c-0.7-3.5-1.3-6.9-2-10.4
						c0.5-0.1,0.9-0.2,1.4-0.4c1.1,3.7,2.1,7.3,3.2,11h3.5c-0.8-1.5-1.6-3-2.9-5.6c3.8,1.1,7.1,0.7,7.2,5.6h198.1v-69
						C1657.2,536.9,1654.5,536.9,1651.9,536.7z M1116.2,558.5c2.9-2.3,5.8-4.6,9.1,0.7C1121.8,558.9,1119,558.7,1116.2,558.5z
						 M1205.2,601.7c-2.4-1.2-2.7-3.1-0.3-6.5c1.1,2.4,2,4.2,2.8,6C1206.8,601.4,1205.8,602,1205.2,601.7z M1236,578.4l0.1-1.6
						c3.1,0,6.2-0.2,9.2,0.2c0.5,0.1,0.7,3.2,1.1,5.4C1242.3,580.9,1239.1,579.6,1236,578.4z M1299.7,550.9
						c-1.2,0.6-2.3,1.3-3.4,1.9c3.3-6.2,3.3-6.2,6.9-3.7C1301.9,549.8,1300.8,550.3,1299.7,550.9z M1310,542.1
						c-2.2-0.1-4.3-0.5-6.5-0.8c0.1-0.7,0.1-1.4,0.2-2.1c2.1-0.3,4.1-0.7,6.2-0.7c0.6,0,1.2,1.2,1.8,1.8
						C1311.1,540.9,1310.6,542.1,1310,542.1z M1373,542.9c-1,0.3-2.1,0-3,0.5c-5.4,3.1-10.2-2-15.4-1.3c-0.5,0.1-1.3-2.3-1.8-3.4
						c2.6-4.2,5.1-0.7,7.6-0.6c2.4,0,4.7-0.1,7.1-0.2c2.6,0.9,4.8,3.1,7.2-2.3c1,2.5,1.5,4.1,2.1,5.6
						C1375.5,541.9,1374.3,542.5,1373,542.9z M1395.4,602.8c-1.5-2.5-3.1-5-2-8.4c0.4-0.2,0.9-0.3,1.3-0.5c0.8,2.8,1.6,5.5,2.5,8.3
						C1396.6,602.4,1396,602.6,1395.4,602.8z M1395.7,544.1c-0.2-0.5-0.3-1.1-0.5-1.6c1.5-0.6,3-1.8,4.4-1.7
						c0.7,0.1,1.4,2.4,2.5,4.7C1399.1,544.8,1397.4,544.4,1395.7,544.1z M1425,549.6c-3.1-3,4.8-6.1-0.2-8.9c-2.1,2.2-4,4.3-6,6.3
						c-0.3-0.1-0.7-0.2-1-0.3c0.4-2.4,0.3-5.3,1.4-6.9c1.1-1.6,4.6-3.1,5.4-2.3c2.5,2.3,4.2,5.7,6.5,9.2
						C1428.2,548.1,1426.6,548.9,1425,549.6z"/>
					<path class="st1" d="M1258.3,534.3c-1.3,1-2.5,2.2-3.9,3c-0.1,0.1-1-1.2-1.5-1.9c1.3-1.1,2.7-2.2,4-3.3
						C1257.4,532.9,1257.9,533.6,1258.3,534.3z"/>
				</g>
				<g>
					<g>
						<path class="st3" d="M1258.3,534.3c-0.5-0.7-0.9-1.4-1.4-2.1c-1.3,1.1-2.7,2.2-4,3.3c0.5,0.7,1.3,1.9,1.5,1.9
							C1255.8,536.5,1257,535.4,1258.3,534.3z"/>
					</g>
					<line class="st4" x1="1198.3" y1="531.5" x2="1234.3" y2="531.5"/>
					<line class="st4" x1="1198.3" y1="537.9" x2="1234.3" y2="537.9"/>
					<line class="st4" x1="1252.3" y1="591.9" x2="1252.3" y2="555.9"/>
					<line class="st4" x1="1313" y1="531.5" x2="1277" y2="531.5"/>
					<line class="st4" x1="1313" y1="537.9" x2="1277" y2="537.9"/>
					<line class="st4" x1="1259" y1="591.9" x2="1259" y2="555.9"/>
				</g>
			</g>
			<g id="PgDVas_4_">
				<g>
					<path class="st1" d="M2209.4,536.3c-1.9-0.1-3.7-0.5-5.6-0.8c0.8-1.6,1.7-3.2,2.5-4.8c0.1-0.2-0.1-0.6-0.2-1.4h-17.4
						c2.7,2,4.9,3.6,7.1,5.4c-3.3,2.1-5.2-0.1-7.1-2.5c-2.2-2.9-5-4.9-7.9-2.3c-2.5,2.1-4.3,1.7-6.6,0.2c-0.8-0.5-1.9-1.1-2.8-1.1
						c-6.9,0.2-13.8,0.7-20.7,0.8c-11.3,0.1-22.6,0.1-33.9,0c-1.5,0-3.2-0.9-4.5-1.9c-3-2.4-8.4-2.4-11.5-0.7
						c-3,1.6-6.4,2.1-9.6,2.9c-2,0.5-4.7,0.1-6.1,1.4c-5.9,5.9-5.8,6.1-13,1.3c2.8-0.4,5.5-0.8,8.3-1.2c-2-1.5-4.8-1.1-5.8-2.4
						c-3.6-4.7-6.6-2-9.7,0.3c-3.5,2.7-8.5,2.1-12-1c-1.3-1.1-4.2-1.2-5.6-0.2c-2.3,1.5-3.9,2.9-6.9,1.8c-1.6-0.6-3.9,1.2-5.8,1.7
						c-1.6,0.5-4.3,1.6-4.6,1c-2.5-4.2-4.7-2.1-7.3,0.5c-2.5-3.3-3.7-8.8-9.1-7c-0.4,2-0.8,4.1-1.2,6.5c-2.8-1-5.2-2.4-7.7-2.5
						c-8.2-0.3-16.4-0.4-24.6-0.1c-3.6,0.1-7.2,1.7-10.7,1.6c-4.7-0.2-9.3-1.7-14-2c-2.5-0.1-5,1.3-7.4,2c0.8,4,1.4,6.9,2.2,10.6
						c-4.5-0.5-8.3-0.9-12.1-1.4l0.1-1.3c5.4,0.1,7.3-2.1,7.8-9.2c-2.9,0-5.7,0-8.6,0c-6,0.1-12.1,0-18.1,0.3
						c-2.9,0.1-5.8,1-9.2,1.6c-9.2,0.4-18.8-2.7-29.1-0.8c-10,1.8-20.5,0-31-0.3c0.2-1.8,0.2-2.6,0.4-3.4c0.2-0.5,0.4-1,0.6-1.6
						c-0.3,0-0.6,0.1-0.9,0.1c-1.3,0.4-2.6,0.6-3.9,0.8c-1.4,0.2-2.8,0.3-4.3,0.4c-1.1,0.1-2.1,0.3-3.2,0.4
						c-4.3,0.5-8.5,0.7-12.8,0.3c-0.4,0-0.8-0.1-1.2-0.2c-0.6,0-1.3,0-1.9,0c0.4,2.6,0.9,5.3,1.3,7.9c0.1,0.9,0.1,2-0.2,2.8
						c-0.5,1.1-1.3,2-2,3c1.2,0.1,2.5,0.3,3.9,0.4c1.1,3.5-0.1,5.1-3.3,5.2c-1.6,0.1-3.1,0.5-4.7,0.7c-4.8,0.7-9.6,1.4-14.4,2
						c-0.1-0.8-0.2-1.5-0.3-2.3c1.2-0.3,2.5-0.5,3.7-0.8c3.5-1,7.1-1.8,10.5-3.1c0.6-0.2,0.7-2.3,1-3.5c-1.2-0.4-2.3-0.9-3.5-1.2
						c-1.5-0.3-3.6,0.1-4.6-0.8c-1.8-1.8-3-4.4-4.4-6.7c-4.2,3.6-6,3.5-10,0.3c-4.2,0.3-7.2,0.5-10.3,0.6c-3.7,0.2-7.4,0.7-11,0.4
						c-5.6-0.5-11.6,1.9-16.8-2.6c-0.5-0.5-1.6-0.2-2.5-0.1c-4.6,0.4-9.3,1-13.9,1.1c-18.6,0.3-37.3,0.5-55.9,0.7
						c-2.4,0-4.8,0.7-7.2,0.6c-3.3-0.2-6.5-1.2-9.8-1.2c-21.8,0.2-43.6,0.7-65.5,0.7c-12,0-24-0.8-36-1c-14.9-0.2-29.8,0-44.7,0.1
						v74h127.7c0.5-2.7,0.9-5.3,1.5-8.3c3.1,1.5,3.4,4.9,3.7,8.3h173.8c-0.3-2.6-0.5-5.2-0.8-8.2c3.1,1.2,5.3,3.6,5.2,8.2h16.5
						c0.7-2.3,1.4-4.5,2-6.8c0.5-1.6,0.8-3.3,1.4-5.8c3.8,4,7.2,7.2,7.8,12.6h63.4c0.5-4.3,3.6-7.2,7.5-7c4.4,0.2,3.9,3.7,3.8,7h33
						c1.6-3.6,4.8-3.3,7.6-3.5c0.6,0,1.3,2.3,2,3.5h9.6c-1.3-3.2-2.5-6.3-3.9-9.8c2-0.5,3.5-0.9,4.5-1.2c2,2.7,3.8,5.2,5.6,7.6
						l1.2-0.9c0.1,1.4,0.3,2.9,0.4,4.3h8.7l-3.1-7.2c0.4-0.3,0.9-0.5,1.3-0.8c2.1,2.6,4.1,5.2,6.2,7.8c-0.7-3.5-1.3-6.9-2-10.4
						c0.5-0.1,0.9-0.2,1.4-0.4c1.1,3.7,2.1,7.3,3.2,11h3.5c-0.8-1.5-1.6-3-2.9-5.6c3.8,1.1,7.1,0.7,7.2,5.6h198.1v-69
						C2214.8,536.5,2212.1,536.5,2209.4,536.3z M1673.8,558.1c2.9-2.3,5.8-4.6,9.1,0.7C1679.4,558.5,1676.6,558.3,1673.8,558.1z
						 M1762.7,601.3c-2.4-1.2-2.7-3.1-0.3-6.5c1.1,2.4,2,4.2,2.8,6C1764.4,601,1763.4,601.6,1762.7,601.3z M1793.5,578l0.1-1.6
						c3.1,0,6.2-0.2,9.2,0.2c0.5,0.1,0.7,3.2,1.1,5.4C1799.9,580.5,1796.7,579.2,1793.5,578z M1857.3,550.5
						c-1.2,0.6-2.3,1.3-3.4,1.9c3.3-6.2,3.3-6.2,6.9-3.7C1859.5,549.4,1858.4,549.9,1857.3,550.5z M1867.6,541.7
						c-2.2-0.1-4.3-0.5-6.5-0.8c0.1-0.7,0.1-1.4,0.2-2.1c2.1-0.3,4.1-0.7,6.2-0.7c0.6,0,1.2,1.2,1.8,1.8
						C1868.7,540.5,1868.1,541.8,1867.6,541.7z M1930.6,542.5c-1,0.3-2.1,0-3,0.5c-5.4,3.1-10.2-2-15.4-1.3
						c-0.5,0.1-1.3-2.3-1.8-3.4c2.6-4.2,5.1-0.7,7.6-0.6c2.4,0,4.7-0.1,7.1-0.2c2.6,0.9,4.8,3.1,7.2-2.3c1,2.5,1.5,4.1,2.1,5.6
						C1933.1,541.5,1931.9,542.1,1930.6,542.5z M1953,602.4c-1.5-2.5-3.1-5-2-8.4c0.4-0.2,0.9-0.3,1.3-0.5c0.8,2.8,1.6,5.5,2.5,8.3
						C1954.1,602,1953.5,602.2,1953,602.4z M1953.2,543.7c-0.2-0.5-0.3-1.1-0.5-1.6c1.5-0.6,3-1.8,4.4-1.7c0.7,0.1,1.4,2.4,2.5,4.7
						C1956.7,544.4,1954.9,544.1,1953.2,543.7z M1982.6,549.2c-3.1-3,4.8-6.1-0.2-8.9c-2.1,2.2-4,4.3-6,6.3c-0.3-0.1-0.7-0.2-1-0.3
						c0.4-2.4,0.3-5.3,1.4-6.9c1.1-1.6,4.6-3.1,5.4-2.3c2.5,2.3,4.2,5.7,6.5,9.2C1985.8,547.7,1984.1,548.5,1982.6,549.2z"/>
					<path class="st1" d="M1815.9,533.9c-1.3,1-2.5,2.2-3.9,3c-0.1,0.1-1-1.2-1.5-1.9c1.3-1.1,2.7-2.2,4-3.3
						C1815,532.5,1815.4,533.2,1815.9,533.9z"/>
				</g>
				<g>
					<path class="st2" d="M2209.4,536.3c-1.9-0.1-3.7-0.5-5.6-0.8c0.8-1.6,1.7-3.2,2.5-4.8c0.1-0.2-0.1-0.6-0.2-1.4h-17.4
						c2.7,2,4.9,3.6,7.1,5.4c-3.3,2.1-5.2-0.1-7.1-2.5c-2.2-2.9-5-4.9-7.9-2.3c-2.5,2.1-4.3,1.7-6.6,0.2c-0.8-0.5-1.9-1.1-2.8-1.1
						c-6.9,0.2-13.8,0.7-20.7,0.8c-11.3,0.1-22.6,0.1-33.9,0c-1.5,0-3.2-0.9-4.5-1.9c-3-2.4-8.4-2.4-11.5-0.7
						c-3,1.6-6.4,2.1-9.6,2.9c-2,0.5-4.7,0.1-6.1,1.4c-5.9,5.9-5.8,6.1-13,1.3c2.8-0.4,5.5-0.8,8.3-1.2c-2-1.5-4.8-1.1-5.8-2.4
						c-3.6-4.7-6.6-2-9.7,0.3c-3.5,2.7-8.5,2.1-12-1c-1.3-1.1-4.2-1.2-5.6-0.2c-2.3,1.5-3.9,2.9-6.9,1.8c-1.6-0.6-3.9,1.2-5.8,1.7
						c-1.6,0.5-4.3,1.6-4.6,1c-2.5-4.2-4.7-2.1-7.3,0.5c-2.5-3.3-3.7-8.8-9.1-7c-0.4,2-0.8,4.1-1.2,6.5c-2.8-1-5.2-2.4-7.7-2.5
						c-8.2-0.3-16.4-0.4-24.6-0.1c-3.6,0.1-7.2,1.7-10.7,1.6c-4.7-0.2-9.3-1.7-14-2c-2.5-0.1-5,1.3-7.4,2c0.8,4,1.4,6.9,2.2,10.6
						c-4.5-0.5-8.3-0.9-12.1-1.4l0.1-1.3c5.4,0.1,7.3-2.1,7.8-9.2c-2.9,0-5.7,0-8.6,0c-6,0.1-12.1,0-18.1,0.3
						c-2.9,0.1-5.8,1-9.2,1.6c-9.2,0.4-18.8-2.7-29.1-0.8c-10,1.8-20.5,0-31-0.3c0.2-1.8,0.2-2.6,0.4-3.4c0.2-0.5,0.4-1,0.6-1.6
						c-0.3,0-0.6,0.1-0.9,0.1c-1.3,0.4-2.6,0.6-3.9,0.8c-1.4,0.2-2.8,0.3-4.3,0.4c-1.1,0.1-2.1,0.3-3.2,0.4
						c-4.3,0.5-8.5,0.7-12.8,0.3c-0.4,0-0.8-0.1-1.2-0.2c-0.6,0-1.3,0-1.9,0c0.4,2.6,0.9,5.3,1.3,7.9c0.1,0.9,0.1,2-0.2,2.8
						c-0.5,1.1-1.3,2-2,3c1.2,0.1,2.5,0.3,3.9,0.4c1.1,3.5-0.1,5.1-3.3,5.2c-1.6,0.1-3.1,0.5-4.7,0.7c-4.8,0.7-9.6,1.4-14.4,2
						c-0.1-0.8-0.2-1.5-0.3-2.3c1.2-0.3,2.5-0.5,3.7-0.8c3.5-1,7.1-1.8,10.5-3.1c0.6-0.2,0.7-2.3,1-3.5c-1.2-0.4-2.3-0.9-3.5-1.2
						c-1.5-0.3-3.6,0.1-4.6-0.8c-1.8-1.8-3-4.4-4.4-6.7c-4.2,3.6-6,3.5-10,0.3c-4.2,0.3-7.2,0.5-10.3,0.6c-3.7,0.2-7.4,0.7-11,0.4
						c-5.6-0.5-11.6,1.9-16.8-2.6c-0.5-0.5-1.6-0.2-2.5-0.1c-4.6,0.4-9.3,1-13.9,1.1c-18.6,0.3-37.3,0.5-55.9,0.7
						c-2.4,0-4.8,0.7-7.2,0.6c-3.3-0.2-6.5-1.2-9.8-1.2c-21.8,0.2-43.6,0.7-65.5,0.7c-12,0-24-0.8-36-1c-14.9-0.2-29.8,0-44.7,0.1
						v74h127.7c0.5-2.7,0.9-5.3,1.5-8.3c3.1,1.5,3.4,4.9,3.7,8.3h173.8c-0.3-2.6-0.5-5.2-0.8-8.2c3.1,1.2,5.3,3.6,5.2,8.2h16.5
						c0.7-2.3,1.4-4.5,2-6.8c0.5-1.6,0.8-3.3,1.4-5.8c3.8,4,7.2,7.2,7.8,12.6h63.4c0.5-4.3,3.6-7.2,7.5-7c4.4,0.2,3.9,3.7,3.8,7h33
						c1.6-3.6,4.8-3.3,7.6-3.5c0.6,0,1.3,2.3,2,3.5h9.6c-1.3-3.2-2.5-6.3-3.9-9.8c2-0.5,3.5-0.9,4.5-1.2c2,2.7,3.8,5.2,5.6,7.6
						l1.2-0.9c0.1,1.4,0.3,2.9,0.4,4.3h8.7l-3.1-7.2c0.4-0.3,0.9-0.5,1.3-0.8c2.1,2.6,4.1,5.2,6.2,7.8c-0.7-3.5-1.3-6.9-2-10.4
						c0.5-0.1,0.9-0.2,1.4-0.4c1.1,3.7,2.1,7.3,3.2,11h3.5c-0.8-1.5-1.6-3-2.9-5.6c3.8,1.1,7.1,0.7,7.2,5.6h198.1v-69
						C2214.8,536.5,2212.1,536.5,2209.4,536.3z M1673.8,558.1c2.9-2.3,5.8-4.6,9.1,0.7C1679.4,558.5,1676.6,558.3,1673.8,558.1z
						 M1762.7,601.3c-2.4-1.2-2.7-3.1-0.3-6.5c1.1,2.4,2,4.2,2.8,6C1764.4,601,1763.4,601.6,1762.7,601.3z M1793.5,578l0.1-1.6
						c3.1,0,6.2-0.2,9.2,0.2c0.5,0.1,0.7,3.2,1.1,5.4C1799.9,580.5,1796.7,579.2,1793.5,578z M1857.3,550.5
						c-1.2,0.6-2.3,1.3-3.4,1.9c3.3-6.2,3.3-6.2,6.9-3.7C1859.5,549.4,1858.4,549.9,1857.3,550.5z M1867.6,541.7
						c-2.2-0.1-4.3-0.5-6.5-0.8c0.1-0.7,0.1-1.4,0.2-2.1c2.1-0.3,4.1-0.7,6.2-0.7c0.6,0,1.2,1.2,1.8,1.8
						C1868.7,540.5,1868.1,541.8,1867.6,541.7z M1930.6,542.5c-1,0.3-2.1,0-3,0.5c-5.4,3.1-10.2-2-15.4-1.3
						c-0.5,0.1-1.3-2.3-1.8-3.4c2.6-4.2,5.1-0.7,7.6-0.6c2.4,0,4.7-0.1,7.1-0.2c2.6,0.9,4.8,3.1,7.2-2.3c1,2.5,1.5,4.1,2.1,5.6
						C1933.1,541.5,1931.9,542.1,1930.6,542.5z M1953,602.4c-1.5-2.5-3.1-5-2-8.4c0.4-0.2,0.9-0.3,1.3-0.5c0.8,2.8,1.6,5.5,2.5,8.3
						C1954.1,602,1953.5,602.2,1953,602.4z M1953.2,543.7c-0.2-0.5-0.3-1.1-0.5-1.6c1.5-0.6,3-1.8,4.4-1.7c0.7,0.1,1.4,2.4,2.5,4.7
						C1956.7,544.4,1954.9,544.1,1953.2,543.7z M1982.6,549.2c-3.1-3,4.8-6.1-0.2-8.9c-2.1,2.2-4,4.3-6,6.3c-0.3-0.1-0.7-0.2-1-0.3
						c0.4-2.4,0.3-5.3,1.4-6.9c1.1-1.6,4.6-3.1,5.4-2.3c2.5,2.3,4.2,5.7,6.5,9.2C1985.8,547.7,1984.1,548.5,1982.6,549.2z"/>
					<path class="st1" d="M1815.9,533.9c-1.3,1-2.5,2.2-3.9,3c-0.1,0.1-1-1.2-1.5-1.9c1.3-1.1,2.7-2.2,4-3.3
						C1815,532.5,1815.4,533.2,1815.9,533.9z"/>
				</g>
				<g>
					<g>
						<path class="st3" d="M1815.9,533.9c-0.5-0.7-0.9-1.4-1.4-2.1c-1.3,1.1-2.7,2.2-4,3.3c0.5,0.7,1.3,1.9,1.5,1.9
							C1813.4,536.1,1814.6,535,1815.9,533.9z"/>
					</g>
					<line class="st4" x1="1755.9" y1="531.1" x2="1791.9" y2="531.1"/>
					<line class="st4" x1="1755.9" y1="537.5" x2="1791.9" y2="537.5"/>
					<line class="st4" x1="1809.9" y1="591.5" x2="1809.9" y2="555.5"/>
					<line class="st4" x1="1870.5" y1="531.1" x2="1834.5" y2="531.1"/>
					<line class="st4" x1="1870.5" y1="537.5" x2="1834.5" y2="537.5"/>
					<line class="st4" x1="1816.5" y1="591.5" x2="1816.5" y2="555.5"/>
				</g>
			</g>
			<g id="PgDVas_2_">
				<g>
					<path class="st1" d="M982.7,536.2c-1.9-0.1-3.7-0.5-5.6-0.8c0.8-1.6,1.7-3.2,2.5-4.8c0.1-0.2-0.1-0.6-0.2-1.4H962
						c2.7,2,4.9,3.6,7.1,5.4c-3.3,2.1-5.2-0.1-7.1-2.5c-2.2-2.9-5-4.9-7.9-2.3c-2.5,2.1-4.3,1.7-6.6,0.2c-0.8-0.5-1.9-1.1-2.8-1.1
						c-6.9,0.2-13.8,0.7-20.7,0.8c-11.3,0.1-22.6,0.1-33.9,0c-1.5,0-3.2-0.9-4.5-1.9c-3-2.4-8.4-2.4-11.5-0.7
						c-3,1.6-6.4,2.1-9.6,2.9c-2,0.5-4.7,0.1-6.1,1.4c-5.9,5.9-5.8,6.1-13,1.3c2.8-0.4,5.5-0.8,8.3-1.2c-2-1.5-4.8-1.1-5.8-2.4
						c-3.6-4.7-6.6-2-9.7,0.3c-3.5,2.7-8.5,2.1-12-1c-1.3-1.1-4.2-1.2-5.6-0.2c-2.3,1.5-3.9,2.9-6.9,1.8c-1.6-0.6-3.9,1.2-5.8,1.7
						c-1.6,0.5-4.3,1.6-4.6,1c-2.5-4.2-4.7-2.1-7.3,0.5c-2.5-3.3-3.7-8.8-9.1-7c-0.4,2-0.8,4.1-1.2,6.5c-2.8-1-5.2-2.4-7.7-2.5
						c-8.2-0.3-16.4-0.4-24.6-0.1c-3.6,0.1-7.2,1.7-10.7,1.6c-4.7-0.2-9.3-1.7-14-2c-2.5-0.1-5,1.3-7.4,2c0.8,4,1.4,6.9,2.2,10.6
						c-4.5-0.5-8.3-0.9-12.1-1.4l0.1-1.3c5.4,0.1,7.3-2.1,7.8-9.2c-2.9,0-5.7,0-8.6,0c-6,0.1-12.1,0-18.1,0.3
						c-2.9,0.1-5.8,1-9.2,1.6c-9.2,0.4-18.8-2.7-29.1-0.8c-10,1.8-20.5,0-31-0.3c0.2-1.8,0.2-2.6,0.4-3.4c0.2-0.5,0.4-1,0.6-1.6
						c-0.3,0-0.6,0.1-0.9,0.1c-1.3,0.4-2.6,0.6-3.9,0.8c-1.4,0.2-2.8,0.3-4.3,0.4c-1.1,0.1-2.1,0.3-3.2,0.4
						c-4.3,0.5-8.5,0.7-12.8,0.3c-0.4,0-0.8-0.1-1.2-0.2c-0.6,0-1.3,0-1.9,0c0.4,2.6,0.9,5.3,1.3,7.9c0.1,0.9,0.1,2-0.2,2.8
						c-0.5,1.1-1.3,2-2,3c1.2,0.1,2.5,0.3,3.9,0.4c1.1,3.5-0.1,5.1-3.3,5.2c-1.6,0.1-3.1,0.5-4.7,0.7c-4.8,0.7-9.6,1.4-14.4,2
						c-0.1-0.8-0.2-1.5-0.3-2.3c1.2-0.3,2.5-0.5,3.7-0.8c3.5-1,7.1-1.8,10.5-3.1c0.6-0.2,0.7-2.3,1-3.5c-1.2-0.4-2.3-0.9-3.5-1.2
						c-1.5-0.3-3.6,0.1-4.6-0.8c-1.8-1.8-3-4.4-4.4-6.7c-4.2,3.6-6,3.5-10,0.3c-4.2,0.3-7.2,0.5-10.3,0.6c-3.7,0.2-7.4,0.7-11,0.4
						c-5.6-0.5-11.6,1.9-16.8-2.6c-0.5-0.5-1.6-0.2-2.5-0.1c-4.6,0.4-9.3,1-13.9,1.1c-18.6,0.3-37.3,0.5-55.9,0.7
						c-2.4,0-4.8,0.7-7.2,0.6c-3.3-0.2-6.5-1.2-9.8-1.2c-21.8,0.2-43.6,0.7-65.5,0.7c-12,0-24-0.8-36-1c-14.9-0.2-29.8,0-44.7,0.1
						v74h127.7c0.5-2.7,0.9-5.3,1.5-8.3c3.1,1.5,3.4,4.9,3.7,8.3h173.8c-0.3-2.6-0.5-5.2-0.8-8.2c3.1,1.2,5.3,3.6,5.2,8.2h16.5
						c0.7-2.3,1.4-4.5,2-6.8c0.5-1.6,0.8-3.3,1.4-5.8c3.8,4,7.2,7.2,7.8,12.6h63.4c0.5-4.3,3.6-7.2,7.5-7c4.4,0.2,3.9,3.7,3.8,7h33
						c1.6-3.6,4.8-3.3,7.6-3.5c0.6,0,1.3,2.3,2,3.5h9.6c-1.3-3.2-2.5-6.3-3.9-9.8c2-0.5,3.5-0.9,4.5-1.2c2,2.7,3.8,5.2,5.6,7.6
						l1.2-0.9c0.1,1.4,0.3,2.9,0.4,4.3h8.7l-3.1-7.2c0.4-0.3,0.9-0.5,1.3-0.8c2.1,2.6,4.1,5.2,6.2,7.8c-0.7-3.5-1.3-6.9-2-10.4
						c0.5-0.1,0.9-0.2,1.4-0.4c1.1,3.7,2.1,7.3,3.2,11h3.5c-0.8-1.5-1.6-3-2.9-5.6c3.8,1.1,7.1,0.7,7.2,5.6h198.1v-69
						C988,536.5,985.3,536.4,982.7,536.2z M447,558c2.9-2.3,5.8-4.6,9.1,0.7C452.6,558.4,449.8,558.2,447,558z M535.9,601.3
						c-2.4-1.2-2.7-3.1-0.3-6.5c1.1,2.4,2,4.2,2.8,6C537.6,601,536.6,601.6,535.9,601.3z M566.8,578l0.1-1.6c3.1,0,6.2-0.2,9.2,0.2
						c0.5,0.1,0.7,3.2,1.1,5.4C573.1,580.4,569.9,579.2,566.8,578z M630.5,550.4c-1.2,0.6-2.3,1.3-3.4,1.9c3.3-6.2,3.3-6.2,6.9-3.7
						C632.7,549.3,631.6,549.8,630.5,550.4z M640.8,541.7c-2.2-0.1-4.3-0.5-6.5-0.8c0.1-0.7,0.1-1.4,0.2-2.1
						c2.1-0.3,4.1-0.7,6.2-0.7c0.6,0,1.2,1.2,1.8,1.8C641.9,540.5,641.3,541.7,640.8,541.7z M703.8,542.5c-1,0.3-2.1,0-3,0.5
						c-5.4,3.1-10.2-2-15.4-1.3c-0.5,0.1-1.3-2.3-1.8-3.4c2.6-4.2,5.1-0.7,7.6-0.6c2.4,0,4.7-0.1,7.1-0.2c2.6,0.9,4.8,3.1,7.2-2.3
						c1,2.5,1.5,4.1,2.1,5.6C706.3,541.4,705.1,542.1,703.8,542.5z M726.2,602.4c-1.5-2.5-3.1-5-2-8.4c0.4-0.2,0.9-0.3,1.3-0.5
						c0.8,2.8,1.6,5.5,2.5,8.3C727.3,602,726.8,602.2,726.2,602.4z M726.4,543.6c-0.2-0.5-0.3-1.1-0.5-1.6c1.5-0.6,3-1.8,4.4-1.7
						c0.7,0.1,1.4,2.4,2.5,4.7C729.9,544.4,728.2,544,726.4,543.6z M755.8,549.1c-3.1-3,4.8-6.1-0.2-8.9c-2.1,2.2-4,4.3-6,6.3
						c-0.3-0.1-0.7-0.2-1-0.3c0.4-2.4,0.3-5.3,1.4-6.9c1.1-1.6,4.6-3.1,5.4-2.3c2.5,2.3,4.2,5.7,6.5,9.2
						C759,547.6,757.3,548.4,755.8,549.1z"/>
					<path class="st1" d="M589.1,533.9c-1.3,1-2.5,2.2-3.9,3c-0.1,0.1-1-1.2-1.5-1.9c1.3-1.1,2.7-2.2,4-3.3
						C588.2,532.5,588.6,533.2,589.1,533.9z"/>
				</g>
				<g>
					<path class="st2" d="M982.7,536.2c-1.9-0.1-3.7-0.5-5.6-0.8c0.8-1.6,1.7-3.2,2.5-4.8c0.1-0.2-0.1-0.6-0.2-1.4H962
						c2.7,2,4.9,3.6,7.1,5.4c-3.3,2.1-5.2-0.1-7.1-2.5c-2.2-2.9-5-4.9-7.9-2.3c-2.5,2.1-4.3,1.7-6.6,0.2c-0.8-0.5-1.9-1.1-2.8-1.1
						c-6.9,0.2-13.8,0.7-20.7,0.8c-11.3,0.1-22.6,0.1-33.9,0c-1.5,0-3.2-0.9-4.5-1.9c-3-2.4-8.4-2.4-11.5-0.7
						c-3,1.6-6.4,2.1-9.6,2.9c-2,0.5-4.7,0.1-6.1,1.4c-5.9,5.9-5.8,6.1-13,1.3c2.8-0.4,5.5-0.8,8.3-1.2c-2-1.5-4.8-1.1-5.8-2.4
						c-3.6-4.7-6.6-2-9.7,0.3c-3.5,2.7-8.5,2.1-12-1c-1.3-1.1-4.2-1.2-5.6-0.2c-2.3,1.5-3.9,2.9-6.9,1.8c-1.6-0.6-3.9,1.2-5.8,1.7
						c-1.6,0.5-4.3,1.6-4.6,1c-2.5-4.2-4.7-2.1-7.3,0.5c-2.5-3.3-3.7-8.8-9.1-7c-0.4,2-0.8,4.1-1.2,6.5c-2.8-1-5.2-2.4-7.7-2.5
						c-8.2-0.3-16.4-0.4-24.6-0.1c-3.6,0.1-7.2,1.7-10.7,1.6c-4.7-0.2-9.3-1.7-14-2c-2.5-0.1-5,1.3-7.4,2c0.8,4,1.4,6.9,2.2,10.6
						c-4.5-0.5-8.3-0.9-12.1-1.4l0.1-1.3c5.4,0.1,7.3-2.1,7.8-9.2c-2.9,0-5.7,0-8.6,0c-6,0.1-12.1,0-18.1,0.3
						c-2.9,0.1-5.8,1-9.2,1.6c-9.2,0.4-18.8-2.7-29.1-0.8c-10,1.8-20.5,0-31-0.3c0.2-1.8,0.2-2.6,0.4-3.4c0.2-0.5,0.4-1,0.6-1.6
						c-0.3,0-0.6,0.1-0.9,0.1c-1.3,0.4-2.6,0.6-3.9,0.8c-1.4,0.2-2.8,0.3-4.3,0.4c-1.1,0.1-2.1,0.3-3.2,0.4
						c-4.3,0.5-8.5,0.7-12.8,0.3c-0.4,0-0.8-0.1-1.2-0.2c-0.6,0-1.3,0-1.9,0c0.4,2.6,0.9,5.3,1.3,7.9c0.1,0.9,0.1,2-0.2,2.8
						c-0.5,1.1-1.3,2-2,3c1.2,0.1,2.5,0.3,3.9,0.4c1.1,3.5-0.1,5.1-3.3,5.2c-1.6,0.1-3.1,0.5-4.7,0.7c-4.8,0.7-9.6,1.4-14.4,2
						c-0.1-0.8-0.2-1.5-0.3-2.3c1.2-0.3,2.5-0.5,3.7-0.8c3.5-1,7.1-1.8,10.5-3.1c0.6-0.2,0.7-2.3,1-3.5c-1.2-0.4-2.3-0.9-3.5-1.2
						c-1.5-0.3-3.6,0.1-4.6-0.8c-1.8-1.8-3-4.4-4.4-6.7c-4.2,3.6-6,3.5-10,0.3c-4.2,0.3-7.2,0.5-10.3,0.6c-3.7,0.2-7.4,0.7-11,0.4
						c-5.6-0.5-11.6,1.9-16.8-2.6c-0.5-0.5-1.6-0.2-2.5-0.1c-4.6,0.4-9.3,1-13.9,1.1c-18.6,0.3-37.3,0.5-55.9,0.7
						c-2.4,0-4.8,0.7-7.2,0.6c-3.3-0.2-6.5-1.2-9.8-1.2c-21.8,0.2-43.6,0.7-65.5,0.7c-12,0-24-0.8-36-1c-14.9-0.2-29.8,0-44.7,0.1
						v74h127.7c0.5-2.7,0.9-5.3,1.5-8.3c3.1,1.5,3.4,4.9,3.7,8.3h173.8c-0.3-2.6-0.5-5.2-0.8-8.2c3.1,1.2,5.3,3.6,5.2,8.2h16.5
						c0.7-2.3,1.4-4.5,2-6.8c0.5-1.6,0.8-3.3,1.4-5.8c3.8,4,7.2,7.2,7.8,12.6h63.4c0.5-4.3,3.6-7.2,7.5-7c4.4,0.2,3.9,3.7,3.8,7h33
						c1.6-3.6,4.8-3.3,7.6-3.5c0.6,0,1.3,2.3,2,3.5h9.6c-1.3-3.2-2.5-6.3-3.9-9.8c2-0.5,3.5-0.9,4.5-1.2c2,2.7,3.8,5.2,5.6,7.6
						l1.2-0.9c0.1,1.4,0.3,2.9,0.4,4.3h8.7l-3.1-7.2c0.4-0.3,0.9-0.5,1.3-0.8c2.1,2.6,4.1,5.2,6.2,7.8c-0.7-3.5-1.3-6.9-2-10.4
						c0.5-0.1,0.9-0.2,1.4-0.4c1.1,3.7,2.1,7.3,3.2,11h3.5c-0.8-1.5-1.6-3-2.9-5.6c3.8,1.1,7.1,0.7,7.2,5.6h198.1v-69
						C988,536.5,985.3,536.4,982.7,536.2z M447,558c2.9-2.3,5.8-4.6,9.1,0.7C452.6,558.4,449.8,558.2,447,558z M535.9,601.3
						c-2.4-1.2-2.7-3.1-0.3-6.5c1.1,2.4,2,4.2,2.8,6C537.6,601,536.6,601.6,535.9,601.3z M566.8,578l0.1-1.6c3.1,0,6.2-0.2,9.2,0.2
						c0.5,0.1,0.7,3.2,1.1,5.4C573.1,580.4,569.9,579.2,566.8,578z M630.5,550.4c-1.2,0.6-2.3,1.3-3.4,1.9c3.3-6.2,3.3-6.2,6.9-3.7
						C632.7,549.3,631.6,549.8,630.5,550.4z M640.8,541.7c-2.2-0.1-4.3-0.5-6.5-0.8c0.1-0.7,0.1-1.4,0.2-2.1
						c2.1-0.3,4.1-0.7,6.2-0.7c0.6,0,1.2,1.2,1.8,1.8C641.9,540.5,641.3,541.7,640.8,541.7z M703.8,542.5c-1,0.3-2.1,0-3,0.5
						c-5.4,3.1-10.2-2-15.4-1.3c-0.5,0.1-1.3-2.3-1.8-3.4c2.6-4.2,5.1-0.7,7.6-0.6c2.4,0,4.7-0.1,7.1-0.2c2.6,0.9,4.8,3.1,7.2-2.3
						c1,2.5,1.5,4.1,2.1,5.6C706.3,541.4,705.1,542.1,703.8,542.5z M726.2,602.4c-1.5-2.5-3.1-5-2-8.4c0.4-0.2,0.9-0.3,1.3-0.5
						c0.8,2.8,1.6,5.5,2.5,8.3C727.3,602,726.8,602.2,726.2,602.4z M726.4,543.6c-0.2-0.5-0.3-1.1-0.5-1.6c1.5-0.6,3-1.8,4.4-1.7
						c0.7,0.1,1.4,2.4,2.5,4.7C729.9,544.4,728.2,544,726.4,543.6z M755.8,549.1c-3.1-3,4.8-6.1-0.2-8.9c-2.1,2.2-4,4.3-6,6.3
						c-0.3-0.1-0.7-0.2-1-0.3c0.4-2.4,0.3-5.3,1.4-6.9c1.1-1.6,4.6-3.1,5.4-2.3c2.5,2.3,4.2,5.7,6.5,9.2
						C759,547.6,757.3,548.4,755.8,549.1z"/>
					<path class="st1" d="M589.1,533.9c-1.3,1-2.5,2.2-3.9,3c-0.1,0.1-1-1.2-1.5-1.9c1.3-1.1,2.7-2.2,4-3.3
						C588.2,532.5,588.6,533.2,589.1,533.9z"/>
				</g>
				<g>
					<g>
						<path class="st3" d="M589.1,533.9c-0.5-0.7-0.9-1.4-1.4-2.1c-1.3,1.1-2.7,2.2-4,3.3c0.5,0.7,1.3,1.9,1.5,1.9
							C586.6,536.1,587.8,535,589.1,533.9z"/>
					</g>
					<line class="st4" x1="529.1" y1="531.1" x2="565.1" y2="531.1"/>
					<line class="st4" x1="529.1" y1="537.4" x2="565.1" y2="537.4"/>
					<line class="st4" x1="583.1" y1="591.4" x2="583.1" y2="555.4"/>
					<line class="st4" x1="643.7" y1="531.1" x2="607.7" y2="531.1"/>
					<line class="st4" x1="643.7" y1="537.4" x2="607.7" y2="537.4"/>
					<line class="st4" x1="589.7" y1="591.4" x2="589.7" y2="555.4"/>
				</g>
			</g>
			<g id="PgDVas_5_">
				<g>
					<path class="st1" d="M289.4,536.9c-1.9-0.1-3.7-0.5-5.6-0.8c0.8-1.6,1.7-3.2,2.5-4.8c0.1-0.2-0.1-0.6-0.2-1.4h-17.4
						c2.7,2,4.9,3.6,7.1,5.4c-3.3,2.1-5.2-0.1-7.1-2.5c-2.2-2.9-5-4.9-7.9-2.3c-2.5,2.1-4.3,1.7-6.6,0.2c-0.8-0.5-1.9-1.1-2.8-1.1
						c-6.9,0.2-13.8,0.7-20.7,0.8c-11.3,0.1-22.6,0.1-33.9,0c-1.5,0-3.2-0.9-4.5-1.9c-3-2.4-8.4-2.4-11.5-0.7
						c-3,1.6-6.4,2.1-9.6,2.9c-2,0.5-4.7,0.1-6.1,1.4c-5.9,5.9-5.8,6.1-13,1.3c2.8-0.4,5.5-0.8,8.3-1.2c-2-1.5-4.8-1.1-5.8-2.4
						c-3.6-4.7-6.6-2-9.7,0.3c-3.5,2.7-8.5,2.1-12-1c-1.3-1.1-4.2-1.2-5.6-0.2c-2.3,1.5-3.9,2.9-6.9,1.8c-1.6-0.6-3.9,1.2-5.8,1.7
						c-1.6,0.5-4.3,1.6-4.6,1c-2.5-4.2-4.7-2.1-7.3,0.5c-2.5-3.3-3.7-8.8-9.1-7c-0.4,2-0.8,4.1-1.2,6.5c-2.8-1-5.2-2.4-7.7-2.5
						c-8.2-0.3-16.4-0.4-24.6-0.1c-3.6,0.1-7.2,1.7-10.7,1.6c-4.7-0.2-9.3-1.7-14-2c-2.5-0.1-5,1.3-7.4,2c0.8,4,1.4,6.9,2.2,10.6
						c-4.5-0.5-8.3-0.9-12.1-1.4l0.1-1.3c5.4,0.1,7.3-2.1,7.8-9.2c-2.9,0-5.7,0-8.6,0c-6,0.1-12.1,0-18.1,0.3
						c-2.9,0.1-5.8,1-9.2,1.6c-9.2,0.4-18.8-2.7-29.1-0.8c-10,1.8-20.5,0-31-0.3c0.2-1.8,0.2-2.6,0.4-3.4c0.2-0.5,0.4-1,0.6-1.6
						c-0.3,0-0.6,0.1-0.9,0.1c-1.3,0.4-2.6,0.6-3.9,0.8c-1.4,0.2-2.8,0.3-4.3,0.4c-1.1,0.1-2.1,0.3-3.2,0.4
						c-4.3,0.5-8.5,0.7-12.8,0.3c-0.4,0-0.8-0.1-1.2-0.2c-0.6,0-1.3,0-1.9,0c0.4,2.6,0.9,5.3,1.3,7.9c0.1,0.9,0.1,2-0.2,2.8
						c-0.5,1.1-1.3,2-2,3c1.2,0.1,2.5,0.3,3.9,0.4c1.1,3.5-0.1,5.1-3.3,5.2c-1.6,0.1-3.1,0.5-4.7,0.7c-4.8,0.7-9.6,1.4-14.4,2
						c-0.1-0.8-0.2-1.5-0.3-2.3c1.2-0.3,2.5-0.5,3.7-0.8c3.5-1,7.1-1.8,10.5-3.1c0.6-0.2,0.7-2.3,1-3.5c-1.2-0.4-2.3-0.9-3.5-1.2
						c-1.5-0.3-3.6,0.1-4.6-0.8c-1.8-1.8-3-4.4-4.4-6.7c-4.2,3.6-6,3.5-10,0.3c-4.2,0.3-7.2,0.5-10.3,0.6c-3.7,0.2-7.4,0.7-11,0.4
						c-5.6-0.5-11.6,1.9-16.8-2.6c-0.5-0.5-1.6-0.2-2.5-0.1c-4.6,0.4-9.3,1-13.9,1.1c-18.6,0.3-37.3,0.5-55.9,0.7
						c-2.4,0-4.8,0.7-7.2,0.6c-3.3-0.2-6.5-1.2-9.8-1.2c-21.8,0.2-43.6,0.7-65.5,0.7c-12,0-24-0.8-36-1c-14.9-0.2-29.8,0-44.7,0.1
						v74h127.7c0.5-2.7,0.9-5.3,1.5-8.3c3.1,1.5,3.4,4.9,3.7,8.3H-91c-0.3-2.6-0.5-5.2-0.8-8.2c3.1,1.2,5.3,3.6,5.2,8.2h16.5
						c0.7-2.3,1.4-4.5,2-6.8c0.5-1.6,0.8-3.3,1.4-5.8c3.8,4,7.2,7.2,7.8,12.6H4.6c0.5-4.3,3.6-7.2,7.5-7c4.4,0.2,3.9,3.7,3.8,7h33
						c1.6-3.6,4.8-3.3,7.6-3.5c0.6,0,1.3,2.3,2,3.5H68c-1.3-3.2-2.5-6.3-3.9-9.8c2-0.5,3.5-0.9,4.5-1.2c2,2.7,3.8,5.2,5.6,7.6
						l1.2-0.9c0.1,1.4,0.3,2.9,0.4,4.3h8.7l-3.1-7.2c0.4-0.3,0.9-0.5,1.3-0.8c2.1,2.6,4.1,5.2,6.2,7.8c-0.7-3.5-1.3-6.9-2-10.4
						c0.5-0.1,0.9-0.2,1.4-0.4c1.1,3.7,2.1,7.3,3.2,11H95c-0.8-1.5-1.6-3-2.9-5.6c3.8,1.1,7.1,0.7,7.2,5.6h198.1v-69
						C294.7,537.2,292,537.1,289.4,536.9z M-246.3,558.7c2.9-2.3,5.8-4.6,9.1,0.7C-240.7,559.1-243.5,558.9-246.3,558.7z
						 M-157.3,602c-2.4-1.2-2.7-3.1-0.3-6.5c1.1,2.4,2,4.2,2.8,6C-155.7,601.7-156.7,602.3-157.3,602z M-126.5,578.7l0.1-1.6
						c3.1,0,6.2-0.2,9.2,0.2c0.5,0.1,0.7,3.2,1.1,5.4C-120.2,581.1-123.4,579.9-126.5,578.7z M-62.8,551.1c-1.2,0.6-2.3,1.3-3.4,1.9
						c3.3-6.2,3.3-6.2,6.9-3.7C-60.6,550-61.7,550.5-62.8,551.1z M-52.5,542.4c-2.2-0.1-4.3-0.5-6.5-0.8c0.1-0.7,0.1-1.4,0.2-2.1
						c2.1-0.3,4.1-0.7,6.2-0.7c0.6,0,1.2,1.2,1.8,1.8C-51.4,541.2-52,542.4-52.5,542.4z M10.5,543.2c-1,0.3-2.1,0-3,0.5
						c-5.4,3.1-10.2-2-15.4-1.3c-0.5,0.1-1.3-2.3-1.8-3.4c2.6-4.2,5.1-0.7,7.6-0.6c2.4,0,4.7-0.1,7.1-0.2c2.6,0.9,4.8,3.1,7.2-2.3
						c1,2.5,1.5,4.1,2.1,5.6C13,542.1,11.8,542.8,10.5,543.2z M32.9,603.1c-1.5-2.5-3.1-5-2-8.4c0.4-0.2,0.9-0.3,1.3-0.5
						c0.8,2.8,1.6,5.5,2.5,8.3C34,602.7,33.5,602.9,32.9,603.1z M33.2,544.3c-0.2-0.5-0.3-1.1-0.5-1.6c1.5-0.6,3-1.8,4.4-1.7
						c0.7,0.1,1.4,2.4,2.5,4.7C36.6,545.1,34.9,544.7,33.2,544.3z M62.5,549.8c-3.1-3,4.8-6.1-0.2-8.9c-2.1,2.2-4,4.3-6,6.3
						c-0.3-0.1-0.7-0.2-1-0.3c0.4-2.4,0.3-5.3,1.4-6.9c1.1-1.6,4.6-3.1,5.4-2.3c2.5,2.3,4.2,5.7,6.5,9.2
						C65.7,548.3,64,549.1,62.5,549.8z"/>
					<path class="st1" d="M-104.2,534.6c-1.3,1-2.5,2.2-3.9,3c-0.1,0.1-1-1.2-1.5-1.9c1.3-1.1,2.7-2.2,4-3.3
						C-105.1,533.2-104.6,533.9-104.2,534.6z"/>
				</g>
				<g>
					<path class="st2" d="M289.4,536.9c-1.9-0.1-3.7-0.5-5.6-0.8c0.8-1.6,1.7-3.2,2.5-4.8c0.1-0.2-0.1-0.6-0.2-1.4h-17.4
						c2.7,2,4.9,3.6,7.1,5.4c-3.3,2.1-5.2-0.1-7.1-2.5c-2.2-2.9-5-4.9-7.9-2.3c-2.5,2.1-4.3,1.7-6.6,0.2c-0.8-0.5-1.9-1.1-2.8-1.1
						c-6.9,0.2-13.8,0.7-20.7,0.8c-11.3,0.1-22.6,0.1-33.9,0c-1.5,0-3.2-0.9-4.5-1.9c-3-2.4-8.4-2.4-11.5-0.7
						c-3,1.6-6.4,2.1-9.6,2.9c-2,0.5-4.7,0.1-6.1,1.4c-5.9,5.9-5.8,6.1-13,1.3c2.8-0.4,5.5-0.8,8.3-1.2c-2-1.5-4.8-1.1-5.8-2.4
						c-3.6-4.7-6.6-2-9.7,0.3c-3.5,2.7-8.5,2.1-12-1c-1.3-1.1-4.2-1.2-5.6-0.2c-2.3,1.5-3.9,2.9-6.9,1.8c-1.6-0.6-3.9,1.2-5.8,1.7
						c-1.6,0.5-4.3,1.6-4.6,1c-2.5-4.2-4.7-2.1-7.3,0.5c-2.5-3.3-3.7-8.8-9.1-7c-0.4,2-0.8,4.1-1.2,6.5c-2.8-1-5.2-2.4-7.7-2.5
						c-8.2-0.3-16.4-0.4-24.6-0.1c-3.6,0.1-7.2,1.7-10.7,1.6c-4.7-0.2-9.3-1.7-14-2c-2.5-0.1-5,1.3-7.4,2c0.8,4,1.4,6.9,2.2,10.6
						c-4.5-0.5-8.3-0.9-12.1-1.4l0.1-1.3c5.4,0.1,7.3-2.1,7.8-9.2c-2.9,0-5.7,0-8.6,0c-6,0.1-12.1,0-18.1,0.3
						c-2.9,0.1-5.8,1-9.2,1.6c-9.2,0.4-18.8-2.7-29.1-0.8c-10,1.8-20.5,0-31-0.3c0.2-1.8,0.2-2.6,0.4-3.4c0.2-0.5,0.4-1,0.6-1.6
						c-0.3,0-0.6,0.1-0.9,0.1c-1.3,0.4-2.6,0.6-3.9,0.8c-1.4,0.2-2.8,0.3-4.3,0.4c-1.1,0.1-2.1,0.3-3.2,0.4
						c-4.3,0.5-8.5,0.7-12.8,0.3c-0.4,0-0.8-0.1-1.2-0.2c-0.6,0-1.3,0-1.9,0c0.4,2.6,0.9,5.3,1.3,7.9c0.1,0.9,0.1,2-0.2,2.8
						c-0.5,1.1-1.3,2-2,3c1.2,0.1,2.5,0.3,3.9,0.4c1.1,3.5-0.1,5.1-3.3,5.2c-1.6,0.1-3.1,0.5-4.7,0.7c-4.8,0.7-9.6,1.4-14.4,2
						c-0.1-0.8-0.2-1.5-0.3-2.3c1.2-0.3,2.5-0.5,3.7-0.8c3.5-1,7.1-1.8,10.5-3.1c0.6-0.2,0.7-2.3,1-3.5c-1.2-0.4-2.3-0.9-3.5-1.2
						c-1.5-0.3-3.6,0.1-4.6-0.8c-1.8-1.8-3-4.4-4.4-6.7c-4.2,3.6-6,3.5-10,0.3c-4.2,0.3-7.2,0.5-10.3,0.6c-3.7,0.2-7.4,0.7-11,0.4
						c-5.6-0.5-11.6,1.9-16.8-2.6c-0.5-0.5-1.6-0.2-2.5-0.1c-4.6,0.4-9.3,1-13.9,1.1c-18.6,0.3-37.3,0.5-55.9,0.7
						c-2.4,0-4.8,0.7-7.2,0.6c-3.3-0.2-6.5-1.2-9.8-1.2c-21.8,0.2-43.6,0.7-65.5,0.7c-12,0-24-0.8-36-1c-14.9-0.2-29.8,0-44.7,0.1
						v74h127.7c0.5-2.7,0.9-5.3,1.5-8.3c3.1,1.5,3.4,4.9,3.7,8.3H-91c-0.3-2.6-0.5-5.2-0.8-8.2c3.1,1.2,5.3,3.6,5.2,8.2h16.5
						c0.7-2.3,1.4-4.5,2-6.8c0.5-1.6,0.8-3.3,1.4-5.8c3.8,4,7.2,7.2,7.8,12.6H4.6c0.5-4.3,3.6-7.2,7.5-7c4.4,0.2,3.9,3.7,3.8,7h33
						c1.6-3.6,4.8-3.3,7.6-3.5c0.6,0,1.3,2.3,2,3.5H68c-1.3-3.2-2.5-6.3-3.9-9.8c2-0.5,3.5-0.9,4.5-1.2c2,2.7,3.8,5.2,5.6,7.6
						l1.2-0.9c0.1,1.4,0.3,2.9,0.4,4.3h8.7l-3.1-7.2c0.4-0.3,0.9-0.5,1.3-0.8c2.1,2.6,4.1,5.2,6.2,7.8c-0.7-3.5-1.3-6.9-2-10.4
						c0.5-0.1,0.9-0.2,1.4-0.4c1.1,3.7,2.1,7.3,3.2,11H95c-0.8-1.5-1.6-3-2.9-5.6c3.8,1.1,7.1,0.7,7.2,5.6h198.1v-69
						C294.7,537.2,292,537.1,289.4,536.9z M-246.3,558.7c2.9-2.3,5.8-4.6,9.1,0.7C-240.7,559.1-243.5,558.9-246.3,558.7z
						 M-157.3,602c-2.4-1.2-2.7-3.1-0.3-6.5c1.1,2.4,2,4.2,2.8,6C-155.7,601.7-156.7,602.3-157.3,602z M-126.5,578.7l0.1-1.6
						c3.1,0,6.2-0.2,9.2,0.2c0.5,0.1,0.7,3.2,1.1,5.4C-120.2,581.1-123.4,579.9-126.5,578.7z M-62.8,551.1c-1.2,0.6-2.3,1.3-3.4,1.9
						c3.3-6.2,3.3-6.2,6.9-3.7C-60.6,550-61.7,550.5-62.8,551.1z M-52.5,542.4c-2.2-0.1-4.3-0.5-6.5-0.8c0.1-0.7,0.1-1.4,0.2-2.1
						c2.1-0.3,4.1-0.7,6.2-0.7c0.6,0,1.2,1.2,1.8,1.8C-51.4,541.2-52,542.4-52.5,542.4z M10.5,543.2c-1,0.3-2.1,0-3,0.5
						c-5.4,3.1-10.2-2-15.4-1.3c-0.5,0.1-1.3-2.3-1.8-3.4c2.6-4.2,5.1-0.7,7.6-0.6c2.4,0,4.7-0.1,7.1-0.2c2.6,0.9,4.8,3.1,7.2-2.3
						c1,2.5,1.5,4.1,2.1,5.6C13,542.1,11.8,542.8,10.5,543.2z M32.9,603.1c-1.5-2.5-3.1-5-2-8.4c0.4-0.2,0.9-0.3,1.3-0.5
						c0.8,2.8,1.6,5.5,2.5,8.3C34,602.7,33.5,602.9,32.9,603.1z M33.2,544.3c-0.2-0.5-0.3-1.1-0.5-1.6c1.5-0.6,3-1.8,4.4-1.7
						c0.7,0.1,1.4,2.4,2.5,4.7C36.6,545.1,34.9,544.7,33.2,544.3z M62.5,549.8c-3.1-3,4.8-6.1-0.2-8.9c-2.1,2.2-4,4.3-6,6.3
						c-0.3-0.1-0.7-0.2-1-0.3c0.4-2.4,0.3-5.3,1.4-6.9c1.1-1.6,4.6-3.1,5.4-2.3c2.5,2.3,4.2,5.7,6.5,9.2
						C65.7,548.3,64,549.1,62.5,549.8z"/>
					<path class="st1" d="M-104.2,534.6c-1.3,1-2.5,2.2-3.9,3c-0.1,0.1-1-1.2-1.5-1.9c1.3-1.1,2.7-2.2,4-3.3
						C-105.1,533.2-104.6,533.9-104.2,534.6z"/>
				</g>
				<g>
					<g>
						<path class="st3" d="M-104.2,534.6c-0.5-0.7-0.9-1.4-1.4-2.1c-1.3,1.1-2.7,2.2-4,3.3c0.5,0.7,1.3,1.9,1.5,1.9
							C-106.7,536.8-105.5,535.7-104.2,534.6z"/>
					</g>
					<line class="st4" x1="-164.2" y1="531.8" x2="-128.2" y2="531.8"/>
					<line class="st4" x1="-164.2" y1="538.1" x2="-128.2" y2="538.1"/>
					<line class="st4" x1="-110.2" y1="592.1" x2="-110.2" y2="556.1"/>
					<line class="st4" x1="-49.6" y1="531.8" x2="-85.6" y2="531.8"/>
					<line class="st4" x1="-49.6" y1="538.1" x2="-85.6" y2="538.1"/>
					<line class="st4" x1="-103.6" y1="592.1" x2="-103.6" y2="556.1"/>
				</g>
			</g>
			<g id="PgDVas_6_">
				<g>
					<path class="st1" d="M2888.4,535.9c-1.9-0.1-3.7-0.5-5.6-0.8c0.8-1.6,1.7-3.2,2.5-4.8c0.1-0.2-0.1-0.6-0.2-1.4h-17.4
						c2.7,2,4.9,3.6,7.1,5.4c-3.3,2.1-5.2-0.1-7.1-2.5c-2.2-2.9-5-4.9-7.9-2.3c-2.5,2.1-4.3,1.7-6.6,0.2c-0.8-0.5-1.9-1.1-2.8-1.1
						c-6.9,0.2-13.8,0.7-20.7,0.8c-11.3,0.1-22.6,0.1-33.9,0c-1.5,0-3.2-0.9-4.5-1.9c-3-2.4-8.4-2.4-11.5-0.7
						c-3,1.6-6.4,2.1-9.6,2.9c-2,0.5-4.7,0.1-6.1,1.4c-5.9,5.9-5.8,6.1-13,1.3c2.8-0.4,5.5-0.8,8.3-1.2c-2-1.5-4.8-1.1-5.8-2.4
						c-3.6-4.7-6.6-2-9.7,0.3c-3.5,2.7-8.5,2.1-12-1c-1.3-1.1-4.2-1.2-5.6-0.2c-2.3,1.5-3.9,2.9-6.9,1.8c-1.6-0.6-3.9,1.2-5.8,1.7
						c-1.6,0.5-4.3,1.6-4.6,1c-2.5-4.2-4.7-2.1-7.3,0.5c-2.5-3.3-3.7-8.8-9.1-7c-0.4,2-0.8,4.1-1.2,6.5c-2.8-1-5.2-2.4-7.7-2.5
						c-8.2-0.3-16.4-0.4-24.6-0.1c-3.6,0.1-7.2,1.7-10.7,1.6c-4.7-0.2-9.3-1.7-14-2c-2.5-0.1-5,1.3-7.4,2c0.8,4,1.4,6.9,2.2,10.6
						c-4.5-0.5-8.3-0.9-12.1-1.4l0.1-1.3c5.4,0.1,7.3-2.1,7.8-9.2c-2.9,0-5.7,0-8.6,0c-6,0.1-12.1,0-18.1,0.3
						c-2.9,0.1-5.8,1-9.2,1.6c-9.2,0.4-18.8-2.7-29.1-0.8c-10,1.8-20.5,0-31-0.3c0.2-1.8,0.2-2.6,0.4-3.4c0.2-0.5,0.4-1,0.6-1.6
						c-0.3,0-0.6,0.1-0.9,0.1c-1.3,0.4-2.6,0.6-3.9,0.8c-1.4,0.2-2.8,0.3-4.3,0.4c-1.1,0.1-2.1,0.3-3.2,0.4
						c-4.3,0.5-8.5,0.7-12.8,0.3c-0.4,0-0.8-0.1-1.2-0.2c-0.6,0-1.3,0-1.9,0c0.4,2.6,0.9,5.3,1.3,7.9c0.1,0.9,0.1,2-0.2,2.8
						c-0.5,1.1-1.3,2-2,3c1.2,0.1,2.5,0.3,3.9,0.4c1.1,3.5-0.1,5.1-3.3,5.2c-1.6,0.1-3.1,0.5-4.7,0.7c-4.8,0.7-9.6,1.4-14.4,2
						c-0.1-0.8-0.2-1.5-0.3-2.3c1.2-0.3,2.5-0.5,3.7-0.8c3.5-1,7.1-1.8,10.5-3.1c0.6-0.2,0.7-2.3,1-3.5c-1.2-0.4-2.3-0.9-3.5-1.2
						c-1.5-0.3-3.6,0.1-4.6-0.8c-1.8-1.8-3-4.4-4.4-6.7c-4.2,3.6-6,3.5-10,0.3c-4.2,0.3-7.2,0.5-10.3,0.6c-3.7,0.2-7.4,0.7-11,0.4
						c-5.6-0.5-11.6,1.9-16.8-2.6c-0.5-0.5-1.6-0.2-2.5-0.1c-4.6,0.4-9.3,1-13.9,1.1c-18.6,0.3-37.3,0.5-55.9,0.7
						c-2.4,0-4.8,0.7-7.2,0.6c-3.3-0.2-6.5-1.2-9.8-1.2c-21.8,0.2-43.6,0.7-65.5,0.7c-12,0-24-0.8-36-1c-14.9-0.2-29.8,0-44.7,0.1
						v74h127.7c0.5-2.7,0.9-5.3,1.5-8.3c3.1,1.5,3.4,4.9,3.7,8.3H2508c-0.3-2.6-0.5-5.2-0.8-8.2c3.1,1.2,5.3,3.6,5.2,8.2h16.5
						c0.7-2.3,1.4-4.5,2-6.8c0.5-1.6,0.8-3.3,1.4-5.8c3.8,4,7.2,7.2,7.8,12.6h63.4c0.5-4.3,3.6-7.2,7.5-7c4.4,0.2,3.9,3.7,3.8,7h33
						c1.6-3.6,4.8-3.3,7.6-3.5c0.6,0,1.3,2.3,2,3.5h9.6c-1.3-3.2-2.5-6.3-3.9-9.8c2-0.5,3.5-0.9,4.5-1.2c2,2.7,3.8,5.2,5.6,7.6
						l1.2-0.9c0.1,1.4,0.3,2.9,0.4,4.3h8.7l-3.1-7.2c0.4-0.3,0.9-0.5,1.3-0.8c2.1,2.6,4.1,5.2,6.2,7.8c-0.7-3.5-1.3-6.9-2-10.4
						c0.5-0.1,0.9-0.2,1.4-0.4c1.1,3.7,2.1,7.3,3.2,11h3.5c-0.8-1.5-1.6-3-2.9-5.6c3.8,1.1,7.1,0.7,7.2,5.6h198.1v-69
						C2893.7,536.2,2891,536.1,2888.4,535.9z M2352.7,557.7c2.9-2.3,5.8-4.6,9.1,0.7C2358.3,558.1,2355.5,557.9,2352.7,557.7z
						 M2441.7,601c-2.4-1.2-2.7-3.1-0.3-6.5c1.1,2.4,2,4.2,2.8,6C2443.3,600.7,2442.3,601.3,2441.7,601z M2472.5,577.7l0.1-1.6
						c3.1,0,6.2-0.2,9.2,0.2c0.5,0.1,0.7,3.2,1.1,5.4C2478.8,580.1,2475.6,578.9,2472.5,577.7z M2536.2,550.1
						c-1.2,0.6-2.3,1.3-3.4,1.9c3.3-6.2,3.3-6.2,6.9-3.7C2538.4,549,2537.3,549.5,2536.2,550.1z M2546.5,541.4
						c-2.2-0.1-4.3-0.5-6.5-0.8c0.1-0.7,0.1-1.4,0.2-2.1c2.1-0.3,4.1-0.7,6.2-0.7c0.6,0,1.2,1.2,1.8,1.8
						C2547.6,540.2,2547,541.4,2546.5,541.4z M2609.5,542.2c-1,0.3-2.1,0-3,0.5c-5.4,3.1-10.2-2-15.4-1.3c-0.5,0.1-1.3-2.3-1.8-3.4
						c2.6-4.2,5.1-0.7,7.6-0.6c2.4,0,4.7-0.1,7.1-0.2c2.6,0.9,4.8,3.1,7.2-2.3c1,2.5,1.5,4.1,2.1,5.6
						C2612,541.1,2610.8,541.8,2609.5,542.2z M2631.9,602.1c-1.5-2.5-3.1-5-2-8.4c0.4-0.2,0.9-0.3,1.3-0.5c0.8,2.8,1.6,5.5,2.5,8.3
						C2633,601.7,2632.5,601.9,2631.9,602.1z M2632.2,543.3c-0.2-0.5-0.3-1.1-0.5-1.6c1.5-0.6,3-1.8,4.4-1.7
						c0.7,0.1,1.4,2.4,2.5,4.7C2635.6,544.1,2633.9,543.7,2632.2,543.3z M2661.5,548.8c-3.1-3,4.8-6.1-0.2-8.9c-2.1,2.2-4,4.3-6,6.3
						c-0.3-0.1-0.7-0.2-1-0.3c0.4-2.4,0.3-5.3,1.4-6.9c1.1-1.6,4.6-3.1,5.4-2.3c2.5,2.3,4.2,5.7,6.5,9.2
						C2664.7,547.3,2663,548.1,2661.5,548.8z"/>
					<path class="st1" d="M2494.8,533.6c-1.3,1-2.5,2.2-3.9,3c-0.1,0.1-1-1.2-1.5-1.9c1.3-1.1,2.7-2.2,4-3.3
						C2493.9,532.2,2494.4,532.9,2494.8,533.6z"/>
				</g>
				<g>
					<path class="st2" d="M2888.4,535.9c-1.9-0.1-3.7-0.5-5.6-0.8c0.8-1.6,1.7-3.2,2.5-4.8c0.1-0.2-0.1-0.6-0.2-1.4h-17.4
						c2.7,2,4.9,3.6,7.1,5.4c-3.3,2.1-5.2-0.1-7.1-2.5c-2.2-2.9-5-4.9-7.9-2.3c-2.5,2.1-4.3,1.7-6.6,0.2c-0.8-0.5-1.9-1.1-2.8-1.1
						c-6.9,0.2-13.8,0.7-20.7,0.8c-11.3,0.1-22.6,0.1-33.9,0c-1.5,0-3.2-0.9-4.5-1.9c-3-2.4-8.4-2.4-11.5-0.7
						c-3,1.6-6.4,2.1-9.6,2.9c-2,0.5-4.7,0.1-6.1,1.4c-5.9,5.9-5.8,6.1-13,1.3c2.8-0.4,5.5-0.8,8.3-1.2c-2-1.5-4.8-1.1-5.8-2.4
						c-3.6-4.7-6.6-2-9.7,0.3c-3.5,2.7-8.5,2.1-12-1c-1.3-1.1-4.2-1.2-5.6-0.2c-2.3,1.5-3.9,2.9-6.9,1.8c-1.6-0.6-3.9,1.2-5.8,1.7
						c-1.6,0.5-4.3,1.6-4.6,1c-2.5-4.2-4.7-2.1-7.3,0.5c-2.5-3.3-3.7-8.8-9.1-7c-0.4,2-0.8,4.1-1.2,6.5c-2.8-1-5.2-2.4-7.7-2.5
						c-8.2-0.3-16.4-0.4-24.6-0.1c-3.6,0.1-7.2,1.7-10.7,1.6c-4.7-0.2-9.3-1.7-14-2c-2.5-0.1-5,1.3-7.4,2c0.8,4,1.4,6.9,2.2,10.6
						c-4.5-0.5-8.3-0.9-12.1-1.4l0.1-1.3c5.4,0.1,7.3-2.1,7.8-9.2c-2.9,0-5.7,0-8.6,0c-6,0.1-12.1,0-18.1,0.3
						c-2.9,0.1-5.8,1-9.2,1.6c-9.2,0.4-18.8-2.7-29.1-0.8c-10,1.8-20.5,0-31-0.3c0.2-1.8,0.2-2.6,0.4-3.4c0.2-0.5,0.4-1,0.6-1.6
						c-0.3,0-0.6,0.1-0.9,0.1c-1.3,0.4-2.6,0.6-3.9,0.8c-1.4,0.2-2.8,0.3-4.3,0.4c-1.1,0.1-2.1,0.3-3.2,0.4
						c-4.3,0.5-8.5,0.7-12.8,0.3c-0.4,0-0.8-0.1-1.2-0.2c-0.6,0-1.3,0-1.9,0c0.4,2.6,0.9,5.3,1.3,7.9c0.1,0.9,0.1,2-0.2,2.8
						c-0.5,1.1-1.3,2-2,3c1.2,0.1,2.5,0.3,3.9,0.4c1.1,3.5-0.1,5.1-3.3,5.2c-1.6,0.1-3.1,0.5-4.7,0.7c-4.8,0.7-9.6,1.4-14.4,2
						c-0.1-0.8-0.2-1.5-0.3-2.3c1.2-0.3,2.5-0.5,3.7-0.8c3.5-1,7.1-1.8,10.5-3.1c0.6-0.2,0.7-2.3,1-3.5c-1.2-0.4-2.3-0.9-3.5-1.2
						c-1.5-0.3-3.6,0.1-4.6-0.8c-1.8-1.8-3-4.4-4.4-6.7c-4.2,3.6-6,3.5-10,0.3c-4.2,0.3-7.2,0.5-10.3,0.6c-3.7,0.2-7.4,0.7-11,0.4
						c-5.6-0.5-11.6,1.9-16.8-2.6c-0.5-0.5-1.6-0.2-2.5-0.1c-4.6,0.4-9.3,1-13.9,1.1c-18.6,0.3-37.3,0.5-55.9,0.7
						c-2.4,0-4.8,0.7-7.2,0.6c-3.3-0.2-6.5-1.2-9.8-1.2c-21.8,0.2-43.6,0.7-65.5,0.7c-12,0-24-0.8-36-1c-14.9-0.2-29.8,0-44.7,0.1
						v74h127.7c0.5-2.7,0.9-5.3,1.5-8.3c3.1,1.5,3.4,4.9,3.7,8.3H2508c-0.3-2.6-0.5-5.2-0.8-8.2c3.1,1.2,5.3,3.6,5.2,8.2h16.5
						c0.7-2.3,1.4-4.5,2-6.8c0.5-1.6,0.8-3.3,1.4-5.8c3.8,4,7.2,7.2,7.8,12.6h63.4c0.5-4.3,3.6-7.2,7.5-7c4.4,0.2,3.9,3.7,3.8,7h33
						c1.6-3.6,4.8-3.3,7.6-3.5c0.6,0,1.3,2.3,2,3.5h9.6c-1.3-3.2-2.5-6.3-3.9-9.8c2-0.5,3.5-0.9,4.5-1.2c2,2.7,3.8,5.2,5.6,7.6
						l1.2-0.9c0.1,1.4,0.3,2.9,0.4,4.3h8.7l-3.1-7.2c0.4-0.3,0.9-0.5,1.3-0.8c2.1,2.6,4.1,5.2,6.2,7.8c-0.7-3.5-1.3-6.9-2-10.4
						c0.5-0.1,0.9-0.2,1.4-0.4c1.1,3.7,2.1,7.3,3.2,11h3.5c-0.8-1.5-1.6-3-2.9-5.6c3.8,1.1,7.1,0.7,7.2,5.6h198.1v-69
						C2893.7,536.2,2891,536.1,2888.4,535.9z M2352.7,557.7c2.9-2.3,5.8-4.6,9.1,0.7C2358.3,558.1,2355.5,557.9,2352.7,557.7z
						 M2441.7,601c-2.4-1.2-2.7-3.1-0.3-6.5c1.1,2.4,2,4.2,2.8,6C2443.3,600.7,2442.3,601.3,2441.7,601z M2472.5,577.7l0.1-1.6
						c3.1,0,6.2-0.2,9.2,0.2c0.5,0.1,0.7,3.2,1.1,5.4C2478.8,580.1,2475.6,578.9,2472.5,577.7z M2536.2,550.1
						c-1.2,0.6-2.3,1.3-3.4,1.9c3.3-6.2,3.3-6.2,6.9-3.7C2538.4,549,2537.3,549.5,2536.2,550.1z M2546.5,541.4
						c-2.2-0.1-4.3-0.5-6.5-0.8c0.1-0.7,0.1-1.4,0.2-2.1c2.1-0.3,4.1-0.7,6.2-0.7c0.6,0,1.2,1.2,1.8,1.8
						C2547.6,540.2,2547,541.4,2546.5,541.4z M2609.5,542.2c-1,0.3-2.1,0-3,0.5c-5.4,3.1-10.2-2-15.4-1.3c-0.5,0.1-1.3-2.3-1.8-3.4
						c2.6-4.2,5.1-0.7,7.6-0.6c2.4,0,4.7-0.1,7.1-0.2c2.6,0.9,4.8,3.1,7.2-2.3c1,2.5,1.5,4.1,2.1,5.6
						C2612,541.1,2610.8,541.8,2609.5,542.2z M2631.9,602.1c-1.5-2.5-3.1-5-2-8.4c0.4-0.2,0.9-0.3,1.3-0.5c0.8,2.8,1.6,5.5,2.5,8.3
						C2633,601.7,2632.5,601.9,2631.9,602.1z M2632.2,543.3c-0.2-0.5-0.3-1.1-0.5-1.6c1.5-0.6,3-1.8,4.4-1.7
						c0.7,0.1,1.4,2.4,2.5,4.7C2635.6,544.1,2633.9,543.7,2632.2,543.3z M2661.5,548.8c-3.1-3,4.8-6.1-0.2-8.9c-2.1,2.2-4,4.3-6,6.3
						c-0.3-0.1-0.7-0.2-1-0.3c0.4-2.4,0.3-5.3,1.4-6.9c1.1-1.6,4.6-3.1,5.4-2.3c2.5,2.3,4.2,5.7,6.5,9.2
						C2664.7,547.3,2663,548.1,2661.5,548.8z"/>
					<path class="st1" d="M2494.8,533.6c-1.3,1-2.5,2.2-3.9,3c-0.1,0.1-1-1.2-1.5-1.9c1.3-1.1,2.7-2.2,4-3.3
						C2493.9,532.2,2494.4,532.9,2494.8,533.6z"/>
				</g>
				<g>
					<g>
						<path class="st3" d="M2494.8,533.6c-0.5-0.7-0.9-1.4-1.4-2.1c-1.3,1.1-2.7,2.2-4,3.3c0.5,0.7,1.3,1.9,1.5,1.9
							C2492.3,535.8,2493.5,534.7,2494.8,533.6z"/>
					</g>
					<line class="st4" x1="2434.8" y1="530.8" x2="2470.8" y2="530.8"/>
					<line class="st4" x1="2434.8" y1="537.1" x2="2470.8" y2="537.1"/>
					<line class="st4" x1="2488.8" y1="591.1" x2="2488.8" y2="555.1"/>
					<line class="st4" x1="2549.4" y1="530.8" x2="2513.4" y2="530.8"/>
					<line class="st4" x1="2549.4" y1="537.1" x2="2513.4" y2="537.1"/>
					<line class="st4" x1="2495.4" y1="591.1" x2="2495.4" y2="555.1"/>
				</g>
			</g>
			<g>
				<path class="st5" d="M1659.5,558"/>
				<g>
					<path class="st5" d="M1659.5,566.5c10.9,0,11-17,0-17C1648.5,549.5,1648.5,566.5,1659.5,566.5L1659.5,566.5z"/>
				</g>
			</g>
			<g>
				<path class="st2" d="M1658.9,550.4c0.2,2.5,0.1,5-0.3,7.4c-0.3,1.6-1,3.3-2.5,3.7c3.3,0.3,6.6-0.1,9.8-1.2c-0.2,0-0.4,0-0.6,0"
					/>
				<g>
					<path class="st2" d="M1650.4,550.4c0.1,1.7,0.1,3.3,0,4.9c-0.1,1.7,0.1-0.7-0.1,0.8c-0.1,0.2-0.1,0.4-0.2,0.6
						c0.5-1.7,1.8-2.8,3.7-3.4c-4,1.5-6.7,4.9-6.1,9.3c0.6,4.4,4.1,7.1,8.3,7.4c4,0.3,8.2-0.2,12-1.5c4-1.3,6.7-5,6.1-9.3
						c-0.6-4.1-4.1-7.4-8.3-7.4c-0.2,0-0.4,0-0.6,0c-4.4,0-8.7,3.9-8.5,8.5c0.2,4.6,3.7,8.5,8.5,8.5c0.2,0,0.4,0,0.6,0
						c-0.8-5.6-1.5-11.1-2.3-16.7c-0.8,0.3-1.6,0.5-2.4,0.7c-0.2,0-2.3,0.4-1.3,0.3c1-0.1-1.4,0-1.3,0c-0.8,0-1.6,0-2.5-0.1
						c0.8,5.6,1.5,11.1,2.3,16.7c4.3-1.6,7.2-4.6,8.3-9c0.8-3.3,1-6.9,0.7-10.3c-0.4-4.4-3.6-8.7-8.5-8.5
						C1654.6,542.1,1650,545.7,1650.4,550.4L1650.4,550.4z"/>
				</g>
			</g>
			<g>
				<path class="st2" d="M1756.4,545.4c0.1-1.8,0.3-3.6,0.4-5.4c0.1-0.8,0.2-1.7,0.9-2.1c0.4-0.2,0.9-0.2,1.3-0.2
					c4.5,0.1,9.1,1.3,13.6,0.7c0.8-0.1,1.6-0.2,2.4-0.1c0.6,0.1,1,0.4,1.6,0.7c2.5,1.1,5.6,0.5,7.5-1.4c0.1-0.1,0.3-0.3,0.5-0.3
					c0.2-0.1,0.5,0,0.7,0.1c1.2,0.5,2.4,1,3.6,1.5"/>
				<g>
					<path class="st2" d="M1764.9,545.4c0-0.5,0.6-3.8,0.2-3.2c-1.7,1.3-3.4,2.6-5.1,3.9c2.1-0.4,5.4,0.7,7.6,0.8
						c2.5,0.2,5-0.3,7.5-0.1c-1.4-0.4-2.9-0.8-4.3-1.2c6.7,2.8,12.8,2.9,18.1-1.1c-2.2,0.3-4.4,0.6-6.5,0.9c1.5,0.2,3,1.1,4.4,1.6
						c4.2,1.8,9.3-1.9,10.5-5.9c1.3-4.9-1.7-8.7-5.9-10.5c-2.2-0.9-4.2-1.9-6.6-1.9c-1.6,0-3.2,0.5-4.5,1.3
						c-0.7,0.4-2.6,1.2-1.4,1.2c1.9,0-3.5-1.5-4.2-1.5c-2.3-0.1-4.6,0.3-6.9,0.1c-4.6-0.3-9.9-1.8-14.1,0.6
						c-5.3,3.1-5.1,9.5-5.5,14.8C1747,556.3,1764,556.3,1764.9,545.4L1764.9,545.4z"/>
				</g>
			</g>
			<g>
				<path class="st2" d="M1813.8,558c0.1,9.3,0.2,18.6,0.3,27.9"/>
				<g>
					<path class="st2" d="M1805.3,558c0.1,9.3,0.2,18.6,0.3,27.9c0.1,10.9,17.1,11,17,0c-0.1-9.3-0.2-18.6-0.3-27.9
						C1822.2,547,1805.2,547,1805.3,558L1805.3,558z"/>
				</g>
			</g>
			<g>
				<path class="st2" d="M1837.2,543.1c-0.3-2-0.1-4.5,1.7-5.5c0.4-0.2,0.8-0.4,1.3-0.4c0.7,0,1.5,0.2,2.2,0.4
					c2.3,0.6,4.7,0.7,7,0.4c1.1-0.1,2.1-0.4,3.2-0.3c0.9,0.1,1.8,0.5,2.7,0.7c1.7,0.5,3.5,0.5,5.2,0.1c0.9-0.2,1.7-0.5,2.6-0.5
					c2.4,0,4.4,2.3,6.8,2.2c-1-0.6-1.8-1.4-2.5-2.4"/>
				<g>
					<path class="st2" d="M1845.7,543.1c0-1.8-0.2-1.7-0.8,0.5c-1.3,0.7-2.5,1.5-3.8,2.2c-2.1,0.6,0.6,0.3,1.8,0.5
						c1.3,0.2,2.5,0.3,3.8,0.3c2.8,0,4.5-0.4,7.2,0.2c2.8,0.6,6.1,0.8,8.9,0c-0.7,0.2-2-0.8,0.1,0.1c1.6,0.7,3,1.4,4.8,1.6
						c9.5,1.4,14.7-9.7,6.5-15.5c0.2,0.2,0.4,0.4,0.6,0.7c-2.8-3.6-7.3-5.6-11.6-3c-3.6,2.1-5.9,8-3,11.6c1.7,2.2,3.2,3.8,5.5,5.4
						c2.2-5.2,4.4-10.4,6.5-15.5c-2-0.3-3.5-1.4-5.4-2c-2.5-0.7-4.7-0.4-7.2-0.1c-1.8,0.2-2.9-0.2-4.7-0.5c-2.8-0.5-5.3,0.2-8.1,0.1
						c-4.9-0.2-8.6-1.8-13,1.3c-3.9,2.7-5.5,7.6-5.1,12.2c0.4,4.6,3.6,8.5,8.5,8.5C1841.4,551.6,1846.1,547.7,1845.7,543.1
						L1845.7,543.1z"/>
				</g>
			</g>
			<g>
				<path class="st2" d="M2431.1,545.5c1-2.3,2.1-4.6,3.1-6.9c0.2-0.4,0.3-0.7,0.7-1c0.3-0.2,0.7-0.2,1.1-0.2
					c5.7,0,11.5,0.4,17.1,1.2c3.8,0.6,7.9,1.3,11.5-0.1c-1.3,0.4-2.6,0.8-3.9,0.7c-1.3-0.1-2.7-0.9-3-2.2c1.4-0.1,2.8,0.6,4.2,0.9
					c2.5,0.4,5.3-0.7,6.8-2.7c0.4,3.7,3.2,6.9,6.8,7.8c1.6,0.4,3.4,0.3,5,0.2c2.5-0.1,5.1-0.3,7.4-1.4c1.6-0.8,3-2.1,4.5-3
					c1.6-0.9,3.5-1.5,5.2-0.7c2.9,1.3,2.9,5.3,2.5,8.4c-0.2,1.2-0.3,2.5-1.1,3.3c-0.6,0.6-1.4,1-2.1,1.4c-2.1,1-4.1,2.2-6,3.4
					c-1.2,0.8-2.4,1.7-2.7,3.1c-0.2,1,0,2,0.2,2.9c0.5,2.3,0.6,4.7,0.7,7.1c0.3,7,0.6,14-0.4,20.8"/>
				<g>
					<path class="st2" d="M2438.4,549.8c1.2-2.6,2.2-5.5,3.8-7.8c-1.7,1.3-3.4,2.6-5.1,3.9c4.3-0.8,10.3,0.5,14.5,1.1
						c5.2,0.7,10,1.3,15.2-0.2c-1.5-5.5-3-10.9-4.5-16.4c-1.8,0.4-1.7,0.6,0.3,0.5c1,1,2,2,3,3c-0.2-0.4-0.4-0.7-0.6-1.1
						c-2.4,4.3-4.9,8.5-7.3,12.8c3.2,0.3,5.7,1.3,9,0.5c3.1-0.7,5.9-2.5,8-4.8c-4.7-1.3-9.5-2.5-14.2-3.8c1.6,9,9.6,14.2,18.3,14.3
						c3.8,0,7.8-0.4,11.3-1.8c1.7-0.7,4.1-1.7,5.4-3.1c2.7-1.3,1.4-2.3-3.7-3c-0.2,0.2-0.2,0.5-0.1,0.8c0,0.3,0,0.5,0,0.8
						c1.3-1.8,1.1-2-0.7-0.8c-1.9,0.5-4,2.3-5.6,3.5c-3.6,2.7-6,6.4-5.8,11.1c0.4,9.1,2.1,18,0.9,27.2c-0.6,4.5,1.1,9.1,5.9,10.5
						c4,1.1,9.8-1.4,10.5-5.9c0.8-5.8,1.1-11.5,1-17.4c-0.2-5.2-1.3-10.6-1.2-15.7c-0.4,1.4-0.8,2.9-1.2,4.3
						c0.7-1.4,4.8-2.8,6.8-4.1c3-1.9,5-4.6,5.8-8c1.4-5.5,0.9-12.6-3.2-16.9c-5-5.1-12.3-4.5-17.9-0.9c-2.8,1.8-9.4,4.9-10.1,0.7
						c-1.1-6.2-10.1-8.2-14.2-3.8c-0.9,1,1.4,0,0.1,0.2c-1.4,0.2-3.6-0.7-5.1-0.8c-6.7-0.7-10.2,7.6-7.3,12.8
						c3.4,6.2,10.1,7.4,16.5,5.4c10.4-3.3,6-19.5-4.5-16.4c-2.9,0.9-5.8,0.2-8.8-0.2c-4.2-0.6-8.5-1-12.7-1.2c-3.7-0.1-7.9-0.5-11,2
						c-3.1,2.4-4.4,6.7-6,10.2c-1.9,4.2-1.2,9.2,3,11.6C2430.4,555,2436.5,554,2438.4,549.8L2438.4,549.8z"/>
				</g>
			</g>
			<g>
				<path class="st2" d="M1793.8,551.5c1.6-0.2,3.1-0.3,4.7-0.5c2.1-0.2,4.4-0.6,5.6-2.2c1-1.3,1-3.1,1.5-4.6
					c0.9-2.4,3.2-4.2,5.8-4.4c0.5,0,1.1-0.1,1.3-0.5c0.1-0.2,0.2-0.6,0.4-0.7c0.3-0.1,0.5,0.3,0.6,0.5c0.8,2.2,1.7,4.3,2.5,6.5
					c0.2,0.6,0.5,1.1,0.9,1.5c1.1,0.9,2.6,0.2,3.8-0.4c0.6-0.3,1.5-0.4,1.5,0.3"/>
				<g>
					<path class="st2" d="M1793.8,560c6.8-0.7,14.2-0.9,17.9-7.7c0.8-1.5,0.9-3.3,1.6-4.7c0,0-2.3,0.8,0.6,0.3
						c3.6-0.6,5.8-3.6,7-6.8c-0.7,1.3-1.5,2.5-2.2,3.8c0.1-0.1,0.2-0.2,0.3-0.3c-2.8,0.7-5.5,1.5-8.3,2.2c0.1,0,0.3,0.1,0.4,0.1
						c-1.7-1.3-3.4-2.6-5.1-3.9c2,3.3,2.1,7.3,5,10.1c4,3.9,8.4,2.6,13.1,1.6c-2.8-0.7-5.5-1.5-8.3-2.2c0.2,0.2,0.4,0.3,0.6,0.5
						c3.6,2.8,8.5,3.5,12,0c2.9-2.9,3.6-9.2,0-12c-4.6-3.6-7.4-2.6-12.5-1.6c1.5,0,3,0,4.5,0c-0.4-0.1-0.8-0.3-1.2-0.4
						c1.3,0.7,2.5,1.5,3.8,2.2c1.4,1.7,0-1.1-0.3-1.8c-0.6-1.5-1-3.1-1.8-4.5c-1.3-2.3-3.3-3.6-5.7-4.4c-2.7-0.9-6.3,0.1-8.3,2.2
						c-1.3,1.4-1.9,2.7-2.6,4.4c1.3-1.7,2.6-3.4,3.9-5.1c1-0.7,0.3-0.4-0.5-0.1c-1,0.3-2.3,0.8-3.2,1.3c-2.2,1.2-4.1,3-5.4,5.1
						c-0.5,0.9-1,1.7-1.4,2.7c-0.3,0.6-0.5,1.2-0.6,1.8c-0.5,1-0.2,1.1,0.7,0.2c-0.4-1.1,2.2-0.1-0.1-0.4c-1.2-0.1-2.8,0.3-3.9,0.4
						c-4.6,0.5-8.5,3.6-8.5,8.5C1785.3,555.7,1789.2,560.4,1793.8,560L1793.8,560z"/>
				</g>
			</g>
			<g>
				<path class="st2" d="M1520.8,547.5c-0.1-1.7-0.2-3.4-0.3-5.1c0-0.7-0.1-1.4,0.1-2.1c0.2-0.8,0.8-1.6,0.6-2.3
					c0.8-0.2,1.6-0.2,2.4,0"/>
				<g>
					<path class="st2" d="M1529.3,547.5c-0.1-1.7,0-3.5-0.3-5.1c-0.2-1.7-0.5,1,0-0.4c0.5-1.3,0.7-2.7,0.6-4
						c-2.1,2.7-4.2,5.5-6.2,8.2c-0.7,0.2-1.4,0.2-2.1,0c4.3,0.9,9.4-1.2,10.5-5.9c1-4.2-1.3-9.5-5.9-10.5c-2.5-0.5-4.4-0.5-6.9,0
						c-3.5,0.6-6.4,4.8-6.2,8.2c0.3-1.3,0.3-1.4,0-0.5c-0.2,0.4-0.3,0.8-0.3,1.3c-0.2,1.2-0.3,2.4-0.3,3.7c0,1.7,0.2,3.4,0.3,5.1
						c0.2,4.4,3.8,8.7,8.5,8.5C1525.2,555.8,1529.6,552.3,1529.3,547.5L1529.3,547.5z"/>
				</g>
			</g>
			<g>
				<path class="st2" d="M1243.6,556.8c0.5,0.4,1.4-0.1,1.6-0.7c0.3-0.6,0.1-1.4,0.2-2c0.2-3.7,4.8-6,5.3-9.7c0.1-0.8,0-1.6,0.2-2.3
					s0.6-1.5,1.4-1.7c0.4-0.1,0.9,0,1.1-0.3c0.2-0.4-0.2-0.9-0.6-0.9c-0.4,0-0.8,0.3-1.2,0.6c-1.1,1-2.2,1.9-3.3,3"/>
				<g>
					<path class="st2" d="M1241.3,565c4.2,1,8.4-0.3,10.8-4c0.7-1.2,1.1-2.3,1.4-3.6c0.5-2.3,0.6-3,0.1-1.9c-0.3,0.6-0.3,0.6,0,0.1
						c0.3-0.5,0.3-0.5,0,0c0.4-0.5,0.8-0.9,1.1-1.4c0.8-1,1.7-2,2.3-3.2c0.7-1.1,1.2-2.3,1.6-3.6c0.2-1,0.4-2,0.5-3.1
						c0-1.3,0-1.5,0.1-0.8c-0.7,1.3-1.5,2.5-2.2,3.8c-0.2,0.1-0.4,0.3-0.6,0.4c-1.4,0.4-2.9,0.8-4.3,1.2c2-0.2,3.6-0.5,5.4-1.5
						c2.4-1.3,4.5-4.5,4.2-7.3c-0.5-5.5-4.3-10-10.3-9.2c-3.9,0.5-6.6,3.3-9.3,5.9c-8,7.5,4.1,19.5,12,12c0.5-0.5,1.1-1,1.6-1.5
						c1.4-1.1,1.1-1-0.9,0.1c-2.2-0.3-4.4-0.6-6.5-0.9c0.2,0.1,0.4,0.2,0.6,0.3c-1.4-2.4-2.8-4.9-4.2-7.3c0,0.2,0,0.4,0.1,0.6
						c1.4-2.4,2.8-4.9,4.2-7.3c-0.2,0.1-0.3,0.2-0.5,0.3c1.4-0.4,2.9-0.8,4.3-1.2c-3.5,0.4-6.3,1.4-8.4,4.4
						c-1.3,1.9-1.9,3.6-2.1,5.9c-0.1,0.8-0.4,1.6,0.1,0.4c-0.7,1.7,0.3-0.4-0.8,1.1c-0.8,1-1.7,2-2.4,3.1c-0.7,1.1-1.3,2.3-1.7,3.5
						c-0.2,0.5-0.3,1.1-0.4,1.6c-0.5,2.8-0.4,3,0.3,0.6c1-1,2-2,3-3c-0.2,0.1-0.4,0.2-0.6,0.3c2.2-0.3,4.4-0.6,6.5-0.9
						c-0.2,0-0.4-0.1-0.6-0.1C1235.2,546.1,1230.7,562.4,1241.3,565L1241.3,565z"/>
				</g>
			</g>
			<g>
				<path class="st2" d="M1254.2,553.3c0.4,0.6,1.2,0.9,1.9,0.8c0-0.8-0.6-1.6-1.4-1.7c-1-1.1-1.4-2.8-0.9-4.3"/>
				<g>
					<path class="st2" d="M1246.9,557.5c0.6,0.7,1.1,1.5,1.7,2.2c1.1,1.1,2.5,1.9,4,2.3c2.1,0.7,3.6,0.5,5.7,0.2
						c0.7-0.3,1.4-0.6,2-0.9c1-0.5,1.8-1.3,2.4-2.2c1.1-1.4,2-3.3,1.8-5.2c-0.2-2.4-0.7-4.3-2.2-6.2c-1.4-1.8-3.2-3.1-5.4-3.6
						c1.3,0.7,2.5,1.5,3.8,2.2c-0.1-0.1-0.1-0.2-0.2-0.3c0.4,0.6,0.9,1.1,1.3,1.7c-0.2-0.3-0.4-0.6-0.5-0.9c0.3,0.7,0.6,1.4,0.9,2
						c-0.2-0.4-0.3-0.9-0.3-1.4c0.1,0.8,0.2,1.5,0.3,2.3c0-0.4,0-0.7,0-1c-0.1,0.8-0.2,1.5-0.3,2.3c0-0.2,0.1-0.5,0.2-0.7
						c1.2-4.3-1.4-9.4-5.9-10.5c-4.5-1-9.2,1.3-10.5,5.9c-1.5,5.7,0.9,13.2,7.1,14.8c-0.7-0.3-1.4-0.6-2-0.9
						c0.2,0.1,0.4,0.2,0.5,0.3c-0.6-0.4-1.1-0.9-1.7-1.3c0.1,0.1,0.1,0.1,0.2,0.2c-0.4-0.6-0.9-1.1-1.3-1.7c0.1,0.2,0.2,0.3,0.3,0.5
						c-0.3-0.7-0.6-1.4-0.9-2c0,0.1,0.1,0.2,0.1,0.3c-0.1-0.8-0.2-1.5-0.3-2.3c0,0.1,0,0.2,0,0.3c2.1-2.7,4.2-5.5,6.2-8.2
						c-0.1,0-0.2,0-0.3,0c0.8-0.1,1.5-0.2,2.3-0.3c-0.1,0-0.2,0-0.3,0c0.8,0.1,1.5,0.2,2.3,0.3c-0.2,0-0.4-0.1-0.6-0.2
						c0.7,0.3,1.4,0.6,2,0.9c-0.1-0.1-0.2-0.1-0.3-0.2c0.6,0.4,1.1,0.9,1.7,1.3c-0.1-0.1-0.2-0.1-0.2-0.2c0.4,0.6,0.9,1.1,1.3,1.7
						c-0.1-0.1-0.1-0.2-0.2-0.2c-1.4-1.8-2.7-3.3-5.1-3.9c-2-0.6-4.7-0.3-6.5,0.9c-1.8,1.2-3.4,2.9-3.9,5.1
						C1245.5,553.1,1245.5,555.8,1246.9,557.5L1246.9,557.5z"/>
				</g>
			</g>
			<g>
				<path class="st2" d="M984.1,542.6c-0.1-1.7-0.5-3.4-1.3-5c-0.1-0.3-0.3-0.6-0.6-0.7c-0.3-0.2-0.6-0.2-0.9-0.1
					c-1.6,0.1-3.2,0.1-4.8,0.2c-3,0.1-5.9,0.2-8.9,0.4c-0.3,0-0.7,0-1,0.2c-0.3,0.2-0.5,0.5-0.7,0.8c-0.6,0.6-1.6,0.6-2.2,0.1"/>
				<g>
					<path class="st2" d="M992.6,542.6c-0.4-3.4-0.9-6.7-2.7-9.6c-2.4-3.9-5.9-4.7-10.2-4.7c-3.1,0-6.1,0.2-9.2,0.4
						c-1.7,0.1-3.5,0-5.2,0.4c-1.1,0.2-2,0.5-3,1.1c-1.9,1.3-2.3,1.7-1.4,1.1c1.4-0.4,2.9-0.8,4.3-1.2c-0.3,0-0.5,0-0.8,0
						c1.4,0.4,2.9,0.8,4.3,1.2c-0.2-0.1-0.5-0.2-0.7-0.3c-4.2-1.9-9.2-1.2-11.6,3c-2.1,3.7-1.1,9.7,3,11.6c4.8,2.2,9.5,1.8,13.2-2.2
						c-1.3,0.7-2.5,1.5-3.8,2.2c1.6-0.3,3.7-0.1,5.4-0.2c1.7-0.1,4.2-0.7,5.7-0.4c-1.7-1.3-3.4-2.6-5.1-3.9c0.1,0.2,0.6,0.8,0.7,1.4
						c0.5,4.6,3.5,8.5,8.5,8.5C988.3,551.1,993.1,547.1,992.6,542.6L992.6,542.6z"/>
				</g>
			</g>
			<g>
				<path class="st2" d="M577.7,551.7c1.8,0,3.6-0.4,5.2-1.2c0.3-0.1,0.6-0.3,0.8-0.6c0.2-0.4,0-0.9-0.2-1.3
					c-1.2-3.1-0.9-6.7,0.7-9.6c0.4,2.9,1.1,5.7,2.2,8.4c1.1-1.2,2.8-1.7,4.3-1.3c1.1,0.3,2.4,1,3.3,0.3c0.3-0.2,0.5-0.6,0.8-0.8
					c0.4-0.4,1-0.5,1.6-0.7c3.3-1.2,4.8-5.9,2.7-8.7c2.7,0.7,5.4,1,8.2,1.1c0.4,0,0.9,0,1.2-0.2c0.7-0.5,0.8-1.6,1.5-2.1
					c0.8-0.6,1.9,0,2.8,0.4c3.6,1.6,7.7,0.2,11.3-1.3c-0.6,1.6,0.6,3.6,2.3,3.9"/>
				<g>
					<path class="st2" d="M577.7,560.2c4.8-0.4,10.6-1.5,13.3-6.1c1.3-2.2,1.4-4.8,0.9-7.2c-0.3-1.4-1-2.3-0.3-3.7
						c-5.2-0.7-10.4-1.4-15.5-2c0.4,2.9,1.2,5.6,2.2,8.4c2.4,6.3,9,8,14.2,3.8c-3.2,0.8-3.8,1.3-1.7,1.5c0.8,0.1,1.5,0.2,2.3,0.3
						c1.6,0,3.9-0.6,5.3-1.5c6.2-3.7-4.2,1.9,2.3-1.5c1.3-0.7,2.6-1.5,3.6-2.6c4.8-4.7,5.3-12.1,2.1-17.8c-3.2,4.2-6.4,8.3-9.6,12.5
						c3.7,0.8,7.8,1.6,11.6,1.2c4.5-0.5,6.5-2.9,8.9-6.4c-2.4,1.4-4.9,2.8-7.3,4.2c0.9-0.1,2.3,0.6,3.2,0.8c1.5,0.3,2.9,0.4,4.4,0.3
						c3.1-0.2,6-1.1,8.8-2.2c-3.6-2.7-7.2-5.5-10.8-8.2c-0.4,4.7,2.2,9.4,6.5,11.2c4.2,1.8,9.1,1.2,11.6-3c2.1-3.6,1.2-9.8-3-11.6
						c-0.1,0-0.2-0.1-0.3-0.1c0.7,1.3,1.5,2.5,2.2,3.8c0-0.1,0-0.1,0-0.2c0.5-5.2-5.9-10.1-10.8-8.2c-1.7,0.7-4,1.9-5.9,1.7
						c-1.6-0.2-2.8-1.3-4.6-1.3c-4.9-0.1-7.5,2.7-10.2,6.4c1.7-1.3,3.4-2.6,5.1-3.9c-1.3,0.2-3.6-0.6-4.9-0.9
						c-7.2-1.6-13.3,5.9-9.6,12.5c-1.2-2.1,2.8-3.9,0.6-3.1c-1.7,0.6-3,1.7-4.3,3c1.3-0.7,2.5-1.5,3.8-2.2c-0.3,0.1-0.7,0.2-1,0.3
						c1.5,0,3,0,4.5,0c-5.9-1.2-10-1.1-14.9,2.9c4.7,1.3,9.5,2.5,14.2,3.8c-1-2.8-1.8-5.5-2.2-8.4c-1.1-7.1-12.5-8.4-15.5-2
						c-1.4,2.9-2.4,5.7-2.6,9c-0.1,1.3,0.1,2.6,0.3,3.9c0.1,0.4,0.4,4.7,0.6,2.3c0.8-2,1.7-4,2.5-6c-0.3,0.2-0.5,0.4-0.8,0.6
						c1.3-0.7,2.5-1.5,3.8-2.2c-0.9,0.5-1.9,0.8-2.9,0.9C566.8,544.1,566.8,561.1,577.7,560.2L577.7,560.2z"/>
				</g>
			</g>
			<g>
				<path class="st2" d="M277,546c1.1-0.8,2.1-1.6,3.2-2.5c1.4-1.1,3-2.5,2.9-4.4c0-0.5-0.2-1,0.1-1.4c0.2-0.3,0.7-0.4,1.1-0.4
					c1.5-0.1,3.1-0.1,4.6,0.1c0.7,0.1,1.5,0.2,2,0.6s1,1.2,0.7,1.9c-1.9,0.1-3.7,0.1-5.6,0.1c-1.7,0-3.5,0-5.1-0.5
					c-1.3-0.5-2.5-1.4-3.9-1.8c-1.3-0.4-2.7-0.4-4-0.4c-1.1,0-2.2,0-3.4,0.1c-0.2,0-0.5,0-0.7,0.2c-0.1,0.2-0.1,0.4-0.1,0.6
					c0,0.6,0,1.2,0,1.8"/>
				<g>
					<path class="st2" d="M281.3,553.3c2.4-1.8,5-3.5,6.9-5.7c1.2-1.4,2.3-3.1,2.8-4.9c0.2-0.7,0.9-5.4,0.3-2.7
						c-1.3,1.7-2.6,3.4-3.9,5.1c-1.9,0.5-2.2,0.8-0.9,0.7c1.4,0.1,1.1-0.2-1-0.9c-0.8-2-1.7-4-2.5-6c0,0.3,0,0.7,0.1,1
						c2.8-2.8,5.7-5.7,8.5-8.5c-2.4,0.1-5.8,0.7-8.2,0.1c1.3,0.3-2.4-1.3-2.8-1.4c-1.8-0.7-3.6-1.1-5.6-1.2c-3-0.2-6.5-0.3-9.3,1
						c-4.3,2-5.4,5.8-5.3,10.1c0.1,10.9,17.1,11,17,0c-0.1,0-0.1-0.1-0.2-0.1c-2,2-4,4-5.9,5.9c3.1-0.9,5.9,1.6,8.7,2.2
						c3.8,0.8,7.8,0.5,11.7,0.4c4.4-0.1,8.8-3.8,8.5-8.5c-0.5-8.8-8-11.7-15.9-11.1c-3.4,0.3-6.6,1.5-8.4,4.6c0.1-0.2-1.8,5-1.3,5
						c1.1-1.8,1.2-2.3,0.4-1.4c-0.7,0.5-1.4,1.1-2.1,1.6c-3.6,2.8-5.6,7.3-3,11.6C271.7,553.8,277.6,556.1,281.3,553.3L281.3,553.3z
						"/>
				</g>
			</g>
			<g>
				<path class="st2" d="M279,574.3c12,1.2,24.2,0.8,36.1-1.1"/>
				<g>
					<path class="st2" d="M279,582.8c12.9,1.2,25.6,0.6,38.4-1.4c4.5-0.7,7.1-6.4,5.9-10.5c-1.3-4.8-5.9-6.6-10.5-5.9
						c-11.2,1.7-22.6,1.9-33.8,0.8c-4.6-0.4-8.5,4.2-8.5,8.5C270.5,579.3,274.4,582.4,279,582.8L279,582.8z"/>
				</g>
			</g>
			<g>
				<path class="st2" d="M298.4,571.3c-0.1-9,1-17.9,3.3-26.6c0.1,9.5,0.2,19,0.2,28.5c0,2.6,0,5.2-0.5,7.7
					c-0.4,1.9-1.1,3.6-1.7,5.5c-1.1,3.7-1.5,7.7-1.2,11.6c-0.1-2.1,0.1-4.2,0.6-6.2"/>
				<g>
					<path class="st2" d="M306.9,571.3c0-8.3,1-16.3,3-24.3c-5.6-0.8-11.1-1.5-16.7-2.3c0.1,9.2,0.2,18.3,0.2,27.5
						c0.1,8.8-3.9,16.7-3.3,25.6c0.6,10.8,17.1,11,17,0c0-1.6,0-2.4,0.3-4c2.4-10.7-14-15.2-16.4-4.5c-0.6,2.8-1,5.6-0.9,8.5
						c5.7,0,11.3,0,17,0c-0.2-4,0.3-7.3,1.5-11.1c1.4-4.8,1.9-9.5,1.9-14.5c-0.1-9.2-0.1-18.3-0.2-27.5c-0.1-9.4-14.3-11.7-16.7-2.3
						c-2.3,9.4-3.6,19.1-3.6,28.8C289.9,582.2,306.9,582.3,306.9,571.3L306.9,571.3z"/>
				</g>
			</g>
			<g>
				<path class="st2" d="M302.5,543.1"/>
				<g>
					<path class="st2" d="M302.5,551.6c10.9,0,11-17,0-17C291.6,534.6,291.6,551.6,302.5,551.6L302.5,551.6z"/>
				</g>
			</g>
			<g>
				<path class="st2" d="M530.2,542.3c2.1,0.2,4.2,0.3,6.4,0.5c1.5,0.1,3,0.2,4.4-0.2c1.1-0.3,2.1-0.9,3.2-1.1
					c2.1-0.5,4.2,0,6.3-0.2c2.2-0.3,4.2-1.3,6.3-1.8s4.8,0.1,5.7,2"/>
				<g>
					<path class="st2" d="M530.2,550.8c2.4,0.2,4.7,0.4,7.1,0.5c3.1,0.1,5.4-0.8,8.3-1.4c2.3-0.5,4.7-0.1,7.1-0.5
						c1.1-0.2,2.1-0.5,3.2-0.8c0.6-0.2,1.3-0.4,1.9-0.7c0.5-0.2,0.4-0.2-0.3-0.1c-1-1-2-2-3-3c0.3,0.3,0.5,0.7,0.8,1
						c2.8,3.7,7.3,5.6,11.6,3c3.6-2.1,5.8-7.9,3-11.6c-2.6-3.4-5-5.4-9.3-6.1c-4.1-0.7-7,1.1-10.7,1.6c-3.2,0.5-6.3,0.3-9.5,1.1
						c-3.3,0.8-6.7,0.2-10.1,0C519.3,533,519.4,550,530.2,550.8L530.2,550.8z"/>
				</g>
			</g>
			<g>
				<path class="st2" d="M528,541.9c-0.2-1.2,0.8-2.4,1.9-2.9c1.1-0.5,2.4-0.6,3.7-0.6c5.8-0.1,11.5,0,17.3,0.3
					c0.7,0,1.4,0.1,1.9,0.4c0.3,0.2,0.5,0.5,0.8,0.7c1.4,1.2,3.6,1.1,4.9-0.2c-0.5-0.1-0.9-0.1-1.4-0.2c1.6,1,3.8-1.7,5.4-0.7"/>
				<g>
					<path class="st2" d="M536.2,544.1c0-0.1,0-0.1,0-0.2c-1,1-2,2-3,3c-1.1-0.1-1.2-0.1-0.2-0.1c0.8,0,1.7,0,2.5,0
						c1.9,0,3.8,0,5.8,0c2.8,0,7.7-0.2,9.3,0.4c-1.3-0.7-2.5-1.5-3.8-2.2c4.7,4,10.6,5.4,16,1.8c5.5-3.5,5.7-14.4-2-15.5
						c-0.5-0.1-0.9-0.1-1.4-0.2c-4.5-0.7-9.1,1.1-10.5,5.9c-1.2,4.4,1.5,9.3,5.9,10.5c3.7,0.9,5.7-0.3,9.1-0.9c-1.5,0-3,0-4.5,0
						c0.3,0.1,0.6,0.2,0.9,0.2c10.6,2.8,15.1-13.6,4.5-16.4c-3.7-1-5.7,0.2-9.1,0.9c1.5,0,3,0,4.5,0c-0.3-0.1-0.6-0.1-0.9-0.2
						c-1.5,5.5-3,10.9-4.5,16.4c0.5,0.1,0.9,0.1,1.4,0.2c-0.7-5.2-1.4-10.4-2-15.5c-0.1,0-0.3,0.1-0.4,0.1c1.5,0,3,0,4.5,0
						c0.9,1.2,0.5,1-1.3-0.7c-0.8-0.4-1.6-0.7-2.5-1c-1.5-0.4-3.1-0.5-4.7-0.6c-4.1-0.3-8.3-0.3-12.5-0.3c-7.1,0-16.3,0.9-17.6,9.8
						c-0.6,4.5,1.1,9.1,5.9,10.5C529.7,551.1,535.6,548.7,536.2,544.1L536.2,544.1z"/>
				</g>
			</g>
			<g>
				<path class="st2" d="M555.5,538.9"/>
				<g>
					<path class="st2" d="M555.5,547.4c10.9,0,11-17,0-17C544.6,530.4,544.6,547.4,555.5,547.4L555.5,547.4z"/>
				</g>
			</g>
			<g>
				<path class="st2" d="M587.7,559.3c0.2,3.8,0.3,7.7,0.5,11.5c0.1,1.2,0.1,2.4,0.1,3.6c0,1.1-0.1,2.1-0.2,3.2
					c-0.3,2.8-0.5,5.7-0.8,8.5"/>
				<g>
					<path class="st2" d="M579.2,559.3c0.4,9.1,0.4,17.7-0.4,26.9c-0.4,4.6,4.2,8.5,8.5,8.5c4.9,0,8.1-3.9,8.5-8.5
						c0.8-9.1,0.8-17.7,0.4-26.9C595.7,548.4,578.7,548.3,579.2,559.3L579.2,559.3z"/>
				</g>
			</g>
			<g>
				<path class="st2" d="M610.8,538.2c8.1,0.4,16.1,0.9,24.2,0.5c2.5-0.1,5.2-0.2,7.4,1c-0.8-0.5-1.6-1-2.4-1.5"/>
				<g>
					<path class="st2" d="M610.8,546.7c5,0.3,9.9,0.5,14.9,0.6c2.5,0,5,0,7.4,0c1,0,4.1-0.6,4.9-0.2c9.8,4.4,18-8.8,8.6-14.7
						c-0.8-0.5-1.6-1-2.4-1.5c-9.3-5.8-17.8,8.9-8.6,14.7c0.8,0.5,1.6,1,2.4,1.5c2.9-4.9,5.7-9.8,8.6-14.7
						c-5.7-2.6-11.1-2.1-17.2-2.1c-6.2,0-12.4-0.3-18.6-0.7C599.9,529.1,599.9,546.1,610.8,546.7L610.8,546.7z"/>
				</g>
			</g>
			<g>
				<path class="st2" d="M976.4,539.8c2.9,0.6,5.8,1.3,8.7,1.9c1.2,0.3,2.4,0.5,3.3,1.3c1.8,1.6,1.6,4.4,1.3,6.7
					c-0.5,5-0.4,10.1,0.3,15.1c0.5,3.8,1.4,7.6,1.3,11.4c-0.1,4-1.2,7.9-1.8,11.8c-0.6,3.5-0.7,7.1,0.3,10.5
					c-0.2-5.6-0.2-11.2,0-16.9"/>
				<g>
					<path class="st2" d="M974.2,548c2,0.4,4.1,0.9,6.1,1.3c0.9,0.2,1.7,0.4,2.6,0.6c1.4,0.3,1.5,0.4,0.4,0.2
						c-0.7-1.3-1.5-2.5-2.2-3.8c1.3,3.5-0.2,9,0,12.8c0.2,4.8,1.3,9.4,1.8,14.2c0.8,9.4-3.4,17.9-1.1,27.4
						c2.3,9.3,16.9,7.4,16.7-2.3c-0.1-5.6-0.1-11.2,0-16.9c0.3-10.9-16.7-10.9-17,0c-0.1,5.6-0.1,11.2,0,16.9
						c5.6-0.8,11.1-1.5,16.7-2.3c-1.5-6,1.3-12.3,1.7-18.3c0.5-6.9-1.7-13.7-1.8-20.6c-0.1-6.5,2-13.8-2.7-19.2
						c-4.1-4.8-10.8-5.2-16.5-6.5C968,529.3,963.5,545.7,974.2,548L974.2,548z"/>
				</g>
			</g>
			<g>
				<path class="st2" d="M971.5,540.5"/>
				<g>
					<path class="st2" d="M971.5,549c10.9,0,11-17,0-17C960.6,532,960.5,549,971.5,549L971.5,549z"/>
				</g>
			</g>
			<g>
				<path class="st2" d="M1198.7,544.1c0-1.5,0-2.9,0-4.4c0-0.3,0-0.6,0.2-0.9c0.3-0.4,1-0.3,1.5-0.1c4.7,1.5,9.7,0.6,14.5-0.3
					c0.8-0.2,1.7-0.3,2.5-0.3c0.8,0,1.6,0.2,2.4,0.4c3,0.8,6.2,1.6,9,0.6c0.9-0.3,2.1-0.7,2.6,0.1c-0.7,0-1.2-0.7-1-1.4
					c-0.3,0.9-0.6,1.8-0.8,2.8"/>
				<g>
					<path class="st2" d="M1207.2,544.1c0-0.4-0.2-2.6-0.2-3c-2,2-4,4-5.9,5.9c0.2-0.1,0.5-0.2,0.7-0.3c-1.5,0-3,0-4.5,0
						c3.1,0.6,6.2,1.3,9.4,1.2c3.4-0.1,7.2-1.6,10.5-1.3c1.6,0.1,3.4,0.9,5,1.1c3,0.5,7-0.4,8.6-0.5c-1.4-0.4-2.9-0.8-4.3-1.2
						c0.2,0.1,0.5,0.3,0.7,0.4c2.9-4.9,5.7-9.8,8.6-14.7c-0.3-0.1-0.6-0.3-0.8-0.4c1.3,1.7,2.6,3.4,3.9,5.1
						c-0.1-0.3-0.1-0.6-0.2-0.9c-1.7-8.6-14.1-7.5-16.4,0c-0.3,0.9-0.6,1.8-0.8,2.8c-3.2,10.5,13.2,15,16.4,4.5
						c0.3-0.9,0.6-1.8,0.8-2.8c-5.5,0-10.9,0-16.4,0c0.6,2.9,2.3,5.1,4.9,6.5c9.7,5.2,17.8-8.8,8.6-14.7c-4.1-2.6-7.3-0.4-11.4-0.9
						c-2.3-0.3-4.6-1.3-7-1.3c-2.5,0-4.9,0.7-7.3,1c-4.5,0.6-9.3-1.4-13.5-0.1c-6.2,2-6.4,7.9-6.4,13.4
						C1190.3,555.1,1207.3,555.1,1207.2,544.1L1207.2,544.1z"/>
				</g>
			</g>
			<g>
				<path class="st2" d="M1253.7,559.3c0.5,3.3,1,6.5,1.6,9.8c0.3,1.7,0.6,3.5,0.5,5.3c-0.1,4.4-2,8.9-0.8,13.1"/>
				<g>
					<path class="st2" d="M1245.5,561.5c0.7,4.5,2.1,9.3,1.8,13.9c-0.4,5.1-1.5,9.2-0.5,14.3c2.1,10.7,18.5,6.2,16.4-4.5
						c-0.8-4,1.3-8.5,1.1-12.6c-0.3-5.2-1.5-10.4-2.3-15.6c-0.7-4.5-6.4-7.1-10.5-5.9C1246.7,552.4,1244.8,557,1245.5,561.5
						L1245.5,561.5z"/>
				</g>
			</g>
			<g>
				<path class="st2" d="M1278.6,539.5c2.7-1.3,5.7-1.5,8.7-1.7c6-0.4,12.1-0.9,18.2-1c1.3,0,2.7,0,3.7,0.8c0.9,0.7,1.1,1.9,1.6,2.9
					s1.5,2,2.6,1.7"/>
				<g>
					<path class="st2" d="M1280.9,547.7c6.1-2.4,13.6-2,20-2.3c0.3,0,4.5-0.1,4.5-0.2c0,0.3-3.8-3.2-1.4,0.5c2.3,3.4,5.4,4.6,9.3,5
						c4.6,0.4,8.5-4.2,8.5-8.5c0-5-3.9-8.1-8.5-8.5c-0.3,0-0.7-0.1-1-0.1c1.4,0.4,2.9,0.8,4.3,1.2c-0.3-0.2-0.6-0.4-0.9-0.7
						c1,1,2,2,3,3c-2-3-3-5.7-6.4-7.5c-3.5-1.8-7.6-1.4-11.4-1.2c-7.9,0.4-17.1,0-24.6,2.9c-4.3,1.7-7.2,5.7-5.9,10.5
						C1271.5,545.8,1276.6,549.4,1280.9,547.7L1280.9,547.7z"/>
				</g>
			</g>
			<g>
				<path class="st2" d="M1520,596.8c-0.7-17.4,0-34.9,1.9-52.2"/>
				<g>
					<path class="st2" d="M1528.5,596.8c-0.6-17.4,0-34.9,1.9-52.2c0.5-4.6-4.3-8.5-8.5-8.5c-5,0-8,3.9-8.5,8.5
						c-1.9,17.3-2.5,34.8-1.9,52.2C1511.9,607.7,1528.9,607.8,1528.5,596.8L1528.5,596.8z"/>
				</g>
			</g>
			<g>
				<path class="st2" d="M1540.4,538.3c-1.1,0.8-2.4,1.2-3.7,1.1"/>
				<g>
					<path class="st2" d="M1536.1,530.9c-0.3,0.2-0.7,0.4-1.1,0.6c0.7-0.3,1.4-0.6,2-0.9c-0.5,0.2-0.9,0.3-1.4,0.4
						c0.8-0.1,1.5-0.2,2.3-0.3c-0.4,0.1-0.8,0.1-1.2,0c-2.1-0.1-4.5,1-6,2.5c-1.5,1.5-2.6,3.9-2.5,6c0.1,2.2,0.8,4.5,2.5,6
						c1.7,1.6,3.7,2.4,6,2.5c0.4,0,0.7,0,1.1,0c1-0.1,2.1-0.2,3.1-0.5c0.9-0.3,1.9-0.7,2.7-1.1c0.4-0.2,0.7-0.4,1.1-0.6
						c1.8-1.3,3.3-2.8,3.9-5.1c0.6-2,0.3-4.7-0.9-6.5c-1.2-1.8-2.9-3.4-5.1-3.9C1540.5,529.6,1538,529.6,1536.1,530.9L1536.1,530.9z
						"/>
				</g>
			</g>
			<g>
				<path class="st2" d="M1624.6,539.2c-0.2,1.1,0.4,2.4,1.3,3c-0.4-0.4-0.1-1.1,0.4-1.3c0.5-0.2,1.1,0,1.6,0.3"/>
				<g>
					<path class="st2" d="M1616.1,539.2c-0.2,2,0.5,4.2,1.4,6c0.4,0.9,1.1,1.6,1.7,2.4c0.7,0.8,1.6,1.4,2.4,2c1,0.6,2,1,3.2,1
						c1.1,0.3,2.3,0.2,3.4-0.2c0.7-0.3,1.4-0.6,2-0.9c1-0.5,1.8-1.3,2.4-2.2c1.1-1.4,1.9-3.3,1.8-5.2c-0.1-0.8-0.2-1.5-0.3-2.3
						c-0.4-1.4-1.1-2.7-2.2-3.8c0,0-0.1-0.1-0.1-0.1c0.4,0.6,0.9,1.1,1.3,1.7c0,0,0-0.1-0.1-0.1c0.3,0.7,0.6,1.4,0.9,2
						c0,0,0-0.1,0-0.1c0.1,0.8,0.2,1.5,0.3,2.3c0,0,0-0.1,0-0.1c-0.1,0.8-0.2,1.5-0.3,2.3c0-0.1,0-0.2,0.1-0.3
						c-0.3,0.7-0.6,1.4-0.9,2c0-0.1,0.1-0.2,0.2-0.3c-0.4,0.6-0.9,1.1-1.3,1.7c0,0,0.1-0.1,0.1-0.1c-0.6,0.4-1.1,0.9-1.7,1.3
						c0.1-0.1,0.2-0.1,0.3-0.2c-0.7,0.3-1.4,0.6-2,0.9c0.1,0,0.1,0,0.2-0.1c-0.8,0.1-1.5,0.2-2.3,0.3c0.1,0,0.3,0,0.4,0
						c-0.8-0.1-1.5-0.2-2.3-0.3c0.2,0,0.4,0.1,0.6,0.2c-0.7-0.3-1.4-0.6-2-0.9c0.1,0.1,0.3,0.1,0.4,0.2c2,1.1,4.3,1.5,6.5,0.9
						c2-0.5,4.1-2.1,5.1-3.9c1-2,1.6-4.4,0.9-6.5c-0.7-2.1-1.9-4-3.9-5.1c-1.7-0.9-3.6-1.6-5.5-1.5c-2.5,0.1-4.9,1-6.7,2.7
						c-1.2,1.2-2.1,2.8-2.5,4.4c-0.4,1.6-0.4,3.2,0,4.8c0.5,1.8,1.2,2.6,2.3,4c3.4-4.5,6.9-8.9,10.3-13.3c-0.1,0-0.1-0.1-0.2-0.1
						c0.6,0.4,1.1,0.9,1.7,1.3c-0.2-0.2-0.4-0.3-0.5-0.5c0.4,0.6,0.9,1.1,1.3,1.7c-0.1-0.2-0.3-0.4-0.4-0.7c0.3,0.7,0.6,1.4,0.9,2
						c-0.1-0.3-0.2-0.6-0.2-0.9c0.1,0.8,0.2,1.5,0.3,2.3c0-0.3,0-0.5,0-0.8c0-1.2-0.2-2.3-0.7-3.3c-0.3-1.1-0.9-2-1.8-2.7
						c-1.5-1.5-3.9-2.6-6-2.5c-2.2,0.1-4.5,0.8-6,2.5c-0.4,0.6-0.9,1.1-1.3,1.7C1616.4,536.2,1616.1,537.6,1616.1,539.2
						L1616.1,539.2z"/>
				</g>
			</g>
			<g>
				<path class="st2" d="M1599.9,541c-2.6-1.2-5.5-1.9-8.3-2.1c-2.8-0.2-5.6,0.1-8.5-0.1c-1.5-0.1-3-0.4-4.5-0.4
					c-4.7-0.1-9.6,2.2-13.9,0.4"/>
				<g>
					<path class="st2" d="M1602.2,532.8c-6.3-2.6-12.4-2-19-2.5c-2.6-0.2-5-0.5-7.7-0.2c-2.8,0.3-5.8,1.3-8.5,0.5
						c-10.5-3.2-15,13.2-4.5,16.4c6.1,1.8,11.6-0.4,17.7,0c6,0.4,11.9-0.2,17.5,2.2c4.2,1.8,9.3-1.9,10.5-5.9
						C1609.4,538.4,1606.4,534.6,1602.2,532.8L1602.2,532.8z"/>
				</g>
			</g>
			<g>
				<path class="st2" d="M1638.3,541.2c1-1.4,2.4-3.1,4.2-2.8c0.7,0.1,1.4,0.6,2,1c1.4,1,2.7,2,4.1,3.1"/>
				<g>
					<path class="st2" d="M1645.6,545.5c-0.7,0.9-0.8,1-0.2,0.3c1.1-1,0.5-0.7-1.8,0.9c-1.5-0.2-2.9-0.4-4.4-0.5
						c0.3,0.2,0.6,0.4,0.9,0.6c1.4,1,2.7,2,4.1,3.1c3.6,2.7,9.6,0.7,11.6-3c2.4-4.5,0.8-8.8-3-11.6c-3.1-2.3-6.2-5.2-10.4-5.3
						c-5.2-0.1-8.6,3-11.5,7c-2.6,3.6-0.7,9.6,3,11.6C1638.4,550.9,1642.8,549.3,1645.6,545.5L1645.6,545.5z"/>
				</g>
			</g>
			<g>
				<path class="st2" d="M1794.3,543.5c-1-0.1-1.7-1.1-1.6-2.1c0-0.3,0.1-0.6-0.1-0.8c-0.1-0.1-0.3-0.1-0.5-0.2
					c-1.1-0.1-2.2-0.2-3.4-0.3"/>
				<g>
					<path class="st2" d="M1796.6,535.3c-0.2,0-0.4-0.1-0.5-0.2c0.7,0.3,1.4,0.6,2,0.9c-0.1,0-0.2-0.1-0.2-0.1
						c0.6,0.4,1.1,0.9,1.7,1.3c-0.2-0.1-0.3-0.2-0.4-0.4c0.4,0.6,0.9,1.1,1.3,1.7c-0.1-0.2-0.2-0.3-0.3-0.5c0.3,0.7,0.6,1.4,0.9,2
						c0-0.1-0.1-0.2-0.1-0.3c0.1,0.8,0.2,1.5,0.3,2.3c0-0.2,0-0.4,0-0.6c-0.1,0.8-0.2,1.5-0.3,2.3c0.1-0.9,0.3-1.8,0.3-2.7
						c0.1-1.6-0.5-3-1.2-4.4c-1-2-3.2-3.7-5.4-4.2c-1.9-0.5-3.9-0.5-5.9-0.6c-2.1-0.2-4.6,1.1-6,2.5c-1.5,1.5-2.6,3.9-2.5,6
						c0.1,2.2,0.8,4.5,2.5,6c1.7,1.6,3.7,2.3,6,2.5c1.1,0.1,2.2,0.2,3.4,0.3c-0.8-0.1-1.5-0.2-2.3-0.3c0.1,0,0.2,0,0.2,0
						c-0.7-0.3-1.4-0.6-2-0.9c0.1,0,0.1,0.1,0.2,0.1c-1-1-2-2-3-3c0,0.1,0.1,0.2,0.1,0.2c-0.4-1.4-0.8-2.9-1.2-4.3
						c0,0.1,0,0.2,0,0.3c0.1-0.8,0.2-1.5,0.3-2.3c-0.2,1-0.4,2.1-0.3,3.1c0.1,1.7,0.5,3.4,1.4,4.9c1.4,2.3,3.7,4.2,6.4,4.7
						c2.2,0.5,4.5,0.3,6.5-0.9c1.8-1,3.4-3.1,3.9-5.1c0.5-2.2,0.4-4.6-0.9-6.5C1800.5,537.5,1798.7,535.8,1796.6,535.3L1796.6,535.3
						z"/>
				</g>
			</g>
		</g>
		<g>
			<path class="st2" d="M1548.7,536.9c1.9,0.5,3.9,0.1,5.9,0.1s4.2,0.6,5.1,2.4"/>
			<g>
				<path class="st2" d="M1546.4,545.1c2.4,0.5,4.6,0.6,7,0.4c0.7,0,2.9,0.3,0.7-0.2c0.9,0.3,0.8,0.2-0.3-0.3
					c-0.6-0.4-1.1-0.9-1.5-1.4c2.2,3.9,7.8,5.5,11.6,3c3.9-2.5,5.4-7.5,3-11.6c-1.8-3.2-5-5.5-8.6-6.2c-1.6-0.3-3.2-0.5-4.9-0.4
					c-0.6,0-1.2,0.1-1.9,0.1c-0.6,0-2.5-0.4-0.7,0.1c-4.3-1-9.4,1.3-10.5,5.9C1539.5,539,1541.8,544.1,1546.4,545.1L1546.4,545.1z"
					/>
			</g>
		</g>
		<g>
			<path class="st2" d="M1600.2,539c2.9,0.5,5.8-0.7,8.6-1.3c2.9-0.6,6.3-0.5,8.1,1.8"/>
			<g>
				<path class="st2" d="M1600.2,547.5c3.3,0.3,6.5-0.5,9.6-1.3c2.5-0.7-0.3-0.4,1.6-0.3c2.1,0.1-0.2,0.1-0.6-0.4
					c7.5,8,19.5-4.1,12-12c-3-3.1-7.2-4.6-11.5-4.6c-3.8,0-7.5,1.9-11.3,1.6c-4.6-0.4-8.5,4.2-8.5,8.5
					C1591.7,543.9,1595.6,547.1,1600.2,547.5L1600.2,547.5z"/>
			</g>
		</g>
		<g>
			<path class="st2" d="M2204.7,596.7c-1.1-15.9-2-31.8-2.6-47.8c-0.1-2.3-0.2-4.7,0.5-6.9c0.7-2.2,2.2-4.3,4.5-4.9
				c0.3-0.1,0.8-0.1,1,0.2c0.2,0.3-0.4,0.7-0.5,0.3"/>
			<g>
				<path class="st2" d="M2213.2,596.7c-0.7-9.6-1.3-19.2-1.8-28.9c-0.2-4.6-0.5-9.3-0.7-13.9c-0.1-2.2-0.3-4.5-0.3-6.7
					c-0.1-1,0-1.9,0.3-2.9c-1.1,0.9-0.9,1,0.6,0.1c-1.4,0.4-2.9,0.8-4.3,1.2c0.2,0,0.4,0,0.5-0.1c-1.4-0.4-2.9-0.8-4.3-1.2
					c0.1,0.1,0.3,0.2,0.4,0.2c-1.3-3.2-2.6-6.4-3.9-9.6c0,0.1-0.1,0.3-0.1,0.4c3.5-2,7-4,10.5-5.9c-0.1,0-0.2,0-0.3-0.1
					c-10.7-2.1-15.3,14.3-4.5,16.4c0.1,0,0.2,0,0.3,0.1c4.7,0.9,8.8-1.3,10.5-5.9c0-0.1,0.1-0.3,0.1-0.4c1.2-3.4-0.8-7.9-3.9-9.6
					c-5.8-3.2-12.4,0.1-15.8,5.3c-3.6,5.5-2.9,12.4-2.7,18.7c0.6,14.3,1.4,28.5,2.4,42.8C2196.9,607.6,2213.9,607.6,2213.2,596.7
					L2213.2,596.7z"/>
			</g>
		</g>
	</g>
</g>
<g id="Layer_1">
	<g id="bkwvWy_1_">
		<g>
			<g>
				<path class="st5" d="M2250.3,486.1c-14.1,5.6-19.1,8.8-33.5-5.2c-1.3-1.2-2.6-2.5-5.3-3.5c0,3.3-0.1,6.7,0,10
					c0.3,5.5,0.5,11,1.3,16.4c0.6,4,1.4,8.3,3.5,11.6c6.2,9.8,13.2,19.1,19.6,28.8c0.9,1.3,0.8,4.8-0.1,5.4
					c-5.5,3.6-11.3,6.7-18.5,10.8c0.2-3.7,0.4-5.8,0.4-8c0-2.4,0.7-5.5-0.4-7.2c-6-9.1-10.2-19.7-20.3-25.5
					c-0.7-0.4-1.4-0.8-2.7-1.6c-0.8,2-1.8,3.6-2.3,5.4c-2.2,8.9-4.2,17.8-6.3,26.7c-0.1,0.3-0.2,0.6-0.2,1c-0.1,2.3,0.8,5.7-0.4,6.7
					c-1.6,1.3-4.7,0.9-7.2,1.1c-3.2,0.2-6.3,0.3-9.5,0.3c-3.6,0-4.3-2.3-2.2-4.5c6.8-7.1,8-16.4,9.7-25.3c1-5.2,0.2-10.8,0.2-16.2
					c-6.9,0-13,0.8-18.7-0.2c-5.6-1-10.8-3.9-17-6.2c-0.3,1.8-1,3.7-0.7,5.4c2.3,13.9,4.7,27.8,7.2,41.8c0.5,3,0.1,4.9-3.5,4.9
					c-5.6-0.1-11.2,0-18.5,0c1.7-3.2,2.4-5.5,3.9-7.1c2.5-2.6,3.1-5.3,2.2-8.6c-1.6-6-3.1-12.1-5-19.4c-2,2.3-3.2,3.4-3.9,4.7
					c-4,7.4-10.5,13.8-9.4,23.4c0.1,0.8-2.6,3-3.5,2.8c-5.4-1.3-10.7-3.2-16.4-5c0.7-1.3,0.8-2.3,1.4-2.7
					c6.6-3.9,8.3-10.6,10.7-17.2c2.7-7.7,6-15.2,10.1-22.2c4.3-7.4,0.3-17.1-8.6-22.5c-7.8-4.7-13.7-3.5-20.2,3.5
					c-8.2,8.8-18,15.1-30.7,14.5c-1.8-0.1-6.2,2.1-5.1-3.3c0-0.2-2.3-1-3.6-1.3c-5.4-1.4-9.5-4.3-12.9-8.8c-1.3-1.7-5.1-2.9-7.2-2.4
					c-3.1,0.8-4.4-0.7-6.7-1.9c-10.6-5.6-15.3-15.3-19.6-25.6c-2.7-6.4-5.6-12.8-8.4-19.1c-0.3-0.7-1-1.2-2.2-2.7
					c-1.7,8.8-8.1,14.8-7.7,23.8c0.3,7.7-2.6,15.5,1,23.1c1.4,2.9,2.2,6.3,4.1,8.8c7.3,10.1,15.8,19.6,19,32
					c1.6,6.3,1.6,13.1,2.2,19.6c0.3,3.4,0.8,6.9,0.2,10.2c-0.3,1.6-3,3.9-4.6,3.9c-9.6,0-19.3-0.4-28.9-1.1
					c-1.1-0.1-2.9-2.6-2.9-3.9c0.1-1.7,1.5-3.5,2.6-5.1c2.2-3.6,6.1-6.9,6.5-10.6c0.8-7.3-0.8-14.7-5.5-20.8
					c-6.4-8.3-15.2-13.7-25-19.4c-3.3,9.4-6.3,18.3-9.5,27.2c-1.7,4.7-3.6,9.3-5.1,14c-0.4,1.3-0.2,3.1,0.3,4.5
					c2,5.4-0.4,9.3-6.2,9.4c-7,0.1-14,0-21-0.2c-1.7-0.1-4.6-0.9-4.7-1.5c-0.2-2.1,0.2-4.7,1.3-6.5c2.5-4.1,5.8-7.7,8.3-11.8
					c2-3.4,3.4-7.1,4.9-10.8c1.3-3.4,1.8-7.1,3.4-10.4c4.5-9.6,4.5-19.6,3.5-29.9c-10.3-0.7-20.8,0-30.3-2.6
					c-9.4-2.6-17.8-8.7-26.9-13.5c-2.2,4.7-4.1,9.2-3.7,14.9c1.2,17.8,1.2,35.6-3.6,53.1c-1,3.6,0.1,8.1,1.3,11.9
					c1.7,5.2,0.6,8.5-4.8,8.7c-8.6,0.3-17.2-0.1-25.8-0.2c-3-0.1-4.7-1.8-3.1-4.5c2.2-3.7,1.3-7,0.5-10.9
					c-1.7-9.5-5.4-17.6-12.4-24.4c-8.4-8.2-9.5-16.4-4.4-27.9c4.8-10.8,9.6-21.6,14.5-32.3c3.7-8.2,1.7-15.2-5.5-20.5
					c-9.4-6.9-18.5-14.1-27.8-21.1c-1.2-0.9-2.5-1.6-3.9-2c-4.2-1.3-8.4-3.1-12.7-3.5c-2.8-0.3-5.8,1.4-8.6,2.6c-1.6,0.7-3,2-4.5,3
					c-7.2,4.3-15.8,3.5-23.6,5.7c-7.7,2.2-15.9,3.2-23.9,3.9c-6.1,0.5-11.9-1.3-16.3-6.1c0-0.7,0-1.3,0-2c4.4,0.9,8.8,1.9,13.2,2.8
					c0.1-0.4,0.2-0.8,0.3-1.2c-0.9-1.2-1.9-2.3-3.4-4.2c2.8,0.2,4.7,0.4,7.3,0.6c-0.9-1.3-1.3-2.3-2-3c-6.5-6.1-9.6-13.9-10.9-22.5
					c-2.6-17.3,9.2-34.6,25.4-37.5c2.4-0.4,5-0.4,7.4-0.2c8.4,0.6,12.1-1.7,15.1-9.7c0.2-0.6,0.7-1.1,1.4-2.3
					c1.3,5.4,4.5,5.5,8.4,3.7c-1.9,12.1-8.1,18.9-19.2,21.4c-0.7,0.1-1.3,0.3-2,0.4c-16,3-20.6,14.6-10.8,27.6
					c1.3,1.8,4.5,2.9,6.8,3c1.3,0,3.4-2.5,4-4.3c6.4-19.5,19.6-33.4,36-44.7c6.5-4.4,13.8-4.5,21.2-2.8c4.5,1.1,9.1,2,13.6,3.3
					c7.1,2,13.3,0.1,19.4-3.4c7.6-4.4,15.4-8.5,23.4-12.1c7.7-3.5,15.9-3.2,24-0.8c6.8,1.9,8.7,4.9,7.5,11.8
					c-0.5,2.8-1.3,5.5-2.1,8.2c-0.8,2.7-1.8,5.3-3.1,9.2c6.2-0.6,11.4-0.9,16.5-1.6c2.8-0.4,5.7-0.9,8.2-2
					c14.2-5.9,27.3-1.9,39.8,4.7c22,11.5,35.2,30.4,43.6,53.1c5.9,16.1,10.9,32.5,16.9,48.5c4.3,11.4,8.8,17.1,14,20.7
					c7.3-5.6,12-5.6,18.8,0.7c5.8,5.3,12.6,6.6,19.9,6.2c5.3-0.2,7.4-3.1,9.3-10c2.1-7.5,4.5-14.9,7.4-22c1.6-3.8,4.1-7.5,7.1-10.2
					c2.8-2.5,6.7-4.1,10.3-5c3.2-0.8,5.5-1.5,6.5-5c0.6-2.2,2.1-4.2,3.1-6.2c1.8-3.6,3.6-7.1,5.7-11.3c3.8,3.7,0.5,9.9,3.7,14
					c5.3-0.9,10.6-1.9,16-2.8c4.3-0.8,7,0.8,6.7,5.4c-0.2,3.9,1.5,5.8,5.1,5.6c5.1-0.3,10.6,0,15.1-1.9c15.2-6.3,27.8-1,39.5,7.8
					c8.7,6.5,15.8,14.5,19.6,25.3c2.4,6.8,8,11.8,14.7,15c4.8,2.3,9.5,2.3,14.4-0.1c1.9-0.9,4.4-0.8,6.6-1.1
					C2250.3,485.4,2250.3,485.8,2250.3,486.1z M1840.7,507.8c0.3,0,0.6,0.1,0.9,0.1c-1.2-4.6-2.3-9.2-3.5-13.8c-0.7,0-1.5,0-2.2,0
					c-0.2,2.1-1.3,4.5-0.6,6.1C1836.6,503,1838.9,505.3,1840.7,507.8z"/>
			</g>
		</g>
	</g>
	<g id="HMjUHO_1_">
		<g>
			<g>
				<path class="st6" d="M2518.7,363.8c3.4-2.2,6.5-4.1,9.6-6.2c-3.1-6.6-8.4-9.6-16.8-9.6c-6.4,0-12.8-0.4-19.8-0.7
					c0.5-2.1,1.2-4,0.9-4.2c-8.1-4-10.1-17.1-24.1-12.5c-1.1,0.4-2.8-0.3-4.2-0.7c-10.6-2.6-21.2-5.5-31.9-7.9
					c-4.6-1-7.1-2.2-5.9-7.1c0.8-3.6-0.7-6.8-6.7-6.4c-5.7,0.4-11.4,0.1-17.2-0.1c-11-0.4-21.9-3.8-33.2-1.2
					c-1.3,0.3-3.2-1.3-4.7-2.1c-1.4-0.8-2.3-2.3-3.8-2.8c-5.6-1.8-11.3-3.3-17-4.9c0.4-0.8,0.8-1.8,0.8-1.8
					c-3.1,0.6-6.3,1.8-9.5,1.6c-5.8-0.4-11.6-2.1-17.4-2.3c-8.8-0.2-17.7,0.3-26.5,0.8c-10.8,0.6-21.5,1.4-32.2,2.4
					c-8.3,0.8-16.5,2.2-24.8,2.8c-2.8,0.2-7.2-0.4-8.3-1.9c-3.8-5.5-8.9-2.5-13.2-2.1c-6.7,0.7-13.2,3.3-19.9,3.7
					c-5.7,0.4-10.8,1.1-15.7,3.9c-1.4,0.8-3.7,0.9-5.4,0.7c-14.1-1.4-25.9,5-38.2,9.1c-6.8,2.2-12.1,7.6-19.7,9
					c-1.7,0.3-3,1.9-4.7,2.7c-6.4,3.1-12.8,6.2-20.6,4.7c-3.6-0.7-7.3-1.4-10.9-1.3c-6.5,0.2-13,1-20.4,1.7
					c-7.8,10.3-24.8,9.6-35.4,18.2c1,1.3,2.1,2.5,2.8,3.8c1.1,2.2-0.7,6.4,5.7,3.2c3.7-1.8,9.6-0.3,12.6-0.3c-1,0.7-3.3,2.2-5.7,3.7
					c0.7,0.7,1.5,1.4,2.2,2.1c2.4-0.3,4.8-0.6,7.7-1c-1.6,2.4-2.6,4.3-4.1,5.8c-1.8,1.7-4.1,3-6,4.3c6.3-0.4,12.9-1.1,19.5-1.2
					c7.5-0.1,12.3-4.1,16.9-8.2c3.8,10.1,8.4-1.3,12,1.4c0.8,4.7,4,7.5,9.9,7.4c3.4,0,6.9-0.3,10.3-0.2c4,0.1,8,0.5,13.8,0.9
					c2.3-2.7,7.1-4.9,11.3-2.9c6.6-2.6,11.7-4.6,16.7-6.5c3,4.1,2.3,5.3-2.6,6.4c-4.6,1-8.5,4-12.8,6.1c0.2,0.2,0.4,0.5,0.6,0.7
					c3-1,6.1-2,10.5-3.5c-1.4,3-2.1,4.4-2.8,5.9c2,0.2,4,0.4,5.3,0.6c0.7,2.4,1.3,4.1,2.3,7.4c3.5-7.5,6.2-13.3,9.5-20.3
					c6.8,3.2,13.2,6.1,19.4,9.1c5.4,2.6,10.4,5.9,16.1,8c7.1,2.6,14.8,4.1,22,6.4c11.2,3.6,22.5,7.3,33.5,11.4
					c3.4,1.3,6.6,3.6,9.1,6c7.5,7.3,14.1,15.5,22.2,22.2c5.3,4.4,6.7,9.1,4,13.7c-2.9,5.1-0.3,8.3,1.7,12.3
					c3.4,6.8,6.4,13.7,9.9,21.5c-5.4-0.5-9.2-0.9-15-1.5c5.3,5.9,10.5,8,17.3,8.5c9.4,0.7,18.2,3.1,25.2,8.9c1.4,1.1,2.6,3,2.7,4.6
					c0.2,2.6-0.6,5.2-1,7.9c-0.8-0.5-1.8-1.2-2.8-1.9c-3.8,4.6-9.3,4.1-14.5,4c0,0,0,0,0,0.1c0,0.4,0,0.7-0.1,1.1
					c3,0.1,5.6,1,6.3,5.1c0.1,0.8,2.1,1.9,3.4,2c10.9,1.4,10.8,8.4,10.8,15.3c-2.1,1-3.9,2.1-5.9,2.8c0.2,0.4,0.4,0.7,0.6,1.1
					c0.8,1.8,2.3,5.8,2.6,6.5c0.8,1.7,1.2,3.4,1.3,5.1c3.3-1.2,6.6-2.4,10.5-3.7c0.2,0.1,2,1,3.7,0.8c5.8-0.5,11.2-0.8,16,3.1
					c1.2,0.9,4.9-0.5,7.5-0.9c0-0.5-0.1-1-0.1-1.4c2,0.9,4,1.8,4.2,1.9c6.5-4.2,8.9-8.8,1.9-13.3c-0.5,0.7-1.1,1.3-1.6,2
					c-0.5-4.2-0.7-8.3,1.1-11.5c1.8-3.3,1.8-5.2-1.5-7.3c-3.1-1.9-6.4-3.7-9-6.1c-2.8-2.6-6.3-5.6-7-8.8c-1.1-5-4.7-7.6-8.9-9.7
					c-5.8-3-12.1-5.2-18.2-7.8c5.7,1.1,8.7-0.8,8.7-7.7c4.7,6.2,8.1,10.8,12.4,16.5c5.3-14.7-1.2-27.4-14.3-33.5
					c1.8-2.1,3.7-4.3,5.6-6.5c-12.8-2.4-20.8-9.9-25.6-19.7c-2.8-5.8,5.3-8.4,7.8-12.8c1.3-2.4,3.4-4.4,5.1-6.6
					c-0.6-0.5-1.2-1-1.8-1.4c-3.2,2.1-6.4,4.3-9.8,6.6c-1.5-11.8,9.4-22.8,19.6-28.8c9-5.3,12.5,4.8,20.1-0.8
					c1.4-4.7,8.4,0.2,13-1.3c2.6-0.8,5.4-1,8-2.3c8.6,0.4,12.3,6.9,17.1,12c1,1.1-0.3,4.6-1.7,6.4c-1.5,1.9-4.3,3-6.5,4.5
					c-5.1,3.2-9.9,7.4-15.4,4.2c-0.2,2.5,0.6,5.8-0.9,7.4c-5.8,6.4-11.9,12.8-18.8,18.3c-8,6.3-8.6,6.6-2.9,16
					c-3-0.5-5.2-0.8-7.4-1.1c1.4,1.6,2.8,3.2,4.1,4.7c14.2-7.3,25.6-15.6,33.5-27.1c6.6-9.6,15.5-16,28.5-17.7
					c2.2-0.3,4.2-1.4,6.3-2.1c-0.1-0.5-0.2-0.9-0.3-1.4c-2.1-0.4-4.2-0.9-6.8-1.4c0.7-2.8,1.2-7.2,2-7.2c7.4-0.6,5.5-6.4,7.1-8.1
					c-1.5-3.7-4.1-6.8-3.3-8.7c1.9-4.3,6.1-2.2,9.8-1.1c1.5,0.4,3.3,0.1,4.9,0.1c-2.7-2.3-5-4.2-7.8-6.6c11.7-1.2,21.8-1.3,31.4,2.4
					c-0.9,1.8-1.5,3-1.5,2.9c10.7,1,21.3,2,33.7,3.1c-0.9-4-1.9-8.1-3.3-14.1c5.9,2.2,10.6,3.9,15.3,5.7c1.3,0.5,2.7,2,3.7,1.8
					c6.4-1.2,12.8-2.8,18.8-4.2c1.5-6.1-14.2-5.3-6.5-13.5C2511.4,360.7,2515.5,362.4,2518.7,363.8z M2211.3,380.5
					c-11.9-4.5-23.7-9.2-35.6-13.9c-1.3-0.5-2.8-0.9-3.7-1.8c-1.4-1.3-2.3-3-3.4-4.6c1.9-0.6,3.7-1.5,5.6-1.6
					c3.6-0.2,7.3,0.2,11,0.4c-0.3,0.6-0.9,1.6-1.2,2.1c7.1-1.2,14.6-2.4,22.1-3.6c0.3,0.6,0.6,1.1,0.8,1.7c-2.7,1.4-5.4,2.7-8.5,4.3
					c1.4,0.9,3,2,4.5,3c3.1-1,6.9-2.2,9.8-3.1c3.3,6.6,6.5,12.8,10.3,20.2C2218.6,382.4,2214.8,381.8,2211.3,380.5z M2297.8,374.3
					c1.9,1.3,2.4,4.2,3.5,6.4c-2,0.5-4.3,1.9-5.9,1.4c-4.9-1.5-9.5-3.7-14.6-5.7C2286.3,371.3,2292,370.2,2297.8,374.3z
					 M2283.2,419.3c-5.2-6.2-9.5-11.4-14.2-16.9C2278,402.6,2284.1,409.5,2283.2,419.3z M2287.1,395.9c-1,0.9-3.9,1.1-5.6,0.7
					c-6-1.6-11.8-3.7-17.9-5.7c1.4-2.1,2.8-4.2,4.4-6.6c0.8,1.3,1.4,2.4,2.8,4.7v-7.9c4.3,1.6,10.5-1.6,11.4,5.3
					c0.1,0.4,2.5,0.9,3.8,0.8c2.7-0.3,5.3-0.9,8-1.4c0.2,0.5,0.3,1,0.5,1.6C2292.1,390.2,2290,393.3,2287.1,395.9z M2296.2,411.5
					c-3.8-6.5-2.2-11.1,5.8-17.1c2.4,3.9,1.9,16.4-0.9,18.4C2300.4,413.4,2296.8,412.5,2296.2,411.5z M2325,471.5
					c-2.9,3.1-4.6,4.9-5.9,6.3c-4.5-2.9-9-5.7-13.4-8.5l0.7-1.1c1.5,0.1,3,0.2,5.8,0.4c-9.9-8-15.1-16.9-11.9-28.7
					C2308.5,450.5,2316.8,461,2325,471.5z"/>
			</g>
		</g>
	</g>
	<g id="PgDVas_1_">
		<g>
			<g>
				<path class="st6" d="M674.9,220.5c-5.6-1.1-11.2-2.8-16.9-3.1c-17.2-0.9-33.3-9.5-50.5-10.8c-10.4-0.8-20.7-4.3-31-6.7
					c-0.9-0.2-1.9-0.4-2.5-1c-9.2-9.2-20.4-6-30.3-5.5c-9.3,0.5-18-1.6-26.8-2.9c-10.2-1.6-20.2-6.1-30.4-8.2
					c-8.5-1.7-17.2-1.8-25.8-2.7c-2.1-0.2-4.6,0.1-6.3-1.2c-7-5.1-15.4-3.4-22.6-9.3c-6.1-5-14.3-6.2-21.7-8.3
					c-13.7-3.8-27.4-6.5-41.6-4.7c-14.8,1.9-29.7,2.1-44.6,3.1c-2.2,0.1-4.3,0.5-6.5,0.7c-2.3-2.3-5-4-7.7-4.3
					c-12.4-1.6-13.9-3.7-11.6-16.7c0.1-0.4-0.2-0.8-0.4-1.2c-17-10.5-62.4-20.1-90.9-19.1c-2.7,2.7-4,5.2-5.6,5.6
					c-5.4,1.2-9,8.1-15.6,5.9c-3.5-1.2-8.5,6.5-7.5,10.1c1.6,5.7-0.4,6-3.8,5.1c-0.4-0.1-0.9,0.4-1.3,0.6c0.6,1.6,1.1,3,1.8,5.1
					c-2.6-1.3-4.4-2.2-6.2-3.2c-0.1,0.5-0.3,0.9-0.4,1.4l3.4,5.1c-0.2,0.6-0.4,1.2-0.5,1.7c-3.2-0.2-6.6-1.4-9.5-0.4
					c-5.1,1.8-9.2-0.7-13.8-2.4c-7.2-2.7-14.6-4.8-22-5.9c-4.8-0.7-9.8,2-14.6,1.3c-7.9-1.1-15,0.6-22.1,4.8
					c-6.1,3.6-12.2,7.2-18.5,10.4c-5,2.5-9,7.7-15.1,7.9c-1.6,0-3.8,3-6.5,1.2c-4-2.6-7.9-3.7-11.3,1.7c-0.5,0.7-1.6,1.3-2.4,1.1
					c-7.6-1.9-15.2-3.1-23-1.9c-8.4,1.3-16.8,1.6-25.2,3.1c-4.6,0.9-9,3.4-13.6,5.2c1.1,3.1,1.7,5.1,2.6,7.4
					c-1.9,0.5-3.3,0.9-5.5,1.5c2.7,2.6,4.8,4.5,7.4,7c-5.5,6.5-12.1,7.3-18.1,8.7c-3.4,0.8-7.7-2.7-10.8-1.3
					c-10.1,4.5-21.3,1.2-31.2,7.8c-8.8,5.9-18.5,9.5-27.8,14.4c-1.9,1-3.2,3.6-5,5.1c-2.9,2.4-6,4.6-9.6,7.3c2.5,1.1,4,1.7,6.7,2.9
					c-3,2.3-4.9,3.8-6.8,5.2c-0.7,0.5-1.6,0.5-2.4,0.7c1.3,6.9-3,4-5.3,4.9c-0.8,0.3-1.5,1.1-2.9,2c6.2,1.6,12,5.4,16.8,4
					c13.1-3.8,25.9,0.1,38.8,0.2c5.6,0,11.2,3.2,17.2,5.1c0.1-1.5,0.3-3.4,0.4-5.1c2,0,3.8,0.6,5.2-0.1c5.4-2.6,14.1-0.2,16.9,6
					c3.7,8.4,10,11.2,16.5,14.4c7.5,3.7,15.3,6.4,21.5,14.4c6,7.7,13.2,14.5,20.9,19.3c10.2,6.3,21.2,10.5,32.1,15
					c9.5,3.9,19.3,6.6,28.8,10.6c18.3,7.8,36.5,15.9,54.5,24.7c6.7,3.3,13.7,7.6,18.9,13.7c9.5,11.2,18.1,23.7,26.4,36.3
					c11.5,17.5,22.9,34.9,37,49.5c6.2,6.4,11,15.3,12.4,26.2c1.9,14.4,4.2,28.7,6.2,43c0.2,1.2,0.2,2.7-0.3,3.8
					c-0.6,1.5-1.7,2.7-2.5,4c1.5,0.2,3,0.4,4.8,0.6c0.2,0.8,0.4,1.5,0.5,2.2c1.9,0.5,3.8,0.9,5.7,1.3c5,0.7,10,1.4,14.9,2.2
					c0.1-0.1,0.2-0.3,0.3-0.4c-0.3,0-0.6-0.1-0.9-0.1c0.3,0,0.6,0.1,0.9,0.1c0.5-0.7,1.1-1.4,1.6-2.1c0.4-0.6,0.9-1.1,1.4-1.6
					c0.8-1.9,1.9-3.5,3.4-4.4c0.2-0.1,0.4-0.2,0.6-0.3c2.3-2.6,4.7-5.1,7.2-7.4c-0.4-1.3-0.6-2.6-0.6-4c-1.6-0.1-3.3-0.2-4.9-0.2
					c0.3-2.4,0.2-3.6,0.5-4.6c7.9-24,21.2-41.4,40.3-51.4c3.1-1.6,6.5-3,9.2-5.4c5.7-5,11.1-10.6,16.5-16.2
					c7.1-7.4,14.2-14.9,20.9-22.8c5.9-7,11.1-15.1,16.9-22.2c13.1-15.9,30.6-19.7,46.9-26.4c8.1-3.4,17.6-2.9,24.8-8
					c12.4-8.6,25.7-13.8,39-18.7c24.2-9,41.7-28.8,55.4-54.5c4.1-7.6,8.1-14.5,15.3-18.1c4.3-2.1,7.8-6,7.3-13.2
					c-0.2-3.3,0.6-6.7,1-10.1c0.7-5.5,1.9-9.9,7.4-5.5c1,0.8,2.8,0.4,4.2,0.3c4.2-0.5,8.5-1.6,12.7-1.7c7.2-0.3,14.5-0.2,21.7,0
					c7.1,0.2,14.2,0.9,21.2,1.2c3.1,0.1,6.3-0.1,9.3-0.6c3.9-0.6,7.7-1.4,11.5-2.6c1.4-0.5,2.5-2.5,3.7-3.8
					c-0.3-0.8-0.6-1.5-0.9-2.3c-3.8,0.4-7.6,0.7-11.3,1.1c-0.3-0.6-0.5-1.2-0.8-1.9c3.6-2.6,7-5.5,10.7-7.7c2.8-1.7,5.9-2.8,9-3.9
					c1.8-0.7,3.8-0.7,5.7-1.2c3.3-0.9,6.6-2,9.9-3C675.1,222.4,675,221.5,674.9,220.5z M-22.4,277.2c-3.7-2.1-6.9-3.9-10-5.9
					c-0.2-0.1,0.4-2.2,0.7-3.4c-0.8-0.8-1.8-1.3-2.4-2.3c-1.1-1.8-2.2-3.7-2.9-5.7c-0.2-0.6,1.1-2.9,1.5-2.8c2,0.2,4.4,0.4,5.9,1.9
					c1.7,1.6,2.5,4.6,4.3,8.3c-2.7,0.2-4.6,0.4-6.5,0.6c3,0.9,6,1.7,9.5,2.7v6.6H-22.4z M-28.1,258.5c4,0.2,6.6,0.4,10.3,0.6
					C-21.5,264.4-24.2,264.6-28.1,258.5z M523.1,248.8c0.6-1.4,2.5-1.9,4.1-3c3,2.1,5.9,3.8,8.3,6.2c0.9,0.9,1.4,3.9,0.9,5.3
					c-0.4,1.2-2.8,2.3-3.8,1.9c-2.9-1.4-5.7-3.4-8.2-5.7C523.6,252.6,522.7,249.8,523.1,248.8z M456.7,276.7c-1.1-6-0.1-8.3,4.3-6.6
					c5.5,2,10.7,4.1,16.5,2c0.2-0.1,2.1,3.8,1.7,4.7c-4.2,8.1-8.4,16.2-13.2,23.7c-2.2,3.5-5.7,5.6-9.1,8.7
					c-2.4-7.7-1.4-13.7,0.5-20.2C458.5,285.5,457.5,280.7,456.7,276.7z M470,304.7c-0.8,3.6-1.5,7.2-2.5,11.7
					C462.4,309.4,462.4,309.4,470,304.7z M437.5,266.5c3.9,3,2,6.5-0.4,8.6c-6.4,5.7-13,11.1-19.7,16.2c-5.6,4.3-11.7,4.2-17.7,1.7
					l-0.5-2.1c2.6-2.4,5.3-4.8,8.2-7.6c-5-5.6-1.9-9.7,1.5-13.2c4.4-4.4,9.1-8.2,15-13.5C428.1,259.6,432.9,262.9,437.5,266.5z
					 M403.7,259.7c1.4-1.3,4.5,0.2,6.9,0.5c-0.9,1.8-1.6,3.7-2.8,5.2c-1.3,1.7-2.9,2.9-4.3,4.4c-0.7-0.5-1.5-0.9-2.2-1.4
					C402,265.4,402.1,261.3,403.7,259.7z M391.5,296.8c-9,7.5-17.6,16.1-26.7,23.4c-6.5,5.2-13.6,8.9-20.5,13.3
					c-0.5-1.1-1.1-2.2-1.6-3.3c7.1-7.1,13.7-15.2,21.5-20.9c6.6-4.9,9.5-12.9,14-19.6c0.7-1,1.1-2.6,1.9-3.1
					c6.5-4.3,13.2-8.4,19.8-12.6C401,283.1,397.2,292,391.5,296.8z M274.1,333.6c1.8,10.4,0.2,22.3-3.1,26.3
					C265.9,350.3,272,343.4,274.1,333.6z M272.2,317.4c-2.5,2.1-5,4.4-7.6,6.2c-0.2,0.1-2.1-2.4-2.3-3.9c-0.4-3.2,4.1-7.6,7-7.1
					c1.3,0.3,2.5,1.3,3.8,1.9C272.8,315.5,272.5,316.5,272.2,317.4z M289.4,280c3.5,7.2,3.5,8.6-2,12.8c-3.2,2.4-6.6,4.5-10,6.7
					c-0.8,0.5-1.7,0.6-3.6,1.2c-1.3-17-2.7-32.9,13.4-40.4c1.9,2.7,2.6,5.9,0.8,10.7C287.1,273.2,288.2,277.5,289.4,280z
					 M293.5,268.8c5.2-3.5,10.4-6.5,12.9-14.1c1.1-3.4,9.3-2.1,13.8,2.3c-9.9,6.9-19.2,13.4-28.9,20.1
					C289.4,274,290.2,271,293.5,268.8z M295.7,343.7c0,6.7,0.4,13.1-0.2,19.4c-0.2,2.5-2.2,5.1-3.9,6.9c-4.7,5.2-9.7,10.2-14.6,15
					c-1.9,1.8-4,3.2-6.9,5.5C271.4,377.6,287.6,348.7,295.7,343.7z M279.2,326.8c0-1.2,2.1-3.3,3.3-3.4c6.5-0.7,13-0.9,20.8-1.4
					c-8.2,9.3-15.6,17.8-23.5,26.9C279.6,340.9,279.2,333.9,279.2,326.8z M297.4,378.7c0.4-3.9,2.9-8.5,7.5-4.2
					c0.4,0.4,2.2-0.4,2.5-1.2c3.2-8.4,5.4-13.1,11.3-13.8c-0.8,9.6-2.8,18.1-7.8,25.9c-4.2,6.6-7,14.6-10.3,22.1
					c-1.1,2.5-2.1,5.2-3.1,7.8c-0.7-0.2-1.4-0.5-2.1-0.7C295.9,402.6,296.1,390.6,297.4,378.7z M299.4,362.9
					c-0.2-5.4-0.3-11.2-0.8-16.8c-0.5-5.3,0.9-9,4.4-12c8.4-7.1,16.4-15,25-21.6c6.3-4.8,7.1-3.9,10.6,5.3c2.8-1,5.8-2,8.7-3
					C337,340.2,317.2,350.5,299.4,362.9z M338.2,306.6c1.4-1.6,2.5-3.8,4.2-4.8c4.5-2.7,9.1-5.1,13.8-7.3c2.7-1.3,5.7-2,8.5-3
					c0.8,2.9,0.8,4.9-2.1,6.8c-4.8,3.2-9.1,7.7-13.7,11.5c-1.2,1-2.9,2.5-3.8,2C342.6,310.4,340.5,308.3,338.2,306.6z M399.6,256.5
					c0,4.6,0.1,9-0.1,13.4c0,1-0.7,2.3-1.3,2.7c-4.6,2.7-9.5,4.8-14,7.7c-4.3,2.8-8.4,6.3-12.5,9.8c-2.3,2-4.3,5.3-7,1.2l0,0
					c1.5-1.3,3-2.5,4.5-3.9c1.2-1.1,2.8-2,3.6-3.5c6.4-12.1,16.6-18.5,25.2-27.2C398.4,256.4,399,256.6,399.6,256.5z M372.4,253.8
					c-0.5-1.3-0.8-1.9-0.9-2.5c-0.6-3.2-1.3-6.5-1.7-9.7c0-0.2,2.2-1.4,2.6-1c2.4,2.5,4.7,5.3,6.8,8.2c0.4,0.5-0.2,2.2,0.1,2.5
					c6.4,5.3,1.9,9.2-1.1,12.8c-5.2,6.2-10.1,13.1-16.1,17.6c-6.8,5-14.6,7.7-22,11.4c-0.4-0.7-0.9-1.5-1.3-2.2
					c1.1-1.6,2.2-4.5,3.4-4.7c5-0.6,7.5-5.2,10.4-9.3c1.6-2.3,4.2-3.5,5.9-5.7c2.4-3.3,7.9-3.9,6.4-11c-0.2-0.8,1.7-2.5,2.8-3.4
					C369.1,255.6,370.8,254.8,372.4,253.8z M355,239.3c0.9,0.9,2.3,0.9,3.5,1.2c2.1,0.7,5.3,0.6,5.9,2.1c1.6,4.2,3.4,9-1.6,12.7
					c-1.8,1.3-1.9,5.9-3.6,7.7c-4.4,4.7-8.9,9.2-13.9,12.7c-5.1,3.5-9.3,7.2-10.7,14.8c-0.3,1.9-1.1,4-2.2,5.3
					c-14.2,16.4-30.4,26.1-50.2,22.6c-1.4-0.3-3.4-3.2-3.6-5.2c-0.2-2.3,0.7-5.9,2.1-7.1c6.1-5,12.5-9.3,19.1-14.1
					c-4-10.2-3.2-12.1,4.1-17.1c9.1-6.3,18.6-12.1,26.3-20.6c4.9-5.4,10.2-9.7,15.5-14.4C348.6,237.4,351.7,235.8,355,239.3z
					 M341.2,237.2c-4.1,3.5-6.8,5.8-10.7,9.2c-0.2-5.8-0.4-9.6-0.6-15.1C333.8,233.4,336.7,234.9,341.2,237.2z M306.6,239
					c0.6-0.8,1.3-1.6,2.1-1.9c5.4-1.9,10.9-3.9,16.4-5.4c1.1-0.3,3.6,1.3,3.6,1.9c-0.2,4.5,0.2,10-1.7,13.2c-3,5.1-8.4,8.1-13.1,3.8
					c-4-3.6-7.2-3.8-11.2-1c-0.8,0.6-2.2,0-3.3-0.1C302,245.5,304.3,242.2,306.6,239z M303.2,258.2c-2.7,2.2-5.2,4.7-8.1,6.4
					c-0.8,0.5-3.1-0.7-3.6-1.8c-0.9-2.1-1.5-5-1.1-7.1c0.2-1.1,3.3-1.9,4.8-1.5C297.6,254.7,299.8,256.4,303.2,258.2z M290.9,227
					c1,6.6-0.9,9.2-7.6,10.9C282.6,230.7,287.6,230.4,290.9,227z M294.4,240c0.7,0.3,1.7,1.9,1.6,2.8c-0.1,1.3-0.9,3.3-1.7,3.6
					c-4,1.5-8,2.4-12.3,3.7C283.1,243.1,289.8,238,294.4,240z M272.3,257.9c-0.3-0.4-0.7-0.9-1-1.3c2.1-3.2,4.2-6.4,7.2-11
					C279.4,254.3,275.8,256.1,272.3,257.9z M268.9,227.9c0.6-0.3,1.3-0.6,1.9-0.9c2.2,3.1,4.3,6.2,6.5,9.3c-2.9,2.5-5.9,5.1-8.8,7.6
					c-0.7-0.6-1.4-1.2-2-1.8C267.2,237.4,268.1,232.7,268.9,227.9z M267.5,295.7c0,3.4-2.9,8-5.3,8.8c-1.6-9.9-3.1-19.5-4.8-30.6
					C265.6,279.4,267.5,286.9,267.5,295.7z M250.1,226.8c3.8,1.5,7.5,3.7,11.2,5.6c0.2,0.9,0.3,1.8,0.5,2.7
					c-2.5,2.6-4.9,5.3-7.4,7.9c-2.4-4.1-5-8-7.1-12.3C247,230.3,249.5,226.6,250.1,226.8z M254.8,259.8c0,8.8-1.9,10.5-10.1,8.9
					C248.4,265.4,251.2,263,254.8,259.8z M240.1,266c-0.6-8.5,6-15.2,12.1-12.7c0.6,0.2,1.4,1.2,1.3,1.8c0,1-0.4,2.5-1,2.9
					C248.6,260.6,244.6,263.1,240.1,266z M236.7,243.2c0.7-2.8,2.1-5.4,3.5-8.7c2.5,4,5.3,8.6,8.7,14.1c-3.2,0.9-5.5,1.9-7.9,2.2
					c-1.3,0.2-3.4-0.4-3.9-1.5C236.4,247.7,236.3,245.1,236.7,243.2z M238.3,273.5c-3.7,5.1-7.4,10.2-11.2,15.5
					c-5.5-8.1-4.5-12.2,2.4-14.2c2.7-0.8,5.4-1.7,8.2-2.6C237.8,272.7,238.1,273.1,238.3,273.5z M228.6,231.7c1.8-2.3,3.4-4.3,4.7-6
					c1,3.2,1.4,5.3,2.2,7.3c2.1,5.2-0.1,9.6-5.8,11.7c1.4,3,3.7,5.9,3.9,9c0.2,2.6-2.1,5.4-3.3,8.1c-1.2-2-3.2-3.7-3.6-5.9
					c-1.5-8.1-2.6-16.4-4-25.8C225.9,231,227.5,231.4,228.6,231.7z M221,239.3c0.3,5.5,0.7,11,1.1,18.5c-2.5-2.1-4.3-3.7-5.6-4.8
					c1.1-5.9,1.9-10,2.6-14.1C219.8,239,220.4,239.2,221,239.3z M209.8,228.2c0.1-0.7,4.9-1.1,5.7,0.1c1.5,2.3,2.3,6.1,2.2,9.1
					c-0.1,2.3-2.1,4.5-3.7,7.5c-1.9-1.2-5.3-2.2-5.4-3.8C208.2,236.9,208.9,232.4,209.8,228.2z M207.8,246.6
					c1.3,0.4,2.5,1.5,3.5,2.7c2.6,3.4,4.6,7.6,7.5,10.4c4.9,4.6,5.4,8.1-0.4,11c-5.7,2.9-8.5,6.7-7.2,14.6
					c-7.5-3.5-9.2-7.1-7.4-14.2c-4.5-6-8.9-11.6-13.1-17.6c-1.2-1.7-1.8-4.4-2.2-6.8c-0.6-4.1,1.3-5.3,4.1-4.6
					C197.7,243.6,202.8,245,207.8,246.6z M181.7,286.3c-1.6-1.7-2.2-6.5-1.7-9.6c1.2-7.9,0.5-15-2.8-22c-3.7-7.9-2.9-11.1,3.4-15.9
					c1.5-1.2,3.3-1.9,4.7-3.1c3-2.5,4.3-0.6,5.6,3.1c-1.7,0.8-3.1,1.5-4.7,2.3c-0.2,7.6,1.6,13.8,6.4,18.9c3.7,3.9,7,7.8,7,15.5
					c0,3.9,5,8.2,8.1,11.5c7,7.5,14.5,13.9,12.9,28.1c-0.9,7.4,0.5,15.2,0.7,22.8c0.1,2.1-0.4,4.2-0.7,6.3
					c-10.8-14-22.6-24.4-35.4-32.9c-3.4-2.3-4-5-1.8-9.2C186.5,296.5,186.4,291.4,181.7,286.3z M170.1,287.6c0.8-3.9-2-7.3-6-6.7
					c-9.2,1.5-9.5,1.3-13.9-8.8c-0.5-1.2-0.8-2.8-1.6-3.5c-7.7-7-4.3-15.5-2.1-23.9c0.3-1,0.4-2.1,0.5-3.2c0-0.3-0.3-0.7-0.7-1.5
					c-1.5,0.8-3.1,1.7-4.9,2.7c-1.1-1.6-2.2-3.2-3.1-4.5c5.1-1.9,9.9-4.6,14.9-5.1c3.1-0.3,6.4,3.3,9.8,3.9c4.5,0.8,5,4.1,5.6,8.8
					c0.4,3.4,2.2,6.6,3.7,9.5c3.4,6.6,3.6,13.5,1.7,20.7c-1.6,5.9-0.3,11.1,2.8,15.5c2.7,3.7,2.2,6.7-1,10
					C172.5,297.8,168.5,295.5,170.1,287.6z M172.9,323.5c-4.7-3-5.5-6.6-3-12.3C174.3,314.5,174.3,318.4,172.9,323.5z M60.5,301.3
					c2,1.1,4.1,1.8,5.8,3.4c0.9,0.8,0.9,3.1,1.3,4.8c-1.6,0.1-3.7,1.1-4.6,0.2c-1.6-1.7-2.4-4.5-3.5-6.8
					C59.8,302.3,60.1,301.8,60.5,301.3z M56.2,275.5c0.9,2.5,1.7,5,2.7,7.8c4.7-0.4,6.6,1.9,6.8,9.5
					C55.2,291.8,54.1,290.1,56.2,275.5z M59.6,271.9c0.9-0.5,2.4-1.3,4-2.2v-4.8c2,0.3,3.9,0.6,5.7,1c1,0.2,2.6,0.2,3,1
					c5.7,11.4,16.6,11.6,24.5,18.4c4.9,4.3,10.9,6.6,16.4,9.8c1.1,0.7,3.2,1.8,3.1,2.2c-1.3,8.5,6.3,11.1,7.6,17.4
					c-7.3-3.3-15.1-4.8-20.8-9.9c-6.5-5.7-13.6-3.1-20.1-6.1c-6-2.8-12-4.1-14.7-13.2C66.7,280.6,62.7,276.8,59.6,271.9z
					 M121.9,303.1c-0.8-1.9-0.6-4.7-0.3-7c0.5-3.7,1-7.6,2.3-10.9c0.9-2.2,3.2-3.4,4.9-5c1,2.1,3.2,4.5,2.9,6.1
					c-1.3,6.5,0.6,10.5,4.6,14.3c2.3,2.1,3.5,5.9,4.5,7.5c7.4,3.8,13.6,6.9,19.7,10.3c1,0.5,2.2,3.3,1.9,4
					c-3.5,7.7-0.1,10.9,5.2,14.4c-1.1,0.2-2.4,0.9-3.4,0.5c-10-4.2-20-8.5-29.9-13.1c-1.7-0.8-3.4-2.7-4.4-4.6
					C126.9,314.2,124.2,308.8,121.9,303.1z M157.7,303.5c2.5,1.8,3.9,6,6.2,9.7c-11.6,0.1-27.2-13.3-28.7-24.1
					C142.9,294,150.6,298.3,157.7,303.5z M140.4,274.6c0.8-1.1,1.4-2.6,1.6-3.1c6.9,9,13.1,17.1,19.3,25.2c-0.1,0.4-0.2,0.7-0.3,1.1
					c-2.8-1.6-5.7-3-8.4-4.7c-3.8-2.4-7.7-4.8-11.3-7.7C136.4,281.4,136.4,280,140.4,274.6z M193.8,227.8c6.3-8.5,6.3-8.5,13-6.3
					c0,4.9,0.1,9.1-0.1,13.2c0,1.2-0.6,3.4-1.1,3.4c-3.6,0.5-7.6,1.9-10.9,0.5C190.6,236.9,190.6,232.2,193.8,227.8z M191,223.1
					c-0.8,2.1-1.6,4.2-2.9,7.7c-1.6-3.7-2.5-5.6-4.2-9.3C187.2,222.3,189.1,222.7,191,223.1z M169.5,222.3
					c9.8-1.9,10.8-0.9,15.4,9.8c-3.3,2.3-6.7,4.5-8.7,5.9c-4.9-2.8-8.7-5-13.9-8C165.1,227,167.1,222.8,169.5,222.3z M163.8,224.3
					c-4.1,4.5-7,5.9-10.7,0H163.8z M151.4,231.9c-5.4,0.4-10,0.7-16,1.1C140,224.1,147.3,223.7,151.4,231.9z M124,224.8
					c2.1,10.5,6.3,18.4,13.9,23.1c4.2,2.6,2.4,6,1,11c-2.8-5-8.3-5.6-8-12.8c0-0.7-1-1.9-1.7-2.3C122.7,239.6,122.7,232.7,124,224.8
					z M116,223.8c1.1,2,2.9,3.9,3.2,6.1c0.3,2.8,1.9,6.9-2.1,8.2c-0.9-4.4-1.8-8.8-2.6-13.1C115,224.6,115.5,224.2,116,223.8z
					 M117.1,238.3c6.4,8.8,12.8,17.5,19.5,26.6c-9.9,4.7-22.5-4.4-23.5-16.3C112.7,244.6,112.7,239.8,117.1,238.3z M90.9,232.7
					c2.8-1.7,5.8-4.2,8.6-4c3.1,0.3,6.2,3,9,5.1c0.8,0.6,1,3.2,0.9,4.9c-0.2,3.4-1.1,6.7-1.1,10c0.1,3,1.1,5.9,1.8,9.2
					c-5.2-0.8-10.1-1.5-15-2.5c-1-0.2-2.5-1.5-2.8-2.6c-1.2-5.3-2.2-10.7-3-16.2C89.2,235.5,90.1,233.3,90.9,232.7z M89.2,260.9
					c1.7,0.1,3.5,0.1,5.2-0.4c10.8-3.2,19.7,1,27.4,10.5c2.7,3.4,3.7,6.3-0.1,9.9c-1.5,1.4-2.4,4.4-2.7,6.9c-0.5,4.4-1.8,5.5-5,3.8
					c-8.8-4.9-17.8-9.1-26.3-14.8c-8.5-5.7-8.7-7.1-12.6-20.6c3.1,2.2,4.9,3.4,6.6,4.7c0-0.4,0-0.7,0-1.1
					C84.3,260.2,86.8,260.7,89.2,260.9z M85,249c-2.5-0.8-4.8-1-6.7-2.4c-1.1-0.9-1.8-3.6-1.8-5.4c0-0.8,2.2-1.8,3.5-2.3
					c1.8-0.8,3.7-1.3,6.5-2.3C86.1,240.6,85.6,244.4,85,249z M52.7,230.4c3.7-2.1,7.5-3.9,11.2-5.7c0.3-0.2,0.9-0.3,1-0.1
					c5.8,6.5,11.9,0.9,17.8,0.7c0.3,0,0.6,0.3,1.5,0.8c-0.1,1.9-0.1,3.7-0.4,5.4c-0.3,1.8-1,3.5-1.5,5.3c-1.2-0.7-2.6-1.1-3.5-2.2
					c-3.7-4.4-8.1-3.3-12.3-2.3c-4.3,1-8.6,2.5-12.9,3.5c-0.9,0.2-2-1-3-1.6C51.2,232.8,51.7,230.9,52.7,230.4z M51.5,275.9
					c0.9,1.5-0.4,4.9-0.8,7.4c-2.3-1.8-4.7-3.6-7.4-5.7C46.8,272.3,49.7,272.9,51.5,275.9z M-7.9,256.5c2,0.9,4,1.7,7.4,3.2
					c0.7,0.1,2.5,0.3,4.2,0.6c1,0.2,2.2,1.1,2.8,0.7c5.2-4.2,8.2-0.8,10.7,5.4c5.1-5.5,10.2-4.3,14.7,0c1.2,1.1,1.7,6.5,1,7
					c-3.6,3-7.7,5.1-11.9,7.1c2.7-0.6,5.2,1.5,8.7,0.3c2.9-0.9,8.4-3.4,8.6,5.4c0,1.5,2,2.9,3.4,4.9c-5.6,0-10.6,0.8-15.4-0.2
					c-8.8-1.8-18.4-1.4-25.1-11.1c-3.6-5.2-7.4-10.1-10.4-15.8C-9.9,262.7-8.3,259.1-7.9,256.5z M120.3,349.3
					c-16-7.2-31.9-14.8-48-21.6c-9.3-3.9-19.1-5.8-28.4-9.7c-9.7-4-20-5.9-28.3-15c-7.5-8.2-16.3-14.6-24.3-22
					c-1.2-1.1-1.8-3.4-2.7-5.2c0.4-0.6,0.9-1.1,1.3-1.7c1.3,0.9,2.8,1.5,3.7,2.8c7,10.4,16.2,15.1,26.6,16.9
					c9.6,1.7,19.2,3.2,28.9,4.6c5.1,0.7,8.1,5,10.6,10c2.6,5.4,5.9,6.6,9.4,2.1c2.9-3.7,5.2-3.2,8.6-1.4c3.2,1.8,6.9,2,10.2,3.6
					c2.5,1.2,6.2,3.1,6.7,5.5c1.8,9.4,8.5,12.2,13.5,17.1c2.7,2.7,6.4,4,9.8,5.1c5.3,1.7,9.2,5.5,13.2,12.3
					C126.6,351.4,123.3,350.7,120.3,349.3z M133.7,350c-5.5-8.1-12.2-12.6-20.2-15.8c-5.1-2-9.5-6.9-14-10.8
					c-1.1-0.9-1.4-3.3-2.2-5.2c13-2.3,46.8,18.6,46.2,40.5C139.6,355.3,136,353.4,133.7,350z M205.8,437.6c-6-8.8-11.9-17.9-18-26.7
					c-4.5-6.4-9.3-12.3-14-18.5c-11.8-15.8-22.9-32.2-30.9-51.6c-0.4-0.9-0.4-1.9-0.8-3.8c2.5,0.6,4.4,0.9,6.2,1.6
					c8.8,3.8,18.2,6.4,26,12.2c5.7,4.3,9.8,12.7,13.8,19.9c3.4,6.2,6.5,12.9,5.5,21.3c-0.2,2.1,1.5,4.5,2.2,6.7
					c4.5,13.4,8.9,26.8,13.7,41.3C207.8,439,206.5,438.6,205.8,437.6z M225.5,442.8c-0.5,0.3-1,0.6-1.5,1c-1.8-3.5-4.1-6.8-5.4-10.6
					c-4.8-14.3-8.8-29-13.9-43.1c-5.7-15.9-12.3-31.4-18.5-47.1c-2.8-7.1-5.3-14.3-7.9-21.5c0.7-0.6,1.5-1.2,2.2-1.8
					c12.7,7.4,24.3,16.8,32.9,31.1c2,3.3,4.8,8.3-1.7,9.9c0.3,0.7,0.4,1.3,0.6,1.5c8.7,5,10.7,14.5,11.1,25.5
					c0.6,16.9,1.6,33.8,2.3,50.7C225.9,439.8,225.7,441.3,225.5,442.8z M235,342.9c0,2.3-0.9,4.6-1.4,6.9c-0.7-0.2-1.4-0.4-2-0.5
					c0.5-4.7,1-9.3,1.5-15.1c-3.3-3.1-2.7-8.8-1.8-14.3c0.9-5.9,0.2-10.9-3.2-15.5c-3.8-5.1-2.6-10.8,2.3-14.6
					c0.7-0.6,1.6-1.3,1.9-2.3c3.4-11.1,11.1-13.5,19.8-15.3c0.9,8.1,1.8,16.2,2.7,24.3c0.2,1.7,0.1,3.4,0.3,5.1
					c0.8,5.9,0.8,10-4.6,14.1C242.5,321.5,234.9,329.1,235,342.9z M255.9,321.6c-1.1,16-10.5,25.9-17.1,37.6
					C243.2,345.9,240.4,327.7,255.9,321.6z M240.4,439.2c-1.3-21.4-6.1-43.4,1-63.7c6.3-18.2,14.7-35.5,26.4-49.2l2.9,2.1
					c-1.8,4.7-3.1,9.8-5.5,13.8c-2.3,3.8-2.3,6.9-1.5,11.2c1,5.6,1.1,11.4,1.6,17.2c-0.6,0.1-1.3,0.2-1.9,0.3
					c-0.5-2.6-1.1-5.1-1.6-7.7H261c-0.1,0.8-0.4,1.6-0.3,2.3c1.6,14.7-1.8,27.7-7.5,40.5c-4.1,9.2-6.6,19.4-9.9,29.1
					C242.6,436.7,241.7,438,240.4,439.2z M290.9,431.4c-1.3,10-2.4,20.1-4.8,29.7c-1.1,4.4-4.3,9.2-7.6,11.3
					c-6,3.9-8.8,10.7-12.5,16.8c-1.7,2.8-2.7,6.5-4.7,9c-1.7,2.1-4.5,4.1-6.6,3.8c-1.9-0.2-4.8-3.4-5.1-5.7
					c-1.2-9-2.7-18.4-1.9-27.3c1.7-18.5,6.1-36.5,14.2-52.1c5.4-10.4,13.2-18.8,20.2-27.9c2.9-3.8,6.3-6.8,9.5-10.2
					c0.5,0.4,1,0.7,1.6,1.1c-1,10.3-2,20.7-3.2,33.1C293.3,417.1,291.8,424.3,290.9,431.4z M383.8,374.5c4.1-11.4,12-13,20.4-14.1
					C402.8,367.4,393.4,373.8,383.8,374.5z M405.8,347.9c-0.9,5.5-3.1,8.1-7.5,8.9c-6.6,1.3-11.9,5.4-15.9,12.4
					c-0.8,1.4-1.8,2.5-3.4,4.6c-0.6-8.7-1.1-16.1-1.7-23.5c-0.3,0-0.7,0-1,0c0.2,3.7,0.2,7.4,0.6,11c1.3,10.5-1.7,20.4-9,25.3
					c-8.9,6-15.9,14.3-22.6,23.6c-8.4,11.6-17.8,22-27.2,32.5c-2.9,3.2-6.7,5.5-10.4,7.2c-3.9,1.8-8.2,2.5-13.1,3.9
					c-0.1-11.9,2.4-22,6.4-31.6c3.8-9.1,6.9-19,11.6-27.3c6.2-11,9.2-23.1,11.8-35.7c1.4-6.8,5-9.6,10.7-9.6c2.7,0,5.3-3,8.1-4.3
					c2.1-1,4.4-1.3,7.5-2.2c-0.1-7.8,6.5-10.3,11.4-14.6c6.1-5.4,12.2-10.6,18.4-15.8c8.1-6.9,16.3-13.7,26.7-13.6
					c8.5,0.1,15.1-5.3,21.6-11.8c3.7-3.6,8.2-5.8,12.3-8.9c2-1.5,3.6-3.8,5.5-5.7c1.2-1.2,2.5-2.7,3.9-2.9c0.8-0.1,1.9,2.2,2.5,3.7
					c2.8,7.6,3.3,15.1-0.4,22.6c-2.4,4.8-4.3,10-7,14.4c-1.2,2-3.8,3.9-5.7,3.7c-8.4-1-14.1,4.8-19.7,11.3c-0.9,1.1-1.7,3-2.7,3.2
					C408.5,329.8,407.1,339,405.8,347.9z M447.2,312.7c2.1-4.3,3.7-7.6,5.9-12.3C456.2,310.1,455.5,311.4,447.2,312.7z M436.5,322.4
					c-2.8,1.8-5.6,3.6-8.4,5.4c-0.4-0.9-0.8-1.7-1.2-2.6c2.7-2,5.4-4.1,8.1-6.1C435.5,320.3,436,321.3,436.5,322.4z M412.4,364
					c-0.2-4.7-0.5-7.6-0.5-10.5c-0.3-10.9-0.2-10.6,7.7-15.3c6.1-3.6,11.8-8.2,17.8-12c1.9-1.2,4.4-1.8,6.6-1.7
					c5.4,0.1,10.7,0.8,16.6,1.3c0.3,5.6-1.8,10.6-7.1,14c-9.8,6.2-19.4,13.1-29.3,19.3C420.8,361.1,416.9,362.1,412.4,364z
					 M536.3,286.2c-5.1,13.2-12.7,23.8-21.5,33.3c-11.1,12-23.8,20.5-37.8,24.4c-13.3,3.7-25.4,10.6-37.7,17c-0.9,0.5-2,0.3-4.1,0.6
					c7.2-6,13.4-11.3,19.6-16.2c4.7-3.8,9.2-7.4,11.2-14.7c0.9-3.5,3-6.6,4.9-9.5c2.7-4.1,5.1-8,3.5-13.9c-0.3-1.3,0.8-4.2,1.9-5
					c6.3-4.6,8-12.2,9.1-20.5c0.4-3.1,1-6.1,1.8-10.6c7.1,1.4,13.8,3.4,20.5,4c4.7,0.4,9.3,2.1,14.3,0c3.5-1.5,7.8-0.9,11.7-0.3
					C536.9,275.3,538.1,281.4,536.3,286.2z M539.9,266.8c0.8-7.5,1.6-14.9,2.5-22.7h11.9c-4.9,9-9,16.3-13,23.6L539.9,266.8z
					 M553.9,271.1c-1.8,2.4-5.2,2.8-8,3.7c-0.4,0.1-2.1-3.1-1.8-3.7c3.8-7.1,7.8-14,11.8-20.9c0.1-0.3,0.7-0.2,2-0.4
					C557.9,257.8,558.2,265.4,553.9,271.1z"/>
			</g>
		</g>
	</g>
</g>
</svg>
