<?xml version="1.0" encoding="utf-8"?>
<!-- Generator: Adobe Illustrator 24.3.0, SVG Export Plug-In . SVG Version: 6.00 Build 0)  -->
<svg version="1.1" id="Layer_1" xmlns="http://www.w3.org/2000/svg" xmlns:xlink="http://www.w3.org/1999/xlink" x="0px" y="0px"
	 viewBox="0 0 2500 600" style="enable-background:new 0 0 2500 600;" xml:space="preserve">
<style type="text/css">
	.st0{fill:#FF9738;}
	.st1{fill:#50960F;}
	.st2{fill:#FACF5A;}
	.st3{fill:#50960F;stroke:#231F20;stroke-width:0.9321;}
	.st4{fill:#50960F;stroke:#000000;stroke-width:0.3;}
	.st5{fill:#515151;}
	.st6{fill:#006837;}
</style>
<circle class="st0" cx="473" cy="501" r="243"/>
<g id="PgDVas_3_">
	<g>
		<path class="st1" d="M1651.9,536.7c-1.9-0.1-3.7-0.5-5.6-0.8c0.8-1.6,1.7-3.2,2.5-4.8c0.1-0.2-0.1-0.6-0.2-1.4h-17.4
			c2.7,2,4.9,3.6,7.1,5.4c-3.3,2.1-5.2-0.1-7.1-2.5c-2.2-2.9-5-4.9-7.9-2.3c-2.5,2.1-4.3,1.7-6.6,0.2c-0.8-0.5-1.9-1.1-2.8-1.1
			c-6.9,0.2-13.8,0.7-20.7,0.8c-11.3,0.1-22.6,0.1-33.9,0c-1.5,0-3.2-0.9-4.5-1.9c-3-2.4-8.4-2.4-11.5-0.7c-3,1.6-6.4,2.1-9.6,2.9
			c-2,0.5-4.7,0.1-6.1,1.4c-5.9,5.9-5.8,6.1-13,1.3c2.8-0.4,5.5-0.8,8.3-1.2c-2-1.5-4.8-1.1-5.8-2.4c-3.6-4.7-6.6-2-9.7,0.3
			c-3.5,2.7-8.5,2.1-12-1c-1.3-1.1-4.2-1.2-5.6-0.2c-2.3,1.5-3.9,2.9-6.9,1.8c-1.6-0.6-3.9,1.2-5.8,1.7c-1.6,0.5-4.3,1.6-4.6,1
			c-2.5-4.2-4.7-2.1-7.3,0.5c-2.5-3.3-3.7-8.8-9.1-7c-0.4,2-0.8,4.1-1.2,6.5c-2.8-1-5.2-2.4-7.7-2.5c-8.2-0.3-16.4-0.4-24.6-0.1
			c-3.6,0.1-7.2,1.7-10.7,1.6c-4.7-0.2-9.3-1.7-14-2c-2.5-0.1-5,1.3-7.4,2c0.8,4,1.4,6.9,2.2,10.6c-4.5-0.5-8.3-0.9-12.1-1.4
			l0.1-1.3c5.4,0.1,7.3-2.1,7.8-9.2c-2.9,0-5.7,0-8.6,0c-6,0.1-12.1,0-18.1,0.3c-2.9,0.1-5.8,1-9.2,1.6c-9.2,0.4-18.8-2.7-29.1-0.8
			c-10,1.8-20.5,0-31-0.3c0.2-1.8,0.2-2.6,0.4-3.4c0.2-0.5,0.4-1,0.6-1.6c-0.3,0-0.6,0.1-0.9,0.1c-1.3,0.4-2.6,0.6-3.9,0.8
			c-1.4,0.2-2.8,0.3-4.3,0.4c-1.1,0.1-2.1,0.3-3.2,0.4c-4.3,0.5-8.5,0.7-12.8,0.3c-0.4,0-0.8-0.1-1.2-0.2c-0.6,0-1.3,0-1.9,0
			c0.4,2.6,0.9,5.3,1.3,7.9c0.1,0.9,0.1,2-0.2,2.8c-0.5,1.1-1.3,2-2,3c1.2,0.1,2.5,0.3,3.9,0.4c1.1,3.5-0.1,5.1-3.3,5.2
			c-1.6,0.1-3.1,0.5-4.7,0.7c-4.8,0.7-9.6,1.4-14.4,2c-0.1-0.8-0.2-1.5-0.3-2.3c1.2-0.3,2.5-0.5,3.7-0.8c3.5-1,7.1-1.8,10.5-3.1
			c0.6-0.2,0.7-2.3,1-3.5c-1.2-0.4-2.3-0.9-3.5-1.2c-1.5-0.3-3.6,0.1-4.6-0.8c-1.8-1.8-3-4.4-4.4-6.7c-4.2,3.6-6,3.5-10,0.3
			c-4.2,0.3-7.2,0.5-10.3,0.6c-3.7,0.2-7.4,0.7-11,0.4c-5.6-0.5-11.6,1.9-16.8-2.6c-0.5-0.5-1.6-0.2-2.5-0.1
			c-4.6,0.4-9.3,1-13.9,1.1c-18.6,0.3-37.3,0.5-55.9,0.7c-2.4,0-4.8,0.7-7.2,0.6c-3.3-0.2-6.5-1.2-9.8-1.2
			c-21.8,0.2-43.6,0.7-65.5,0.7c-12,0-24-0.8-36-1c-14.9-0.2-29.8,0-44.7,0.1v74h127.7c0.5-2.7,0.9-5.3,1.5-8.3
			c3.1,1.5,3.4,4.9,3.7,8.3h173.8c-0.3-2.6-0.5-5.2-0.8-8.2c3.1,1.2,5.3,3.6,5.2,8.2h16.5c0.7-2.3,1.4-4.5,2-6.8
			c0.5-1.6,0.8-3.3,1.4-5.8c3.8,4,7.2,7.2,7.8,12.6h63.4c0.5-4.3,3.6-7.2,7.5-7c4.4,0.2,3.9,3.7,3.8,7h33c1.6-3.6,4.8-3.3,7.6-3.5
			c0.6,0,1.3,2.3,2,3.5h9.6c-1.3-3.2-2.5-6.3-3.9-9.8c2-0.5,3.5-0.9,4.5-1.2c2,2.7,3.8,5.2,5.6,7.6l1.2-0.9c0.1,1.4,0.3,2.9,0.4,4.3
			h8.7l-3.1-7.2c0.4-0.3,0.9-0.5,1.3-0.8c2.1,2.6,4.1,5.2,6.2,7.8c-0.7-3.5-1.3-6.9-2-10.4c0.5-0.1,0.9-0.2,1.4-0.4
			c1.1,3.7,2.1,7.3,3.2,11h3.5c-0.8-1.5-1.6-3-2.9-5.6c3.8,1.1,7.1,0.7,7.2,5.6h198.1v-69C1657.2,536.9,1654.5,536.9,1651.9,536.7z
			 M1116.2,558.5c2.9-2.3,5.8-4.6,9.1,0.7C1121.8,558.9,1119,558.7,1116.2,558.5z M1205.2,601.7c-2.4-1.2-2.7-3.1-0.3-6.5
			c1.1,2.4,2,4.2,2.8,6C1206.8,601.4,1205.8,602,1205.2,601.7z M1236,578.4l0.1-1.6c3.1,0,6.2-0.2,9.2,0.2c0.5,0.1,0.7,3.2,1.1,5.4
			C1242.3,580.9,1239.1,579.6,1236,578.4z M1299.7,550.9c-1.2,0.6-2.3,1.3-3.4,1.9c3.3-6.2,3.3-6.2,6.9-3.7
			C1301.9,549.8,1300.8,550.3,1299.7,550.9z M1310,542.1c-2.2-0.1-4.3-0.5-6.5-0.8c0.1-0.7,0.1-1.4,0.2-2.1c2.1-0.3,4.1-0.7,6.2-0.7
			c0.6,0,1.2,1.2,1.8,1.8C1311.1,540.9,1310.6,542.1,1310,542.1z M1373,542.9c-1,0.3-2.1,0-3,0.5c-5.4,3.1-10.2-2-15.4-1.3
			c-0.5,0.1-1.3-2.3-1.8-3.4c2.6-4.2,5.1-0.7,7.6-0.6c2.4,0,4.7-0.1,7.1-0.2c2.6,0.9,4.8,3.1,7.2-2.3c1,2.5,1.5,4.1,2.1,5.6
			C1375.5,541.9,1374.3,542.5,1373,542.9z M1395.4,602.8c-1.5-2.5-3.1-5-2-8.4c0.4-0.2,0.9-0.3,1.3-0.5c0.8,2.8,1.6,5.5,2.5,8.3
			C1396.6,602.4,1396,602.6,1395.4,602.8z M1395.7,544.1c-0.2-0.5-0.3-1.1-0.5-1.6c1.5-0.6,3-1.8,4.4-1.7c0.7,0.1,1.4,2.4,2.5,4.7
			C1399.1,544.8,1397.4,544.4,1395.7,544.1z M1425,549.6c-3.1-3,4.8-6.1-0.2-8.9c-2.1,2.2-4,4.3-6,6.3c-0.3-0.1-0.7-0.2-1-0.3
			c0.4-2.4,0.3-5.3,1.4-6.9c1.1-1.6,4.6-3.1,5.4-2.3c2.5,2.3,4.2,5.7,6.5,9.2C1428.2,548.1,1426.6,548.9,1425,549.6z"/>
		<path class="st1" d="M1258.3,534.3c-1.3,1-2.5,2.2-3.9,3c-0.1,0.1-1-1.2-1.5-1.9c1.3-1.1,2.7-2.2,4-3.3
			C1257.4,532.9,1257.9,533.6,1258.3,534.3z"/>
	</g>
	<g>
		<path class="st2" d="M1651.9,536.7c-1.9-0.1-3.7-0.5-5.6-0.8c0.8-1.6,1.7-3.2,2.5-4.8c0.1-0.2-0.1-0.6-0.2-1.4h-17.4
			c2.7,2,4.9,3.6,7.1,5.4c-3.3,2.1-5.2-0.1-7.1-2.5c-2.2-2.9-5-4.9-7.9-2.3c-2.5,2.1-4.3,1.7-6.6,0.2c-0.8-0.5-1.9-1.1-2.8-1.1
			c-6.9,0.2-13.8,0.7-20.7,0.8c-11.3,0.1-22.6,0.1-33.9,0c-1.5,0-3.2-0.9-4.5-1.9c-3-2.4-8.4-2.4-11.5-0.7c-3,1.6-6.4,2.1-9.6,2.9
			c-2,0.5-4.7,0.1-6.1,1.4c-5.9,5.9-5.8,6.1-13,1.3c2.8-0.4,5.5-0.8,8.3-1.2c-2-1.5-4.8-1.1-5.8-2.4c-3.6-4.7-6.6-2-9.7,0.3
			c-3.5,2.7-8.5,2.1-12-1c-1.3-1.1-4.2-1.2-5.6-0.2c-2.3,1.5-3.9,2.9-6.9,1.8c-1.6-0.6-3.9,1.2-5.8,1.7c-1.6,0.5-4.3,1.6-4.6,1
			c-2.5-4.2-4.7-2.1-7.3,0.5c-2.5-3.3-3.7-8.8-9.1-7c-0.4,2-0.8,4.1-1.2,6.5c-2.8-1-5.2-2.4-7.7-2.5c-8.2-0.3-16.4-0.4-24.6-0.1
			c-3.6,0.1-7.2,1.7-10.7,1.6c-4.7-0.2-9.3-1.7-14-2c-2.5-0.1-5,1.3-7.4,2c0.8,4,1.4,6.9,2.2,10.6c-4.5-0.5-8.3-0.9-12.1-1.4
			l0.1-1.3c5.4,0.1,7.3-2.1,7.8-9.2c-2.9,0-5.7,0-8.6,0c-6,0.1-12.1,0-18.1,0.3c-2.9,0.1-5.8,1-9.2,1.6c-9.2,0.4-18.8-2.7-29.1-0.8
			c-10,1.8-20.5,0-31-0.3c0.2-1.8,0.2-2.6,0.4-3.4c0.2-0.5,0.4-1,0.6-1.6c-0.3,0-0.6,0.1-0.9,0.1c-1.3,0.4-2.6,0.6-3.9,0.8
			c-1.4,0.2-2.8,0.3-4.3,0.4c-1.1,0.1-2.1,0.3-3.2,0.4c-4.3,0.5-8.5,0.7-12.8,0.3c-0.4,0-0.8-0.1-1.2-0.2c-0.6,0-1.3,0-1.9,0
			c0.4,2.6,0.9,5.3,1.3,7.9c0.1,0.9,0.1,2-0.2,2.8c-0.5,1.1-1.3,2-2,3c1.2,0.1,2.5,0.3,3.9,0.4c1.1,3.5-0.1,5.1-3.3,5.2
			c-1.6,0.1-3.1,0.5-4.7,0.7c-4.8,0.7-9.6,1.4-14.4,2c-0.1-0.8-0.2-1.5-0.3-2.3c1.2-0.3,2.5-0.5,3.7-0.8c3.5-1,7.1-1.8,10.5-3.1
			c0.6-0.2,0.7-2.3,1-3.5c-1.2-0.4-2.3-0.9-3.5-1.2c-1.5-0.3-3.6,0.1-4.6-0.8c-1.8-1.8-3-4.4-4.4-6.7c-4.2,3.6-6,3.5-10,0.3
			c-4.2,0.3-7.2,0.5-10.3,0.6c-3.7,0.2-7.4,0.7-11,0.4c-5.6-0.5-11.6,1.9-16.8-2.6c-0.5-0.5-1.6-0.2-2.5-0.1
			c-4.6,0.4-9.3,1-13.9,1.1c-18.6,0.3-37.3,0.5-55.9,0.7c-2.4,0-4.8,0.7-7.2,0.6c-3.3-0.2-6.5-1.2-9.8-1.2
			c-21.8,0.2-43.6,0.7-65.5,0.7c-12,0-24-0.8-36-1c-14.9-0.2-29.8,0-44.7,0.1v74h127.7c0.5-2.7,0.9-5.3,1.5-8.3
			c3.1,1.5,3.4,4.9,3.7,8.3h173.8c-0.3-2.6-0.5-5.2-0.8-8.2c3.1,1.2,5.3,3.6,5.2,8.2h16.5c0.7-2.3,1.4-4.5,2-6.8
			c0.5-1.6,0.8-3.3,1.4-5.8c3.8,4,7.2,7.2,7.8,12.6h63.4c0.5-4.3,3.6-7.2,7.5-7c4.4,0.2,3.9,3.7,3.8,7h33c1.6-3.6,4.8-3.3,7.6-3.5
			c0.6,0,1.3,2.3,2,3.5h9.6c-1.3-3.2-2.5-6.3-3.9-9.8c2-0.5,3.5-0.9,4.5-1.2c2,2.7,3.8,5.2,5.6,7.6l1.2-0.9c0.1,1.4,0.3,2.9,0.4,4.3
			h8.7l-3.1-7.2c0.4-0.3,0.9-0.5,1.3-0.8c2.1,2.6,4.1,5.2,6.2,7.8c-0.7-3.5-1.3-6.9-2-10.4c0.5-0.1,0.9-0.2,1.4-0.4
			c1.1,3.7,2.1,7.3,3.2,11h3.5c-0.8-1.5-1.6-3-2.9-5.6c3.8,1.1,7.1,0.7,7.2,5.6h198.1v-69C1657.2,536.9,1654.5,536.9,1651.9,536.7z
			 M1116.2,558.5c2.9-2.3,5.8-4.6,9.1,0.7C1121.8,558.9,1119,558.7,1116.2,558.5z M1205.2,601.7c-2.4-1.2-2.7-3.1-0.3-6.5
			c1.1,2.4,2,4.2,2.8,6C1206.8,601.4,1205.8,602,1205.2,601.7z M1236,578.4l0.1-1.6c3.1,0,6.2-0.2,9.2,0.2c0.5,0.1,0.7,3.2,1.1,5.4
			C1242.3,580.9,1239.1,579.6,1236,578.4z M1299.7,550.9c-1.2,0.6-2.3,1.3-3.4,1.9c3.3-6.2,3.3-6.2,6.9-3.7
			C1301.9,549.8,1300.8,550.3,1299.7,550.9z M1310,542.1c-2.2-0.1-4.3-0.5-6.5-0.8c0.1-0.7,0.1-1.4,0.2-2.1c2.1-0.3,4.1-0.7,6.2-0.7
			c0.6,0,1.2,1.2,1.8,1.8C1311.1,540.9,1310.6,542.1,1310,542.1z M1373,542.9c-1,0.3-2.1,0-3,0.5c-5.4,3.1-10.2-2-15.4-1.3
			c-0.5,0.1-1.3-2.3-1.8-3.4c2.6-4.2,5.1-0.7,7.6-0.6c2.4,0,4.7-0.1,7.1-0.2c2.6,0.9,4.8,3.1,7.2-2.3c1,2.5,1.5,4.1,2.1,5.6
			C1375.5,541.9,1374.3,542.5,1373,542.9z M1395.4,602.8c-1.5-2.5-3.1-5-2-8.4c0.4-0.2,0.9-0.3,1.3-0.5c0.8,2.8,1.6,5.5,2.5,8.3
			C1396.6,602.4,1396,602.6,1395.4,602.8z M1395.7,544.1c-0.2-0.5-0.3-1.1-0.5-1.6c1.5-0.6,3-1.8,4.4-1.7c0.7,0.1,1.4,2.4,2.5,4.7
			C1399.1,544.8,1397.4,544.4,1395.7,544.1z M1425,549.6c-3.1-3,4.8-6.1-0.2-8.9c-2.1,2.2-4,4.3-6,6.3c-0.3-0.1-0.7-0.2-1-0.3
			c0.4-2.4,0.3-5.3,1.4-6.9c1.1-1.6,4.6-3.1,5.4-2.3c2.5,2.3,4.2,5.7,6.5,9.2C1428.2,548.1,1426.6,548.9,1425,549.6z"/>
		<path class="st1" d="M1258.3,534.3c-1.3,1-2.5,2.2-3.9,3c-0.1,0.1-1-1.2-1.5-1.9c1.3-1.1,2.7-2.2,4-3.3
			C1257.4,532.9,1257.9,533.6,1258.3,534.3z"/>
	</g>
	<g>
		<g>
			<path class="st3" d="M1258.3,534.3c-0.5-0.7-0.9-1.4-1.4-2.1c-1.3,1.1-2.7,2.2-4,3.3c0.5,0.7,1.3,1.9,1.5,1.9
				C1255.8,536.5,1257,535.4,1258.3,534.3z"/>
		</g>
		<line class="st4" x1="1198.3" y1="531.5" x2="1234.3" y2="531.5"/>
		<line class="st4" x1="1198.3" y1="537.9" x2="1234.3" y2="537.9"/>
		<line class="st4" x1="1252.3" y1="591.9" x2="1252.3" y2="555.9"/>
		<line class="st4" x1="1313" y1="531.5" x2="1277" y2="531.5"/>
		<line class="st4" x1="1313" y1="537.9" x2="1277" y2="537.9"/>
		<line class="st4" x1="1259" y1="591.9" x2="1259" y2="555.9"/>
	</g>
</g>
<g id="PgDVas_4_">
	<g>
		<path class="st1" d="M2209.4,536.3c-1.9-0.1-3.7-0.5-5.6-0.8c0.8-1.6,1.7-3.2,2.5-4.8c0.1-0.2-0.1-0.6-0.2-1.4h-17.4
			c2.7,2,4.9,3.6,7.1,5.4c-3.3,2.1-5.2-0.1-7.1-2.5c-2.2-2.9-5-4.9-7.9-2.3c-2.5,2.1-4.3,1.7-6.6,0.2c-0.8-0.5-1.9-1.1-2.8-1.1
			c-6.9,0.2-13.8,0.7-20.7,0.8c-11.3,0.1-22.6,0.1-33.9,0c-1.5,0-3.2-0.9-4.5-1.9c-3-2.4-8.4-2.4-11.5-0.7c-3,1.6-6.4,2.1-9.6,2.9
			c-2,0.5-4.7,0.1-6.1,1.4c-5.9,5.9-5.8,6.1-13,1.3c2.8-0.4,5.5-0.8,8.3-1.2c-2-1.5-4.8-1.1-5.8-2.4c-3.6-4.7-6.6-2-9.7,0.3
			c-3.5,2.7-8.5,2.1-12-1c-1.3-1.1-4.2-1.2-5.6-0.2c-2.3,1.5-3.9,2.9-6.9,1.8c-1.6-0.6-3.9,1.2-5.8,1.7c-1.6,0.5-4.3,1.6-4.6,1
			c-2.5-4.2-4.7-2.1-7.3,0.5c-2.5-3.3-3.7-8.8-9.1-7c-0.4,2-0.8,4.1-1.2,6.5c-2.8-1-5.2-2.4-7.7-2.5c-8.2-0.3-16.4-0.4-24.6-0.1
			c-3.6,0.1-7.2,1.7-10.7,1.6c-4.7-0.2-9.3-1.7-14-2c-2.5-0.1-5,1.3-7.4,2c0.8,4,1.4,6.9,2.2,10.6c-4.5-0.5-8.3-0.9-12.1-1.4
			l0.1-1.3c5.4,0.1,7.3-2.1,7.8-9.2c-2.9,0-5.7,0-8.6,0c-6,0.1-12.1,0-18.1,0.3c-2.9,0.1-5.8,1-9.2,1.6c-9.2,0.4-18.8-2.7-29.1-0.8
			c-10,1.8-20.5,0-31-0.3c0.2-1.8,0.2-2.6,0.4-3.4c0.2-0.5,0.4-1,0.6-1.6c-0.3,0-0.6,0.1-0.9,0.1c-1.3,0.4-2.6,0.6-3.9,0.8
			c-1.4,0.2-2.8,0.3-4.3,0.4c-1.1,0.1-2.1,0.3-3.2,0.4c-4.3,0.5-8.5,0.7-12.8,0.3c-0.4,0-0.8-0.1-1.2-0.2c-0.6,0-1.3,0-1.9,0
			c0.4,2.6,0.9,5.3,1.3,7.9c0.1,0.9,0.1,2-0.2,2.8c-0.5,1.1-1.3,2-2,3c1.2,0.1,2.5,0.3,3.9,0.4c1.1,3.5-0.1,5.1-3.3,5.2
			c-1.6,0.1-3.1,0.5-4.7,0.7c-4.8,0.7-9.6,1.4-14.4,2c-0.1-0.8-0.2-1.5-0.3-2.3c1.2-0.3,2.5-0.5,3.7-0.8c3.5-1,7.1-1.8,10.5-3.1
			c0.6-0.2,0.7-2.3,1-3.5c-1.2-0.4-2.3-0.9-3.5-1.2c-1.5-0.3-3.6,0.1-4.6-0.8c-1.8-1.8-3-4.4-4.4-6.7c-4.2,3.6-6,3.5-10,0.3
			c-4.2,0.3-7.2,0.5-10.3,0.6c-3.7,0.2-7.4,0.7-11,0.4c-5.6-0.5-11.6,1.9-16.8-2.6c-0.5-0.5-1.6-0.2-2.5-0.1
			c-4.6,0.4-9.3,1-13.9,1.1c-18.6,0.3-37.3,0.5-55.9,0.7c-2.4,0-4.8,0.7-7.2,0.6c-3.3-0.2-6.5-1.2-9.8-1.2
			c-21.8,0.2-43.6,0.7-65.5,0.7c-12,0-24-0.8-36-1c-14.9-0.2-29.8,0-44.7,0.1v74h127.7c0.5-2.7,0.9-5.3,1.5-8.3
			c3.1,1.5,3.4,4.9,3.7,8.3h173.8c-0.3-2.6-0.5-5.2-0.8-8.2c3.1,1.2,5.3,3.6,5.2,8.2h16.5c0.7-2.3,1.4-4.5,2-6.8
			c0.5-1.6,0.8-3.3,1.4-5.8c3.8,4,7.2,7.2,7.8,12.6h63.4c0.5-4.3,3.6-7.2,7.5-7c4.4,0.2,3.9,3.7,3.8,7h33c1.6-3.6,4.8-3.3,7.6-3.5
			c0.6,0,1.3,2.3,2,3.5h9.6c-1.3-3.2-2.5-6.3-3.9-9.8c2-0.5,3.5-0.9,4.5-1.2c2,2.7,3.8,5.2,5.6,7.6l1.2-0.9c0.1,1.4,0.3,2.9,0.4,4.3
			h8.7l-3.1-7.2c0.4-0.3,0.9-0.5,1.3-0.8c2.1,2.6,4.1,5.2,6.2,7.8c-0.7-3.5-1.3-6.9-2-10.4c0.5-0.1,0.9-0.2,1.4-0.4
			c1.1,3.7,2.1,7.3,3.2,11h3.5c-0.8-1.5-1.6-3-2.9-5.6c3.8,1.1,7.1,0.7,7.2,5.6h198.1v-69C2214.8,536.5,2212.1,536.5,2209.4,536.3z
			 M1673.8,558.1c2.9-2.3,5.8-4.6,9.1,0.7C1679.4,558.5,1676.6,558.3,1673.8,558.1z M1762.7,601.3c-2.4-1.2-2.7-3.1-0.3-6.5
			c1.1,2.4,2,4.2,2.8,6C1764.4,601,1763.4,601.6,1762.7,601.3z M1793.5,578l0.1-1.6c3.1,0,6.2-0.2,9.2,0.2c0.5,0.1,0.7,3.2,1.1,5.4
			C1799.9,580.5,1796.7,579.2,1793.5,578z M1857.3,550.5c-1.2,0.6-2.3,1.3-3.4,1.9c3.3-6.2,3.3-6.2,6.9-3.7
			C1859.5,549.4,1858.4,549.9,1857.3,550.5z M1867.6,541.7c-2.2-0.1-4.3-0.5-6.5-0.8c0.1-0.7,0.1-1.4,0.2-2.1
			c2.1-0.3,4.1-0.7,6.2-0.7c0.6,0,1.2,1.2,1.8,1.8C1868.7,540.5,1868.1,541.8,1867.6,541.7z M1930.6,542.5c-1,0.3-2.1,0-3,0.5
			c-5.4,3.1-10.2-2-15.4-1.3c-0.5,0.1-1.3-2.3-1.8-3.4c2.6-4.2,5.1-0.7,7.6-0.6c2.4,0,4.7-0.1,7.1-0.2c2.6,0.9,4.8,3.1,7.2-2.3
			c1,2.5,1.5,4.1,2.1,5.6C1933.1,541.5,1931.9,542.1,1930.6,542.5z M1953,602.4c-1.5-2.5-3.1-5-2-8.4c0.4-0.2,0.9-0.3,1.3-0.5
			c0.8,2.8,1.6,5.5,2.5,8.3C1954.1,602,1953.5,602.2,1953,602.4z M1953.2,543.7c-0.2-0.5-0.3-1.1-0.5-1.6c1.5-0.6,3-1.8,4.4-1.7
			c0.7,0.1,1.4,2.4,2.5,4.7C1956.7,544.4,1954.9,544.1,1953.2,543.7z M1982.6,549.2c-3.1-3,4.8-6.1-0.2-8.9c-2.1,2.2-4,4.3-6,6.3
			c-0.3-0.1-0.7-0.2-1-0.3c0.4-2.4,0.3-5.3,1.4-6.9c1.1-1.6,4.6-3.1,5.4-2.3c2.5,2.3,4.2,5.7,6.5,9.2
			C1985.8,547.7,1984.1,548.5,1982.6,549.2z"/>
		<path class="st1" d="M1815.9,533.9c-1.3,1-2.5,2.2-3.9,3c-0.1,0.1-1-1.2-1.5-1.9c1.3-1.1,2.7-2.2,4-3.3
			C1815,532.5,1815.4,533.2,1815.9,533.9z"/>
	</g>
	<g>
		<path class="st2" d="M2209.4,536.3c-1.9-0.1-3.7-0.5-5.6-0.8c0.8-1.6,1.7-3.2,2.5-4.8c0.1-0.2-0.1-0.6-0.2-1.4h-17.4
			c2.7,2,4.9,3.6,7.1,5.4c-3.3,2.1-5.2-0.1-7.1-2.5c-2.2-2.9-5-4.9-7.9-2.3c-2.5,2.1-4.3,1.7-6.6,0.2c-0.8-0.5-1.9-1.1-2.8-1.1
			c-6.9,0.2-13.8,0.7-20.7,0.8c-11.3,0.1-22.6,0.1-33.9,0c-1.5,0-3.2-0.9-4.5-1.9c-3-2.4-8.4-2.4-11.5-0.7c-3,1.6-6.4,2.1-9.6,2.9
			c-2,0.5-4.7,0.1-6.1,1.4c-5.9,5.9-5.8,6.1-13,1.3c2.8-0.4,5.5-0.8,8.3-1.2c-2-1.5-4.8-1.1-5.8-2.4c-3.6-4.7-6.6-2-9.7,0.3
			c-3.5,2.7-8.5,2.1-12-1c-1.3-1.1-4.2-1.2-5.6-0.2c-2.3,1.5-3.9,2.9-6.9,1.8c-1.6-0.6-3.9,1.2-5.8,1.7c-1.6,0.5-4.3,1.6-4.6,1
			c-2.5-4.2-4.7-2.1-7.3,0.5c-2.5-3.3-3.7-8.8-9.1-7c-0.4,2-0.8,4.1-1.2,6.5c-2.8-1-5.2-2.4-7.7-2.5c-8.2-0.3-16.4-0.4-24.6-0.1
			c-3.6,0.1-7.2,1.7-10.7,1.6c-4.7-0.2-9.3-1.7-14-2c-2.5-0.1-5,1.3-7.4,2c0.8,4,1.4,6.9,2.2,10.6c-4.5-0.5-8.3-0.9-12.1-1.4
			l0.1-1.3c5.4,0.1,7.3-2.1,7.8-9.2c-2.9,0-5.7,0-8.6,0c-6,0.1-12.1,0-18.1,0.3c-2.9,0.1-5.8,1-9.2,1.6c-9.2,0.4-18.8-2.7-29.1-0.8
			c-10,1.8-20.5,0-31-0.3c0.2-1.8,0.2-2.6,0.4-3.4c0.2-0.5,0.4-1,0.6-1.6c-0.3,0-0.6,0.1-0.9,0.1c-1.3,0.4-2.6,0.6-3.9,0.8
			c-1.4,0.2-2.8,0.3-4.3,0.4c-1.1,0.1-2.1,0.3-3.2,0.4c-4.3,0.5-8.5,0.7-12.8,0.3c-0.4,0-0.8-0.1-1.2-0.2c-0.6,0-1.3,0-1.9,0
			c0.4,2.6,0.9,5.3,1.3,7.9c0.1,0.9,0.1,2-0.2,2.8c-0.5,1.1-1.3,2-2,3c1.2,0.1,2.5,0.3,3.9,0.4c1.1,3.5-0.1,5.1-3.3,5.2
			c-1.6,0.1-3.1,0.5-4.7,0.7c-4.8,0.7-9.6,1.4-14.4,2c-0.1-0.8-0.2-1.5-0.3-2.3c1.2-0.3,2.5-0.5,3.7-0.8c3.5-1,7.1-1.8,10.5-3.1
			c0.6-0.2,0.7-2.3,1-3.5c-1.2-0.4-2.3-0.9-3.5-1.2c-1.5-0.3-3.6,0.1-4.6-0.8c-1.8-1.8-3-4.4-4.4-6.7c-4.2,3.6-6,3.5-10,0.3
			c-4.2,0.3-7.2,0.5-10.3,0.6c-3.7,0.2-7.4,0.7-11,0.4c-5.6-0.5-11.6,1.9-16.8-2.6c-0.5-0.5-1.6-0.2-2.5-0.1
			c-4.6,0.4-9.3,1-13.9,1.1c-18.6,0.3-37.3,0.5-55.9,0.7c-2.4,0-4.8,0.7-7.2,0.6c-3.3-0.2-6.5-1.2-9.8-1.2
			c-21.8,0.2-43.6,0.7-65.5,0.7c-12,0-24-0.8-36-1c-14.9-0.2-29.8,0-44.7,0.1v74h127.7c0.5-2.7,0.9-5.3,1.5-8.3
			c3.1,1.5,3.4,4.9,3.7,8.3h173.8c-0.3-2.6-0.5-5.2-0.8-8.2c3.1,1.2,5.3,3.6,5.2,8.2h16.5c0.7-2.3,1.4-4.5,2-6.8
			c0.5-1.6,0.8-3.3,1.4-5.8c3.8,4,7.2,7.2,7.8,12.6h63.4c0.5-4.3,3.6-7.2,7.5-7c4.4,0.2,3.9,3.7,3.8,7h33c1.6-3.6,4.8-3.3,7.6-3.5
			c0.6,0,1.3,2.3,2,3.5h9.6c-1.3-3.2-2.5-6.3-3.9-9.8c2-0.5,3.5-0.9,4.5-1.2c2,2.7,3.8,5.2,5.6,7.6l1.2-0.9c0.1,1.4,0.3,2.9,0.4,4.3
			h8.7l-3.1-7.2c0.4-0.3,0.9-0.5,1.3-0.8c2.1,2.6,4.1,5.2,6.2,7.8c-0.7-3.5-1.3-6.9-2-10.4c0.5-0.1,0.9-0.2,1.4-0.4
			c1.1,3.7,2.1,7.3,3.2,11h3.5c-0.8-1.5-1.6-3-2.9-5.6c3.8,1.1,7.1,0.7,7.2,5.6h198.1v-69C2214.8,536.5,2212.1,536.5,2209.4,536.3z
			 M1673.8,558.1c2.9-2.3,5.8-4.6,9.1,0.7C1679.4,558.5,1676.6,558.3,1673.8,558.1z M1762.7,601.3c-2.4-1.2-2.7-3.1-0.3-6.5
			c1.1,2.4,2,4.2,2.8,6C1764.4,601,1763.4,601.6,1762.7,601.3z M1793.5,578l0.1-1.6c3.1,0,6.2-0.2,9.2,0.2c0.5,0.1,0.7,3.2,1.1,5.4
			C1799.9,580.5,1796.7,579.2,1793.5,578z M1857.3,550.5c-1.2,0.6-2.3,1.3-3.4,1.9c3.3-6.2,3.3-6.2,6.9-3.7
			C1859.5,549.4,1858.4,549.9,1857.3,550.5z M1867.6,541.7c-2.2-0.1-4.3-0.5-6.5-0.8c0.1-0.7,0.1-1.4,0.2-2.1
			c2.1-0.3,4.1-0.7,6.2-0.7c0.6,0,1.2,1.2,1.8,1.8C1868.7,540.5,1868.1,541.8,1867.6,541.7z M1930.6,542.5c-1,0.3-2.1,0-3,0.5
			c-5.4,3.1-10.2-2-15.4-1.3c-0.5,0.1-1.3-2.3-1.8-3.4c2.6-4.2,5.1-0.7,7.6-0.6c2.4,0,4.7-0.1,7.1-0.2c2.6,0.9,4.8,3.1,7.2-2.3
			c1,2.5,1.5,4.1,2.1,5.6C1933.1,541.5,1931.9,542.1,1930.6,542.5z M1953,602.4c-1.5-2.5-3.1-5-2-8.4c0.4-0.2,0.9-0.3,1.3-0.5
			c0.8,2.8,1.6,5.5,2.5,8.3C1954.1,602,1953.5,602.2,1953,602.4z M1953.2,543.7c-0.2-0.5-0.3-1.1-0.5-1.6c1.5-0.6,3-1.8,4.4-1.7
			c0.7,0.1,1.4,2.4,2.5,4.7C1956.7,544.4,1954.9,544.1,1953.2,543.7z M1982.6,549.2c-3.1-3,4.8-6.1-0.2-8.9c-2.1,2.2-4,4.3-6,6.3
			c-0.3-0.1-0.7-0.2-1-0.3c0.4-2.4,0.3-5.3,1.4-6.9c1.1-1.6,4.6-3.1,5.4-2.3c2.5,2.3,4.2,5.7,6.5,9.2
			C1985.8,547.7,1984.1,548.5,1982.6,549.2z"/>
		<path class="st1" d="M1815.9,533.9c-1.3,1-2.5,2.2-3.9,3c-0.1,0.1-1-1.2-1.5-1.9c1.3-1.1,2.7-2.2,4-3.3
			C1815,532.5,1815.4,533.2,1815.9,533.9z"/>
	</g>
	<g>
		<g>
			<path class="st3" d="M1815.9,533.9c-0.5-0.7-0.9-1.4-1.4-2.1c-1.3,1.1-2.7,2.2-4,3.3c0.5,0.7,1.3,1.9,1.5,1.9
				C1813.4,536.1,1814.6,535,1815.9,533.9z"/>
		</g>
		<line class="st4" x1="1755.9" y1="531.1" x2="1791.9" y2="531.1"/>
		<line class="st4" x1="1755.9" y1="537.5" x2="1791.9" y2="537.5"/>
		<line class="st4" x1="1809.9" y1="591.5" x2="1809.9" y2="555.5"/>
		<line class="st4" x1="1870.5" y1="531.1" x2="1834.5" y2="531.1"/>
		<line class="st4" x1="1870.5" y1="537.5" x2="1834.5" y2="537.5"/>
		<line class="st4" x1="1816.5" y1="591.5" x2="1816.5" y2="555.5"/>
	</g>
</g>
<g id="PgDVas_2_">
	<g>
		<path class="st1" d="M982.7,536.2c-1.9-0.1-3.7-0.5-5.6-0.8c0.8-1.6,1.7-3.2,2.5-4.8c0.1-0.2-0.1-0.6-0.2-1.4H962
			c2.7,2,4.9,3.6,7.1,5.4c-3.3,2.1-5.2-0.1-7.1-2.5c-2.2-2.9-5-4.9-7.9-2.3c-2.5,2.1-4.3,1.7-6.6,0.2c-0.8-0.5-1.9-1.1-2.8-1.1
			c-6.9,0.2-13.8,0.7-20.7,0.8c-11.3,0.1-22.6,0.1-33.9,0c-1.5,0-3.2-0.9-4.5-1.9c-3-2.4-8.4-2.4-11.5-0.7c-3,1.6-6.4,2.1-9.6,2.9
			c-2,0.5-4.7,0.1-6.1,1.4c-5.9,5.9-5.8,6.1-13,1.3c2.8-0.4,5.5-0.8,8.3-1.2c-2-1.5-4.8-1.1-5.8-2.4c-3.6-4.7-6.6-2-9.7,0.3
			c-3.5,2.7-8.5,2.1-12-1c-1.3-1.1-4.2-1.2-5.6-0.2c-2.3,1.5-3.9,2.9-6.9,1.8c-1.6-0.6-3.9,1.2-5.8,1.7c-1.6,0.5-4.3,1.6-4.6,1
			c-2.5-4.2-4.7-2.1-7.3,0.5c-2.5-3.3-3.7-8.8-9.1-7c-0.4,2-0.8,4.1-1.2,6.5c-2.8-1-5.2-2.4-7.7-2.5c-8.2-0.3-16.4-0.4-24.6-0.1
			c-3.6,0.1-7.2,1.7-10.7,1.6c-4.7-0.2-9.3-1.7-14-2c-2.5-0.1-5,1.3-7.4,2c0.8,4,1.4,6.9,2.2,10.6c-4.5-0.5-8.3-0.9-12.1-1.4
			l0.1-1.3c5.4,0.1,7.3-2.1,7.8-9.2c-2.9,0-5.7,0-8.6,0c-6,0.1-12.1,0-18.1,0.3c-2.9,0.1-5.8,1-9.2,1.6c-9.2,0.4-18.8-2.7-29.1-0.8
			c-10,1.8-20.5,0-31-0.3c0.2-1.8,0.2-2.6,0.4-3.4c0.2-0.5,0.4-1,0.6-1.6c-0.3,0-0.6,0.1-0.9,0.1c-1.3,0.4-2.6,0.6-3.9,0.8
			c-1.4,0.2-2.8,0.3-4.3,0.4c-1.1,0.1-2.1,0.3-3.2,0.4c-4.3,0.5-8.5,0.7-12.8,0.3c-0.4,0-0.8-0.1-1.2-0.2c-0.6,0-1.3,0-1.9,0
			c0.4,2.6,0.9,5.3,1.3,7.9c0.1,0.9,0.1,2-0.2,2.8c-0.5,1.1-1.3,2-2,3c1.2,0.1,2.5,0.3,3.9,0.4c1.1,3.5-0.1,5.1-3.3,5.2
			c-1.6,0.1-3.1,0.5-4.7,0.7c-4.8,0.7-9.6,1.4-14.4,2c-0.1-0.8-0.2-1.5-0.3-2.3c1.2-0.3,2.5-0.5,3.7-0.8c3.5-1,7.1-1.8,10.5-3.1
			c0.6-0.2,0.7-2.3,1-3.5c-1.2-0.4-2.3-0.9-3.5-1.2c-1.5-0.3-3.6,0.1-4.6-0.8c-1.8-1.8-3-4.4-4.4-6.7c-4.2,3.6-6,3.5-10,0.3
			c-4.2,0.3-7.2,0.5-10.3,0.6c-3.7,0.2-7.4,0.7-11,0.4c-5.6-0.5-11.6,1.9-16.8-2.6c-0.5-0.5-1.6-0.2-2.5-0.1
			c-4.6,0.4-9.3,1-13.9,1.1c-18.6,0.3-37.3,0.5-55.9,0.7c-2.4,0-4.8,0.7-7.2,0.6c-3.3-0.2-6.5-1.2-9.8-1.2
			c-21.8,0.2-43.6,0.7-65.5,0.7c-12,0-24-0.8-36-1c-14.9-0.2-29.8,0-44.7,0.1v74h127.7c0.5-2.7,0.9-5.3,1.5-8.3
			c3.1,1.5,3.4,4.9,3.7,8.3h173.8c-0.3-2.6-0.5-5.2-0.8-8.2c3.1,1.2,5.3,3.6,5.2,8.2h16.5c0.7-2.3,1.4-4.5,2-6.8
			c0.5-1.6,0.8-3.3,1.4-5.8c3.8,4,7.2,7.2,7.8,12.6h63.4c0.5-4.3,3.6-7.2,7.5-7c4.4,0.2,3.9,3.7,3.8,7h33c1.6-3.6,4.8-3.3,7.6-3.5
			c0.6,0,1.3,2.3,2,3.5h9.6c-1.3-3.2-2.5-6.3-3.9-9.8c2-0.5,3.5-0.9,4.5-1.2c2,2.7,3.8,5.2,5.6,7.6l1.2-0.9c0.1,1.4,0.3,2.9,0.4,4.3
			h8.7l-3.1-7.2c0.4-0.3,0.9-0.5,1.3-0.8c2.1,2.6,4.1,5.2,6.2,7.8c-0.7-3.5-1.3-6.9-2-10.4c0.5-0.1,0.9-0.2,1.4-0.4
			c1.1,3.7,2.1,7.3,3.2,11h3.5c-0.8-1.5-1.6-3-2.9-5.6c3.8,1.1,7.1,0.7,7.2,5.6h198.1v-69C988,536.5,985.3,536.4,982.7,536.2z
			 M447,558c2.9-2.3,5.8-4.6,9.1,0.7C452.6,558.4,449.8,558.2,447,558z M535.9,601.3c-2.4-1.2-2.7-3.1-0.3-6.5c1.1,2.4,2,4.2,2.8,6
			C537.6,601,536.6,601.6,535.9,601.3z M566.8,578l0.1-1.6c3.1,0,6.2-0.2,9.2,0.2c0.5,0.1,0.7,3.2,1.1,5.4
			C573.1,580.4,569.9,579.2,566.8,578z M630.5,550.4c-1.2,0.6-2.3,1.3-3.4,1.9c3.3-6.2,3.3-6.2,6.9-3.7
			C632.7,549.3,631.6,549.8,630.5,550.4z M640.8,541.7c-2.2-0.1-4.3-0.5-6.5-0.8c0.1-0.7,0.1-1.4,0.2-2.1c2.1-0.3,4.1-0.7,6.2-0.7
			c0.6,0,1.2,1.2,1.8,1.8C641.9,540.5,641.3,541.7,640.8,541.7z M703.8,542.5c-1,0.3-2.1,0-3,0.5c-5.4,3.1-10.2-2-15.4-1.3
			c-0.5,0.1-1.3-2.3-1.8-3.4c2.6-4.2,5.1-0.7,7.6-0.6c2.4,0,4.7-0.1,7.1-0.2c2.6,0.9,4.8,3.1,7.2-2.3c1,2.5,1.5,4.1,2.1,5.6
			C706.3,541.4,705.1,542.1,703.8,542.5z M726.2,602.4c-1.5-2.5-3.1-5-2-8.4c0.4-0.2,0.9-0.3,1.3-0.5c0.8,2.8,1.6,5.5,2.5,8.3
			C727.3,602,726.8,602.2,726.2,602.4z M726.4,543.6c-0.2-0.5-0.3-1.1-0.5-1.6c1.5-0.6,3-1.8,4.4-1.7c0.7,0.1,1.4,2.4,2.5,4.7
			C729.9,544.4,728.2,544,726.4,543.6z M755.8,549.1c-3.1-3,4.8-6.1-0.2-8.9c-2.1,2.2-4,4.3-6,6.3c-0.3-0.1-0.7-0.2-1-0.3
			c0.4-2.4,0.3-5.3,1.4-6.9c1.1-1.6,4.6-3.1,5.4-2.3c2.5,2.3,4.2,5.7,6.5,9.2C759,547.6,757.3,548.4,755.8,549.1z"/>
		<path class="st1" d="M589.1,533.9c-1.3,1-2.5,2.2-3.9,3c-0.1,0.1-1-1.2-1.5-1.9c1.3-1.1,2.7-2.2,4-3.3
			C588.2,532.5,588.6,533.2,589.1,533.9z"/>
	</g>
	<g>
		<path class="st2" d="M982.7,536.2c-1.9-0.1-3.7-0.5-5.6-0.8c0.8-1.6,1.7-3.2,2.5-4.8c0.1-0.2-0.1-0.6-0.2-1.4H962
			c2.7,2,4.9,3.6,7.1,5.4c-3.3,2.1-5.2-0.1-7.1-2.5c-2.2-2.9-5-4.9-7.9-2.3c-2.5,2.1-4.3,1.7-6.6,0.2c-0.8-0.5-1.9-1.1-2.8-1.1
			c-6.9,0.2-13.8,0.7-20.7,0.8c-11.3,0.1-22.6,0.1-33.9,0c-1.5,0-3.2-0.9-4.5-1.9c-3-2.4-8.4-2.4-11.5-0.7c-3,1.6-6.4,2.1-9.6,2.9
			c-2,0.5-4.7,0.1-6.1,1.4c-5.9,5.9-5.8,6.1-13,1.3c2.8-0.4,5.5-0.8,8.3-1.2c-2-1.5-4.8-1.1-5.8-2.4c-3.6-4.7-6.6-2-9.7,0.3
			c-3.5,2.7-8.5,2.1-12-1c-1.3-1.1-4.2-1.2-5.6-0.2c-2.3,1.5-3.9,2.9-6.9,1.8c-1.6-0.6-3.9,1.2-5.8,1.7c-1.6,0.5-4.3,1.6-4.6,1
			c-2.5-4.2-4.7-2.1-7.3,0.5c-2.5-3.3-3.7-8.8-9.1-7c-0.4,2-0.8,4.1-1.2,6.5c-2.8-1-5.2-2.4-7.7-2.5c-8.2-0.3-16.4-0.4-24.6-0.1
			c-3.6,0.1-7.2,1.7-10.7,1.6c-4.7-0.2-9.3-1.7-14-2c-2.5-0.1-5,1.3-7.4,2c0.8,4,1.4,6.9,2.2,10.6c-4.5-0.5-8.3-0.9-12.1-1.4
			l0.1-1.3c5.4,0.1,7.3-2.1,7.8-9.2c-2.9,0-5.7,0-8.6,0c-6,0.1-12.1,0-18.1,0.3c-2.9,0.1-5.8,1-9.2,1.6c-9.2,0.4-18.8-2.7-29.1-0.8
			c-10,1.8-20.5,0-31-0.3c0.2-1.8,0.2-2.6,0.4-3.4c0.2-0.5,0.4-1,0.6-1.6c-0.3,0-0.6,0.1-0.9,0.1c-1.3,0.4-2.6,0.6-3.9,0.8
			c-1.4,0.2-2.8,0.3-4.3,0.4c-1.1,0.1-2.1,0.3-3.2,0.4c-4.3,0.5-8.5,0.7-12.8,0.3c-0.4,0-0.8-0.1-1.2-0.2c-0.6,0-1.3,0-1.9,0
			c0.4,2.6,0.9,5.3,1.3,7.9c0.1,0.9,0.1,2-0.2,2.8c-0.5,1.1-1.3,2-2,3c1.2,0.1,2.5,0.3,3.9,0.4c1.1,3.5-0.1,5.1-3.3,5.2
			c-1.6,0.1-3.1,0.5-4.7,0.7c-4.8,0.7-9.6,1.4-14.4,2c-0.1-0.8-0.2-1.5-0.3-2.3c1.2-0.3,2.5-0.5,3.7-0.8c3.5-1,7.1-1.8,10.5-3.1
			c0.6-0.2,0.7-2.3,1-3.5c-1.2-0.4-2.3-0.9-3.5-1.2c-1.5-0.3-3.6,0.1-4.6-0.8c-1.8-1.8-3-4.4-4.4-6.7c-4.2,3.6-6,3.5-10,0.3
			c-4.2,0.3-7.2,0.5-10.3,0.6c-3.7,0.2-7.4,0.7-11,0.4c-5.6-0.5-11.6,1.9-16.8-2.6c-0.5-0.5-1.6-0.2-2.5-0.1
			c-4.6,0.4-9.3,1-13.9,1.1c-18.6,0.3-37.3,0.5-55.9,0.7c-2.4,0-4.8,0.7-7.2,0.6c-3.3-0.2-6.5-1.2-9.8-1.2
			c-21.8,0.2-43.6,0.7-65.5,0.7c-12,0-24-0.8-36-1c-14.9-0.2-29.8,0-44.7,0.1v74h127.7c0.5-2.7,0.9-5.3,1.5-8.3
			c3.1,1.5,3.4,4.9,3.7,8.3h173.8c-0.3-2.6-0.5-5.2-0.8-8.2c3.1,1.2,5.3,3.6,5.2,8.2h16.5c0.7-2.3,1.4-4.5,2-6.8
			c0.5-1.6,0.8-3.3,1.4-5.8c3.8,4,7.2,7.2,7.8,12.6h63.4c0.5-4.3,3.6-7.2,7.5-7c4.4,0.2,3.9,3.7,3.8,7h33c1.6-3.6,4.8-3.3,7.6-3.5
			c0.6,0,1.3,2.3,2,3.5h9.6c-1.3-3.2-2.5-6.3-3.9-9.8c2-0.5,3.5-0.9,4.5-1.2c2,2.7,3.8,5.2,5.6,7.6l1.2-0.9c0.1,1.4,0.3,2.9,0.4,4.3
			h8.7l-3.1-7.2c0.4-0.3,0.9-0.5,1.3-0.8c2.1,2.6,4.1,5.2,6.2,7.8c-0.7-3.5-1.3-6.9-2-10.4c0.5-0.1,0.9-0.2,1.4-0.4
			c1.1,3.7,2.1,7.3,3.2,11h3.5c-0.8-1.5-1.6-3-2.9-5.6c3.8,1.1,7.1,0.7,7.2,5.6h198.1v-69C988,536.5,985.3,536.4,982.7,536.2z
			 M447,558c2.9-2.3,5.8-4.6,9.1,0.7C452.6,558.4,449.8,558.2,447,558z M535.9,601.3c-2.4-1.2-2.7-3.1-0.3-6.5c1.1,2.4,2,4.2,2.8,6
			C537.6,601,536.6,601.6,535.9,601.3z M566.8,578l0.1-1.6c3.1,0,6.2-0.2,9.2,0.2c0.5,0.1,0.7,3.2,1.1,5.4
			C573.1,580.4,569.9,579.2,566.8,578z M630.5,550.4c-1.2,0.6-2.3,1.3-3.4,1.9c3.3-6.2,3.3-6.2,6.9-3.7
			C632.7,549.3,631.6,549.8,630.5,550.4z M640.8,541.7c-2.2-0.1-4.3-0.5-6.5-0.8c0.1-0.7,0.1-1.4,0.2-2.1c2.1-0.3,4.1-0.7,6.2-0.7
			c0.6,0,1.2,1.2,1.8,1.8C641.9,540.5,641.3,541.7,640.8,541.7z M703.8,542.5c-1,0.3-2.1,0-3,0.5c-5.4,3.1-10.2-2-15.4-1.3
			c-0.5,0.1-1.3-2.3-1.8-3.4c2.6-4.2,5.1-0.7,7.6-0.6c2.4,0,4.7-0.1,7.1-0.2c2.6,0.9,4.8,3.1,7.2-2.3c1,2.5,1.5,4.1,2.1,5.6
			C706.3,541.4,705.1,542.1,703.8,542.5z M726.2,602.4c-1.5-2.5-3.1-5-2-8.4c0.4-0.2,0.9-0.3,1.3-0.5c0.8,2.8,1.6,5.5,2.5,8.3
			C727.3,602,726.8,602.2,726.2,602.4z M726.4,543.6c-0.2-0.5-0.3-1.1-0.5-1.6c1.5-0.6,3-1.8,4.4-1.7c0.7,0.1,1.4,2.4,2.5,4.7
			C729.9,544.4,728.2,544,726.4,543.6z M755.8,549.1c-3.1-3,4.8-6.1-0.2-8.9c-2.1,2.2-4,4.3-6,6.3c-0.3-0.1-0.7-0.2-1-0.3
			c0.4-2.4,0.3-5.3,1.4-6.9c1.1-1.6,4.6-3.1,5.4-2.3c2.5,2.3,4.2,5.7,6.5,9.2C759,547.6,757.3,548.4,755.8,549.1z"/>
		<path class="st1" d="M589.1,533.9c-1.3,1-2.5,2.2-3.9,3c-0.1,0.1-1-1.2-1.5-1.9c1.3-1.1,2.7-2.2,4-3.3
			C588.2,532.5,588.6,533.2,589.1,533.9z"/>
	</g>
	<g>
		<g>
			<path class="st3" d="M589.1,533.9c-0.5-0.7-0.9-1.4-1.4-2.1c-1.3,1.1-2.7,2.2-4,3.3c0.5,0.7,1.3,1.9,1.5,1.9
				C586.6,536.1,587.8,535,589.1,533.9z"/>
		</g>
		<line class="st4" x1="529.1" y1="531.1" x2="565.1" y2="531.1"/>
		<line class="st4" x1="529.1" y1="537.4" x2="565.1" y2="537.4"/>
		<line class="st4" x1="583.1" y1="591.4" x2="583.1" y2="555.4"/>
		<line class="st4" x1="643.7" y1="531.1" x2="607.7" y2="531.1"/>
		<line class="st4" x1="643.7" y1="537.4" x2="607.7" y2="537.4"/>
		<line class="st4" x1="589.7" y1="591.4" x2="589.7" y2="555.4"/>
	</g>
</g>
<g id="bkwvWy_1_">
	<g>
		<g>
			<path class="st5" d="M2092,486c-14.1,5.6-19.1,8.8-33.5-5.2c-1.3-1.2-2.6-2.5-5.3-3.5c0,3.3-0.1,6.7,0,10
				c0.3,5.5,0.5,11,1.3,16.4c0.6,4,1.4,8.3,3.5,11.6c6.2,9.8,13.2,19.1,19.6,28.8c0.9,1.3,0.8,4.8-0.1,5.4
				c-5.5,3.6-11.3,6.7-18.5,10.8c0.2-3.7,0.4-5.8,0.4-8c0-2.4,0.7-5.5-0.4-7.2c-6-9.1-10.2-19.7-20.3-25.5c-0.7-0.4-1.4-0.8-2.7-1.6
				c-0.8,2-1.8,3.6-2.3,5.4c-2.2,8.9-4.2,17.8-6.3,26.7c-0.1,0.3-0.2,0.6-0.2,1c-0.1,2.3,0.8,5.7-0.4,6.7c-1.6,1.3-4.7,0.9-7.2,1.1
				c-3.2,0.2-6.3,0.3-9.5,0.3c-3.6,0-4.3-2.3-2.2-4.5c6.8-7.1,8-16.4,9.7-25.3c1-5.2,0.2-10.8,0.2-16.2c-6.9,0-13,0.8-18.7-0.2
				c-5.6-1-10.8-3.9-17-6.2c-0.3,1.8-1,3.7-0.7,5.4c2.3,13.9,4.7,27.8,7.2,41.8c0.5,3,0.1,4.9-3.5,4.9c-5.6-0.1-11.2,0-18.5,0
				c1.7-3.2,2.4-5.5,3.9-7.1c2.5-2.6,3.1-5.3,2.2-8.6c-1.6-6-3.1-12.1-5-19.4c-2,2.3-3.2,3.4-3.9,4.7c-4,7.4-10.5,13.8-9.4,23.4
				c0.1,0.8-2.6,3-3.5,2.8c-5.4-1.3-10.7-3.2-16.4-5c0.7-1.3,0.8-2.3,1.4-2.7c6.6-3.9,8.3-10.6,10.7-17.2c2.7-7.7,6-15.2,10.1-22.2
				c4.3-7.4,0.3-17.1-8.6-22.5c-7.8-4.7-13.7-3.5-20.2,3.5c-8.2,8.8-18,15.1-30.7,14.5c-1.8-0.1-6.2,2.1-5.1-3.3
				c0-0.2-2.3-1-3.6-1.3c-5.4-1.4-9.5-4.3-12.9-8.8c-1.3-1.7-5.1-2.9-7.2-2.4c-3.1,0.8-4.4-0.7-6.7-1.9
				c-10.6-5.6-15.3-15.3-19.6-25.6c-2.7-6.4-5.6-12.8-8.4-19.1c-0.3-0.7-1-1.2-2.2-2.7c-1.7,8.8-8.1,14.8-7.7,23.8
				c0.3,7.7-2.6,15.5,1,23.1c1.4,2.9,2.2,6.3,4.1,8.8c7.3,10.1,15.8,19.6,19,32c1.6,6.3,1.6,13.1,2.2,19.6c0.3,3.4,0.8,6.9,0.2,10.2
				c-0.3,1.6-3,3.9-4.6,3.9c-9.6,0-19.3-0.4-28.9-1.1c-1.1-0.1-2.9-2.6-2.9-3.9c0.1-1.7,1.5-3.5,2.6-5.1c2.2-3.6,6.1-6.9,6.5-10.6
				c0.8-7.3-0.8-14.7-5.5-20.8c-6.4-8.3-15.2-13.7-25-19.4c-3.3,9.4-6.3,18.3-9.5,27.2c-1.7,4.7-3.6,9.3-5.1,14
				c-0.4,1.3-0.2,3.1,0.3,4.5c2,5.4-0.4,9.3-6.2,9.4c-7,0.1-14,0-21-0.2c-1.7-0.1-4.6-0.9-4.7-1.5c-0.2-2.1,0.2-4.7,1.3-6.5
				c2.5-4.1,5.8-7.7,8.3-11.8c2-3.4,3.4-7.1,4.9-10.8c1.3-3.4,1.8-7.1,3.4-10.4c4.5-9.6,4.5-19.6,3.5-29.9
				c-10.3-0.7-20.8,0-30.3-2.6c-9.4-2.6-17.8-8.7-26.9-13.5c-2.2,4.7-4.1,9.2-3.7,14.9c1.2,17.8,1.2,35.6-3.6,53.1
				c-1,3.6,0.1,8.1,1.3,11.9c1.7,5.2,0.6,8.5-4.8,8.7c-8.6,0.3-17.2-0.1-25.8-0.2c-3-0.1-4.7-1.8-3.1-4.5c2.2-3.7,1.3-7,0.5-10.9
				c-1.7-9.5-5.4-17.6-12.4-24.4c-8.4-8.2-9.5-16.4-4.4-27.9c4.8-10.8,9.6-21.6,14.5-32.3c3.7-8.2,1.7-15.2-5.5-20.5
				c-9.4-6.9-18.5-14.1-27.8-21.1c-1.2-0.9-2.5-1.6-3.9-2c-4.2-1.3-8.4-3.1-12.7-3.5c-2.8-0.3-5.8,1.4-8.6,2.6c-1.6,0.7-3,2-4.5,3
				c-7.2,4.3-15.8,3.5-23.6,5.7c-7.7,2.2-15.9,3.2-23.9,3.9c-6.1,0.5-11.9-1.3-16.3-6.1c0-0.7,0-1.3,0-2c4.4,0.9,8.8,1.9,13.2,2.8
				c0.1-0.4,0.2-0.8,0.3-1.2c-0.9-1.2-1.9-2.3-3.4-4.2c2.8,0.2,4.7,0.4,7.3,0.6c-0.9-1.3-1.3-2.3-2-3c-6.5-6.1-9.6-13.9-10.9-22.5
				c-2.6-17.3,9.2-34.6,25.4-37.5c2.4-0.4,5-0.4,7.4-0.2c8.4,0.6,12.1-1.7,15.1-9.7c0.2-0.6,0.7-1.1,1.4-2.3
				c1.3,5.4,4.5,5.5,8.4,3.7c-1.9,12.1-8.1,18.9-19.2,21.4c-0.7,0.1-1.3,0.3-2,0.4c-16,3-20.6,14.6-10.8,27.6c1.3,1.8,4.5,2.9,6.8,3
				c1.3,0,3.4-2.5,4-4.3c6.4-19.5,19.6-33.4,36-44.7c6.5-4.4,13.8-4.5,21.2-2.8c4.5,1.1,9.1,2,13.6,3.3c7.1,2,13.3,0.1,19.4-3.4
				c7.6-4.4,15.4-8.5,23.4-12.1c7.7-3.5,15.9-3.2,24-0.8c6.8,1.9,8.7,4.9,7.5,11.8c-0.5,2.8-1.3,5.5-2.1,8.2
				c-0.8,2.7-1.8,5.3-3.1,9.2c6.2-0.6,11.4-0.9,16.5-1.6c2.8-0.4,5.7-0.9,8.2-2c14.2-5.9,27.3-1.9,39.8,4.7
				c22,11.5,35.2,30.4,43.6,53.1c5.9,16.1,10.9,32.5,16.9,48.5c4.3,11.4,8.8,17.1,14,20.7c7.3-5.6,12-5.6,18.8,0.7
				c5.8,5.3,12.6,6.6,19.9,6.2c5.3-0.2,7.4-3.1,9.3-10c2.1-7.5,4.5-14.9,7.4-22c1.6-3.8,4.1-7.5,7.1-10.2c2.8-2.5,6.7-4.1,10.3-5
				c3.2-0.8,5.5-1.5,6.5-5c0.6-2.2,2.1-4.2,3.1-6.2c1.8-3.6,3.6-7.1,5.7-11.3c3.8,3.7,0.5,9.9,3.7,14c5.3-0.9,10.6-1.9,16-2.8
				c4.3-0.8,7,0.8,6.7,5.4c-0.2,3.9,1.5,5.8,5.1,5.6c5.1-0.3,10.6,0,15.1-1.9c15.2-6.3,27.8-1,39.5,7.8c8.7,6.5,15.8,14.5,19.6,25.3
				c2.4,6.8,8,11.8,14.7,15c4.8,2.3,9.5,2.3,14.4-0.1c1.9-0.9,4.4-0.8,6.6-1.1C2092,485.3,2092,485.7,2092,486z M1682.4,507.7
				c0.3,0,0.6,0.1,0.9,0.1c-1.2-4.6-2.3-9.2-3.5-13.8c-0.7,0-1.5,0-2.2,0c-0.2,2.1-1.3,4.5-0.6,6.1
				C1678.3,502.9,1680.6,505.2,1682.4,507.7z"/>
		</g>
	</g>
</g>
<g id="PgDVas_5_">
	<g>
		<path class="st1" d="M289.4,536.9c-1.9-0.1-3.7-0.5-5.6-0.8c0.8-1.6,1.7-3.2,2.5-4.8c0.1-0.2-0.1-0.6-0.2-1.4h-17.4
			c2.7,2,4.9,3.6,7.1,5.4c-3.3,2.1-5.2-0.1-7.1-2.5c-2.2-2.9-5-4.9-7.9-2.3c-2.5,2.1-4.3,1.7-6.6,0.2c-0.8-0.5-1.9-1.1-2.8-1.1
			c-6.9,0.2-13.8,0.7-20.7,0.8c-11.3,0.1-22.6,0.1-33.9,0c-1.5,0-3.2-0.9-4.5-1.9c-3-2.4-8.4-2.4-11.5-0.7c-3,1.6-6.4,2.1-9.6,2.9
			c-2,0.5-4.7,0.1-6.1,1.4c-5.9,5.9-5.8,6.1-13,1.3c2.8-0.4,5.5-0.8,8.3-1.2c-2-1.5-4.8-1.1-5.8-2.4c-3.6-4.7-6.6-2-9.7,0.3
			c-3.5,2.7-8.5,2.1-12-1c-1.3-1.1-4.2-1.2-5.6-0.2c-2.3,1.5-3.9,2.9-6.9,1.8c-1.6-0.6-3.9,1.2-5.8,1.7c-1.6,0.5-4.3,1.6-4.6,1
			c-2.5-4.2-4.7-2.1-7.3,0.5c-2.5-3.3-3.7-8.8-9.1-7c-0.4,2-0.8,4.1-1.2,6.5c-2.8-1-5.2-2.4-7.7-2.5c-8.2-0.3-16.4-0.4-24.6-0.1
			c-3.6,0.1-7.2,1.7-10.7,1.6c-4.7-0.2-9.3-1.7-14-2c-2.5-0.1-5,1.3-7.4,2c0.8,4,1.4,6.9,2.2,10.6c-4.5-0.5-8.3-0.9-12.1-1.4
			l0.1-1.3c5.4,0.1,7.3-2.1,7.8-9.2c-2.9,0-5.7,0-8.6,0c-6,0.1-12.1,0-18.1,0.3c-2.9,0.1-5.8,1-9.2,1.6c-9.2,0.4-18.8-2.7-29.1-0.8
			c-10,1.8-20.5,0-31-0.3c0.2-1.8,0.2-2.6,0.4-3.4c0.2-0.5,0.4-1,0.6-1.6c-0.3,0-0.6,0.1-0.9,0.1c-1.3,0.4-2.6,0.6-3.9,0.8
			c-1.4,0.2-2.8,0.3-4.3,0.4c-1.1,0.1-2.1,0.3-3.2,0.4c-4.3,0.5-8.5,0.7-12.8,0.3c-0.4,0-0.8-0.1-1.2-0.2c-0.6,0-1.3,0-1.9,0
			c0.4,2.6,0.9,5.3,1.3,7.9c0.1,0.9,0.1,2-0.2,2.8c-0.5,1.1-1.3,2-2,3c1.2,0.1,2.5,0.3,3.9,0.4c1.1,3.5-0.1,5.1-3.3,5.2
			c-1.6,0.1-3.1,0.5-4.7,0.7c-4.8,0.7-9.6,1.4-14.4,2c-0.1-0.8-0.2-1.5-0.3-2.3c1.2-0.3,2.5-0.5,3.7-0.8c3.5-1,7.1-1.8,10.5-3.1
			c0.6-0.2,0.7-2.3,1-3.5c-1.2-0.4-2.3-0.9-3.5-1.2c-1.5-0.3-3.6,0.1-4.6-0.8c-1.8-1.8-3-4.4-4.4-6.7c-4.2,3.6-6,3.5-10,0.3
			c-4.2,0.3-7.2,0.5-10.3,0.6c-3.7,0.2-7.4,0.7-11,0.4c-5.6-0.5-11.6,1.9-16.8-2.6c-0.5-0.5-1.6-0.2-2.5-0.1
			c-4.6,0.4-9.3,1-13.9,1.1c-18.6,0.3-37.3,0.5-55.9,0.7c-2.4,0-4.8,0.7-7.2,0.6c-3.3-0.2-6.5-1.2-9.8-1.2
			c-21.8,0.2-43.6,0.7-65.5,0.7c-12,0-24-0.8-36-1c-14.9-0.2-29.8,0-44.7,0.1v74h127.7c0.5-2.7,0.9-5.3,1.5-8.3
			c3.1,1.5,3.4,4.9,3.7,8.3H-91c-0.3-2.6-0.5-5.2-0.8-8.2c3.1,1.2,5.3,3.6,5.2,8.2h16.5c0.7-2.3,1.4-4.5,2-6.8
			c0.5-1.6,0.8-3.3,1.4-5.8c3.8,4,7.2,7.2,7.8,12.6H4.6c0.5-4.3,3.6-7.2,7.5-7c4.4,0.2,3.9,3.7,3.8,7h33c1.6-3.6,4.8-3.3,7.6-3.5
			c0.6,0,1.3,2.3,2,3.5H68c-1.3-3.2-2.5-6.3-3.9-9.8c2-0.5,3.5-0.9,4.5-1.2c2,2.7,3.8,5.2,5.6,7.6l1.2-0.9c0.1,1.4,0.3,2.9,0.4,4.3
			h8.7l-3.1-7.2c0.4-0.3,0.9-0.5,1.3-0.8c2.1,2.6,4.1,5.2,6.2,7.8c-0.7-3.5-1.3-6.9-2-10.4c0.5-0.1,0.9-0.2,1.4-0.4
			c1.1,3.7,2.1,7.3,3.2,11h3.5c-0.8-1.5-1.6-3-2.9-5.6c3.8,1.1,7.1,0.7,7.2,5.6h198.1v-69C294.7,537.2,292,537.1,289.4,536.9z
			 M-246.3,558.7c2.9-2.3,5.8-4.6,9.1,0.7C-240.7,559.1-243.5,558.9-246.3,558.7z M-157.3,602c-2.4-1.2-2.7-3.1-0.3-6.5
			c1.1,2.4,2,4.2,2.8,6C-155.7,601.7-156.7,602.3-157.3,602z M-126.5,578.7l0.1-1.6c3.1,0,6.2-0.2,9.2,0.2c0.5,0.1,0.7,3.2,1.1,5.4
			C-120.2,581.1-123.4,579.9-126.5,578.7z M-62.8,551.1c-1.2,0.6-2.3,1.3-3.4,1.9c3.3-6.2,3.3-6.2,6.9-3.7
			C-60.6,550-61.7,550.5-62.8,551.1z M-52.5,542.4c-2.2-0.1-4.3-0.5-6.5-0.8c0.1-0.7,0.1-1.4,0.2-2.1c2.1-0.3,4.1-0.7,6.2-0.7
			c0.6,0,1.2,1.2,1.8,1.8C-51.4,541.2-52,542.4-52.5,542.4z M10.5,543.2c-1,0.3-2.1,0-3,0.5c-5.4,3.1-10.2-2-15.4-1.3
			c-0.5,0.1-1.3-2.3-1.8-3.4c2.6-4.2,5.1-0.7,7.6-0.6c2.4,0,4.7-0.1,7.1-0.2c2.6,0.9,4.8,3.1,7.2-2.3c1,2.5,1.5,4.1,2.1,5.6
			C13,542.1,11.8,542.8,10.5,543.2z M32.9,603.1c-1.5-2.5-3.1-5-2-8.4c0.4-0.2,0.9-0.3,1.3-0.5c0.8,2.8,1.6,5.5,2.5,8.3
			C34,602.7,33.5,602.9,32.9,603.1z M33.2,544.3c-0.2-0.5-0.3-1.1-0.5-1.6c1.5-0.6,3-1.8,4.4-1.7c0.7,0.1,1.4,2.4,2.5,4.7
			C36.6,545.1,34.9,544.7,33.2,544.3z M62.5,549.8c-3.1-3,4.8-6.1-0.2-8.9c-2.1,2.2-4,4.3-6,6.3c-0.3-0.1-0.7-0.2-1-0.3
			c0.4-2.4,0.3-5.3,1.4-6.9c1.1-1.6,4.6-3.1,5.4-2.3c2.5,2.3,4.2,5.7,6.5,9.2C65.7,548.3,64,549.1,62.5,549.8z"/>
		<path class="st1" d="M-104.2,534.6c-1.3,1-2.5,2.2-3.9,3c-0.1,0.1-1-1.2-1.5-1.9c1.3-1.1,2.7-2.2,4-3.3
			C-105.1,533.2-104.6,533.9-104.2,534.6z"/>
	</g>
	<g>
		<path class="st2" d="M289.4,536.9c-1.9-0.1-3.7-0.5-5.6-0.8c0.8-1.6,1.7-3.2,2.5-4.8c0.1-0.2-0.1-0.6-0.2-1.4h-17.4
			c2.7,2,4.9,3.6,7.1,5.4c-3.3,2.1-5.2-0.1-7.1-2.5c-2.2-2.9-5-4.9-7.9-2.3c-2.5,2.1-4.3,1.7-6.6,0.2c-0.8-0.5-1.9-1.1-2.8-1.1
			c-6.9,0.2-13.8,0.7-20.7,0.8c-11.3,0.1-22.6,0.1-33.9,0c-1.5,0-3.2-0.9-4.5-1.9c-3-2.4-8.4-2.4-11.5-0.7c-3,1.6-6.4,2.1-9.6,2.9
			c-2,0.5-4.7,0.1-6.1,1.4c-5.9,5.9-5.8,6.1-13,1.3c2.8-0.4,5.5-0.8,8.3-1.2c-2-1.5-4.8-1.1-5.8-2.4c-3.6-4.7-6.6-2-9.7,0.3
			c-3.5,2.7-8.5,2.1-12-1c-1.3-1.1-4.2-1.2-5.6-0.2c-2.3,1.5-3.9,2.9-6.9,1.8c-1.6-0.6-3.9,1.2-5.8,1.7c-1.6,0.5-4.3,1.6-4.6,1
			c-2.5-4.2-4.7-2.1-7.3,0.5c-2.5-3.3-3.7-8.8-9.1-7c-0.4,2-0.8,4.1-1.2,6.5c-2.8-1-5.2-2.4-7.7-2.5c-8.2-0.3-16.4-0.4-24.6-0.1
			c-3.6,0.1-7.2,1.7-10.7,1.6c-4.7-0.2-9.3-1.7-14-2c-2.5-0.1-5,1.3-7.4,2c0.8,4,1.4,6.9,2.2,10.6c-4.5-0.5-8.3-0.9-12.1-1.4
			l0.1-1.3c5.4,0.1,7.3-2.1,7.8-9.2c-2.9,0-5.7,0-8.6,0c-6,0.1-12.1,0-18.1,0.3c-2.9,0.1-5.8,1-9.2,1.6c-9.2,0.4-18.8-2.7-29.1-0.8
			c-10,1.8-20.5,0-31-0.3c0.2-1.8,0.2-2.6,0.4-3.4c0.2-0.5,0.4-1,0.6-1.6c-0.3,0-0.6,0.1-0.9,0.1c-1.3,0.4-2.6,0.6-3.9,0.8
			c-1.4,0.2-2.8,0.3-4.3,0.4c-1.1,0.1-2.1,0.3-3.2,0.4c-4.3,0.5-8.5,0.7-12.8,0.3c-0.4,0-0.8-0.1-1.2-0.2c-0.6,0-1.3,0-1.9,0
			c0.4,2.6,0.9,5.3,1.3,7.9c0.1,0.9,0.1,2-0.2,2.8c-0.5,1.1-1.3,2-2,3c1.2,0.1,2.5,0.3,3.9,0.4c1.1,3.5-0.1,5.1-3.3,5.2
			c-1.6,0.1-3.1,0.5-4.7,0.7c-4.8,0.7-9.6,1.4-14.4,2c-0.1-0.8-0.2-1.5-0.3-2.3c1.2-0.3,2.5-0.5,3.7-0.8c3.5-1,7.1-1.8,10.5-3.1
			c0.6-0.2,0.7-2.3,1-3.5c-1.2-0.4-2.3-0.9-3.5-1.2c-1.5-0.3-3.6,0.1-4.6-0.8c-1.8-1.8-3-4.4-4.4-6.7c-4.2,3.6-6,3.5-10,0.3
			c-4.2,0.3-7.2,0.5-10.3,0.6c-3.7,0.2-7.4,0.7-11,0.4c-5.6-0.5-11.6,1.9-16.8-2.6c-0.5-0.5-1.6-0.2-2.5-0.1
			c-4.6,0.4-9.3,1-13.9,1.1c-18.6,0.3-37.3,0.5-55.9,0.7c-2.4,0-4.8,0.7-7.2,0.6c-3.3-0.2-6.5-1.2-9.8-1.2
			c-21.8,0.2-43.6,0.7-65.5,0.7c-12,0-24-0.8-36-1c-14.9-0.2-29.8,0-44.7,0.1v74h127.7c0.5-2.7,0.9-5.3,1.5-8.3
			c3.1,1.5,3.4,4.9,3.7,8.3H-91c-0.3-2.6-0.5-5.2-0.8-8.2c3.1,1.2,5.3,3.6,5.2,8.2h16.5c0.7-2.3,1.4-4.5,2-6.8
			c0.5-1.6,0.8-3.3,1.4-5.8c3.8,4,7.2,7.2,7.8,12.6H4.6c0.5-4.3,3.6-7.2,7.5-7c4.4,0.2,3.9,3.7,3.8,7h33c1.6-3.6,4.8-3.3,7.6-3.5
			c0.6,0,1.3,2.3,2,3.5H68c-1.3-3.2-2.5-6.3-3.9-9.8c2-0.5,3.5-0.9,4.5-1.2c2,2.7,3.8,5.2,5.6,7.6l1.2-0.9c0.1,1.4,0.3,2.9,0.4,4.3
			h8.7l-3.1-7.2c0.4-0.3,0.9-0.5,1.3-0.8c2.1,2.6,4.1,5.2,6.2,7.8c-0.7-3.5-1.3-6.9-2-10.4c0.5-0.1,0.9-0.2,1.4-0.4
			c1.1,3.7,2.1,7.3,3.2,11h3.5c-0.8-1.5-1.6-3-2.9-5.6c3.8,1.1,7.1,0.7,7.2,5.6h198.1v-69C294.7,537.2,292,537.1,289.4,536.9z
			 M-246.3,558.7c2.9-2.3,5.8-4.6,9.1,0.7C-240.7,559.1-243.5,558.9-246.3,558.7z M-157.3,602c-2.4-1.2-2.7-3.1-0.3-6.5
			c1.1,2.4,2,4.2,2.8,6C-155.7,601.7-156.7,602.3-157.3,602z M-126.5,578.7l0.1-1.6c3.1,0,6.2-0.2,9.2,0.2c0.5,0.1,0.7,3.2,1.1,5.4
			C-120.2,581.1-123.4,579.9-126.5,578.7z M-62.8,551.1c-1.2,0.6-2.3,1.3-3.4,1.9c3.3-6.2,3.3-6.2,6.9-3.7
			C-60.6,550-61.7,550.5-62.8,551.1z M-52.5,542.4c-2.2-0.1-4.3-0.5-6.5-0.8c0.1-0.7,0.1-1.4,0.2-2.1c2.1-0.3,4.1-0.7,6.2-0.7
			c0.6,0,1.2,1.2,1.8,1.8C-51.4,541.2-52,542.4-52.5,542.4z M10.5,543.2c-1,0.3-2.1,0-3,0.5c-5.4,3.1-10.2-2-15.4-1.3
			c-0.5,0.1-1.3-2.3-1.8-3.4c2.6-4.2,5.1-0.7,7.6-0.6c2.4,0,4.7-0.1,7.1-0.2c2.6,0.9,4.8,3.1,7.2-2.3c1,2.5,1.5,4.1,2.1,5.6
			C13,542.1,11.8,542.8,10.5,543.2z M32.9,603.1c-1.5-2.5-3.1-5-2-8.4c0.4-0.2,0.9-0.3,1.3-0.5c0.8,2.8,1.6,5.5,2.5,8.3
			C34,602.7,33.5,602.9,32.9,603.1z M33.2,544.3c-0.2-0.5-0.3-1.1-0.5-1.6c1.5-0.6,3-1.8,4.4-1.7c0.7,0.1,1.4,2.4,2.5,4.7
			C36.6,545.1,34.9,544.7,33.2,544.3z M62.5,549.8c-3.1-3,4.8-6.1-0.2-8.9c-2.1,2.2-4,4.3-6,6.3c-0.3-0.1-0.7-0.2-1-0.3
			c0.4-2.4,0.3-5.3,1.4-6.9c1.1-1.6,4.6-3.1,5.4-2.3c2.5,2.3,4.2,5.7,6.5,9.2C65.7,548.3,64,549.1,62.5,549.8z"/>
		<path class="st1" d="M-104.2,534.6c-1.3,1-2.5,2.2-3.9,3c-0.1,0.1-1-1.2-1.5-1.9c1.3-1.1,2.7-2.2,4-3.3
			C-105.1,533.2-104.6,533.9-104.2,534.6z"/>
	</g>
	<g>
		<g>
			<path class="st3" d="M-104.2,534.6c-0.5-0.7-0.9-1.4-1.4-2.1c-1.3,1.1-2.7,2.2-4,3.3c0.5,0.7,1.3,1.9,1.5,1.9
				C-106.7,536.8-105.5,535.7-104.2,534.6z"/>
		</g>
		<line class="st4" x1="-164.2" y1="531.8" x2="-128.2" y2="531.8"/>
		<line class="st4" x1="-164.2" y1="538.1" x2="-128.2" y2="538.1"/>
		<line class="st4" x1="-110.2" y1="592.1" x2="-110.2" y2="556.1"/>
		<line class="st4" x1="-49.6" y1="531.8" x2="-85.6" y2="531.8"/>
		<line class="st4" x1="-49.6" y1="538.1" x2="-85.6" y2="538.1"/>
		<line class="st4" x1="-103.6" y1="592.1" x2="-103.6" y2="556.1"/>
	</g>
</g>
<g id="PgDVas_6_">
	<g>
		<path class="st1" d="M2888.4,535.9c-1.9-0.1-3.7-0.5-5.6-0.8c0.8-1.6,1.7-3.2,2.5-4.8c0.1-0.2-0.1-0.6-0.2-1.4h-17.4
			c2.7,2,4.9,3.6,7.1,5.4c-3.3,2.1-5.2-0.1-7.1-2.5c-2.2-2.9-5-4.9-7.9-2.3c-2.5,2.1-4.3,1.7-6.6,0.2c-0.8-0.5-1.9-1.1-2.8-1.1
			c-6.9,0.2-13.8,0.7-20.7,0.8c-11.3,0.1-22.6,0.1-33.9,0c-1.5,0-3.2-0.9-4.5-1.9c-3-2.4-8.4-2.4-11.5-0.7c-3,1.6-6.4,2.1-9.6,2.9
			c-2,0.5-4.7,0.1-6.1,1.4c-5.9,5.9-5.8,6.1-13,1.3c2.8-0.4,5.5-0.8,8.3-1.2c-2-1.5-4.8-1.1-5.8-2.4c-3.6-4.7-6.6-2-9.7,0.3
			c-3.5,2.7-8.5,2.1-12-1c-1.3-1.1-4.2-1.2-5.6-0.2c-2.3,1.5-3.9,2.9-6.9,1.8c-1.6-0.6-3.9,1.2-5.8,1.7c-1.6,0.5-4.3,1.6-4.6,1
			c-2.5-4.2-4.7-2.1-7.3,0.5c-2.5-3.3-3.7-8.8-9.1-7c-0.4,2-0.8,4.1-1.2,6.5c-2.8-1-5.2-2.4-7.7-2.5c-8.2-0.3-16.4-0.4-24.6-0.1
			c-3.6,0.1-7.2,1.7-10.7,1.6c-4.7-0.2-9.3-1.7-14-2c-2.5-0.1-5,1.3-7.4,2c0.8,4,1.4,6.9,2.2,10.6c-4.5-0.5-8.3-0.9-12.1-1.4
			l0.1-1.3c5.4,0.1,7.3-2.1,7.8-9.2c-2.9,0-5.7,0-8.6,0c-6,0.1-12.1,0-18.1,0.3c-2.9,0.1-5.8,1-9.2,1.6c-9.2,0.4-18.8-2.7-29.1-0.8
			c-10,1.8-20.5,0-31-0.3c0.2-1.8,0.2-2.6,0.4-3.4c0.2-0.5,0.4-1,0.6-1.6c-0.3,0-0.6,0.1-0.9,0.1c-1.3,0.4-2.6,0.6-3.9,0.8
			c-1.4,0.2-2.8,0.3-4.3,0.4c-1.1,0.1-2.1,0.3-3.2,0.4c-4.3,0.5-8.5,0.7-12.8,0.3c-0.4,0-0.8-0.1-1.2-0.2c-0.6,0-1.3,0-1.9,0
			c0.4,2.6,0.9,5.3,1.3,7.9c0.1,0.9,0.1,2-0.2,2.8c-0.5,1.1-1.3,2-2,3c1.2,0.1,2.5,0.3,3.9,0.4c1.1,3.5-0.1,5.1-3.3,5.2
			c-1.6,0.1-3.1,0.5-4.7,0.7c-4.8,0.7-9.6,1.4-14.4,2c-0.1-0.8-0.2-1.5-0.3-2.3c1.2-0.3,2.5-0.5,3.7-0.8c3.5-1,7.1-1.8,10.5-3.1
			c0.6-0.2,0.7-2.3,1-3.5c-1.2-0.4-2.3-0.9-3.5-1.2c-1.5-0.3-3.6,0.1-4.6-0.8c-1.8-1.8-3-4.4-4.4-6.7c-4.2,3.6-6,3.5-10,0.3
			c-4.2,0.3-7.2,0.5-10.3,0.6c-3.7,0.2-7.4,0.7-11,0.4c-5.6-0.5-11.6,1.9-16.8-2.6c-0.5-0.5-1.6-0.2-2.5-0.1
			c-4.6,0.4-9.3,1-13.9,1.1c-18.6,0.3-37.3,0.5-55.9,0.7c-2.4,0-4.8,0.7-7.2,0.6c-3.3-0.2-6.5-1.2-9.8-1.2
			c-21.8,0.2-43.6,0.7-65.5,0.7c-12,0-24-0.8-36-1c-14.9-0.2-29.8,0-44.7,0.1v74h127.7c0.5-2.7,0.9-5.3,1.5-8.3
			c3.1,1.5,3.4,4.9,3.7,8.3H2508c-0.3-2.6-0.5-5.2-0.8-8.2c3.1,1.2,5.3,3.6,5.2,8.2h16.5c0.7-2.3,1.4-4.5,2-6.8
			c0.5-1.6,0.8-3.3,1.4-5.8c3.8,4,7.2,7.2,7.8,12.6h63.4c0.5-4.3,3.6-7.2,7.5-7c4.4,0.2,3.9,3.7,3.8,7h33c1.6-3.6,4.8-3.3,7.6-3.5
			c0.6,0,1.3,2.3,2,3.5h9.6c-1.3-3.2-2.5-6.3-3.9-9.8c2-0.5,3.5-0.9,4.5-1.2c2,2.7,3.8,5.2,5.6,7.6l1.2-0.9c0.1,1.4,0.3,2.9,0.4,4.3
			h8.7l-3.1-7.2c0.4-0.3,0.9-0.5,1.3-0.8c2.1,2.6,4.1,5.2,6.2,7.8c-0.7-3.5-1.3-6.9-2-10.4c0.5-0.1,0.9-0.2,1.4-0.4
			c1.1,3.7,2.1,7.3,3.2,11h3.5c-0.8-1.5-1.6-3-2.9-5.6c3.8,1.1,7.1,0.7,7.2,5.6h198.1v-69C2893.7,536.2,2891,536.1,2888.4,535.9z
			 M2352.7,557.7c2.9-2.3,5.8-4.6,9.1,0.7C2358.3,558.1,2355.5,557.9,2352.7,557.7z M2441.7,601c-2.4-1.2-2.7-3.1-0.3-6.5
			c1.1,2.4,2,4.2,2.8,6C2443.3,600.7,2442.3,601.3,2441.7,601z M2472.5,577.7l0.1-1.6c3.1,0,6.2-0.2,9.2,0.2
			c0.5,0.1,0.7,3.2,1.1,5.4C2478.8,580.1,2475.6,578.9,2472.5,577.7z M2536.2,550.1c-1.2,0.6-2.3,1.3-3.4,1.9
			c3.3-6.2,3.3-6.2,6.9-3.7C2538.4,549,2537.3,549.5,2536.2,550.1z M2546.5,541.4c-2.2-0.1-4.3-0.5-6.5-0.8c0.1-0.7,0.1-1.4,0.2-2.1
			c2.1-0.3,4.1-0.7,6.2-0.7c0.6,0,1.2,1.2,1.8,1.8C2547.6,540.2,2547,541.4,2546.5,541.4z M2609.5,542.2c-1,0.3-2.1,0-3,0.5
			c-5.4,3.1-10.2-2-15.4-1.3c-0.5,0.1-1.3-2.3-1.8-3.4c2.6-4.2,5.1-0.7,7.6-0.6c2.4,0,4.7-0.1,7.1-0.2c2.6,0.9,4.8,3.1,7.2-2.3
			c1,2.5,1.5,4.1,2.1,5.6C2612,541.1,2610.8,541.8,2609.5,542.2z M2631.9,602.1c-1.5-2.5-3.1-5-2-8.4c0.4-0.2,0.9-0.3,1.3-0.5
			c0.8,2.8,1.6,5.5,2.5,8.3C2633,601.7,2632.5,601.9,2631.9,602.1z M2632.2,543.3c-0.2-0.5-0.3-1.1-0.5-1.6c1.5-0.6,3-1.8,4.4-1.7
			c0.7,0.1,1.4,2.4,2.5,4.7C2635.6,544.1,2633.9,543.7,2632.2,543.3z M2661.5,548.8c-3.1-3,4.8-6.1-0.2-8.9c-2.1,2.2-4,4.3-6,6.3
			c-0.3-0.1-0.7-0.2-1-0.3c0.4-2.4,0.3-5.3,1.4-6.9c1.1-1.6,4.6-3.1,5.4-2.3c2.5,2.3,4.2,5.7,6.5,9.2
			C2664.7,547.3,2663,548.1,2661.5,548.8z"/>
		<path class="st1" d="M2494.8,533.6c-1.3,1-2.5,2.2-3.9,3c-0.1,0.1-1-1.2-1.5-1.9c1.3-1.1,2.7-2.2,4-3.3
			C2493.9,532.2,2494.4,532.9,2494.8,533.6z"/>
	</g>
	<g>
		<path class="st2" d="M2888.4,535.9c-1.9-0.1-3.7-0.5-5.6-0.8c0.8-1.6,1.7-3.2,2.5-4.8c0.1-0.2-0.1-0.6-0.2-1.4h-17.4
			c2.7,2,4.9,3.6,7.1,5.4c-3.3,2.1-5.2-0.1-7.1-2.5c-2.2-2.9-5-4.9-7.9-2.3c-2.5,2.1-4.3,1.7-6.6,0.2c-0.8-0.5-1.9-1.1-2.8-1.1
			c-6.9,0.2-13.8,0.7-20.7,0.8c-11.3,0.1-22.6,0.1-33.9,0c-1.5,0-3.2-0.9-4.5-1.9c-3-2.4-8.4-2.4-11.5-0.7c-3,1.6-6.4,2.1-9.6,2.9
			c-2,0.5-4.7,0.1-6.1,1.4c-5.9,5.9-5.8,6.1-13,1.3c2.8-0.4,5.5-0.8,8.3-1.2c-2-1.5-4.8-1.1-5.8-2.4c-3.6-4.7-6.6-2-9.7,0.3
			c-3.5,2.7-8.5,2.1-12-1c-1.3-1.1-4.2-1.2-5.6-0.2c-2.3,1.5-3.9,2.9-6.9,1.8c-1.6-0.6-3.9,1.2-5.8,1.7c-1.6,0.5-4.3,1.6-4.6,1
			c-2.5-4.2-4.7-2.1-7.3,0.5c-2.5-3.3-3.7-8.8-9.1-7c-0.4,2-0.8,4.1-1.2,6.5c-2.8-1-5.2-2.4-7.7-2.5c-8.2-0.3-16.4-0.4-24.6-0.1
			c-3.6,0.1-7.2,1.7-10.7,1.6c-4.7-0.2-9.3-1.7-14-2c-2.5-0.1-5,1.3-7.4,2c0.8,4,1.4,6.9,2.2,10.6c-4.5-0.5-8.3-0.9-12.1-1.4
			l0.1-1.3c5.4,0.1,7.3-2.1,7.8-9.2c-2.9,0-5.7,0-8.6,0c-6,0.1-12.1,0-18.1,0.3c-2.9,0.1-5.8,1-9.2,1.6c-9.2,0.4-18.8-2.7-29.1-0.8
			c-10,1.8-20.5,0-31-0.3c0.2-1.8,0.2-2.6,0.4-3.4c0.2-0.5,0.4-1,0.6-1.6c-0.3,0-0.6,0.1-0.9,0.1c-1.3,0.4-2.6,0.6-3.9,0.8
			c-1.4,0.2-2.8,0.3-4.3,0.4c-1.1,0.1-2.1,0.3-3.2,0.4c-4.3,0.5-8.5,0.7-12.8,0.3c-0.4,0-0.8-0.1-1.2-0.2c-0.6,0-1.3,0-1.9,0
			c0.4,2.6,0.9,5.3,1.3,7.9c0.1,0.9,0.1,2-0.2,2.8c-0.5,1.1-1.3,2-2,3c1.2,0.1,2.5,0.3,3.9,0.4c1.1,3.5-0.1,5.1-3.3,5.2
			c-1.6,0.1-3.1,0.5-4.7,0.7c-4.8,0.7-9.6,1.4-14.4,2c-0.1-0.8-0.2-1.5-0.3-2.3c1.2-0.3,2.5-0.5,3.7-0.8c3.5-1,7.1-1.8,10.5-3.1
			c0.6-0.2,0.7-2.3,1-3.5c-1.2-0.4-2.3-0.9-3.5-1.2c-1.5-0.3-3.6,0.1-4.6-0.8c-1.8-1.8-3-4.4-4.4-6.7c-4.2,3.6-6,3.5-10,0.3
			c-4.2,0.3-7.2,0.5-10.3,0.6c-3.7,0.2-7.4,0.7-11,0.4c-5.6-0.5-11.6,1.9-16.8-2.6c-0.5-0.5-1.6-0.2-2.5-0.1
			c-4.6,0.4-9.3,1-13.9,1.1c-18.6,0.3-37.3,0.5-55.9,0.7c-2.4,0-4.8,0.7-7.2,0.6c-3.3-0.2-6.5-1.2-9.8-1.2
			c-21.8,0.2-43.6,0.7-65.5,0.7c-12,0-24-0.8-36-1c-14.9-0.2-29.8,0-44.7,0.1v74h127.7c0.5-2.7,0.9-5.3,1.5-8.3
			c3.1,1.5,3.4,4.9,3.7,8.3H2508c-0.3-2.6-0.5-5.2-0.8-8.2c3.1,1.2,5.3,3.6,5.2,8.2h16.5c0.7-2.3,1.4-4.5,2-6.8
			c0.5-1.6,0.8-3.3,1.4-5.8c3.8,4,7.2,7.2,7.8,12.6h63.4c0.5-4.3,3.6-7.2,7.5-7c4.4,0.2,3.9,3.7,3.8,7h33c1.6-3.6,4.8-3.3,7.6-3.5
			c0.6,0,1.3,2.3,2,3.5h9.6c-1.3-3.2-2.5-6.3-3.9-9.8c2-0.5,3.5-0.9,4.5-1.2c2,2.7,3.8,5.2,5.6,7.6l1.2-0.9c0.1,1.4,0.3,2.9,0.4,4.3
			h8.7l-3.1-7.2c0.4-0.3,0.9-0.5,1.3-0.8c2.1,2.6,4.1,5.2,6.2,7.8c-0.7-3.5-1.3-6.9-2-10.4c0.5-0.1,0.9-0.2,1.4-0.4
			c1.1,3.7,2.1,7.3,3.2,11h3.5c-0.8-1.5-1.6-3-2.9-5.6c3.8,1.1,7.1,0.7,7.2,5.6h198.1v-69C2893.7,536.2,2891,536.1,2888.4,535.9z
			 M2352.7,557.7c2.9-2.3,5.8-4.6,9.1,0.7C2358.3,558.1,2355.5,557.9,2352.7,557.7z M2441.7,601c-2.4-1.2-2.7-3.1-0.3-6.5
			c1.1,2.4,2,4.2,2.8,6C2443.3,600.7,2442.3,601.3,2441.7,601z M2472.5,577.7l0.1-1.6c3.1,0,6.2-0.2,9.2,0.2
			c0.5,0.1,0.7,3.2,1.1,5.4C2478.8,580.1,2475.6,578.9,2472.5,577.7z M2536.2,550.1c-1.2,0.6-2.3,1.3-3.4,1.9
			c3.3-6.2,3.3-6.2,6.9-3.7C2538.4,549,2537.3,549.5,2536.2,550.1z M2546.5,541.4c-2.2-0.1-4.3-0.5-6.5-0.8c0.1-0.7,0.1-1.4,0.2-2.1
			c2.1-0.3,4.1-0.7,6.2-0.7c0.6,0,1.2,1.2,1.8,1.8C2547.6,540.2,2547,541.4,2546.5,541.4z M2609.5,542.2c-1,0.3-2.1,0-3,0.5
			c-5.4,3.1-10.2-2-15.4-1.3c-0.5,0.1-1.3-2.3-1.8-3.4c2.6-4.2,5.1-0.7,7.6-0.6c2.4,0,4.7-0.1,7.1-0.2c2.6,0.9,4.8,3.1,7.2-2.3
			c1,2.5,1.5,4.1,2.1,5.6C2612,541.1,2610.8,541.8,2609.5,542.2z M2631.9,602.1c-1.5-2.5-3.1-5-2-8.4c0.4-0.2,0.9-0.3,1.3-0.5
			c0.8,2.8,1.6,5.5,2.5,8.3C2633,601.7,2632.5,601.9,2631.9,602.1z M2632.2,543.3c-0.2-0.5-0.3-1.1-0.5-1.6c1.5-0.6,3-1.8,4.4-1.7
			c0.7,0.1,1.4,2.4,2.5,4.7C2635.6,544.1,2633.9,543.7,2632.2,543.3z M2661.5,548.8c-3.1-3,4.8-6.1-0.2-8.9c-2.1,2.2-4,4.3-6,6.3
			c-0.3-0.1-0.7-0.2-1-0.3c0.4-2.4,0.3-5.3,1.4-6.9c1.1-1.6,4.6-3.1,5.4-2.3c2.5,2.3,4.2,5.7,6.5,9.2
			C2664.7,547.3,2663,548.1,2661.5,548.8z"/>
		<path class="st1" d="M2494.8,533.6c-1.3,1-2.5,2.2-3.9,3c-0.1,0.1-1-1.2-1.5-1.9c1.3-1.1,2.7-2.2,4-3.3
			C2493.9,532.2,2494.4,532.9,2494.8,533.6z"/>
	</g>
	<g>
		<g>
			<path class="st3" d="M2494.8,533.6c-0.5-0.7-0.9-1.4-1.4-2.1c-1.3,1.1-2.7,2.2-4,3.3c0.5,0.7,1.3,1.9,1.5,1.9
				C2492.3,535.8,2493.5,534.7,2494.8,533.6z"/>
		</g>
		<line class="st4" x1="2434.8" y1="530.8" x2="2470.8" y2="530.8"/>
		<line class="st4" x1="2434.8" y1="537.1" x2="2470.8" y2="537.1"/>
		<line class="st4" x1="2488.8" y1="591.1" x2="2488.8" y2="555.1"/>
		<line class="st4" x1="2549.4" y1="530.8" x2="2513.4" y2="530.8"/>
		<line class="st4" x1="2549.4" y1="537.1" x2="2513.4" y2="537.1"/>
		<line class="st4" x1="2495.4" y1="591.1" x2="2495.4" y2="555.1"/>
	</g>
</g>
<g id="PgDVas_1_">
	<g>
		<g>
			<path class="st6" d="M728.7,208.1c-5.6-1.1-11.2-2.8-16.9-3.1c-17.2-0.9-33.3-9.5-50.5-10.8c-10.4-0.8-20.7-4.3-31-6.7
				c-0.9-0.2-1.9-0.4-2.5-1c-9.2-9.2-20.4-6-30.3-5.5c-9.3,0.5-18-1.6-26.8-2.9c-10.2-1.6-20.2-6.1-30.4-8.2
				c-8.5-1.7-17.2-1.8-25.8-2.7c-2.1-0.2-4.6,0.1-6.3-1.2c-7-5.1-15.4-3.4-22.6-9.3c-6.1-5-14.3-6.2-21.7-8.3
				c-13.7-3.8-27.4-6.5-41.6-4.7c-14.8,1.9-29.7,2.1-44.6,3.1c-2.2,0.1-4.3,0.5-6.5,0.7c-2.3-2.3-5-4-7.7-4.3
				c-12.4-1.6-13.9-3.7-11.6-16.7c0.1-0.4-0.2-0.8-0.4-1.2c-17-10.5-62.4-20.1-90.9-19.1c-2.7,2.7-4,5.2-5.6,5.6
				c-5.4,1.2-9,8.1-15.6,5.9c-3.5-1.2-8.5,6.5-7.5,10.1c1.6,5.7-0.4,6-3.8,5.1c-0.4-0.1-0.9,0.4-1.3,0.6c0.6,1.6,1.1,3,1.8,5.1
				c-2.6-1.3-4.4-2.2-6.2-3.2c-0.1,0.5-0.3,0.9-0.4,1.4l3.4,5.1c-0.2,0.6-0.4,1.2-0.5,1.7c-3.2-0.2-6.6-1.4-9.5-0.4
				c-5.1,1.8-9.2-0.7-13.8-2.4c-7.2-2.7-14.6-4.8-22-5.9c-4.8-0.7-9.8,2-14.6,1.3c-7.9-1.1-15,0.6-22.1,4.8
				c-6.1,3.6-12.2,7.2-18.5,10.4c-5,2.5-9,7.7-15.1,7.9c-1.6,0-3.8,3-6.5,1.2c-4-2.6-7.9-3.7-11.3,1.7c-0.5,0.7-1.6,1.3-2.4,1.1
				c-7.6-1.9-15.2-3.1-23-1.9c-8.4,1.3-16.8,1.6-25.2,3.1c-4.6,0.9-9,3.4-13.6,5.2c1.1,3.1,1.7,5.1,2.6,7.4
				c-1.9,0.5-3.3,0.9-5.5,1.5c2.7,2.6,4.8,4.5,7.4,7c-5.5,6.5-12.1,7.3-18.1,8.7c-3.4,0.8-7.7-2.7-10.8-1.3
				c-10.1,4.5-21.3,1.2-31.2,7.8c-8.8,5.9-18.5,9.5-27.8,14.4c-1.9,1-3.2,3.6-5,5.1c-2.9,2.4-6,4.6-9.6,7.3c2.5,1.1,4,1.7,6.7,2.9
				c-3,2.3-4.9,3.8-6.8,5.2c-0.7,0.5-1.6,0.5-2.4,0.7c1.3,6.9-3,4-5.3,4.9c-0.8,0.3-1.5,1.1-2.9,2c6.2,1.6,12,5.4,16.8,4
				c13.1-3.8,25.9,0.1,38.8,0.2c5.6,0,11.2,3.2,17.2,5.1c0.1-1.5,0.3-3.4,0.4-5.1c2,0,3.8,0.6,5.2-0.1c5.4-2.6,14.1-0.2,16.9,6
				c3.7,8.4,10,11.2,16.5,14.4c7.5,3.7,15.3,6.4,21.5,14.4c6,7.7,13.2,14.5,20.9,19.3c10.2,6.3,21.2,10.5,32.1,15
				c9.5,3.9,19.3,6.6,28.8,10.6c18.3,7.8,36.5,15.9,54.5,24.7c6.7,3.3,13.7,7.6,18.9,13.7c9.5,11.2,18.1,23.7,26.4,36.3
				c11.5,17.5,22.9,34.9,37,49.5c6.2,6.4,11,15.3,12.4,26.2c1.9,14.4,4.2,28.7,6.2,43c0.2,1.2,0.2,2.7-0.3,3.8
				c-0.6,1.5-1.7,2.7-2.5,4c1.5,0.2,3,0.4,4.8,0.6c0.2,0.8,0.4,1.5,0.5,2.2c1.9,0.5,3.8,0.9,5.7,1.3c5,0.7,10,1.4,14.9,2.2
				c0.1-0.1,0.2-0.3,0.3-0.4c-0.3,0-0.6-0.1-0.9-0.1c0.3,0,0.6,0.1,0.9,0.1c0.5-0.7,1.1-1.4,1.6-2.1c0.4-0.6,0.9-1.1,1.4-1.6
				c0.8-1.9,1.9-3.5,3.4-4.4c0.2-0.1,0.4-0.2,0.6-0.3c2.3-2.6,4.7-5.1,7.2-7.4c-0.4-1.3-0.6-2.6-0.6-4c-1.6-0.1-3.3-0.2-4.9-0.2
				c0.3-2.4,0.2-3.6,0.5-4.6c7.9-24,21.2-41.4,40.3-51.4c3.1-1.6,6.5-3,9.2-5.4c5.7-5,11.1-10.6,16.5-16.2
				c7.1-7.4,14.2-14.9,20.9-22.8c5.9-7,11.1-15.1,16.9-22.2c13.1-15.9,30.6-19.7,46.9-26.4c8.1-3.4,17.6-2.9,24.8-8
				c12.4-8.6,25.7-13.8,39-18.7c24.2-9,41.7-28.8,55.4-54.5c4.1-7.6,8.1-14.5,15.3-18.1c4.3-2.1,7.8-6,7.3-13.2
				c-0.2-3.3,0.6-6.7,1-10.1c0.7-5.5,1.9-9.9,7.4-5.5c1,0.8,2.8,0.4,4.2,0.3c4.2-0.5,8.5-1.6,12.7-1.7c7.2-0.3,14.5-0.2,21.7,0
				c7.1,0.2,14.2,0.9,21.2,1.2c3.1,0.1,6.3-0.1,9.3-0.6c3.9-0.6,7.7-1.4,11.5-2.6c1.4-0.5,2.5-2.5,3.7-3.8c-0.3-0.8-0.6-1.5-0.9-2.3
				c-3.8,0.4-7.6,0.7-11.3,1.1c-0.3-0.6-0.5-1.2-0.8-1.9c3.6-2.6,7-5.5,10.7-7.7c2.8-1.7,5.9-2.8,9-3.9c1.8-0.7,3.8-0.7,5.7-1.2
				c3.3-0.9,6.6-2,9.9-3C728.9,210,728.8,209.1,728.7,208.1z M31.4,264.8c-3.7-2.1-6.9-3.9-10-5.9c-0.2-0.1,0.4-2.2,0.7-3.4
				c-0.8-0.8-1.8-1.3-2.4-2.3c-1.1-1.8-2.2-3.7-2.9-5.7c-0.2-0.6,1.1-2.9,1.5-2.8c2,0.2,4.4,0.4,5.9,1.9c1.7,1.6,2.5,4.6,4.3,8.3
				c-2.7,0.2-4.6,0.4-6.5,0.6c3,0.9,6,1.7,9.5,2.7V264.8z M25.7,246.1c4,0.2,6.6,0.4,10.3,0.6C32.3,252,29.6,252.2,25.7,246.1z
				 M576.9,236.4c0.6-1.4,2.5-1.9,4.1-3c3,2.1,5.9,3.8,8.3,6.2c0.9,0.9,1.4,3.9,0.9,5.3c-0.4,1.2-2.8,2.3-3.8,1.9
				c-2.9-1.4-5.7-3.4-8.2-5.7C577.4,240.2,576.5,237.4,576.9,236.4z M510.5,264.3c-1.1-6-0.1-8.3,4.3-6.6c5.5,2,10.7,4.1,16.5,2
				c0.2-0.1,2.1,3.8,1.7,4.7c-4.2,8.1-8.4,16.2-13.2,23.7c-2.2,3.5-5.7,5.6-9.1,8.7c-2.4-7.7-1.4-13.7,0.5-20.2
				C512.3,273.1,511.3,268.3,510.5,264.3z M523.8,292.3c-0.8,3.6-1.5,7.2-2.5,11.7C516.2,297,516.2,297,523.8,292.3z M491.3,254.1
				c3.9,3,2,6.5-0.4,8.6c-6.4,5.7-13,11.1-19.7,16.2c-5.6,4.3-11.7,4.2-17.7,1.7l-0.5-2.1c2.6-2.4,5.3-4.8,8.2-7.6
				c-5-5.6-1.9-9.7,1.5-13.2c4.4-4.4,9.1-8.2,15-13.5C481.9,247.2,486.7,250.5,491.3,254.1z M457.5,247.3c1.4-1.3,4.5,0.2,6.9,0.5
				c-0.9,1.8-1.6,3.7-2.8,5.2c-1.3,1.7-2.9,2.9-4.3,4.4c-0.7-0.5-1.5-0.9-2.2-1.4C455.8,253,455.9,248.9,457.5,247.3z M445.3,284.4
				c-9,7.5-17.6,16.1-26.7,23.4c-6.5,5.2-13.6,8.9-20.5,13.3c-0.5-1.1-1.1-2.2-1.6-3.3c7.1-7.1,13.7-15.2,21.5-20.9
				c6.6-4.9,9.5-12.9,14-19.6c0.7-1,1.1-2.6,1.9-3.1c6.5-4.3,13.2-8.4,19.8-12.6C454.8,270.7,451,279.6,445.3,284.4z M327.9,321.2
				c1.8,10.4,0.2,22.3-3.1,26.3C319.7,337.9,325.8,331,327.9,321.2z M326,305c-2.5,2.1-5,4.4-7.6,6.2c-0.2,0.1-2.1-2.4-2.3-3.9
				c-0.4-3.2,4.1-7.6,7-7.1c1.3,0.3,2.5,1.3,3.8,1.9C326.6,303.1,326.3,304.1,326,305z M343.2,267.6c3.5,7.2,3.5,8.6-2,12.8
				c-3.2,2.4-6.6,4.5-10,6.7c-0.8,0.5-1.7,0.6-3.6,1.2c-1.3-17-2.7-32.9,13.4-40.4c1.9,2.7,2.6,5.9,0.8,10.7
				C340.9,260.8,342,265.1,343.2,267.6z M347.3,256.4c5.2-3.5,10.4-6.5,12.9-14.1c1.1-3.4,9.3-2.1,13.8,2.3
				c-9.9,6.9-19.2,13.4-28.9,20.1C343.2,261.6,344,258.6,347.3,256.4z M349.5,331.3c0,6.7,0.4,13.1-0.2,19.4
				c-0.2,2.5-2.2,5.1-3.9,6.9c-4.7,5.2-9.7,10.2-14.6,15c-1.9,1.8-4,3.2-6.9,5.5C325.2,365.2,341.4,336.3,349.5,331.3z M333,314.4
				c0-1.2,2.1-3.3,3.3-3.4c6.5-0.7,13-0.9,20.8-1.4c-8.2,9.3-15.6,17.8-23.5,26.9C333.4,328.5,333,321.5,333,314.4z M351.2,366.3
				c0.4-3.9,2.9-8.5,7.5-4.2c0.4,0.4,2.2-0.4,2.5-1.2c3.2-8.4,5.4-13.1,11.3-13.8c-0.8,9.6-2.8,18.1-7.8,25.9
				c-4.2,6.6-7,14.6-10.3,22.1c-1.1,2.5-2.1,5.2-3.1,7.8c-0.7-0.2-1.4-0.5-2.1-0.7C349.7,390.2,349.9,378.2,351.2,366.3z
				 M353.2,350.5c-0.2-5.4-0.3-11.2-0.8-16.8c-0.5-5.3,0.9-9,4.4-12c8.4-7.1,16.4-15,25-21.6c6.3-4.8,7.1-3.9,10.6,5.3
				c2.8-1,5.8-2,8.7-3C390.8,327.8,371,338.1,353.2,350.5z M392,294.2c1.4-1.6,2.5-3.8,4.2-4.8c4.5-2.7,9.1-5.1,13.8-7.3
				c2.7-1.3,5.7-2,8.5-3c0.8,2.9,0.8,4.9-2.1,6.8c-4.8,3.2-9.1,7.7-13.7,11.5c-1.2,1-2.9,2.5-3.8,2C396.4,298,394.3,295.9,392,294.2
				z M453.4,244.1c0,4.6,0.1,9-0.1,13.4c0,1-0.7,2.3-1.3,2.7c-4.6,2.7-9.5,4.8-14,7.7c-4.3,2.8-8.4,6.3-12.5,9.8
				c-2.3,2-4.3,5.3-7,1.2c0,0,0,0,0,0c1.5-1.3,3-2.5,4.5-3.9c1.2-1.1,2.8-2,3.6-3.5c6.4-12.1,16.6-18.5,25.2-27.2
				C452.2,244,452.8,244.2,453.4,244.1z M426.2,241.4c-0.5-1.3-0.8-1.9-0.9-2.5c-0.6-3.2-1.3-6.5-1.7-9.7c0-0.2,2.2-1.4,2.6-1
				c2.4,2.5,4.7,5.3,6.8,8.2c0.4,0.5-0.2,2.2,0.1,2.5c6.4,5.3,1.9,9.2-1.1,12.8c-5.2,6.2-10.1,13.1-16.1,17.6
				c-6.8,5-14.6,7.7-22,11.4c-0.4-0.7-0.9-1.5-1.3-2.2c1.1-1.6,2.2-4.5,3.4-4.7c5-0.6,7.5-5.2,10.4-9.3c1.6-2.3,4.2-3.5,5.9-5.7
				c2.4-3.3,7.9-3.9,6.4-11c-0.2-0.8,1.7-2.5,2.8-3.4C422.9,243.2,424.6,242.4,426.2,241.4z M408.8,226.9c0.9,0.9,2.3,0.9,3.5,1.2
				c2.1,0.7,5.3,0.6,5.9,2.1c1.6,4.2,3.4,9-1.6,12.7c-1.8,1.3-1.9,5.9-3.6,7.7c-4.4,4.7-8.9,9.2-13.9,12.7
				c-5.1,3.5-9.3,7.2-10.7,14.8c-0.3,1.9-1.1,4-2.2,5.3C372,299.8,355.8,309.5,336,306c-1.4-0.3-3.4-3.2-3.6-5.2
				c-0.2-2.3,0.7-5.9,2.1-7.1c6.1-5,12.5-9.3,19.1-14.1c-4-10.2-3.2-12.1,4.1-17.1c9.1-6.3,18.6-12.1,26.3-20.6
				c4.9-5.4,10.2-9.7,15.5-14.4C402.4,225,405.5,223.4,408.8,226.9z M395,224.8c-4.1,3.5-6.8,5.8-10.7,9.2
				c-0.2-5.8-0.4-9.6-0.6-15.1C387.6,221,390.5,222.5,395,224.8z M360.4,226.6c0.6-0.8,1.3-1.6,2.1-1.9c5.4-1.9,10.9-3.9,16.4-5.4
				c1.1-0.3,3.6,1.3,3.6,1.9c-0.2,4.5,0.2,10-1.7,13.2c-3,5.1-8.4,8.1-13.1,3.8c-4-3.6-7.2-3.8-11.2-1c-0.8,0.6-2.2,0-3.3-0.1
				C355.8,233.1,358.1,229.8,360.4,226.6z M357,245.8c-2.7,2.2-5.2,4.7-8.1,6.4c-0.8,0.5-3.1-0.7-3.6-1.8c-0.9-2.1-1.5-5-1.1-7.1
				c0.2-1.1,3.3-1.9,4.8-1.5C351.4,242.3,353.6,244,357,245.8z M344.7,214.6c1,6.6-0.9,9.2-7.6,10.9
				C336.4,218.3,341.4,218,344.7,214.6z M348.2,227.6c0.7,0.3,1.7,1.9,1.6,2.8c-0.1,1.3-0.9,3.3-1.7,3.6c-4,1.5-8,2.4-12.3,3.7
				C336.9,230.7,343.6,225.6,348.2,227.6z M326.1,245.5c-0.3-0.4-0.7-0.9-1-1.3c2.1-3.2,4.2-6.4,7.2-11
				C333.2,241.9,329.6,243.7,326.1,245.5z M322.7,215.5c0.6-0.3,1.3-0.6,1.9-0.9c2.2,3.1,4.3,6.2,6.5,9.3c-2.9,2.5-5.9,5.1-8.8,7.6
				c-0.7-0.6-1.4-1.2-2-1.8C321,225,321.9,220.3,322.7,215.5z M321.3,283.3c0,3.4-2.9,8-5.3,8.8c-1.6-9.9-3.1-19.5-4.8-30.6
				C319.4,267,321.3,274.5,321.3,283.3z M303.9,214.4c3.8,1.5,7.5,3.7,11.2,5.6c0.2,0.9,0.3,1.8,0.5,2.7c-2.5,2.6-4.9,5.3-7.4,7.9
				c-2.4-4.1-5-8-7.1-12.3C300.8,217.9,303.3,214.2,303.9,214.4z M308.6,247.4c0,8.8-1.9,10.5-10.1,8.9
				C302.2,253,305,250.6,308.6,247.4z M293.9,253.6c-0.6-8.5,6-15.2,12.1-12.7c0.6,0.2,1.4,1.2,1.3,1.8c0,1-0.4,2.5-1,2.9
				C302.4,248.2,298.4,250.7,293.9,253.6z M290.5,230.8c0.7-2.8,2.1-5.4,3.5-8.7c2.5,4,5.3,8.6,8.7,14.1c-3.2,0.9-5.5,1.9-7.9,2.2
				c-1.3,0.2-3.4-0.4-3.9-1.5C290.2,235.3,290.1,232.7,290.5,230.8z M292.1,261.1c-3.7,5.1-7.4,10.2-11.2,15.5
				c-5.5-8.1-4.5-12.2,2.4-14.2c2.7-0.8,5.4-1.7,8.2-2.6C291.6,260.3,291.9,260.7,292.1,261.1z M282.4,219.3c1.8-2.3,3.4-4.3,4.7-6
				c1,3.2,1.4,5.3,2.2,7.3c2.1,5.2-0.1,9.6-5.8,11.7c1.4,3,3.7,5.9,3.9,9c0.2,2.6-2.1,5.4-3.3,8.1c-1.2-2-3.2-3.7-3.6-5.9
				c-1.5-8.1-2.6-16.4-4-25.8C279.7,218.6,281.3,219,282.4,219.3z M274.8,226.9c0.3,5.5,0.7,11,1.1,18.5c-2.5-2.1-4.3-3.7-5.6-4.8
				c1.1-5.9,1.9-10,2.6-14.1C273.6,226.6,274.2,226.8,274.8,226.9z M263.6,215.8c0.1-0.7,4.9-1.1,5.7,0.1c1.5,2.3,2.3,6.1,2.2,9.1
				c-0.1,2.3-2.1,4.5-3.7,7.5c-1.9-1.2-5.3-2.2-5.4-3.8C262,224.5,262.7,220,263.6,215.8z M261.6,234.2c1.3,0.4,2.5,1.5,3.5,2.7
				c2.6,3.4,4.6,7.6,7.5,10.4c4.9,4.6,5.4,8.1-0.4,11c-5.7,2.9-8.5,6.7-7.2,14.6c-7.5-3.5-9.2-7.1-7.4-14.2
				c-4.5-6-8.9-11.6-13.1-17.6c-1.2-1.7-1.8-4.4-2.2-6.8c-0.6-4.1,1.3-5.3,4.1-4.6C251.5,231.2,256.6,232.6,261.6,234.2z
				 M235.5,273.9c-1.6-1.7-2.2-6.5-1.7-9.6c1.2-7.9,0.5-15-2.8-22c-3.7-7.9-2.9-11.1,3.4-15.9c1.5-1.2,3.3-1.9,4.7-3.1
				c3-2.5,4.3-0.6,5.6,3.1c-1.7,0.8-3.1,1.5-4.7,2.3c-0.2,7.6,1.6,13.8,6.4,18.9c3.7,3.9,7,7.8,7,15.5c0,3.9,5,8.2,8.1,11.5
				c7,7.5,14.5,13.9,12.9,28.1c-0.9,7.4,0.5,15.2,0.7,22.8c0.1,2.1-0.4,4.2-0.7,6.3c-10.8-14-22.6-24.4-35.4-32.9
				c-3.4-2.3-4-5-1.8-9.2C240.3,284.1,240.2,279,235.5,273.9z M223.9,275.2c0.8-3.9-2-7.3-6-6.7c-9.2,1.5-9.5,1.3-13.9-8.8
				c-0.5-1.2-0.8-2.8-1.6-3.5c-7.7-7-4.3-15.5-2.1-23.9c0.3-1,0.4-2.1,0.5-3.2c0-0.3-0.3-0.7-0.7-1.5c-1.5,0.8-3.1,1.7-4.9,2.7
				c-1.1-1.6-2.2-3.2-3.1-4.5c5.1-1.9,9.9-4.6,14.9-5.1c3.1-0.3,6.4,3.3,9.8,3.9c4.5,0.8,5,4.1,5.6,8.8c0.4,3.4,2.2,6.6,3.7,9.5
				c3.4,6.6,3.6,13.5,1.7,20.7c-1.6,5.9-0.3,11.1,2.8,15.5c2.7,3.7,2.2,6.7-1,10C226.3,285.4,222.3,283.1,223.9,275.2z M226.7,311.1
				c-4.7-3-5.5-6.6-3-12.3C228.1,302.1,228.1,306,226.7,311.1z M114.3,288.9c2,1.1,4.1,1.8,5.8,3.4c0.9,0.8,0.9,3.1,1.3,4.8
				c-1.6,0.1-3.7,1.1-4.6,0.2c-1.6-1.7-2.4-4.5-3.5-6.8C113.6,289.9,113.9,289.4,114.3,288.9z M110,263.1c0.9,2.5,1.7,5,2.7,7.8
				c4.7-0.4,6.6,1.9,6.8,9.5C109,279.4,107.9,277.7,110,263.1z M113.4,259.5c0.9-0.5,2.4-1.3,4-2.2v-4.8c2,0.3,3.9,0.6,5.7,1
				c1,0.2,2.6,0.2,3,1c5.7,11.4,16.6,11.6,24.5,18.4c4.9,4.3,10.9,6.6,16.4,9.8c1.1,0.7,3.2,1.8,3.1,2.2c-1.3,8.5,6.3,11.1,7.6,17.4
				c-7.3-3.3-15.1-4.8-20.8-9.9c-6.5-5.7-13.6-3.1-20.1-6.1c-6-2.8-12-4.1-14.7-13.2C120.5,268.2,116.5,264.4,113.4,259.5z
				 M175.7,290.7c-0.8-1.9-0.6-4.7-0.3-7c0.5-3.7,1-7.6,2.3-10.9c0.9-2.2,3.2-3.4,4.9-5c1,2.1,3.2,4.5,2.9,6.1
				c-1.3,6.5,0.6,10.5,4.6,14.3c2.3,2.1,3.5,5.9,4.5,7.5c7.4,3.8,13.6,6.9,19.7,10.3c1,0.5,2.2,3.3,1.9,4
				c-3.5,7.7-0.1,10.9,5.2,14.4c-1.1,0.2-2.4,0.9-3.4,0.5c-10-4.2-20-8.5-29.9-13.1c-1.7-0.8-3.4-2.7-4.4-4.6
				C180.7,301.8,178,296.4,175.7,290.7z M211.5,291.1c2.5,1.8,3.9,6,6.2,9.7c-11.6,0.1-27.2-13.3-28.7-24.1
				C196.7,281.6,204.4,285.9,211.5,291.1z M194.2,262.2c0.8-1.1,1.4-2.6,1.6-3.1c6.9,9,13.1,17.1,19.3,25.2
				c-0.1,0.4-0.2,0.7-0.3,1.1c-2.8-1.6-5.7-3-8.4-4.7c-3.8-2.4-7.7-4.8-11.3-7.7C190.2,269,190.2,267.6,194.2,262.2z M247.6,215.4
				c6.3-8.5,6.3-8.5,13-6.3c0,4.9,0.1,9.1-0.1,13.2c0,1.2-0.6,3.4-1.1,3.4c-3.6,0.5-7.6,1.9-10.9,0.5
				C244.4,224.5,244.4,219.8,247.6,215.4z M244.8,210.7c-0.8,2.1-1.6,4.2-2.9,7.7c-1.6-3.7-2.5-5.6-4.2-9.3
				C241,209.9,242.9,210.3,244.8,210.7z M223.3,209.9c9.8-1.9,10.8-0.9,15.4,9.8c-3.3,2.3-6.7,4.5-8.7,5.9c-4.9-2.8-8.7-5-13.9-8
				C218.9,214.6,220.9,210.4,223.3,209.9z M217.6,211.9c-4.1,4.5-7,5.9-10.7,0H217.6z M205.2,219.5c-5.4,0.4-10,0.7-16,1.1
				C193.8,211.7,201.1,211.3,205.2,219.5z M177.8,212.4c2.1,10.5,6.3,18.4,13.9,23.1c4.2,2.6,2.4,6,1,11c-2.8-5-8.3-5.6-8-12.8
				c0-0.7-1-1.9-1.7-2.3C176.5,227.2,176.5,220.3,177.8,212.4z M169.8,211.4c1.1,2,2.9,3.9,3.2,6.1c0.3,2.8,1.9,6.9-2.1,8.2
				c-0.9-4.4-1.8-8.8-2.6-13.1C168.8,212.2,169.3,211.8,169.8,211.4z M170.9,225.9c6.4,8.8,12.8,17.5,19.5,26.6
				c-9.9,4.7-22.5-4.4-23.5-16.3C166.5,232.2,166.5,227.4,170.9,225.9z M144.7,220.3c2.8-1.7,5.8-4.2,8.6-4c3.1,0.3,6.2,3,9,5.1
				c0.8,0.6,1,3.2,0.9,4.9c-0.2,3.4-1.1,6.7-1.1,10c0.1,3,1.1,5.9,1.8,9.2c-5.2-0.8-10.1-1.5-15-2.5c-1-0.2-2.5-1.5-2.8-2.6
				c-1.2-5.3-2.2-10.7-3-16.2C143,223.1,143.9,220.9,144.7,220.3z M143,248.5c1.7,0.1,3.5,0.1,5.2-0.4c10.8-3.2,19.7,1,27.4,10.5
				c2.7,3.4,3.7,6.3-0.1,9.9c-1.5,1.4-2.4,4.4-2.7,6.9c-0.5,4.4-1.8,5.5-5,3.8c-8.8-4.9-17.8-9.1-26.3-14.8
				c-8.5-5.7-8.7-7.1-12.6-20.6c3.1,2.2,4.9,3.4,6.6,4.7c0-0.4,0-0.7,0-1.1C138.1,247.8,140.6,248.3,143,248.5z M138.8,236.6
				c-2.5-0.8-4.8-1-6.7-2.4c-1.1-0.9-1.8-3.6-1.8-5.4c0-0.8,2.2-1.8,3.5-2.3c1.8-0.8,3.7-1.3,6.5-2.3
				C139.9,228.2,139.4,232,138.8,236.6z M106.5,218c3.7-2.1,7.5-3.9,11.2-5.7c0.3-0.2,0.9-0.3,1-0.1c5.8,6.5,11.9,0.9,17.8,0.7
				c0.3,0,0.6,0.3,1.5,0.8c-0.1,1.9-0.1,3.7-0.4,5.4c-0.3,1.8-1,3.5-1.5,5.3c-1.2-0.7-2.6-1.1-3.5-2.2c-3.7-4.4-8.1-3.3-12.3-2.3
				c-4.3,1-8.6,2.5-12.9,3.5c-0.9,0.2-2-1-3-1.6C105,220.4,105.5,218.5,106.5,218z M105.3,263.5c0.9,1.5-0.4,4.9-0.8,7.4
				c-2.3-1.8-4.7-3.6-7.4-5.7C100.6,259.9,103.5,260.5,105.3,263.5z M45.9,244.1c2,0.9,4,1.7,7.4,3.2c0.7,0.1,2.5,0.3,4.2,0.6
				c1,0.2,2.2,1.1,2.8,0.7c5.2-4.2,8.2-0.8,10.7,5.4c5.1-5.5,10.2-4.3,14.7,0c1.2,1.1,1.7,6.5,1,7c-3.6,3-7.7,5.1-11.9,7.1
				c2.7-0.6,5.2,1.5,8.7,0.3c2.9-0.9,8.4-3.4,8.6,5.4c0,1.5,2,2.9,3.4,4.9c-5.6,0-10.6,0.8-15.4-0.2c-8.8-1.8-18.4-1.4-25.1-11.1
				c-3.6-5.2-7.4-10.1-10.4-15.8C43.9,250.3,45.5,246.7,45.9,244.1z M174.1,336.9c-16-7.2-31.9-14.8-48-21.6
				c-9.3-3.9-19.1-5.8-28.4-9.7c-9.7-4-20-5.9-28.3-15c-7.5-8.2-16.3-14.6-24.3-22c-1.2-1.1-1.8-3.4-2.7-5.2
				c0.4-0.6,0.9-1.1,1.3-1.7c1.3,0.9,2.8,1.5,3.7,2.8c7,10.4,16.2,15.1,26.6,16.9c9.6,1.7,19.2,3.2,28.9,4.6c5.1,0.7,8.1,5,10.6,10
				c2.6,5.4,5.9,6.6,9.4,2.1c2.9-3.7,5.2-3.2,8.6-1.4c3.2,1.8,6.9,2,10.2,3.6c2.5,1.2,6.2,3.1,6.7,5.5c1.8,9.4,8.5,12.2,13.5,17.1
				c2.7,2.7,6.4,4,9.8,5.1c5.3,1.7,9.2,5.5,13.2,12.3C180.4,339,177.1,338.3,174.1,336.9z M187.5,337.6
				c-5.5-8.1-12.2-12.6-20.2-15.8c-5.1-2-9.5-6.9-14-10.8c-1.1-0.9-1.4-3.3-2.2-5.2c13-2.3,46.8,18.6,46.2,40.5
				C193.4,342.9,189.8,341,187.5,337.6z M259.6,425.2c-6-8.8-11.9-17.9-18-26.7c-4.5-6.4-9.3-12.3-14-18.5
				c-11.8-15.8-22.9-32.2-30.9-51.6c-0.4-0.9-0.4-1.9-0.8-3.8c2.5,0.6,4.4,0.9,6.2,1.6c8.8,3.8,18.2,6.4,26,12.2
				c5.7,4.3,9.8,12.7,13.8,19.9c3.4,6.2,6.5,12.9,5.5,21.3c-0.2,2.1,1.5,4.5,2.2,6.7c4.5,13.4,8.9,26.8,13.7,41.3
				C261.6,426.6,260.3,426.2,259.6,425.2z M279.3,430.4c-0.5,0.3-1,0.6-1.5,1c-1.8-3.5-4.1-6.8-5.4-10.6c-4.8-14.3-8.8-29-13.9-43.1
				c-5.7-15.9-12.3-31.4-18.5-47.1c-2.8-7.1-5.3-14.3-7.9-21.5c0.7-0.6,1.5-1.2,2.2-1.8c12.7,7.4,24.3,16.8,32.9,31.1
				c2,3.3,4.8,8.3-1.7,9.9c0.3,0.7,0.4,1.3,0.6,1.5c8.7,5,10.7,14.5,11.1,25.5c0.6,16.9,1.6,33.8,2.3,50.7
				C279.7,427.4,279.5,428.9,279.3,430.4z M288.8,330.5c0,2.3-0.9,4.6-1.4,6.9c-0.7-0.2-1.4-0.4-2-0.5c0.5-4.7,1-9.3,1.5-15.1
				c-3.3-3.1-2.7-8.8-1.8-14.3c0.9-5.9,0.2-10.9-3.2-15.5c-3.8-5.1-2.6-10.8,2.3-14.6c0.7-0.6,1.6-1.3,1.9-2.3
				c3.4-11.1,11.1-13.5,19.8-15.3c0.9,8.1,1.8,16.2,2.7,24.3c0.2,1.7,0.1,3.4,0.3,5.1c0.8,5.9,0.8,10-4.6,14.1
				C296.3,309.1,288.7,316.7,288.8,330.5z M309.7,309.2c-1.1,16-10.5,25.9-17.1,37.6C297,333.5,294.2,315.3,309.7,309.2z
				 M294.2,426.8c-1.3-21.4-6.1-43.4,1-63.7c6.3-18.2,14.7-35.5,26.4-49.2l2.9,2.1c-1.8,4.7-3.1,9.8-5.5,13.8
				c-2.3,3.8-2.3,6.9-1.5,11.2c1,5.6,1.1,11.4,1.6,17.2c-0.6,0.1-1.3,0.2-1.9,0.3c-0.5-2.6-1.1-5.1-1.6-7.7l-0.8,0
				c-0.1,0.8-0.4,1.6-0.3,2.3c1.6,14.7-1.8,27.7-7.5,40.5c-4.1,9.2-6.6,19.4-9.9,29.1C296.4,424.3,295.5,425.6,294.2,426.8z
				 M344.7,419c-1.3,10-2.4,20.1-4.8,29.7c-1.1,4.4-4.3,9.2-7.6,11.3c-6,3.9-8.8,10.7-12.5,16.8c-1.7,2.8-2.7,6.5-4.7,9
				c-1.7,2.1-4.5,4.1-6.6,3.8c-1.9-0.2-4.8-3.4-5.1-5.7c-1.2-9-2.7-18.4-1.9-27.3c1.7-18.5,6.1-36.5,14.2-52.1
				c5.4-10.4,13.2-18.8,20.2-27.9c2.9-3.8,6.3-6.8,9.5-10.2c0.5,0.4,1,0.7,1.6,1.1c-1,10.3-2,20.7-3.2,33.1
				C347.1,404.7,345.6,411.9,344.7,419z M437.6,362.1c4.1-11.4,12-13,20.4-14.1C456.6,355,447.2,361.4,437.6,362.1z M459.6,335.5
				c-0.9,5.5-3.1,8.1-7.5,8.9c-6.6,1.3-11.9,5.4-15.9,12.4c-0.8,1.4-1.8,2.5-3.4,4.6c-0.6-8.7-1.1-16.1-1.7-23.5c-0.3,0-0.7,0-1,0
				c0.2,3.7,0.2,7.4,0.6,11c1.3,10.5-1.7,20.4-9,25.3c-8.9,6-15.9,14.3-22.6,23.6c-8.4,11.6-17.8,22-27.2,32.5
				c-2.9,3.2-6.7,5.5-10.4,7.2c-3.9,1.8-8.2,2.5-13.1,3.9c-0.1-11.9,2.4-22,6.4-31.6c3.8-9.1,6.9-19,11.6-27.3
				c6.2-11,9.2-23.1,11.8-35.7c1.4-6.8,5-9.6,10.7-9.6c2.7,0,5.3-3,8.1-4.3c2.1-1,4.4-1.3,7.5-2.2c-0.1-7.8,6.5-10.3,11.4-14.6
				c6.1-5.4,12.2-10.6,18.4-15.8c8.1-6.9,16.3-13.7,26.7-13.6c8.5,0.1,15.1-5.3,21.6-11.8c3.7-3.6,8.2-5.8,12.3-8.9
				c2-1.5,3.6-3.8,5.5-5.7c1.2-1.2,2.5-2.7,3.9-2.9c0.8-0.1,1.9,2.2,2.5,3.7c2.8,7.6,3.3,15.1-0.4,22.6c-2.4,4.8-4.3,10-7,14.4
				c-1.2,2-3.8,3.9-5.7,3.7c-8.4-1-14.1,4.8-19.7,11.3c-0.9,1.1-1.7,3-2.7,3.2C462.3,317.4,460.9,326.6,459.6,335.5z M501,300.3
				c2.1-4.3,3.7-7.6,5.9-12.3C510,297.7,509.3,299,501,300.3z M490.3,310c-2.8,1.8-5.6,3.6-8.4,5.4c-0.4-0.9-0.8-1.7-1.2-2.6
				c2.7-2,5.4-4.1,8.1-6.1C489.3,307.9,489.8,308.9,490.3,310z M466.2,351.6c-0.2-4.7-0.5-7.6-0.5-10.5c-0.3-10.9-0.2-10.6,7.7-15.3
				c6.1-3.6,11.8-8.2,17.8-12c1.9-1.2,4.4-1.8,6.6-1.7c5.4,0.1,10.7,0.8,16.6,1.3c0.3,5.6-1.8,10.6-7.1,14
				c-9.8,6.2-19.4,13.1-29.3,19.3C474.6,348.7,470.7,349.7,466.2,351.6z M590.1,273.8c-5.1,13.2-12.7,23.8-21.5,33.3
				c-11.1,12-23.8,20.5-37.8,24.4c-13.3,3.7-25.4,10.6-37.7,17c-0.9,0.5-2,0.3-4.1,0.6c7.2-6,13.4-11.3,19.6-16.2
				c4.7-3.8,9.2-7.4,11.2-14.7c0.9-3.5,3-6.6,4.9-9.5c2.7-4.1,5.1-8,3.5-13.9c-0.3-1.3,0.8-4.2,1.9-5c6.3-4.6,8-12.2,9.1-20.5
				c0.4-3.1,1-6.1,1.8-10.6c7.1,1.4,13.8,3.4,20.5,4c4.7,0.4,9.3,2.1,14.3,0c3.5-1.5,7.8-0.9,11.7-0.3
				C590.7,262.9,591.9,269,590.1,273.8z M593.7,254.4c0.8-7.5,1.6-14.9,2.5-22.7h11.9c-4.9,9-9,16.3-13,23.6L593.7,254.4z
				 M607.7,258.7c-1.8,2.4-5.2,2.8-8,3.7c-0.4,0.1-2.1-3.1-1.8-3.7c3.8-7.1,7.8-14,11.8-20.9c0.1-0.3,0.7-0.2,2-0.4
				C611.7,245.4,612,253,607.7,258.7z"/>
			<path class="st6" d="M276.3,519.8c0.7-0.6,1.4-1.3,2.1-1.9c-0.6-1-1.1-1.9-1.7-2.9c-0.9,0.8-1.8,1.7-2.8,2.5
				C274.6,518.3,275.4,519,276.3,519.8z"/>
		</g>
	</g>
</g>
<g id="HMjUHO_1_">
	<g>
		<g>
			<path class="st6" d="M2464.8,363.5c3.4-2.2,6.5-4.1,9.6-6.2c-3.1-6.6-8.4-9.6-16.8-9.6c-6.4,0-12.8-0.4-19.8-0.7
				c0.5-2.1,1.2-4,0.9-4.2c-8.1-4-10.1-17.1-24.1-12.5c-1.1,0.4-2.8-0.3-4.2-0.7c-10.6-2.6-21.2-5.5-31.9-7.9
				c-4.6-1-7.1-2.2-5.9-7.1c0.8-3.6-0.7-6.8-6.7-6.4c-5.7,0.4-11.4,0.1-17.2-0.1c-11-0.4-21.9-3.8-33.2-1.2
				c-1.3,0.3-3.2-1.3-4.7-2.1c-1.4-0.8-2.3-2.3-3.8-2.8c-5.6-1.8-11.3-3.3-17-4.9c0.4-0.8,0.8-1.8,0.8-1.8c-3.1,0.6-6.3,1.8-9.5,1.6
				c-5.8-0.4-11.6-2.1-17.4-2.3c-8.8-0.2-17.7,0.3-26.5,0.8c-10.8,0.6-21.5,1.4-32.2,2.4c-8.3,0.8-16.5,2.2-24.8,2.8
				c-2.8,0.2-7.2-0.4-8.3-1.9c-3.8-5.5-8.9-2.5-13.2-2.1c-6.7,0.7-13.2,3.3-19.9,3.7c-5.7,0.4-10.8,1.1-15.7,3.9
				c-1.4,0.8-3.7,0.9-5.4,0.7c-14.1-1.4-25.9,5-38.2,9.1c-6.8,2.2-12.1,7.6-19.7,9c-1.7,0.3-3,1.9-4.7,2.7
				c-6.4,3.1-12.8,6.2-20.6,4.7c-3.6-0.7-7.3-1.4-10.9-1.3c-6.5,0.2-13,1-20.4,1.7c-7.8,10.3-24.8,9.6-35.4,18.2
				c1,1.3,2.1,2.5,2.8,3.8c1.1,2.2-0.7,6.4,5.7,3.2c3.7-1.8,9.6-0.3,12.6-0.3c-1,0.7-3.3,2.2-5.7,3.7c0.7,0.7,1.5,1.4,2.2,2.1
				c2.4-0.3,4.8-0.6,7.7-1c-1.6,2.4-2.6,4.3-4.1,5.8c-1.8,1.7-4.1,3-6,4.3c6.3-0.4,12.9-1.1,19.5-1.2c7.5-0.1,12.3-4.1,16.9-8.2
				c3.8,10.1,8.4-1.3,12,1.4c0.8,4.7,4,7.5,9.9,7.4c3.4,0,6.9-0.3,10.3-0.2c4,0.1,8,0.5,13.8,0.9c2.3-2.7,7.1-4.9,11.3-2.9
				c6.6-2.6,11.7-4.6,16.7-6.5c3,4.1,2.3,5.3-2.6,6.4c-4.6,1-8.5,4-12.8,6.1c0.2,0.2,0.4,0.5,0.6,0.7c3-1,6.1-2,10.5-3.5
				c-1.4,3-2.1,4.4-2.8,5.9c2,0.2,4,0.4,5.3,0.6c0.7,2.4,1.3,4.1,2.3,7.4c3.5-7.5,6.2-13.3,9.5-20.3c6.8,3.2,13.2,6.1,19.4,9.1
				c5.4,2.6,10.4,5.9,16.1,8c7.1,2.6,14.8,4.1,22,6.4c11.2,3.6,22.5,7.3,33.5,11.4c3.4,1.3,6.6,3.6,9.1,6
				c7.5,7.3,14.1,15.5,22.2,22.2c5.3,4.4,6.7,9.1,4,13.7c-2.9,5.1-0.3,8.3,1.7,12.3c3.4,6.8,6.4,13.7,9.9,21.5
				c-5.4-0.5-9.2-0.9-15-1.5c5.3,5.9,10.5,8,17.3,8.5c9.4,0.7,18.2,3.1,25.2,8.9c1.4,1.1,2.6,3,2.7,4.6c0.2,2.6-0.6,5.2-1,7.9
				c-0.8-0.5-1.8-1.2-2.8-1.9c-3.8,4.6-9.3,4.1-14.5,4c0,0,0,0,0,0.1c0,0.4,0,0.7-0.1,1.1c3,0.1,5.6,1,6.3,5.1
				c0.1,0.8,2.1,1.9,3.4,2c10.9,1.4,10.8,8.4,10.8,15.3c-2.1,1-3.9,2.1-5.9,2.8c0.2,0.4,0.4,0.7,0.6,1.1c0.8,1.8,2.3,5.8,2.6,6.5
				c0.8,1.7,1.2,3.4,1.3,5.1c3.3-1.2,6.6-2.4,10.5-3.7c0.2,0.1,2,1,3.7,0.8c5.8-0.5,11.2-0.8,16,3.1c1.2,0.9,4.9-0.5,7.5-0.9
				c0-0.5-0.1-1-0.1-1.4c2,0.9,4,1.8,4.2,1.9c6.5-4.2,8.9-8.8,1.9-13.3c-0.5,0.7-1.1,1.3-1.6,2c-0.5-4.2-0.7-8.3,1.1-11.5
				c1.8-3.3,1.8-5.2-1.5-7.3c-3.1-1.9-6.4-3.7-9-6.1c-2.8-2.6-6.3-5.6-7-8.8c-1.1-5-4.7-7.6-8.9-9.7c-5.8-3-12.1-5.2-18.2-7.8
				c5.7,1.1,8.7-0.8,8.7-7.7c4.7,6.2,8.1,10.8,12.4,16.5c5.3-14.7-1.2-27.4-14.3-33.5c1.8-2.1,3.7-4.3,5.6-6.5
				c-12.8-2.4-20.8-9.9-25.6-19.7c-2.8-5.8,5.3-8.4,7.8-12.8c1.3-2.4,3.4-4.4,5.1-6.6c-0.6-0.5-1.2-1-1.8-1.4
				c-3.2,2.1-6.4,4.3-9.8,6.6c-1.5-11.8,9.4-22.8,19.6-28.8c9-5.3,12.5,4.8,20.1-0.8c1.4-4.7,8.4,0.2,13-1.3c2.6-0.8,5.4-1,8-2.3
				c8.6,0.4,12.3,6.9,17.1,12c1,1.1-0.3,4.6-1.7,6.4c-1.5,1.9-4.3,3-6.5,4.5c-5.1,3.2-9.9,7.4-15.4,4.2c-0.2,2.5,0.6,5.8-0.9,7.4
				c-5.8,6.4-11.9,12.8-18.8,18.3c-8,6.3-8.6,6.6-2.9,16c-3-0.5-5.2-0.8-7.4-1.1c1.4,1.6,2.8,3.2,4.1,4.7
				c14.2-7.3,25.6-15.6,33.5-27.1c6.6-9.6,15.5-16,28.5-17.7c2.2-0.3,4.2-1.4,6.3-2.1c-0.1-0.5-0.2-0.9-0.3-1.4
				c-2.1-0.4-4.2-0.9-6.8-1.4c0.7-2.8,1.2-7.2,2-7.2c7.4-0.6,5.5-6.4,7.1-8.1c-1.5-3.7-4.1-6.8-3.3-8.7c1.9-4.3,6.1-2.2,9.8-1.1
				c1.5,0.4,3.3,0.1,4.9,0.1c-2.7-2.3-5-4.2-7.8-6.6c11.7-1.2,21.8-1.3,31.4,2.4c-0.9,1.8-1.5,3-1.5,2.9c10.7,1,21.3,2,33.7,3.1
				c-0.9-4-1.9-8.1-3.3-14.1c5.9,2.2,10.6,3.9,15.3,5.7c1.3,0.5,2.7,2,3.7,1.8c6.4-1.2,12.8-2.8,18.8-4.2c1.5-6.1-14.2-5.3-6.5-13.5
				C2457.5,360.4,2461.6,362.1,2464.8,363.5z M2157.4,380.2c-11.9-4.5-23.7-9.2-35.6-13.9c-1.3-0.5-2.8-0.9-3.7-1.8
				c-1.4-1.3-2.3-3-3.4-4.6c1.9-0.6,3.7-1.5,5.6-1.6c3.6-0.2,7.3,0.2,11,0.4c-0.3,0.6-0.9,1.6-1.2,2.1c7.1-1.2,14.6-2.4,22.1-3.6
				c0.3,0.6,0.6,1.1,0.8,1.7c-2.7,1.4-5.4,2.7-8.5,4.3c1.4,0.9,3,2,4.5,3c3.1-1,6.9-2.2,9.8-3.1c3.3,6.6,6.5,12.8,10.3,20.2
				C2164.7,382.1,2160.9,381.5,2157.4,380.2z M2243.9,374c1.9,1.3,2.4,4.2,3.5,6.4c-2,0.5-4.3,1.9-5.9,1.4
				c-4.9-1.5-9.5-3.7-14.6-5.7C2232.4,371,2238.1,369.9,2243.9,374z M2229.3,419c-5.2-6.2-9.5-11.4-14.2-16.9
				C2224.1,402.3,2230.2,409.2,2229.3,419z M2233.2,395.6c-1,0.9-3.9,1.1-5.6,0.7c-6-1.6-11.8-3.7-17.9-5.7c1.4-2.1,2.8-4.2,4.4-6.6
				c0.8,1.3,1.4,2.4,2.8,4.7v-7.9c4.3,1.6,10.5-1.6,11.4,5.3c0.1,0.4,2.5,0.9,3.8,0.8c2.7-0.3,5.3-0.9,8-1.4c0.2,0.5,0.3,1,0.5,1.6
				C2238.2,389.9,2236.1,393,2233.2,395.6z M2242.3,411.2c-3.8-6.5-2.2-11.1,5.8-17.1c2.4,3.9,1.9,16.4-0.9,18.4
				C2246.5,413.1,2242.9,412.2,2242.3,411.2z M2271.1,471.2c-2.9,3.1-4.6,4.9-5.9,6.3c-4.5-2.9-9-5.7-13.4-8.5l0.7-1.1
				c1.5,0.1,3,0.2,5.8,0.4c-9.9-8-15.1-16.9-11.9-28.7C2254.6,450.2,2262.9,460.7,2271.1,471.2z"/>
		</g>
	</g>
</g>
</svg>
