<?xml version="1.0" encoding="utf-8"?>
<!-- Generator: Adobe Illustrator 24.3.0, SVG Export Plug-In . SVG Version: 6.00 Build 0)  -->
<svg version="1.1" id="Layer_1" xmlns="http://www.w3.org/2000/svg" xmlns:xlink="http://www.w3.org/1999/xlink" x="0px" y="0px"
	 viewBox="0 0 2500 400" style="enable-background:new 0 0 2500 400;" xml:space="preserve">
<style type="text/css">
	.st0{fill:#FF9738;}
	.st1{fill:#50960F;}
	.st2{fill:#50960F;stroke:#231F20;stroke-width:0.9321;}
	.st3{fill:#50960F;stroke:#000000;stroke-width:0.3;}
	.st4{fill:#515151;}
	.st5{fill:#006837;}
</style>
<circle class="st0" cx="386.5" cy="294.5" r="170.5"/>
<g id="PgDVas_3_">
	<g>
		<path class="st1" d="M1645.9,330.7c-1.9-0.1-3.7-0.5-5.6-0.8c0.8-1.6,1.7-3.2,2.5-4.8c0.1-0.2-0.1-0.6-0.2-1.4h-17.4
			c2.7,2,4.9,3.6,7.1,5.4c-3.3,2.1-5.2-0.1-7.1-2.5c-2.2-2.9-5-4.9-7.9-2.3c-2.5,2.1-4.3,1.7-6.6,0.2c-0.8-0.5-1.9-1.1-2.8-1.1
			c-6.9,0.2-13.8,0.7-20.7,0.8c-11.3,0.1-22.6,0.1-33.9,0c-1.5,0-3.2-0.9-4.5-1.9c-3-2.4-8.4-2.4-11.5-0.7c-3,1.6-6.4,2.1-9.6,2.9
			c-2,0.5-4.7,0.1-6.1,1.4c-5.9,5.9-5.8,6.1-13,1.3c2.8-0.4,5.5-0.8,8.3-1.2c-2-1.5-4.8-1.1-5.8-2.4c-3.6-4.7-6.6-2-9.7,0.3
			c-3.5,2.7-8.5,2.1-12-1c-1.3-1.1-4.2-1.2-5.6-0.2c-2.3,1.5-3.9,2.9-6.9,1.8c-1.6-0.6-3.9,1.2-5.8,1.7c-1.6,0.5-4.3,1.6-4.6,1
			c-2.5-4.2-4.7-2.1-7.3,0.5c-2.5-3.3-3.7-8.8-9.1-7c-0.4,2-0.8,4.1-1.2,6.5c-2.8-1-5.2-2.4-7.7-2.5c-8.2-0.3-16.4-0.4-24.6-0.1
			c-3.6,0.1-7.2,1.7-10.7,1.6c-4.7-0.2-9.3-1.7-14-2c-2.5-0.1-5,1.3-7.4,2c0.8,4,1.4,6.9,2.2,10.6c-4.5-0.5-8.3-0.9-12.1-1.4
			l0.1-1.3c5.4,0.1,7.3-2.1,7.8-9.2c-2.9,0-5.7,0-8.6,0c-6,0.1-12.1,0-18.1,0.3c-2.9,0.1-5.8,1-9.2,1.6c-9.2,0.4-18.8-2.7-29.1-0.8
			c-10,1.8-20.5,0-31-0.3c0.2-1.8,0.2-2.6,0.4-3.4c0.2-0.5,0.4-1,0.6-1.6c-0.3,0-0.6,0.1-0.9,0.1c-1.3,0.4-2.6,0.6-3.9,0.8
			c-1.4,0.2-2.8,0.3-4.3,0.4c-1.1,0.1-2.1,0.3-3.2,0.4c-4.3,0.5-8.5,0.7-12.8,0.3c-0.4,0-0.8-0.1-1.2-0.2c-0.6,0-1.3,0-1.9,0
			c0.4,2.6,0.9,5.3,1.3,7.9c0.1,0.9,0.1,2-0.2,2.8c-0.5,1.1-1.3,2-2,3c1.2,0.1,2.5,0.3,3.9,0.4c1.1,3.5-0.1,5.1-3.3,5.2
			c-1.6,0.1-3.1,0.5-4.7,0.7c-4.8,0.7-9.6,1.4-14.4,2c-0.1-0.8-0.2-1.5-0.3-2.3c1.2-0.3,2.5-0.5,3.7-0.8c3.5-1,7.1-1.8,10.5-3.1
			c0.6-0.2,0.7-2.3,1-3.5c-1.2-0.4-2.3-0.9-3.5-1.2c-1.5-0.3-3.6,0.1-4.6-0.8c-1.8-1.8-3-4.4-4.4-6.7c-4.2,3.6-6,3.5-10,0.3
			c-4.2,0.3-7.2,0.5-10.3,0.6c-3.7,0.2-7.4,0.7-11,0.4c-5.6-0.5-11.6,1.9-16.8-2.6c-0.5-0.5-1.6-0.2-2.5-0.1
			c-4.6,0.4-9.3,1-13.9,1.1c-18.6,0.3-37.3,0.5-55.9,0.7c-2.4,0-4.8,0.7-7.2,0.6c-3.3-0.2-6.5-1.2-9.8-1.2
			c-21.8,0.2-43.6,0.7-65.5,0.7c-12,0-24-0.8-36-1c-14.9-0.2-29.8,0-44.7,0.1v74h127.7c0.5-2.7,0.9-5.3,1.5-8.3
			c3.1,1.5,3.4,4.9,3.7,8.3h173.8c-0.3-2.6-0.5-5.2-0.8-8.2c3.1,1.2,5.3,3.6,5.2,8.2h16.5c0.7-2.3,1.4-4.5,2-6.8
			c0.5-1.6,0.8-3.3,1.4-5.8c3.8,4,7.2,7.2,7.8,12.6h63.4c0.5-4.3,3.6-7.2,7.5-7c4.4,0.2,3.9,3.7,3.8,7h33c1.6-3.6,4.8-3.3,7.6-3.5
			c0.6,0,1.3,2.3,2,3.5h9.6c-1.3-3.2-2.5-6.3-3.9-9.8c2-0.5,3.5-0.9,4.5-1.2c2,2.7,3.8,5.2,5.6,7.6l1.2-0.9c0.1,1.4,0.3,2.9,0.4,4.3
			h8.7l-3.1-7.2c0.4-0.3,0.9-0.5,1.3-0.8c2.1,2.6,4.1,5.2,6.2,7.8c-0.7-3.5-1.3-6.9-2-10.4c0.5-0.1,0.9-0.2,1.4-0.4
			c1.1,3.7,2.1,7.3,3.2,11h3.5c-0.8-1.5-1.6-3-2.9-5.6c3.8,1.1,7.1,0.7,7.2,5.6h198.1v-69C1651.2,330.9,1648.5,330.9,1645.9,330.7z
			 M1110.2,352.5c2.9-2.3,5.8-4.6,9.1,0.7C1115.8,352.9,1113,352.7,1110.2,352.5z M1199.2,395.7c-2.4-1.2-2.7-3.1-0.3-6.5
			c1.1,2.4,2,4.2,2.8,6C1200.8,395.4,1199.8,396,1199.2,395.7z M1230,372.4l0.1-1.6c3.1,0,6.2-0.2,9.2,0.2c0.5,0.1,0.7,3.2,1.1,5.4
			C1236.3,374.9,1233.1,373.6,1230,372.4z M1293.7,344.9c-1.2,0.6-2.3,1.3-3.4,1.9c3.3-6.2,3.3-6.2,6.9-3.7
			C1295.9,343.8,1294.8,344.3,1293.7,344.9z M1304,336.1c-2.2-0.1-4.3-0.5-6.5-0.8c0.1-0.7,0.1-1.4,0.2-2.1c2.1-0.3,4.1-0.7,6.2-0.7
			c0.6,0,1.2,1.2,1.8,1.8C1305.1,334.9,1304.6,336.1,1304,336.1z M1367,336.9c-1,0.3-2.1,0-3,0.5c-5.4,3.1-10.2-2-15.4-1.3
			c-0.5,0.1-1.3-2.3-1.8-3.4c2.6-4.2,5.1-0.7,7.6-0.6c2.4,0,4.7-0.1,7.1-0.2c2.6,0.9,4.8,3.1,7.2-2.3c1,2.5,1.5,4.1,2.1,5.6
			C1369.5,335.9,1368.3,336.5,1367,336.9z M1389.4,396.8c-1.5-2.5-3.1-5-2-8.4c0.4-0.2,0.9-0.3,1.3-0.5c0.8,2.8,1.6,5.5,2.5,8.3
			C1390.6,396.4,1390,396.6,1389.4,396.8z M1389.7,338.1c-0.2-0.5-0.3-1.1-0.5-1.6c1.5-0.6,3-1.8,4.4-1.7c0.7,0.1,1.4,2.4,2.5,4.7
			C1393.1,338.8,1391.4,338.4,1389.7,338.1z M1419,343.6c-3.1-3,4.8-6.1-0.2-8.9c-2.1,2.2-4,4.3-6,6.3c-0.3-0.1-0.7-0.2-1-0.3
			c0.4-2.4,0.3-5.3,1.4-6.9c1.1-1.6,4.6-3.1,5.4-2.3c2.5,2.3,4.2,5.7,6.5,9.2C1422.2,342.1,1420.6,342.9,1419,343.6z"/>
		<path class="st1" d="M1252.3,328.3c-1.3,1-2.5,2.2-3.9,3c-0.1,0.1-1-1.2-1.5-1.9c1.3-1.1,2.7-2.2,4-3.3
			C1251.4,326.9,1251.9,327.6,1252.3,328.3z"/>
	</g>
	<g>
		<path class="st1" d="M1645.9,330.7c-1.9-0.1-3.7-0.5-5.6-0.8c0.8-1.6,1.7-3.2,2.5-4.8c0.1-0.2-0.1-0.6-0.2-1.4h-17.4
			c2.7,2,4.9,3.6,7.1,5.4c-3.3,2.1-5.2-0.1-7.1-2.5c-2.2-2.9-5-4.9-7.9-2.3c-2.5,2.1-4.3,1.7-6.6,0.2c-0.8-0.5-1.9-1.1-2.8-1.1
			c-6.9,0.2-13.8,0.7-20.7,0.8c-11.3,0.1-22.6,0.1-33.9,0c-1.5,0-3.2-0.9-4.5-1.9c-3-2.4-8.4-2.4-11.5-0.7c-3,1.6-6.4,2.1-9.6,2.9
			c-2,0.5-4.7,0.1-6.1,1.4c-5.9,5.9-5.8,6.1-13,1.3c2.8-0.4,5.5-0.8,8.3-1.2c-2-1.5-4.8-1.1-5.8-2.4c-3.6-4.7-6.6-2-9.7,0.3
			c-3.5,2.7-8.5,2.1-12-1c-1.3-1.1-4.2-1.2-5.6-0.2c-2.3,1.5-3.9,2.9-6.9,1.8c-1.6-0.6-3.9,1.2-5.8,1.7c-1.6,0.5-4.3,1.6-4.6,1
			c-2.5-4.2-4.7-2.1-7.3,0.5c-2.5-3.3-3.7-8.8-9.1-7c-0.4,2-0.8,4.1-1.2,6.5c-2.8-1-5.2-2.4-7.7-2.5c-8.2-0.3-16.4-0.4-24.6-0.1
			c-3.6,0.1-7.2,1.7-10.7,1.6c-4.7-0.2-9.3-1.7-14-2c-2.5-0.1-5,1.3-7.4,2c0.8,4,1.4,6.9,2.2,10.6c-4.5-0.5-8.3-0.9-12.1-1.4
			l0.1-1.3c5.4,0.1,7.3-2.1,7.8-9.2c-2.9,0-5.7,0-8.6,0c-6,0.1-12.1,0-18.1,0.3c-2.9,0.1-5.8,1-9.2,1.6c-9.2,0.4-18.8-2.7-29.1-0.8
			c-10,1.8-20.5,0-31-0.3c0.2-1.8,0.2-2.6,0.4-3.4c0.2-0.5,0.4-1,0.6-1.6c-0.3,0-0.6,0.1-0.9,0.1c-1.3,0.4-2.6,0.6-3.9,0.8
			c-1.4,0.2-2.8,0.3-4.3,0.4c-1.1,0.1-2.1,0.3-3.2,0.4c-4.3,0.5-8.5,0.7-12.8,0.3c-0.4,0-0.8-0.1-1.2-0.2c-0.6,0-1.3,0-1.9,0
			c0.4,2.6,0.9,5.3,1.3,7.9c0.1,0.9,0.1,2-0.2,2.8c-0.5,1.1-1.3,2-2,3c1.2,0.1,2.5,0.3,3.9,0.4c1.1,3.5-0.1,5.1-3.3,5.2
			c-1.6,0.1-3.1,0.5-4.7,0.7c-4.8,0.7-9.6,1.4-14.4,2c-0.1-0.8-0.2-1.5-0.3-2.3c1.2-0.3,2.5-0.5,3.7-0.8c3.5-1,7.1-1.8,10.5-3.1
			c0.6-0.2,0.7-2.3,1-3.5c-1.2-0.4-2.3-0.9-3.5-1.2c-1.5-0.3-3.6,0.1-4.6-0.8c-1.8-1.8-3-4.4-4.4-6.7c-4.2,3.6-6,3.5-10,0.3
			c-4.2,0.3-7.2,0.5-10.3,0.6c-3.7,0.2-7.4,0.7-11,0.4c-5.6-0.5-11.6,1.9-16.8-2.6c-0.5-0.5-1.6-0.2-2.5-0.1
			c-4.6,0.4-9.3,1-13.9,1.1c-18.6,0.3-37.3,0.5-55.9,0.7c-2.4,0-4.8,0.7-7.2,0.6c-3.3-0.2-6.5-1.2-9.8-1.2
			c-21.8,0.2-43.6,0.7-65.5,0.7c-12,0-24-0.8-36-1c-14.9-0.2-29.8,0-44.7,0.1v74h127.7c0.5-2.7,0.9-5.3,1.5-8.3
			c3.1,1.5,3.4,4.9,3.7,8.3h173.8c-0.3-2.6-0.5-5.2-0.8-8.2c3.1,1.2,5.3,3.6,5.2,8.2h16.5c0.7-2.3,1.4-4.5,2-6.8
			c0.5-1.6,0.8-3.3,1.4-5.8c3.8,4,7.2,7.2,7.8,12.6h63.4c0.5-4.3,3.6-7.2,7.5-7c4.4,0.2,3.9,3.7,3.8,7h33c1.6-3.6,4.8-3.3,7.6-3.5
			c0.6,0,1.3,2.3,2,3.5h9.6c-1.3-3.2-2.5-6.3-3.9-9.8c2-0.5,3.5-0.9,4.5-1.2c2,2.7,3.8,5.2,5.6,7.6l1.2-0.9c0.1,1.4,0.3,2.9,0.4,4.3
			h8.7l-3.1-7.2c0.4-0.3,0.9-0.5,1.3-0.8c2.1,2.6,4.1,5.2,6.2,7.8c-0.7-3.5-1.3-6.9-2-10.4c0.5-0.1,0.9-0.2,1.4-0.4
			c1.1,3.7,2.1,7.3,3.2,11h3.5c-0.8-1.5-1.6-3-2.9-5.6c3.8,1.1,7.1,0.7,7.2,5.6h198.1v-69C1651.2,330.9,1648.5,330.9,1645.9,330.7z
			 M1110.2,352.5c2.9-2.3,5.8-4.6,9.1,0.7C1115.8,352.9,1113,352.7,1110.2,352.5z M1199.2,395.7c-2.4-1.2-2.7-3.1-0.3-6.5
			c1.1,2.4,2,4.2,2.8,6C1200.8,395.4,1199.8,396,1199.2,395.7z M1230,372.4l0.1-1.6c3.1,0,6.2-0.2,9.2,0.2c0.5,0.1,0.7,3.2,1.1,5.4
			C1236.3,374.9,1233.1,373.6,1230,372.4z M1293.7,344.9c-1.2,0.6-2.3,1.3-3.4,1.9c3.3-6.2,3.3-6.2,6.9-3.7
			C1295.9,343.8,1294.8,344.3,1293.7,344.9z M1304,336.1c-2.2-0.1-4.3-0.5-6.5-0.8c0.1-0.7,0.1-1.4,0.2-2.1c2.1-0.3,4.1-0.7,6.2-0.7
			c0.6,0,1.2,1.2,1.8,1.8C1305.1,334.9,1304.6,336.1,1304,336.1z M1367,336.9c-1,0.3-2.1,0-3,0.5c-5.4,3.1-10.2-2-15.4-1.3
			c-0.5,0.1-1.3-2.3-1.8-3.4c2.6-4.2,5.1-0.7,7.6-0.6c2.4,0,4.7-0.1,7.1-0.2c2.6,0.9,4.8,3.1,7.2-2.3c1,2.5,1.5,4.1,2.1,5.6
			C1369.5,335.9,1368.3,336.5,1367,336.9z M1389.4,396.8c-1.5-2.5-3.1-5-2-8.4c0.4-0.2,0.9-0.3,1.3-0.5c0.8,2.8,1.6,5.5,2.5,8.3
			C1390.6,396.4,1390,396.6,1389.4,396.8z M1389.7,338.1c-0.2-0.5-0.3-1.1-0.5-1.6c1.5-0.6,3-1.8,4.4-1.7c0.7,0.1,1.4,2.4,2.5,4.7
			C1393.1,338.8,1391.4,338.4,1389.7,338.1z M1419,343.6c-3.1-3,4.8-6.1-0.2-8.9c-2.1,2.2-4,4.3-6,6.3c-0.3-0.1-0.7-0.2-1-0.3
			c0.4-2.4,0.3-5.3,1.4-6.9c1.1-1.6,4.6-3.1,5.4-2.3c2.5,2.3,4.2,5.7,6.5,9.2C1422.2,342.1,1420.6,342.9,1419,343.6z"/>
		<path class="st1" d="M1252.3,328.3c-1.3,1-2.5,2.2-3.9,3c-0.1,0.1-1-1.2-1.5-1.9c1.3-1.1,2.7-2.2,4-3.3
			C1251.4,326.9,1251.9,327.6,1252.3,328.3z"/>
	</g>
	<g>
		<g>
			<path class="st2" d="M1252.3,328.3c-0.5-0.7-0.9-1.4-1.4-2.1c-1.3,1.1-2.7,2.2-4,3.3c0.5,0.7,1.3,1.9,1.5,1.9
				C1249.8,330.5,1251,329.4,1252.3,328.3z"/>
		</g>
		<line class="st3" x1="1192.3" y1="325.5" x2="1228.3" y2="325.5"/>
		<line class="st3" x1="1192.3" y1="331.9" x2="1228.3" y2="331.9"/>
		<line class="st3" x1="1246.3" y1="385.9" x2="1246.3" y2="349.9"/>
		<line class="st3" x1="1307" y1="325.5" x2="1271" y2="325.5"/>
		<line class="st3" x1="1307" y1="331.9" x2="1271" y2="331.9"/>
		<line class="st3" x1="1253" y1="385.9" x2="1253" y2="349.9"/>
	</g>
</g>
<g id="PgDVas_4_">
	<g>
		<path class="st1" d="M2203.4,330.3c-1.9-0.1-3.7-0.5-5.6-0.8c0.8-1.6,1.7-3.2,2.5-4.8c0.1-0.2-0.1-0.6-0.2-1.4h-17.4
			c2.7,2,4.9,3.6,7.1,5.4c-3.3,2.1-5.2-0.1-7.1-2.5c-2.2-2.9-5-4.9-7.9-2.3c-2.5,2.1-4.3,1.7-6.6,0.2c-0.8-0.5-1.9-1.1-2.8-1.1
			c-6.9,0.2-13.8,0.7-20.7,0.8c-11.3,0.1-22.6,0.1-33.9,0c-1.5,0-3.2-0.9-4.5-1.9c-3-2.4-8.4-2.4-11.5-0.7c-3,1.6-6.4,2.1-9.6,2.9
			c-2,0.5-4.7,0.1-6.1,1.4c-5.9,5.9-5.8,6.1-13,1.3c2.8-0.4,5.5-0.8,8.3-1.2c-2-1.5-4.8-1.1-5.8-2.4c-3.6-4.7-6.6-2-9.7,0.3
			c-3.5,2.7-8.5,2.1-12-1c-1.3-1.1-4.2-1.2-5.6-0.2c-2.3,1.5-3.9,2.9-6.9,1.8c-1.6-0.6-3.9,1.2-5.8,1.7c-1.6,0.5-4.3,1.6-4.6,1
			c-2.5-4.2-4.7-2.1-7.3,0.5c-2.5-3.3-3.7-8.8-9.1-7c-0.4,2-0.8,4.1-1.2,6.5c-2.8-1-5.2-2.4-7.7-2.5c-8.2-0.3-16.4-0.4-24.6-0.1
			c-3.6,0.1-7.2,1.7-10.7,1.6c-4.7-0.2-9.3-1.7-14-2c-2.5-0.1-5,1.3-7.4,2c0.8,4,1.4,6.9,2.2,10.6c-4.5-0.5-8.3-0.9-12.1-1.4
			l0.1-1.3c5.4,0.1,7.3-2.1,7.8-9.2c-2.9,0-5.7,0-8.6,0c-6,0.1-12.1,0-18.1,0.3c-2.9,0.1-5.8,1-9.2,1.6c-9.2,0.4-18.8-2.7-29.1-0.8
			c-10,1.8-20.5,0-31-0.3c0.2-1.8,0.2-2.6,0.4-3.4c0.2-0.5,0.4-1,0.6-1.6c-0.3,0-0.6,0.1-0.9,0.1c-1.3,0.4-2.6,0.6-3.9,0.8
			c-1.4,0.2-2.8,0.3-4.3,0.4c-1.1,0.1-2.1,0.3-3.2,0.4c-4.3,0.5-8.5,0.7-12.8,0.3c-0.4,0-0.8-0.1-1.2-0.2c-0.6,0-1.3,0-1.9,0
			c0.4,2.6,0.9,5.3,1.3,7.9c0.1,0.9,0.1,2-0.2,2.8c-0.5,1.1-1.3,2-2,3c1.2,0.1,2.5,0.3,3.9,0.4c1.1,3.5-0.1,5.1-3.3,5.2
			c-1.6,0.1-3.1,0.5-4.7,0.7c-4.8,0.7-9.6,1.4-14.4,2c-0.1-0.8-0.2-1.5-0.3-2.3c1.2-0.3,2.5-0.5,3.7-0.8c3.5-1,7.1-1.8,10.5-3.1
			c0.6-0.2,0.7-2.3,1-3.5c-1.2-0.4-2.3-0.9-3.5-1.2c-1.5-0.3-3.6,0.1-4.6-0.8c-1.8-1.8-3-4.4-4.4-6.7c-4.2,3.6-6,3.5-10,0.3
			c-4.2,0.3-7.2,0.5-10.3,0.6c-3.7,0.2-7.4,0.7-11,0.4c-5.6-0.5-11.6,1.9-16.8-2.6c-0.5-0.5-1.6-0.2-2.5-0.1
			c-4.6,0.4-9.3,1-13.9,1.1c-18.6,0.3-37.3,0.5-55.9,0.7c-2.4,0-4.8,0.7-7.2,0.6c-3.3-0.2-6.5-1.2-9.8-1.2
			c-21.8,0.2-43.6,0.7-65.5,0.7c-12,0-24-0.8-36-1c-14.9-0.2-29.8,0-44.7,0.1v74h127.7c0.5-2.7,0.9-5.3,1.5-8.3
			c3.1,1.5,3.4,4.9,3.7,8.3h173.8c-0.3-2.6-0.5-5.2-0.8-8.2c3.1,1.2,5.3,3.6,5.2,8.2h16.5c0.7-2.3,1.4-4.5,2-6.8
			c0.5-1.6,0.8-3.3,1.4-5.8c3.8,4,7.2,7.2,7.8,12.6h63.4c0.5-4.3,3.6-7.2,7.5-7c4.4,0.2,3.9,3.7,3.8,7h33c1.6-3.6,4.8-3.3,7.6-3.5
			c0.6,0,1.3,2.3,2,3.5h9.6c-1.3-3.2-2.5-6.3-3.9-9.8c2-0.5,3.5-0.9,4.5-1.2c2,2.7,3.8,5.2,5.6,7.6l1.2-0.9c0.1,1.4,0.3,2.9,0.4,4.3
			h8.7l-3.1-7.2c0.4-0.3,0.9-0.5,1.3-0.8c2.1,2.6,4.1,5.2,6.2,7.8c-0.7-3.5-1.3-6.9-2-10.4c0.5-0.1,0.9-0.2,1.4-0.4
			c1.1,3.7,2.1,7.3,3.2,11h3.5c-0.8-1.5-1.6-3-2.9-5.6c3.8,1.1,7.1,0.7,7.2,5.6h198.1v-69C2208.8,330.5,2206.1,330.5,2203.4,330.3z
			 M1667.8,352.1c2.9-2.3,5.8-4.6,9.1,0.7C1673.4,352.5,1670.6,352.3,1667.8,352.1z M1756.7,395.3c-2.4-1.2-2.7-3.1-0.3-6.5
			c1.1,2.4,2,4.2,2.8,6C1758.4,395,1757.4,395.6,1756.7,395.3z M1787.5,372l0.1-1.6c3.1,0,6.2-0.2,9.2,0.2c0.5,0.1,0.7,3.2,1.1,5.4
			C1793.9,374.5,1790.7,373.2,1787.5,372z M1851.3,344.5c-1.2,0.6-2.3,1.3-3.4,1.9c3.3-6.2,3.3-6.2,6.9-3.7
			C1853.5,343.4,1852.4,343.9,1851.3,344.5z M1861.6,335.7c-2.2-0.1-4.3-0.5-6.5-0.8c0.1-0.7,0.1-1.4,0.2-2.1
			c2.1-0.3,4.1-0.7,6.2-0.7c0.6,0,1.2,1.2,1.8,1.8C1862.7,334.5,1862.1,335.8,1861.6,335.7z M1924.6,336.5c-1,0.3-2.1,0-3,0.5
			c-5.4,3.1-10.2-2-15.4-1.3c-0.5,0.1-1.3-2.3-1.8-3.4c2.6-4.2,5.1-0.7,7.6-0.6c2.4,0,4.7-0.1,7.1-0.2c2.6,0.9,4.8,3.1,7.2-2.3
			c1,2.5,1.5,4.1,2.1,5.6C1927.1,335.5,1925.9,336.1,1924.6,336.5z M1947,396.4c-1.5-2.5-3.1-5-2-8.4c0.4-0.2,0.9-0.3,1.3-0.5
			c0.8,2.8,1.6,5.5,2.5,8.3C1948.1,396,1947.5,396.2,1947,396.4z M1947.2,337.7c-0.2-0.5-0.3-1.1-0.5-1.6c1.5-0.6,3-1.8,4.4-1.7
			c0.7,0.1,1.4,2.4,2.5,4.7C1950.7,338.4,1948.9,338.1,1947.2,337.7z M1976.6,343.2c-3.1-3,4.8-6.1-0.2-8.9c-2.1,2.2-4,4.3-6,6.3
			c-0.3-0.1-0.7-0.2-1-0.3c0.4-2.4,0.3-5.3,1.4-6.9c1.1-1.6,4.6-3.1,5.4-2.3c2.5,2.3,4.2,5.7,6.5,9.2
			C1979.8,341.7,1978.1,342.5,1976.6,343.2z"/>
		<path class="st1" d="M1809.9,327.9c-1.3,1-2.5,2.2-3.9,3c-0.1,0.1-1-1.2-1.5-1.9c1.3-1.1,2.7-2.2,4-3.3
			C1809,326.5,1809.4,327.2,1809.9,327.9z"/>
	</g>
	<g>
		<path class="st1" d="M2203.4,330.3c-1.9-0.1-3.7-0.5-5.6-0.8c0.8-1.6,1.7-3.2,2.5-4.8c0.1-0.2-0.1-0.6-0.2-1.4h-17.4
			c2.7,2,4.9,3.6,7.1,5.4c-3.3,2.1-5.2-0.1-7.1-2.5c-2.2-2.9-5-4.9-7.9-2.3c-2.5,2.1-4.3,1.7-6.6,0.2c-0.8-0.5-1.9-1.1-2.8-1.1
			c-6.9,0.2-13.8,0.7-20.7,0.8c-11.3,0.1-22.6,0.1-33.9,0c-1.5,0-3.2-0.9-4.5-1.9c-3-2.4-8.4-2.4-11.5-0.7c-3,1.6-6.4,2.1-9.6,2.9
			c-2,0.5-4.7,0.1-6.1,1.4c-5.9,5.9-5.8,6.1-13,1.3c2.8-0.4,5.5-0.8,8.3-1.2c-2-1.5-4.8-1.1-5.8-2.4c-3.6-4.7-6.6-2-9.7,0.3
			c-3.5,2.7-8.5,2.1-12-1c-1.3-1.1-4.2-1.2-5.6-0.2c-2.3,1.5-3.9,2.9-6.9,1.8c-1.6-0.6-3.9,1.2-5.8,1.7c-1.6,0.5-4.3,1.6-4.6,1
			c-2.5-4.2-4.7-2.1-7.3,0.5c-2.5-3.3-3.7-8.8-9.1-7c-0.4,2-0.8,4.1-1.2,6.5c-2.8-1-5.2-2.4-7.7-2.5c-8.2-0.3-16.4-0.4-24.6-0.1
			c-3.6,0.1-7.2,1.7-10.7,1.6c-4.7-0.2-9.3-1.7-14-2c-2.5-0.1-5,1.3-7.4,2c0.8,4,1.4,6.9,2.2,10.6c-4.5-0.5-8.3-0.9-12.1-1.4
			l0.1-1.3c5.4,0.1,7.3-2.1,7.8-9.2c-2.9,0-5.7,0-8.6,0c-6,0.1-12.1,0-18.1,0.3c-2.9,0.1-5.8,1-9.2,1.6c-9.2,0.4-18.8-2.7-29.1-0.8
			c-10,1.8-20.5,0-31-0.3c0.2-1.8,0.2-2.6,0.4-3.4c0.2-0.5,0.4-1,0.6-1.6c-0.3,0-0.6,0.1-0.9,0.1c-1.3,0.4-2.6,0.6-3.9,0.8
			c-1.4,0.2-2.8,0.3-4.3,0.4c-1.1,0.1-2.1,0.3-3.2,0.4c-4.3,0.5-8.5,0.7-12.8,0.3c-0.4,0-0.8-0.1-1.2-0.2c-0.6,0-1.3,0-1.9,0
			c0.4,2.6,0.9,5.3,1.3,7.9c0.1,0.9,0.1,2-0.2,2.8c-0.5,1.1-1.3,2-2,3c1.2,0.1,2.5,0.3,3.9,0.4c1.1,3.5-0.1,5.1-3.3,5.2
			c-1.6,0.1-3.1,0.5-4.7,0.7c-4.8,0.7-9.6,1.4-14.4,2c-0.1-0.8-0.2-1.5-0.3-2.3c1.2-0.3,2.5-0.5,3.7-0.8c3.5-1,7.1-1.8,10.5-3.1
			c0.6-0.2,0.7-2.3,1-3.5c-1.2-0.4-2.3-0.9-3.5-1.2c-1.5-0.3-3.6,0.1-4.6-0.8c-1.8-1.8-3-4.4-4.4-6.7c-4.2,3.6-6,3.5-10,0.3
			c-4.2,0.3-7.2,0.5-10.3,0.6c-3.7,0.2-7.4,0.7-11,0.4c-5.6-0.5-11.6,1.9-16.8-2.6c-0.5-0.5-1.6-0.2-2.5-0.1
			c-4.6,0.4-9.3,1-13.9,1.1c-18.6,0.3-37.3,0.5-55.9,0.7c-2.4,0-4.8,0.7-7.2,0.6c-3.3-0.2-6.5-1.2-9.8-1.2
			c-21.8,0.2-43.6,0.7-65.5,0.7c-12,0-24-0.8-36-1c-14.9-0.2-29.8,0-44.7,0.1v74h127.7c0.5-2.7,0.9-5.3,1.5-8.3
			c3.1,1.5,3.4,4.9,3.7,8.3h173.8c-0.3-2.6-0.5-5.2-0.8-8.2c3.1,1.2,5.3,3.6,5.2,8.2h16.5c0.7-2.3,1.4-4.5,2-6.8
			c0.5-1.6,0.8-3.3,1.4-5.8c3.8,4,7.2,7.2,7.8,12.6h63.4c0.5-4.3,3.6-7.2,7.5-7c4.4,0.2,3.9,3.7,3.8,7h33c1.6-3.6,4.8-3.3,7.6-3.5
			c0.6,0,1.3,2.3,2,3.5h9.6c-1.3-3.2-2.5-6.3-3.9-9.8c2-0.5,3.5-0.9,4.5-1.2c2,2.7,3.8,5.2,5.6,7.6l1.2-0.9c0.1,1.4,0.3,2.9,0.4,4.3
			h8.7l-3.1-7.2c0.4-0.3,0.9-0.5,1.3-0.8c2.1,2.6,4.1,5.2,6.2,7.8c-0.7-3.5-1.3-6.9-2-10.4c0.5-0.1,0.9-0.2,1.4-0.4
			c1.1,3.7,2.1,7.3,3.2,11h3.5c-0.8-1.5-1.6-3-2.9-5.6c3.8,1.1,7.1,0.7,7.2,5.6h198.1v-69C2208.8,330.5,2206.1,330.5,2203.4,330.3z
			 M1667.8,352.1c2.9-2.3,5.8-4.6,9.1,0.7C1673.4,352.5,1670.6,352.3,1667.8,352.1z M1756.7,395.3c-2.4-1.2-2.7-3.1-0.3-6.5
			c1.1,2.4,2,4.2,2.8,6C1758.4,395,1757.4,395.6,1756.7,395.3z M1787.5,372l0.1-1.6c3.1,0,6.2-0.2,9.2,0.2c0.5,0.1,0.7,3.2,1.1,5.4
			C1793.9,374.5,1790.7,373.2,1787.5,372z M1851.3,344.5c-1.2,0.6-2.3,1.3-3.4,1.9c3.3-6.2,3.3-6.2,6.9-3.7
			C1853.5,343.4,1852.4,343.9,1851.3,344.5z M1861.6,335.7c-2.2-0.1-4.3-0.5-6.5-0.8c0.1-0.7,0.1-1.4,0.2-2.1
			c2.1-0.3,4.1-0.7,6.2-0.7c0.6,0,1.2,1.2,1.8,1.8C1862.7,334.5,1862.1,335.8,1861.6,335.7z M1924.6,336.5c-1,0.3-2.1,0-3,0.5
			c-5.4,3.1-10.2-2-15.4-1.3c-0.5,0.1-1.3-2.3-1.8-3.4c2.6-4.2,5.1-0.7,7.6-0.6c2.4,0,4.7-0.1,7.1-0.2c2.6,0.9,4.8,3.1,7.2-2.3
			c1,2.5,1.5,4.1,2.1,5.6C1927.1,335.5,1925.9,336.1,1924.6,336.5z M1947,396.4c-1.5-2.5-3.1-5-2-8.4c0.4-0.2,0.9-0.3,1.3-0.5
			c0.8,2.8,1.6,5.5,2.5,8.3C1948.1,396,1947.5,396.2,1947,396.4z M1947.2,337.7c-0.2-0.5-0.3-1.1-0.5-1.6c1.5-0.6,3-1.8,4.4-1.7
			c0.7,0.1,1.4,2.4,2.5,4.7C1950.7,338.4,1948.9,338.1,1947.2,337.7z M1976.6,343.2c-3.1-3,4.8-6.1-0.2-8.9c-2.1,2.2-4,4.3-6,6.3
			c-0.3-0.1-0.7-0.2-1-0.3c0.4-2.4,0.3-5.3,1.4-6.9c1.1-1.6,4.6-3.1,5.4-2.3c2.5,2.3,4.2,5.7,6.5,9.2
			C1979.8,341.7,1978.1,342.5,1976.6,343.2z"/>
		<path class="st1" d="M1809.9,327.9c-1.3,1-2.5,2.2-3.9,3c-0.1,0.1-1-1.2-1.5-1.9c1.3-1.1,2.7-2.2,4-3.3
			C1809,326.5,1809.4,327.2,1809.9,327.9z"/>
	</g>
	<g>
		<g>
			<path class="st2" d="M1809.9,327.9c-0.5-0.7-0.9-1.4-1.4-2.1c-1.3,1.1-2.7,2.2-4,3.3c0.5,0.7,1.3,1.9,1.5,1.9
				C1807.4,330.1,1808.6,329,1809.9,327.9z"/>
		</g>
		<line class="st3" x1="1749.9" y1="325.1" x2="1785.9" y2="325.1"/>
		<line class="st3" x1="1749.9" y1="331.5" x2="1785.9" y2="331.5"/>
		<line class="st3" x1="1803.9" y1="385.5" x2="1803.9" y2="349.5"/>
		<line class="st3" x1="1864.5" y1="325.1" x2="1828.5" y2="325.1"/>
		<line class="st3" x1="1864.5" y1="331.5" x2="1828.5" y2="331.5"/>
		<line class="st3" x1="1810.5" y1="385.5" x2="1810.5" y2="349.5"/>
	</g>
</g>
<g id="PgDVas_2_">
	<g>
		<path class="st1" d="M976.7,330.2c-1.9-0.1-3.7-0.5-5.6-0.8c0.8-1.6,1.7-3.2,2.5-4.8c0.1-0.2-0.1-0.6-0.2-1.4H956
			c2.7,2,4.9,3.6,7.1,5.4c-3.3,2.1-5.2-0.1-7.1-2.5c-2.2-2.9-5-4.9-7.9-2.3c-2.5,2.1-4.3,1.7-6.6,0.2c-0.8-0.5-1.9-1.1-2.8-1.1
			c-6.9,0.2-13.8,0.7-20.7,0.8c-11.3,0.1-22.6,0.1-33.9,0c-1.5,0-3.2-0.9-4.5-1.9c-3-2.4-8.4-2.4-11.5-0.7c-3,1.6-6.4,2.1-9.6,2.9
			c-2,0.5-4.7,0.1-6.1,1.4c-5.9,5.9-5.8,6.1-13,1.3c2.8-0.4,5.5-0.8,8.3-1.2c-2-1.5-4.8-1.1-5.8-2.4c-3.6-4.7-6.6-2-9.7,0.3
			c-3.5,2.7-8.5,2.1-12-1c-1.3-1.1-4.2-1.2-5.6-0.2c-2.3,1.5-3.9,2.9-6.9,1.8c-1.6-0.6-3.9,1.2-5.8,1.7c-1.6,0.5-4.3,1.6-4.6,1
			c-2.5-4.2-4.7-2.1-7.3,0.5c-2.5-3.3-3.7-8.8-9.1-7c-0.4,2-0.8,4.1-1.2,6.5c-2.8-1-5.2-2.4-7.7-2.5c-8.2-0.3-16.4-0.4-24.6-0.1
			c-3.6,0.1-7.2,1.7-10.7,1.6c-4.7-0.2-9.3-1.7-14-2c-2.5-0.1-5,1.3-7.4,2c0.8,4,1.4,6.9,2.2,10.6c-4.5-0.5-8.3-0.9-12.1-1.4
			l0.1-1.3c5.4,0.1,7.3-2.1,7.8-9.2c-2.9,0-5.7,0-8.6,0c-6,0.1-12.1,0-18.1,0.3c-2.9,0.1-5.8,1-9.2,1.6c-9.2,0.4-18.8-2.7-29.1-0.8
			c-10,1.8-20.5,0-31-0.3c0.2-1.8,0.2-2.6,0.4-3.4c0.2-0.5,0.4-1,0.6-1.6c-0.3,0-0.6,0.1-0.9,0.1c-1.3,0.4-2.6,0.6-3.9,0.8
			c-1.4,0.2-2.8,0.3-4.3,0.4c-1.1,0.1-2.1,0.3-3.2,0.4c-4.3,0.5-8.5,0.7-12.8,0.3c-0.4,0-0.8-0.1-1.2-0.2c-0.6,0-1.3,0-1.9,0
			c0.4,2.6,0.9,5.3,1.3,7.9c0.1,0.9,0.1,2-0.2,2.8c-0.5,1.1-1.3,2-2,3c1.2,0.1,2.5,0.3,3.9,0.4c1.1,3.5-0.1,5.1-3.3,5.2
			c-1.6,0.1-3.1,0.5-4.7,0.7c-4.8,0.7-9.6,1.4-14.4,2c-0.1-0.8-0.2-1.5-0.3-2.3c1.2-0.3,2.5-0.5,3.7-0.8c3.5-1,7.1-1.8,10.5-3.1
			c0.6-0.2,0.7-2.3,1-3.5c-1.2-0.4-2.3-0.9-3.5-1.2c-1.5-0.3-3.6,0.1-4.6-0.8c-1.8-1.8-3-4.4-4.4-6.7c-4.2,3.6-6,3.5-10,0.3
			c-4.2,0.3-7.2,0.5-10.3,0.6c-3.7,0.2-7.4,0.7-11,0.4c-5.6-0.5-11.6,1.9-16.8-2.6c-0.5-0.5-1.6-0.2-2.5-0.1
			c-4.6,0.4-9.3,1-13.9,1.1c-18.6,0.3-37.3,0.5-55.9,0.7c-2.4,0-4.8,0.7-7.2,0.6c-3.3-0.2-6.5-1.2-9.8-1.2
			c-21.8,0.2-43.6,0.7-65.5,0.7c-12,0-24-0.8-36-1c-14.9-0.2-29.8,0-44.7,0.1v74h127.7c0.5-2.7,0.9-5.3,1.5-8.3
			c3.1,1.5,3.4,4.9,3.7,8.3h173.8c-0.3-2.6-0.5-5.2-0.8-8.2c3.1,1.2,5.3,3.6,5.2,8.2h16.5c0.7-2.3,1.4-4.5,2-6.8
			c0.5-1.6,0.8-3.3,1.4-5.8c3.8,4,7.2,7.2,7.8,12.6h63.4c0.5-4.3,3.6-7.2,7.5-7c4.4,0.2,3.9,3.7,3.8,7h33c1.6-3.6,4.8-3.3,7.6-3.5
			c0.6,0,1.3,2.3,2,3.5h9.6c-1.3-3.2-2.5-6.3-3.9-9.8c2-0.5,3.5-0.9,4.5-1.2c2,2.7,3.8,5.2,5.6,7.6l1.2-0.9c0.1,1.4,0.3,2.9,0.4,4.3
			h8.7l-3.1-7.2c0.4-0.3,0.9-0.5,1.3-0.8c2.1,2.6,4.1,5.2,6.2,7.8c-0.7-3.5-1.3-6.9-2-10.4c0.5-0.1,0.9-0.2,1.4-0.4
			c1.1,3.7,2.1,7.3,3.2,11h3.5c-0.8-1.5-1.6-3-2.9-5.6c3.8,1.1,7.1,0.7,7.2,5.6h198.1v-69C982,330.5,979.3,330.4,976.7,330.2z
			 M441,352c2.9-2.3,5.8-4.6,9.1,0.7C446.6,352.4,443.8,352.2,441,352z M529.9,395.3c-2.4-1.2-2.7-3.1-0.3-6.5c1.1,2.4,2,4.2,2.8,6
			C531.6,395,530.6,395.6,529.9,395.3z M560.8,372l0.1-1.6c3.1,0,6.2-0.2,9.2,0.2c0.5,0.1,0.7,3.2,1.1,5.4
			C567.1,374.4,563.9,373.2,560.8,372z M624.5,344.4c-1.2,0.6-2.3,1.3-3.4,1.9c3.3-6.2,3.3-6.2,6.9-3.7
			C626.7,343.3,625.6,343.8,624.5,344.4z M634.8,335.7c-2.2-0.1-4.3-0.5-6.5-0.8c0.1-0.7,0.1-1.4,0.2-2.1c2.1-0.3,4.1-0.7,6.2-0.7
			c0.6,0,1.2,1.2,1.8,1.8C635.9,334.5,635.3,335.7,634.8,335.7z M697.8,336.5c-1,0.3-2.1,0-3,0.5c-5.4,3.1-10.2-2-15.4-1.3
			c-0.5,0.1-1.3-2.3-1.8-3.4c2.6-4.2,5.1-0.7,7.6-0.6c2.4,0,4.7-0.1,7.1-0.2c2.6,0.9,4.8,3.1,7.2-2.3c1,2.5,1.5,4.1,2.1,5.6
			C700.3,335.4,699.1,336.1,697.8,336.5z M720.2,396.4c-1.5-2.5-3.1-5-2-8.4c0.4-0.2,0.9-0.3,1.3-0.5c0.8,2.8,1.6,5.5,2.5,8.3
			C721.3,396,720.8,396.2,720.2,396.4z M720.4,337.6c-0.2-0.5-0.3-1.1-0.5-1.6c1.5-0.6,3-1.8,4.4-1.7c0.7,0.1,1.4,2.4,2.5,4.7
			C723.9,338.4,722.2,338,720.4,337.6z M749.8,343.1c-3.1-3,4.8-6.1-0.2-8.9c-2.1,2.2-4,4.3-6,6.3c-0.3-0.1-0.7-0.2-1-0.3
			c0.4-2.4,0.3-5.3,1.4-6.9c1.1-1.6,4.6-3.1,5.4-2.3c2.5,2.3,4.2,5.7,6.5,9.2C753,341.6,751.3,342.4,749.8,343.1z"/>
		<path class="st1" d="M583.1,327.9c-1.3,1-2.5,2.2-3.9,3c-0.1,0.1-1-1.2-1.5-1.9c1.3-1.1,2.7-2.2,4-3.3
			C582.2,326.5,582.6,327.2,583.1,327.9z"/>
	</g>
	<g>
		<path class="st1" d="M976.7,330.2c-1.9-0.1-3.7-0.5-5.6-0.8c0.8-1.6,1.7-3.2,2.5-4.8c0.1-0.2-0.1-0.6-0.2-1.4H956
			c2.7,2,4.9,3.6,7.1,5.4c-3.3,2.1-5.2-0.1-7.1-2.5c-2.2-2.9-5-4.9-7.9-2.3c-2.5,2.1-4.3,1.7-6.6,0.2c-0.8-0.5-1.9-1.1-2.8-1.1
			c-6.9,0.2-13.8,0.7-20.7,0.8c-11.3,0.1-22.6,0.1-33.9,0c-1.5,0-3.2-0.9-4.5-1.9c-3-2.4-8.4-2.4-11.5-0.7c-3,1.6-6.4,2.1-9.6,2.9
			c-2,0.5-4.7,0.1-6.1,1.4c-5.9,5.9-5.8,6.1-13,1.3c2.8-0.4,5.5-0.8,8.3-1.2c-2-1.5-4.8-1.1-5.8-2.4c-3.6-4.7-6.6-2-9.7,0.3
			c-3.5,2.7-8.5,2.1-12-1c-1.3-1.1-4.2-1.2-5.6-0.2c-2.3,1.5-3.9,2.9-6.9,1.8c-1.6-0.6-3.9,1.2-5.8,1.7c-1.6,0.5-4.3,1.6-4.6,1
			c-2.5-4.2-4.7-2.1-7.3,0.5c-2.5-3.3-3.7-8.8-9.1-7c-0.4,2-0.8,4.1-1.2,6.5c-2.8-1-5.2-2.4-7.7-2.5c-8.2-0.3-16.4-0.4-24.6-0.1
			c-3.6,0.1-7.2,1.7-10.7,1.6c-4.7-0.2-9.3-1.7-14-2c-2.5-0.1-5,1.3-7.4,2c0.8,4,1.4,6.9,2.2,10.6c-4.5-0.5-8.3-0.9-12.1-1.4
			l0.1-1.3c5.4,0.1,7.3-2.1,7.8-9.2c-2.9,0-5.7,0-8.6,0c-6,0.1-12.1,0-18.1,0.3c-2.9,0.1-5.8,1-9.2,1.6c-9.2,0.4-18.8-2.7-29.1-0.8
			c-10,1.8-20.5,0-31-0.3c0.2-1.8,0.2-2.6,0.4-3.4c0.2-0.5,0.4-1,0.6-1.6c-0.3,0-0.6,0.1-0.9,0.1c-1.3,0.4-2.6,0.6-3.9,0.8
			c-1.4,0.2-2.8,0.3-4.3,0.4c-1.1,0.1-2.1,0.3-3.2,0.4c-4.3,0.5-8.5,0.7-12.8,0.3c-0.4,0-0.8-0.1-1.2-0.2c-0.6,0-1.3,0-1.9,0
			c0.4,2.6,0.9,5.3,1.3,7.9c0.1,0.9,0.1,2-0.2,2.8c-0.5,1.1-1.3,2-2,3c1.2,0.1,2.5,0.3,3.9,0.4c1.1,3.5-0.1,5.1-3.3,5.2
			c-1.6,0.1-3.1,0.5-4.7,0.7c-4.8,0.7-9.6,1.4-14.4,2c-0.1-0.8-0.2-1.5-0.3-2.3c1.2-0.3,2.5-0.5,3.7-0.8c3.5-1,7.1-1.8,10.5-3.1
			c0.6-0.2,0.7-2.3,1-3.5c-1.2-0.4-2.3-0.9-3.5-1.2c-1.5-0.3-3.6,0.1-4.6-0.8c-1.8-1.8-3-4.4-4.4-6.7c-4.2,3.6-6,3.5-10,0.3
			c-4.2,0.3-7.2,0.5-10.3,0.6c-3.7,0.2-7.4,0.7-11,0.4c-5.6-0.5-11.6,1.9-16.8-2.6c-0.5-0.5-1.6-0.2-2.5-0.1
			c-4.6,0.4-9.3,1-13.9,1.1c-18.6,0.3-37.3,0.5-55.9,0.7c-2.4,0-4.8,0.7-7.2,0.6c-3.3-0.2-6.5-1.2-9.8-1.2
			c-21.8,0.2-43.6,0.7-65.5,0.7c-12,0-24-0.8-36-1c-14.9-0.2-29.8,0-44.7,0.1v74h127.7c0.5-2.7,0.9-5.3,1.5-8.3
			c3.1,1.5,3.4,4.9,3.7,8.3h173.8c-0.3-2.6-0.5-5.2-0.8-8.2c3.1,1.2,5.3,3.6,5.2,8.2h16.5c0.7-2.3,1.4-4.5,2-6.8
			c0.5-1.6,0.8-3.3,1.4-5.8c3.8,4,7.2,7.2,7.8,12.6h63.4c0.5-4.3,3.6-7.2,7.5-7c4.4,0.2,3.9,3.7,3.8,7h33c1.6-3.6,4.8-3.3,7.6-3.5
			c0.6,0,1.3,2.3,2,3.5h9.6c-1.3-3.2-2.5-6.3-3.9-9.8c2-0.5,3.5-0.9,4.5-1.2c2,2.7,3.8,5.2,5.6,7.6l1.2-0.9c0.1,1.4,0.3,2.9,0.4,4.3
			h8.7l-3.1-7.2c0.4-0.3,0.9-0.5,1.3-0.8c2.1,2.6,4.1,5.2,6.2,7.8c-0.7-3.5-1.3-6.9-2-10.4c0.5-0.1,0.9-0.2,1.4-0.4
			c1.1,3.7,2.1,7.3,3.2,11h3.5c-0.8-1.5-1.6-3-2.9-5.6c3.8,1.1,7.1,0.7,7.2,5.6h198.1v-69C982,330.5,979.3,330.4,976.7,330.2z
			 M441,352c2.9-2.3,5.8-4.6,9.1,0.7C446.6,352.4,443.8,352.2,441,352z M529.9,395.3c-2.4-1.2-2.7-3.1-0.3-6.5c1.1,2.4,2,4.2,2.8,6
			C531.6,395,530.6,395.6,529.9,395.3z M560.8,372l0.1-1.6c3.1,0,6.2-0.2,9.2,0.2c0.5,0.1,0.7,3.2,1.1,5.4
			C567.1,374.4,563.9,373.2,560.8,372z M624.5,344.4c-1.2,0.6-2.3,1.3-3.4,1.9c3.3-6.2,3.3-6.2,6.9-3.7
			C626.7,343.3,625.6,343.8,624.5,344.4z M634.8,335.7c-2.2-0.1-4.3-0.5-6.5-0.8c0.1-0.7,0.1-1.4,0.2-2.1c2.1-0.3,4.1-0.7,6.2-0.7
			c0.6,0,1.2,1.2,1.8,1.8C635.9,334.5,635.3,335.7,634.8,335.7z M697.8,336.5c-1,0.3-2.1,0-3,0.5c-5.4,3.1-10.2-2-15.4-1.3
			c-0.5,0.1-1.3-2.3-1.8-3.4c2.6-4.2,5.1-0.7,7.6-0.6c2.4,0,4.7-0.1,7.1-0.2c2.6,0.9,4.8,3.1,7.2-2.3c1,2.5,1.5,4.1,2.1,5.6
			C700.3,335.4,699.1,336.1,697.8,336.5z M720.2,396.4c-1.5-2.5-3.1-5-2-8.4c0.4-0.2,0.9-0.3,1.3-0.5c0.8,2.8,1.6,5.5,2.5,8.3
			C721.3,396,720.8,396.2,720.2,396.4z M720.4,337.6c-0.2-0.5-0.3-1.1-0.5-1.6c1.5-0.6,3-1.8,4.4-1.7c0.7,0.1,1.4,2.4,2.5,4.7
			C723.9,338.4,722.2,338,720.4,337.6z M749.8,343.1c-3.1-3,4.8-6.1-0.2-8.9c-2.1,2.2-4,4.3-6,6.3c-0.3-0.1-0.7-0.2-1-0.3
			c0.4-2.4,0.3-5.3,1.4-6.9c1.1-1.6,4.6-3.1,5.4-2.3c2.5,2.3,4.2,5.7,6.5,9.2C753,341.6,751.3,342.4,749.8,343.1z"/>
		<path class="st1" d="M583.1,327.9c-1.3,1-2.5,2.2-3.9,3c-0.1,0.1-1-1.2-1.5-1.9c1.3-1.1,2.7-2.2,4-3.3
			C582.2,326.5,582.6,327.2,583.1,327.9z"/>
	</g>
	<g>
		<g>
			<path class="st2" d="M583.1,327.9c-0.5-0.7-0.9-1.4-1.4-2.1c-1.3,1.1-2.7,2.2-4,3.3c0.5,0.7,1.3,1.9,1.5,1.9
				C580.6,330.1,581.8,329,583.1,327.9z"/>
		</g>
		<line class="st3" x1="523.1" y1="325.1" x2="559.1" y2="325.1"/>
		<line class="st3" x1="523.1" y1="331.4" x2="559.1" y2="331.4"/>
		<line class="st3" x1="577.1" y1="385.4" x2="577.1" y2="349.4"/>
		<line class="st3" x1="637.7" y1="325.1" x2="601.7" y2="325.1"/>
		<line class="st3" x1="637.7" y1="331.4" x2="601.7" y2="331.4"/>
		<line class="st3" x1="583.7" y1="385.4" x2="583.7" y2="349.4"/>
	</g>
</g>
<g id="bkwvWy_1_">
	<g>
		<g>
			<path class="st4" d="M2086,280c-14.1,5.6-19.1,8.8-33.5-5.2c-1.3-1.2-2.6-2.5-5.3-3.5c0,3.3-0.1,6.7,0,10
				c0.3,5.5,0.5,11,1.3,16.4c0.6,4,1.4,8.3,3.5,11.6c6.2,9.8,13.2,19.1,19.6,28.8c0.9,1.3,0.8,4.8-0.1,5.4
				c-5.5,3.6-11.3,6.7-18.5,10.8c0.2-3.7,0.4-5.8,0.4-8c0-2.4,0.7-5.5-0.4-7.2c-6-9.1-10.2-19.7-20.3-25.5c-0.7-0.4-1.4-0.8-2.7-1.6
				c-0.8,2-1.8,3.6-2.3,5.4c-2.2,8.9-4.2,17.8-6.3,26.7c-0.1,0.3-0.2,0.6-0.2,1c-0.1,2.3,0.8,5.7-0.4,6.7c-1.6,1.3-4.7,0.9-7.2,1.1
				c-3.2,0.2-6.3,0.3-9.5,0.3c-3.6,0-4.3-2.3-2.2-4.5c6.8-7.1,8-16.4,9.7-25.3c1-5.2,0.2-10.8,0.2-16.2c-6.9,0-13,0.8-18.7-0.2
				c-5.6-1-10.8-3.9-17-6.2c-0.3,1.8-1,3.7-0.7,5.4c2.3,13.9,4.7,27.8,7.2,41.8c0.5,3,0.1,4.9-3.5,4.9c-5.6-0.1-11.2,0-18.5,0
				c1.7-3.2,2.4-5.5,3.9-7.1c2.5-2.6,3.1-5.3,2.2-8.6c-1.6-6-3.1-12.1-5-19.4c-2,2.3-3.2,3.4-3.9,4.7c-4,7.4-10.5,13.8-9.4,23.4
				c0.1,0.8-2.6,3-3.5,2.8c-5.4-1.3-10.7-3.2-16.4-5c0.7-1.3,0.8-2.3,1.4-2.7c6.6-3.9,8.3-10.6,10.7-17.2c2.7-7.7,6-15.2,10.1-22.2
				c4.3-7.4,0.3-17.1-8.6-22.5c-7.8-4.7-13.7-3.5-20.2,3.5c-8.2,8.8-18,15.1-30.7,14.5c-1.8-0.1-6.2,2.1-5.1-3.3
				c0-0.2-2.3-1-3.6-1.3c-5.4-1.4-9.5-4.3-12.9-8.8c-1.3-1.7-5.1-2.9-7.2-2.4c-3.1,0.8-4.4-0.7-6.7-1.9
				c-10.6-5.6-15.3-15.3-19.6-25.6c-2.7-6.4-5.6-12.8-8.4-19.1c-0.3-0.7-1-1.2-2.2-2.7c-1.7,8.8-8.1,14.8-7.7,23.8
				c0.3,7.7-2.6,15.5,1,23.1c1.4,2.9,2.2,6.3,4.1,8.8c7.3,10.1,15.8,19.6,19,32c1.6,6.3,1.6,13.1,2.2,19.6c0.3,3.4,0.8,6.9,0.2,10.2
				c-0.3,1.6-3,3.9-4.6,3.9c-9.6,0-19.3-0.4-28.9-1.1c-1.1-0.1-2.9-2.6-2.9-3.9c0.1-1.7,1.5-3.5,2.6-5.1c2.2-3.6,6.1-6.9,6.5-10.6
				c0.8-7.3-0.8-14.7-5.5-20.8c-6.4-8.3-15.2-13.7-25-19.4c-3.3,9.4-6.3,18.3-9.5,27.2c-1.7,4.7-3.6,9.3-5.1,14
				c-0.4,1.3-0.2,3.1,0.3,4.5c2,5.4-0.4,9.3-6.2,9.4c-7,0.1-14,0-21-0.2c-1.7-0.1-4.6-0.9-4.7-1.5c-0.2-2.1,0.2-4.7,1.3-6.5
				c2.5-4.1,5.8-7.7,8.3-11.8c2-3.4,3.4-7.1,4.9-10.8c1.3-3.4,1.8-7.1,3.4-10.4c4.5-9.6,4.5-19.6,3.5-29.9
				c-10.3-0.7-20.8,0-30.3-2.6c-9.4-2.6-17.8-8.7-26.9-13.5c-2.2,4.7-4.1,9.2-3.7,14.9c1.2,17.8,1.2,35.6-3.6,53.1
				c-1,3.6,0.1,8.1,1.3,11.9c1.7,5.2,0.6,8.5-4.8,8.7c-8.6,0.3-17.2-0.1-25.8-0.2c-3-0.1-4.7-1.8-3.1-4.5c2.2-3.7,1.3-7,0.5-10.9
				c-1.7-9.5-5.4-17.6-12.4-24.4c-8.4-8.2-9.5-16.4-4.4-27.9c4.8-10.8,9.6-21.6,14.5-32.3c3.7-8.2,1.7-15.2-5.5-20.5
				c-9.4-6.9-18.5-14.1-27.8-21.1c-1.2-0.9-2.5-1.6-3.9-2c-4.2-1.3-8.4-3.1-12.7-3.5c-2.8-0.3-5.8,1.4-8.6,2.6c-1.6,0.7-3,2-4.5,3
				c-7.2,4.3-15.8,3.5-23.6,5.7c-7.7,2.2-15.9,3.2-23.9,3.9c-6.1,0.5-11.9-1.3-16.3-6.1c0-0.7,0-1.3,0-2c4.4,0.9,8.8,1.9,13.2,2.8
				c0.1-0.4,0.2-0.8,0.3-1.2c-0.9-1.2-1.9-2.3-3.4-4.2c2.8,0.2,4.7,0.4,7.3,0.6c-0.9-1.3-1.3-2.3-2-3c-6.5-6.1-9.6-13.9-10.9-22.5
				c-2.6-17.3,9.2-34.6,25.4-37.5c2.4-0.4,5-0.4,7.4-0.2c8.4,0.6,12.1-1.7,15.1-9.7c0.2-0.6,0.7-1.1,1.4-2.3
				c1.3,5.4,4.5,5.5,8.4,3.7c-1.9,12.1-8.1,18.9-19.2,21.4c-0.7,0.1-1.3,0.3-2,0.4c-16,3-20.6,14.6-10.8,27.6c1.3,1.8,4.5,2.9,6.8,3
				c1.3,0,3.4-2.5,4-4.3c6.4-19.5,19.6-33.4,36-44.7c6.5-4.4,13.8-4.5,21.2-2.8c4.5,1.1,9.1,2,13.6,3.3c7.1,2,13.3,0.1,19.4-3.4
				c7.6-4.4,15.4-8.5,23.4-12.1c7.7-3.5,15.9-3.2,24-0.8c6.8,1.9,8.7,4.9,7.5,11.8c-0.5,2.8-1.3,5.5-2.1,8.2
				c-0.8,2.7-1.8,5.3-3.1,9.2c6.2-0.6,11.4-0.9,16.5-1.6c2.8-0.4,5.7-0.9,8.2-2c14.2-5.9,27.3-1.9,39.8,4.7
				c22,11.5,35.2,30.4,43.6,53.1c5.9,16.1,10.9,32.5,16.9,48.5c4.3,11.4,8.8,17.1,14,20.7c7.3-5.6,12-5.6,18.8,0.7
				c5.8,5.3,12.6,6.6,19.9,6.2c5.3-0.2,7.4-3.1,9.3-10c2.1-7.5,4.5-14.9,7.4-22c1.6-3.8,4.1-7.5,7.1-10.2c2.8-2.5,6.7-4.1,10.3-5
				c3.2-0.8,5.5-1.5,6.5-5c0.6-2.2,2.1-4.2,3.1-6.2c1.8-3.6,3.6-7.1,5.7-11.3c3.8,3.7,0.5,9.9,3.7,14c5.3-0.9,10.6-1.9,16-2.8
				c4.3-0.8,7,0.8,6.7,5.4c-0.2,3.9,1.5,5.8,5.1,5.6c5.1-0.3,10.6,0,15.1-1.9c15.2-6.3,27.8-1,39.5,7.8c8.7,6.5,15.8,14.5,19.6,25.3
				c2.4,6.8,8,11.8,14.7,15c4.8,2.3,9.5,2.3,14.4-0.1c1.9-0.9,4.4-0.8,6.6-1.1C2086,279.3,2086,279.7,2086,280z M1676.4,301.7
				c0.3,0,0.6,0.1,0.9,0.1c-1.2-4.6-2.3-9.2-3.5-13.8c-0.7,0-1.5,0-2.2,0c-0.2,2.1-1.3,4.5-0.6,6.1
				C1672.3,296.9,1674.6,299.2,1676.4,301.7z"/>
		</g>
	</g>
</g>
<g id="PgDVas_5_">
	<g>
		<path class="st1" d="M283.4,330.9c-1.9-0.1-3.7-0.5-5.6-0.8c0.8-1.6,1.7-3.2,2.5-4.8c0.1-0.2-0.1-0.6-0.2-1.4h-17.4
			c2.7,2,4.9,3.6,7.1,5.4c-3.3,2.1-5.2-0.1-7.1-2.5c-2.2-2.9-5-4.9-7.9-2.3c-2.5,2.1-4.3,1.7-6.6,0.2c-0.8-0.5-1.9-1.1-2.8-1.1
			c-6.9,0.2-13.8,0.7-20.7,0.8c-11.3,0.1-22.6,0.1-33.9,0c-1.5,0-3.2-0.9-4.5-1.9c-3-2.4-8.4-2.4-11.5-0.7c-3,1.6-6.4,2.1-9.6,2.9
			c-2,0.5-4.7,0.1-6.1,1.4c-5.9,5.9-5.8,6.1-13,1.3c2.8-0.4,5.5-0.8,8.3-1.2c-2-1.5-4.8-1.1-5.8-2.4c-3.6-4.7-6.6-2-9.7,0.3
			c-3.5,2.7-8.5,2.1-12-1c-1.3-1.1-4.2-1.2-5.6-0.2c-2.3,1.5-3.9,2.9-6.9,1.8c-1.6-0.6-3.9,1.2-5.8,1.7c-1.6,0.5-4.3,1.6-4.6,1
			c-2.5-4.2-4.7-2.1-7.3,0.5c-2.5-3.3-3.7-8.8-9.1-7c-0.4,2-0.8,4.1-1.2,6.5c-2.8-1-5.2-2.4-7.7-2.5c-8.2-0.3-16.4-0.4-24.6-0.1
			c-3.6,0.1-7.2,1.7-10.7,1.6c-4.7-0.2-9.3-1.7-14-2c-2.5-0.1-5,1.3-7.4,2c0.8,4,1.4,6.9,2.2,10.6c-4.5-0.5-8.3-0.9-12.1-1.4
			l0.1-1.3c5.4,0.1,7.3-2.1,7.8-9.2c-2.9,0-5.7,0-8.6,0c-6,0.1-12.1,0-18.1,0.3c-2.9,0.1-5.8,1-9.2,1.6c-9.2,0.4-18.8-2.7-29.1-0.8
			c-10,1.8-20.5,0-31-0.3c0.2-1.8,0.2-2.6,0.4-3.4c0.2-0.5,0.4-1,0.6-1.6c-0.3,0-0.6,0.1-0.9,0.1c-1.3,0.4-2.6,0.6-3.9,0.8
			c-1.4,0.2-2.8,0.3-4.3,0.4c-1.1,0.1-2.1,0.3-3.2,0.4c-4.3,0.5-8.5,0.7-12.8,0.3c-0.4,0-0.8-0.1-1.2-0.2c-0.6,0-1.3,0-1.9,0
			c0.4,2.6,0.9,5.3,1.3,7.9c0.1,0.9,0.1,2-0.2,2.8c-0.5,1.1-1.3,2-2,3c1.2,0.1,2.5,0.3,3.9,0.4c1.1,3.5-0.1,5.1-3.3,5.2
			c-1.6,0.1-3.1,0.5-4.7,0.7c-4.8,0.7-9.6,1.4-14.4,2c-0.1-0.8-0.2-1.5-0.3-2.3c1.2-0.3,2.5-0.5,3.7-0.8c3.5-1,7.1-1.8,10.5-3.1
			c0.6-0.2,0.7-2.3,1-3.5c-1.2-0.4-2.3-0.9-3.5-1.2c-1.5-0.3-3.6,0.1-4.6-0.8c-1.8-1.8-3-4.4-4.4-6.7c-4.2,3.6-6,3.5-10,0.3
			c-4.2,0.3-7.2,0.5-10.3,0.6c-3.7,0.2-7.4,0.7-11,0.4c-5.6-0.5-11.6,1.9-16.8-2.6c-0.5-0.5-1.6-0.2-2.5-0.1
			c-4.6,0.4-9.3,1-13.9,1.1c-18.6,0.3-37.3,0.5-55.9,0.7c-2.4,0-4.8,0.7-7.2,0.6c-3.3-0.2-6.5-1.2-9.8-1.2
			c-21.8,0.2-43.6,0.7-65.5,0.7c-12,0-24-0.8-36-1c-14.9-0.2-29.8,0-44.7,0.1v74h127.7c0.5-2.7,0.9-5.3,1.5-8.3
			c3.1,1.5,3.4,4.9,3.7,8.3H-97c-0.3-2.6-0.5-5.2-0.8-8.2c3.1,1.2,5.3,3.6,5.2,8.2h16.5c0.7-2.3,1.4-4.5,2-6.8
			c0.5-1.6,0.8-3.3,1.4-5.8c3.8,4,7.2,7.2,7.8,12.6h63.4c0.5-4.3,3.6-7.2,7.5-7c4.4,0.2,3.9,3.7,3.8,7h33c1.6-3.6,4.8-3.3,7.6-3.5
			c0.6,0,1.3,2.3,2,3.5H62c-1.3-3.2-2.5-6.3-3.9-9.8c2-0.5,3.5-0.9,4.5-1.2c2,2.7,3.8,5.2,5.6,7.6l1.2-0.9c0.1,1.4,0.3,2.9,0.4,4.3
			h8.7l-3.1-7.2c0.4-0.3,0.9-0.5,1.3-0.8c2.1,2.6,4.1,5.2,6.2,7.8c-0.7-3.5-1.3-6.9-2-10.4c0.5-0.1,0.9-0.2,1.4-0.4
			c1.1,3.7,2.1,7.3,3.2,11h3.5c-0.8-1.5-1.6-3-2.9-5.6c3.8,1.1,7.1,0.7,7.2,5.6h198.1v-69C288.7,331.2,286,331.1,283.4,330.9z
			 M-252.3,352.7c2.9-2.3,5.8-4.6,9.1,0.7C-246.7,353.1-249.5,352.9-252.3,352.7z M-163.3,396c-2.4-1.2-2.7-3.1-0.3-6.5
			c1.1,2.4,2,4.2,2.8,6C-161.7,395.7-162.7,396.3-163.3,396z M-132.5,372.7l0.1-1.6c3.1,0,6.2-0.2,9.2,0.2c0.5,0.1,0.7,3.2,1.1,5.4
			C-126.2,375.1-129.4,373.9-132.5,372.7z M-68.8,345.1c-1.2,0.6-2.3,1.3-3.4,1.9c3.3-6.2,3.3-6.2,6.9-3.7
			C-66.6,344-67.7,344.5-68.8,345.1z M-58.5,336.4c-2.2-0.1-4.3-0.5-6.5-0.8c0.1-0.7,0.1-1.4,0.2-2.1c2.1-0.3,4.1-0.7,6.2-0.7
			c0.6,0,1.2,1.2,1.8,1.8C-57.4,335.2-58,336.4-58.5,336.4z M4.5,337.2c-1,0.3-2.1,0-3,0.5c-5.4,3.1-10.2-2-15.4-1.3
			c-0.5,0.1-1.3-2.3-1.8-3.4c2.6-4.2,5.1-0.7,7.6-0.6c2.4,0,4.7-0.1,7.1-0.2c2.6,0.9,4.8,3.1,7.2-2.3c1,2.5,1.5,4.1,2.1,5.6
			C7,336.1,5.8,336.8,4.5,337.2z M26.9,397.1c-1.5-2.5-3.1-5-2-8.4c0.4-0.2,0.9-0.3,1.3-0.5c0.8,2.8,1.6,5.5,2.5,8.3
			C28,396.7,27.5,396.9,26.9,397.1z M27.2,338.3c-0.2-0.5-0.3-1.1-0.5-1.6c1.5-0.6,3-1.8,4.4-1.7c0.7,0.1,1.4,2.4,2.5,4.7
			C30.6,339.1,28.9,338.7,27.2,338.3z M56.5,343.8c-3.1-3,4.8-6.1-0.2-8.9c-2.1,2.2-4,4.3-6,6.3c-0.3-0.1-0.7-0.2-1-0.3
			c0.4-2.4,0.3-5.3,1.4-6.9c1.1-1.6,4.6-3.1,5.4-2.3c2.5,2.3,4.2,5.7,6.5,9.2C59.7,342.3,58,343.1,56.5,343.8z"/>
		<path class="st1" d="M-110.2,328.6c-1.3,1-2.5,2.2-3.9,3c-0.1,0.1-1-1.2-1.5-1.9c1.3-1.1,2.7-2.2,4-3.3
			C-111.1,327.2-110.6,327.9-110.2,328.6z"/>
	</g>
	<g>
		<path class="st1" d="M283.4,330.9c-1.9-0.1-3.7-0.5-5.6-0.8c0.8-1.6,1.7-3.2,2.5-4.8c0.1-0.2-0.1-0.6-0.2-1.4h-17.4
			c2.7,2,4.9,3.6,7.1,5.4c-3.3,2.1-5.2-0.1-7.1-2.5c-2.2-2.9-5-4.9-7.9-2.3c-2.5,2.1-4.3,1.7-6.6,0.2c-0.8-0.5-1.9-1.1-2.8-1.1
			c-6.9,0.2-13.8,0.7-20.7,0.8c-11.3,0.1-22.6,0.1-33.9,0c-1.5,0-3.2-0.9-4.5-1.9c-3-2.4-8.4-2.4-11.5-0.7c-3,1.6-6.4,2.1-9.6,2.9
			c-2,0.5-4.7,0.1-6.1,1.4c-5.9,5.9-5.8,6.1-13,1.3c2.8-0.4,5.5-0.8,8.3-1.2c-2-1.5-4.8-1.1-5.8-2.4c-3.6-4.7-6.6-2-9.7,0.3
			c-3.5,2.7-8.5,2.1-12-1c-1.3-1.1-4.2-1.2-5.6-0.2c-2.3,1.5-3.9,2.9-6.9,1.8c-1.6-0.6-3.9,1.2-5.8,1.7c-1.6,0.5-4.3,1.6-4.6,1
			c-2.5-4.2-4.7-2.1-7.3,0.5c-2.5-3.3-3.7-8.8-9.1-7c-0.4,2-0.8,4.1-1.2,6.5c-2.8-1-5.2-2.4-7.7-2.5c-8.2-0.3-16.4-0.4-24.6-0.1
			c-3.6,0.1-7.2,1.7-10.7,1.6c-4.7-0.2-9.3-1.7-14-2c-2.5-0.1-5,1.3-7.4,2c0.8,4,1.4,6.9,2.2,10.6c-4.5-0.5-8.3-0.9-12.1-1.4
			l0.1-1.3c5.4,0.1,7.3-2.1,7.8-9.2c-2.9,0-5.7,0-8.6,0c-6,0.1-12.1,0-18.1,0.3c-2.9,0.1-5.8,1-9.2,1.6c-9.2,0.4-18.8-2.7-29.1-0.8
			c-10,1.8-20.5,0-31-0.3c0.2-1.8,0.2-2.6,0.4-3.4c0.2-0.5,0.4-1,0.6-1.6c-0.3,0-0.6,0.1-0.9,0.1c-1.3,0.4-2.6,0.6-3.9,0.8
			c-1.4,0.2-2.8,0.3-4.3,0.4c-1.1,0.1-2.1,0.3-3.2,0.4c-4.3,0.5-8.5,0.7-12.8,0.3c-0.4,0-0.8-0.1-1.2-0.2c-0.6,0-1.3,0-1.9,0
			c0.4,2.6,0.9,5.3,1.3,7.9c0.1,0.9,0.1,2-0.2,2.8c-0.5,1.1-1.3,2-2,3c1.2,0.1,2.5,0.3,3.9,0.4c1.1,3.5-0.1,5.1-3.3,5.2
			c-1.6,0.1-3.1,0.5-4.7,0.7c-4.8,0.7-9.6,1.4-14.4,2c-0.1-0.8-0.2-1.5-0.3-2.3c1.2-0.3,2.5-0.5,3.7-0.8c3.5-1,7.1-1.8,10.5-3.1
			c0.6-0.2,0.7-2.3,1-3.5c-1.2-0.4-2.3-0.9-3.5-1.2c-1.5-0.3-3.6,0.1-4.6-0.8c-1.8-1.8-3-4.4-4.4-6.7c-4.2,3.6-6,3.5-10,0.3
			c-4.2,0.3-7.2,0.5-10.3,0.6c-3.7,0.2-7.4,0.7-11,0.4c-5.6-0.5-11.6,1.9-16.8-2.6c-0.5-0.5-1.6-0.2-2.5-0.1
			c-4.6,0.4-9.3,1-13.9,1.1c-18.6,0.3-37.3,0.5-55.9,0.7c-2.4,0-4.8,0.7-7.2,0.6c-3.3-0.2-6.5-1.2-9.8-1.2
			c-21.8,0.2-43.6,0.7-65.5,0.7c-12,0-24-0.8-36-1c-14.9-0.2-29.8,0-44.7,0.1v74h127.7c0.5-2.7,0.9-5.3,1.5-8.3
			c3.1,1.5,3.4,4.9,3.7,8.3H-97c-0.3-2.6-0.5-5.2-0.8-8.2c3.1,1.2,5.3,3.6,5.2,8.2h16.5c0.7-2.3,1.4-4.5,2-6.8
			c0.5-1.6,0.8-3.3,1.4-5.8c3.8,4,7.2,7.2,7.8,12.6h63.4c0.5-4.3,3.6-7.2,7.5-7c4.4,0.2,3.9,3.7,3.8,7h33c1.6-3.6,4.8-3.3,7.6-3.5
			c0.6,0,1.3,2.3,2,3.5H62c-1.3-3.2-2.5-6.3-3.9-9.8c2-0.5,3.5-0.9,4.5-1.2c2,2.7,3.8,5.2,5.6,7.6l1.2-0.9c0.1,1.4,0.3,2.9,0.4,4.3
			h8.7l-3.1-7.2c0.4-0.3,0.9-0.5,1.3-0.8c2.1,2.6,4.1,5.2,6.2,7.8c-0.7-3.5-1.3-6.9-2-10.4c0.5-0.1,0.9-0.2,1.4-0.4
			c1.1,3.7,2.1,7.3,3.2,11h3.5c-0.8-1.5-1.6-3-2.9-5.6c3.8,1.1,7.1,0.7,7.2,5.6h198.1v-69C288.7,331.2,286,331.1,283.4,330.9z
			 M-252.3,352.7c2.9-2.3,5.8-4.6,9.1,0.7C-246.7,353.1-249.5,352.9-252.3,352.7z M-163.3,396c-2.4-1.2-2.7-3.1-0.3-6.5
			c1.1,2.4,2,4.2,2.8,6C-161.7,395.7-162.7,396.3-163.3,396z M-132.5,372.7l0.1-1.6c3.1,0,6.2-0.2,9.2,0.2c0.5,0.1,0.7,3.2,1.1,5.4
			C-126.2,375.1-129.4,373.9-132.5,372.7z M-68.8,345.1c-1.2,0.6-2.3,1.3-3.4,1.9c3.3-6.2,3.3-6.2,6.9-3.7
			C-66.6,344-67.7,344.5-68.8,345.1z M-58.5,336.4c-2.2-0.1-4.3-0.5-6.5-0.8c0.1-0.7,0.1-1.4,0.2-2.1c2.1-0.3,4.1-0.7,6.2-0.7
			c0.6,0,1.2,1.2,1.8,1.8C-57.4,335.2-58,336.4-58.5,336.4z M4.5,337.2c-1,0.3-2.1,0-3,0.5c-5.4,3.1-10.2-2-15.4-1.3
			c-0.5,0.1-1.3-2.3-1.8-3.4c2.6-4.2,5.1-0.7,7.6-0.6c2.4,0,4.7-0.1,7.1-0.2c2.6,0.9,4.8,3.1,7.2-2.3c1,2.5,1.5,4.1,2.1,5.6
			C7,336.1,5.8,336.8,4.5,337.2z M26.9,397.1c-1.5-2.5-3.1-5-2-8.4c0.4-0.2,0.9-0.3,1.3-0.5c0.8,2.8,1.6,5.5,2.5,8.3
			C28,396.7,27.5,396.9,26.9,397.1z M27.2,338.3c-0.2-0.5-0.3-1.1-0.5-1.6c1.5-0.6,3-1.8,4.4-1.7c0.7,0.1,1.4,2.4,2.5,4.7
			C30.6,339.1,28.9,338.7,27.2,338.3z M56.5,343.8c-3.1-3,4.8-6.1-0.2-8.9c-2.1,2.2-4,4.3-6,6.3c-0.3-0.1-0.7-0.2-1-0.3
			c0.4-2.4,0.3-5.3,1.4-6.9c1.1-1.6,4.6-3.1,5.4-2.3c2.5,2.3,4.2,5.7,6.5,9.2C59.7,342.3,58,343.1,56.5,343.8z"/>
		<path class="st1" d="M-110.2,328.6c-1.3,1-2.5,2.2-3.9,3c-0.1,0.1-1-1.2-1.5-1.9c1.3-1.1,2.7-2.2,4-3.3
			C-111.1,327.2-110.6,327.9-110.2,328.6z"/>
	</g>
	<g>
		<g>
			<path class="st2" d="M-110.2,328.6c-0.5-0.7-0.9-1.4-1.4-2.1c-1.3,1.1-2.7,2.2-4,3.3c0.5,0.7,1.3,1.9,1.5,1.9
				C-112.7,330.8-111.5,329.7-110.2,328.6z"/>
		</g>
		<line class="st3" x1="-170.2" y1="325.8" x2="-134.2" y2="325.8"/>
		<line class="st3" x1="-170.2" y1="332.1" x2="-134.2" y2="332.1"/>
		<line class="st3" x1="-116.2" y1="386.1" x2="-116.2" y2="350.1"/>
		<line class="st3" x1="-55.6" y1="325.8" x2="-91.6" y2="325.8"/>
		<line class="st3" x1="-55.6" y1="332.1" x2="-91.6" y2="332.1"/>
		<line class="st3" x1="-109.6" y1="386.1" x2="-109.6" y2="350.1"/>
	</g>
</g>
<g id="PgDVas_6_">
	<g>
		<path class="st1" d="M2882.4,329.9c-1.9-0.1-3.7-0.5-5.6-0.8c0.8-1.6,1.7-3.2,2.5-4.8c0.1-0.2-0.1-0.6-0.2-1.4h-17.4
			c2.7,2,4.9,3.6,7.1,5.4c-3.3,2.1-5.2-0.1-7.1-2.5c-2.2-2.9-5-4.9-7.9-2.3c-2.5,2.1-4.3,1.7-6.6,0.2c-0.8-0.5-1.9-1.1-2.8-1.1
			c-6.9,0.2-13.8,0.7-20.7,0.8c-11.3,0.1-22.6,0.1-33.9,0c-1.5,0-3.2-0.9-4.5-1.9c-3-2.4-8.4-2.4-11.5-0.7c-3,1.6-6.4,2.1-9.6,2.9
			c-2,0.5-4.7,0.1-6.1,1.4c-5.9,5.9-5.8,6.1-13,1.3c2.8-0.4,5.5-0.8,8.3-1.2c-2-1.5-4.8-1.1-5.8-2.4c-3.6-4.7-6.6-2-9.7,0.3
			c-3.5,2.7-8.5,2.1-12-1c-1.3-1.1-4.2-1.2-5.6-0.2c-2.3,1.5-3.9,2.9-6.9,1.8c-1.6-0.6-3.9,1.2-5.8,1.7c-1.6,0.5-4.3,1.6-4.6,1
			c-2.5-4.2-4.7-2.1-7.3,0.5c-2.5-3.3-3.7-8.8-9.1-7c-0.4,2-0.8,4.1-1.2,6.5c-2.8-1-5.2-2.4-7.7-2.5c-8.2-0.3-16.4-0.4-24.6-0.1
			c-3.6,0.1-7.2,1.7-10.7,1.6c-4.7-0.2-9.3-1.7-14-2c-2.5-0.1-5,1.3-7.4,2c0.8,4,1.4,6.9,2.2,10.6c-4.5-0.5-8.3-0.9-12.1-1.4
			l0.1-1.3c5.4,0.1,7.3-2.1,7.8-9.2c-2.9,0-5.7,0-8.6,0c-6,0.1-12.1,0-18.1,0.3c-2.9,0.1-5.8,1-9.2,1.6c-9.2,0.4-18.8-2.7-29.1-0.8
			c-10,1.8-20.5,0-31-0.3c0.2-1.8,0.2-2.6,0.4-3.4c0.2-0.5,0.4-1,0.6-1.6c-0.3,0-0.6,0.1-0.9,0.1c-1.3,0.4-2.6,0.6-3.9,0.8
			c-1.4,0.2-2.8,0.3-4.3,0.4c-1.1,0.1-2.1,0.3-3.2,0.4c-4.3,0.5-8.5,0.7-12.8,0.3c-0.4,0-0.8-0.1-1.2-0.2c-0.6,0-1.3,0-1.9,0
			c0.4,2.6,0.9,5.3,1.3,7.9c0.1,0.9,0.1,2-0.2,2.8c-0.5,1.1-1.3,2-2,3c1.2,0.1,2.5,0.3,3.9,0.4c1.1,3.5-0.1,5.1-3.3,5.2
			c-1.6,0.1-3.1,0.5-4.7,0.7c-4.8,0.7-9.6,1.4-14.4,2c-0.1-0.8-0.2-1.5-0.3-2.3c1.2-0.3,2.5-0.5,3.7-0.8c3.5-1,7.1-1.8,10.5-3.1
			c0.6-0.2,0.7-2.3,1-3.5c-1.2-0.4-2.3-0.9-3.5-1.2c-1.5-0.3-3.6,0.1-4.6-0.8c-1.8-1.8-3-4.4-4.4-6.7c-4.2,3.6-6,3.5-10,0.3
			c-4.2,0.3-7.2,0.5-10.3,0.6c-3.7,0.2-7.4,0.7-11,0.4c-5.6-0.5-11.6,1.9-16.8-2.6c-0.5-0.5-1.6-0.2-2.5-0.1
			c-4.6,0.4-9.3,1-13.9,1.1c-18.6,0.3-37.3,0.5-55.9,0.7c-2.4,0-4.8,0.7-7.2,0.6c-3.3-0.2-6.5-1.2-9.8-1.2
			c-21.8,0.2-43.6,0.7-65.5,0.7c-12,0-24-0.8-36-1c-14.9-0.2-29.8,0-44.7,0.1v74h127.7c0.5-2.7,0.9-5.3,1.5-8.3
			c3.1,1.5,3.4,4.9,3.7,8.3H2502c-0.3-2.6-0.5-5.2-0.8-8.2c3.1,1.2,5.3,3.6,5.2,8.2h16.5c0.7-2.3,1.4-4.5,2-6.8
			c0.5-1.6,0.8-3.3,1.4-5.8c3.8,4,7.2,7.2,7.8,12.6h63.4c0.5-4.3,3.6-7.2,7.5-7c4.4,0.2,3.9,3.7,3.8,7h33c1.6-3.6,4.8-3.3,7.6-3.5
			c0.6,0,1.3,2.3,2,3.5h9.6c-1.3-3.2-2.5-6.3-3.9-9.8c2-0.5,3.5-0.9,4.5-1.2c2,2.7,3.8,5.2,5.6,7.6l1.2-0.9c0.1,1.4,0.3,2.9,0.4,4.3
			h8.7l-3.1-7.2c0.4-0.3,0.9-0.5,1.3-0.8c2.1,2.6,4.1,5.2,6.2,7.8c-0.7-3.5-1.3-6.9-2-10.4c0.5-0.1,0.9-0.2,1.4-0.4
			c1.1,3.7,2.1,7.3,3.2,11h3.5c-0.8-1.5-1.6-3-2.9-5.6c3.8,1.1,7.1,0.7,7.2,5.6h198.1v-69C2887.7,330.2,2885,330.1,2882.4,329.9z
			 M2346.7,351.7c2.9-2.3,5.8-4.6,9.1,0.7C2352.3,352.1,2349.5,351.9,2346.7,351.7z M2435.7,395c-2.4-1.2-2.7-3.1-0.3-6.5
			c1.1,2.4,2,4.2,2.8,6C2437.3,394.7,2436.3,395.3,2435.7,395z M2466.5,371.7l0.1-1.6c3.1,0,6.2-0.2,9.2,0.2
			c0.5,0.1,0.7,3.2,1.1,5.4C2472.8,374.1,2469.6,372.9,2466.5,371.7z M2530.2,344.1c-1.2,0.6-2.3,1.3-3.4,1.9
			c3.3-6.2,3.3-6.2,6.9-3.7C2532.4,343,2531.3,343.5,2530.2,344.1z M2540.5,335.4c-2.2-0.1-4.3-0.5-6.5-0.8c0.1-0.7,0.1-1.4,0.2-2.1
			c2.1-0.3,4.1-0.7,6.2-0.7c0.6,0,1.2,1.2,1.8,1.8C2541.6,334.2,2541,335.4,2540.5,335.4z M2603.5,336.2c-1,0.3-2.1,0-3,0.5
			c-5.4,3.1-10.2-2-15.4-1.3c-0.5,0.1-1.3-2.3-1.8-3.4c2.6-4.2,5.1-0.7,7.6-0.6c2.4,0,4.7-0.1,7.1-0.2c2.6,0.9,4.8,3.1,7.2-2.3
			c1,2.5,1.5,4.1,2.1,5.6C2606,335.1,2604.8,335.8,2603.5,336.2z M2625.9,396.1c-1.5-2.5-3.1-5-2-8.4c0.4-0.2,0.9-0.3,1.3-0.5
			c0.8,2.8,1.6,5.5,2.5,8.3C2627,395.7,2626.5,395.9,2625.9,396.1z M2626.2,337.3c-0.2-0.5-0.3-1.1-0.5-1.6c1.5-0.6,3-1.8,4.4-1.7
			c0.7,0.1,1.4,2.4,2.5,4.7C2629.6,338.1,2627.9,337.7,2626.2,337.3z M2655.5,342.8c-3.1-3,4.8-6.1-0.2-8.9c-2.1,2.2-4,4.3-6,6.3
			c-0.3-0.1-0.7-0.2-1-0.3c0.4-2.4,0.3-5.3,1.4-6.9c1.1-1.6,4.6-3.1,5.4-2.3c2.5,2.3,4.2,5.7,6.5,9.2
			C2658.7,341.3,2657,342.1,2655.5,342.8z"/>
		<path class="st1" d="M2488.8,327.6c-1.3,1-2.5,2.2-3.9,3c-0.1,0.1-1-1.2-1.5-1.9c1.3-1.1,2.7-2.2,4-3.3
			C2487.9,326.2,2488.4,326.9,2488.8,327.6z"/>
	</g>
	<g>
		<path class="st1" d="M2882.4,329.9c-1.9-0.1-3.7-0.5-5.6-0.8c0.8-1.6,1.7-3.2,2.5-4.8c0.1-0.2-0.1-0.6-0.2-1.4h-17.4
			c2.7,2,4.9,3.6,7.1,5.4c-3.3,2.1-5.2-0.1-7.1-2.5c-2.2-2.9-5-4.9-7.9-2.3c-2.5,2.1-4.3,1.7-6.6,0.2c-0.8-0.5-1.9-1.1-2.8-1.1
			c-6.9,0.2-13.8,0.7-20.7,0.8c-11.3,0.1-22.6,0.1-33.9,0c-1.5,0-3.2-0.9-4.5-1.9c-3-2.4-8.4-2.4-11.5-0.7c-3,1.6-6.4,2.1-9.6,2.9
			c-2,0.5-4.7,0.1-6.1,1.4c-5.9,5.9-5.8,6.1-13,1.3c2.8-0.4,5.5-0.8,8.3-1.2c-2-1.5-4.8-1.1-5.8-2.4c-3.6-4.7-6.6-2-9.7,0.3
			c-3.5,2.7-8.5,2.1-12-1c-1.3-1.1-4.2-1.2-5.6-0.2c-2.3,1.5-3.9,2.9-6.9,1.8c-1.6-0.6-3.9,1.2-5.8,1.7c-1.6,0.5-4.3,1.6-4.6,1
			c-2.5-4.2-4.7-2.1-7.3,0.5c-2.5-3.3-3.7-8.8-9.1-7c-0.4,2-0.8,4.1-1.2,6.5c-2.8-1-5.2-2.4-7.7-2.5c-8.2-0.3-16.4-0.4-24.6-0.1
			c-3.6,0.1-7.2,1.7-10.7,1.6c-4.7-0.2-9.3-1.7-14-2c-2.5-0.1-5,1.3-7.4,2c0.8,4,1.4,6.9,2.2,10.6c-4.5-0.5-8.3-0.9-12.1-1.4
			l0.1-1.3c5.4,0.1,7.3-2.1,7.8-9.2c-2.9,0-5.7,0-8.6,0c-6,0.1-12.1,0-18.1,0.3c-2.9,0.1-5.8,1-9.2,1.6c-9.2,0.4-18.8-2.7-29.1-0.8
			c-10,1.8-20.5,0-31-0.3c0.2-1.8,0.2-2.6,0.4-3.4c0.2-0.5,0.4-1,0.6-1.6c-0.3,0-0.6,0.1-0.9,0.1c-1.3,0.4-2.6,0.6-3.9,0.8
			c-1.4,0.2-2.8,0.3-4.3,0.4c-1.1,0.1-2.1,0.3-3.2,0.4c-4.3,0.5-8.5,0.7-12.8,0.3c-0.4,0-0.8-0.1-1.2-0.2c-0.6,0-1.3,0-1.9,0
			c0.4,2.6,0.9,5.3,1.3,7.9c0.1,0.9,0.1,2-0.2,2.8c-0.5,1.1-1.3,2-2,3c1.2,0.1,2.5,0.3,3.9,0.4c1.1,3.5-0.1,5.1-3.3,5.2
			c-1.6,0.1-3.1,0.5-4.7,0.7c-4.8,0.7-9.6,1.4-14.4,2c-0.1-0.8-0.2-1.5-0.3-2.3c1.2-0.3,2.5-0.5,3.7-0.8c3.5-1,7.1-1.8,10.5-3.1
			c0.6-0.2,0.7-2.3,1-3.5c-1.2-0.4-2.3-0.9-3.5-1.2c-1.5-0.3-3.6,0.1-4.6-0.8c-1.8-1.8-3-4.4-4.4-6.7c-4.2,3.6-6,3.5-10,0.3
			c-4.2,0.3-7.2,0.5-10.3,0.6c-3.7,0.2-7.4,0.7-11,0.4c-5.6-0.5-11.6,1.9-16.8-2.6c-0.5-0.5-1.6-0.2-2.5-0.1
			c-4.6,0.4-9.3,1-13.9,1.1c-18.6,0.3-37.3,0.5-55.9,0.7c-2.4,0-4.8,0.7-7.2,0.6c-3.3-0.2-6.5-1.2-9.8-1.2
			c-21.8,0.2-43.6,0.7-65.5,0.7c-12,0-24-0.8-36-1c-14.9-0.2-29.8,0-44.7,0.1v74h127.7c0.5-2.7,0.9-5.3,1.5-8.3
			c3.1,1.5,3.4,4.9,3.7,8.3H2502c-0.3-2.6-0.5-5.2-0.8-8.2c3.1,1.2,5.3,3.6,5.2,8.2h16.5c0.7-2.3,1.4-4.5,2-6.8
			c0.5-1.6,0.8-3.3,1.4-5.8c3.8,4,7.2,7.2,7.8,12.6h63.4c0.5-4.3,3.6-7.2,7.5-7c4.4,0.2,3.9,3.7,3.8,7h33c1.6-3.6,4.8-3.3,7.6-3.5
			c0.6,0,1.3,2.3,2,3.5h9.6c-1.3-3.2-2.5-6.3-3.9-9.8c2-0.5,3.5-0.9,4.5-1.2c2,2.7,3.8,5.2,5.6,7.6l1.2-0.9c0.1,1.4,0.3,2.9,0.4,4.3
			h8.7l-3.1-7.2c0.4-0.3,0.9-0.5,1.3-0.8c2.1,2.6,4.1,5.2,6.2,7.8c-0.7-3.5-1.3-6.9-2-10.4c0.5-0.1,0.9-0.2,1.4-0.4
			c1.1,3.7,2.1,7.3,3.2,11h3.5c-0.8-1.5-1.6-3-2.9-5.6c3.8,1.1,7.1,0.7,7.2,5.6h198.1v-69C2887.7,330.2,2885,330.1,2882.4,329.9z
			 M2346.7,351.7c2.9-2.3,5.8-4.6,9.1,0.7C2352.3,352.1,2349.5,351.9,2346.7,351.7z M2435.7,395c-2.4-1.2-2.7-3.1-0.3-6.5
			c1.1,2.4,2,4.2,2.8,6C2437.3,394.7,2436.3,395.3,2435.7,395z M2466.5,371.7l0.1-1.6c3.1,0,6.2-0.2,9.2,0.2
			c0.5,0.1,0.7,3.2,1.1,5.4C2472.8,374.1,2469.6,372.9,2466.5,371.7z M2530.2,344.1c-1.2,0.6-2.3,1.3-3.4,1.9
			c3.3-6.2,3.3-6.2,6.9-3.7C2532.4,343,2531.3,343.5,2530.2,344.1z M2540.5,335.4c-2.2-0.1-4.3-0.5-6.5-0.8c0.1-0.7,0.1-1.4,0.2-2.1
			c2.1-0.3,4.1-0.7,6.2-0.7c0.6,0,1.2,1.2,1.8,1.8C2541.6,334.2,2541,335.4,2540.5,335.4z M2603.5,336.2c-1,0.3-2.1,0-3,0.5
			c-5.4,3.1-10.2-2-15.4-1.3c-0.5,0.1-1.3-2.3-1.8-3.4c2.6-4.2,5.1-0.7,7.6-0.6c2.4,0,4.7-0.1,7.1-0.2c2.6,0.9,4.8,3.1,7.2-2.3
			c1,2.5,1.5,4.1,2.1,5.6C2606,335.1,2604.8,335.8,2603.5,336.2z M2625.9,396.1c-1.5-2.5-3.1-5-2-8.4c0.4-0.2,0.9-0.3,1.3-0.5
			c0.8,2.8,1.6,5.5,2.5,8.3C2627,395.7,2626.5,395.9,2625.9,396.1z M2626.2,337.3c-0.2-0.5-0.3-1.1-0.5-1.6c1.5-0.6,3-1.8,4.4-1.7
			c0.7,0.1,1.4,2.4,2.5,4.7C2629.6,338.1,2627.9,337.7,2626.2,337.3z M2655.5,342.8c-3.1-3,4.8-6.1-0.2-8.9c-2.1,2.2-4,4.3-6,6.3
			c-0.3-0.1-0.7-0.2-1-0.3c0.4-2.4,0.3-5.3,1.4-6.9c1.1-1.6,4.6-3.1,5.4-2.3c2.5,2.3,4.2,5.7,6.5,9.2
			C2658.7,341.3,2657,342.1,2655.5,342.8z"/>
		<path class="st1" d="M2488.8,327.6c-1.3,1-2.5,2.2-3.9,3c-0.1,0.1-1-1.2-1.5-1.9c1.3-1.1,2.7-2.2,4-3.3
			C2487.9,326.2,2488.4,326.9,2488.8,327.6z"/>
	</g>
	<g>
		<g>
			<path class="st2" d="M2488.8,327.6c-0.5-0.7-0.9-1.4-1.4-2.1c-1.3,1.1-2.7,2.2-4,3.3c0.5,0.7,1.3,1.9,1.5,1.9
				C2486.3,329.8,2487.5,328.7,2488.8,327.6z"/>
		</g>
		<line class="st3" x1="2428.8" y1="324.8" x2="2464.8" y2="324.8"/>
		<line class="st3" x1="2428.8" y1="331.1" x2="2464.8" y2="331.1"/>
		<line class="st3" x1="2482.8" y1="385.1" x2="2482.8" y2="349.1"/>
		<line class="st3" x1="2543.4" y1="324.8" x2="2507.4" y2="324.8"/>
		<line class="st3" x1="2543.4" y1="331.1" x2="2507.4" y2="331.1"/>
		<line class="st3" x1="2489.4" y1="385.1" x2="2489.4" y2="349.1"/>
	</g>
</g>
<g id="PgDVas_1_">
	<g>
		<g>
			<path class="st5" d="M637.8,88c-5-0.8-10.1-2.1-15.1-2.3c-15.4-0.7-29.8-7-45.2-8c-9.3-0.6-18.5-3.2-27.8-4.9
				c-0.8-0.1-1.7-0.3-2.2-0.8c-8.2-6.8-18.3-4.4-27.1-4.1c-8.3,0.3-16.1-1.2-24-2.2c-9.2-1.2-18.1-4.5-27.2-6
				c-7.6-1.3-15.4-1.3-23.1-2c-1.9-0.2-4.1,0-5.7-0.9c-6.2-3.8-13.8-2.5-20.2-6.8c-5.4-3.7-12.8-4.6-19.4-6.1
				c-12.2-2.8-24.5-4.8-37.2-3.5c-13.2,1.4-26.6,1.6-39.9,2.3c-1.9,0.1-3.9,0.3-5.8,0.5c-2.1-1.7-4.5-2.9-6.9-3.2
				c-11.1-1.2-12.5-2.7-10.4-12.3c0.1-0.3-0.2-0.6-0.3-0.9c-15.2-7.8-55.8-14.8-81.4-14.1c-2.4,2-3.6,3.8-5,4.1
				c-4.8,0.9-8.1,6-14,4.4c-3.1-0.9-7.6,4.8-6.7,7.5c1.4,4.2-0.3,4.4-3.4,3.8c-0.3-0.1-0.8,0.3-1.2,0.5c0.5,1.2,1,2.2,1.6,3.8
				c-2.3-1-3.9-1.6-5.5-2.3c-0.1,0.3-0.2,0.7-0.4,1l3,3.7c-0.2,0.4-0.3,0.9-0.5,1.3c-2.8-0.2-5.9-1.1-8.5-0.3
				c-4.6,1.3-8.2-0.5-12.3-1.8c-6.4-2-13.1-3.5-19.7-4.3c-4.3-0.5-8.8,1.4-13.1,1c-7-0.8-13.5,0.5-19.7,3.5
				c-5.5,2.7-11,5.3-16.6,7.6c-4.5,1.8-8,5.7-13.5,5.8c-1.4,0-3.4,2.2-5.9,0.9c-3.5-1.9-7.1-2.7-10.1,1.3c-0.4,0.5-1.5,1-2.1,0.8
				c-6.8-1.4-13.6-2.3-20.6-1.4c-7.5,0.9-15.1,1.2-22.5,2.3C18,56.6,14,58.4,9.9,59.8c1,2.3,1.6,3.7,2.3,5.5
				c-1.7,0.4-2.9,0.6-4.9,1.1c2.5,1.9,4.3,3.3,6.6,5.2c-5,4.8-10.8,5.4-16.2,6.4c-3.1,0.6-6.9-2-9.7-1c-9.1,3.3-19,0.9-27.9,5.8
				c-7.9,4.3-16.6,7-24.9,10.6c-1.7,0.7-2.9,2.7-4.5,3.8c-2.6,1.8-5.3,3.4-8.6,5.4c2.2,0.8,3.6,1.3,6,2.1c-2.7,1.7-4.4,2.8-6.1,3.8
				c-0.6,0.4-1.4,0.3-2.2,0.5c1.1,5.1-2.7,3-4.7,3.6c-0.7,0.2-1.4,0.8-2.6,1.5c5.5,1.2,10.7,4,15,3c11.7-2.8,23.2,0.1,34.8,0.2
				c5,0,10.1,2.4,15.4,3.8c0.1-1.1,0.2-2.5,0.4-3.7c1.8,0,3.4,0.4,4.6-0.1c4.8-1.9,12.6-0.1,15.1,4.4c3.3,6.2,9,8.3,14.8,10.6
				c6.8,2.8,13.7,4.7,19.2,10.6c5.3,5.7,11.8,10.7,18.7,14.2c9.1,4.6,19,7.7,28.7,11c8.5,2.9,17.3,4.8,25.8,7.8
				c16.3,5.8,32.6,11.7,48.7,18.2c6,2.4,12.3,5.6,16.9,10.1c8.5,8.2,16.2,17.5,23.6,26.8c10.3,12.9,20.5,25.7,33.1,36.5
				c5.5,4.7,9.8,11.3,11.1,19.3c1.7,10.6,3.7,21.1,5.6,31.7c0.2,0.9,0.1,2-0.2,2.8c-0.5,1.1-1.5,2-2.3,3c1.4,0.1,2.7,0.3,4.3,0.4
				c0.2,0.6,0.3,1.1,0.4,1.6c1.7,0.4,3.4,0.7,5.1,1c4.5,0.5,8.9,1.1,13.4,1.6c0.1-0.1,0.2-0.2,0.3-0.3c-0.3,0-0.5-0.1-0.8-0.1
				c0.3,0,0.5,0.1,0.8,0.1c0.5-0.5,1-1,1.4-1.6c0.4-0.4,0.8-0.8,1.2-1.2c0.7-1.4,1.7-2.6,3.1-3.2c0.2-0.1,0.4-0.2,0.6-0.2
				c2.1-1.9,4.2-3.7,6.4-5.5c-0.3-0.9-0.5-1.9-0.6-2.9c-1.5-0.1-2.9-0.1-4.4-0.2c0.2-1.8,0.2-2.6,0.5-3.4
				c7.1-17.7,18.9-30.5,36.1-37.9c2.8-1.2,5.8-2.2,8.2-4c5.1-3.7,9.9-7.8,14.7-11.9c6.3-5.5,12.7-11,18.7-16.8
				c5.3-5.2,9.9-11.1,15.2-16.4c11.7-11.7,27.4-14.5,42-19.5c7.3-2.5,15.8-2.2,22.2-5.9c11.1-6.4,23-10.2,34.9-13.8
				c21.7-6.7,37.3-21.2,49.6-40.2c3.6-5.6,7.2-10.7,13.7-13.3c3.8-1.5,7-4.4,6.5-9.8c-0.2-2.4,0.5-4.9,0.9-7.4
				c0.6-4.1,1.7-7.3,6.6-4c0.9,0.6,2.5,0.3,3.7,0.2c3.8-0.4,7.6-1.2,11.4-1.3c6.5-0.2,12.9-0.2,19.4,0c6.3,0.2,12.7,0.7,19,0.9
				c2.8,0.1,5.6-0.1,8.4-0.4c3.5-0.4,6.9-1,10.3-1.9c1.2-0.3,2.2-1.8,3.3-2.8c-0.3-0.6-0.5-1.1-0.8-1.7c-3.4,0.3-6.8,0.5-10.2,0.8
				c-0.2-0.5-0.5-0.9-0.7-1.4c3.2-1.9,6.3-4,9.6-5.7c2.5-1.3,5.3-2.1,8-2.9c1.6-0.5,3.4-0.5,5.1-0.9c3-0.7,5.9-1.4,8.9-2.2
				C637.9,89.4,637.8,88.7,637.8,88z M13.5,129.7c-3.3-1.6-6.2-2.9-8.9-4.4c-0.2-0.1,0.4-1.7,0.6-2.5c-0.8-0.6-1.6-1-2.2-1.7
				c-1-1.3-2-2.7-2.6-4.2c-0.2-0.5,0.9-2.1,1.4-2.1c1.8,0.2,3.9,0.3,5.2,1.4c1.5,1.2,2.2,3.4,3.8,6.1c-2.4,0.2-4.1,0.3-5.9,0.4
				c2.7,0.6,5.4,1.3,8.5,2V129.7z M8.4,116c3.5,0.2,5.9,0.3,9.2,0.4C14.3,120.3,11.9,120.5,8.4,116z M501.9,108.8
				c0.5-1,2.2-1.4,3.7-2.2c2.7,1.6,5.3,2.8,7.5,4.6c0.8,0.7,1.2,2.9,0.8,3.9c-0.4,0.9-2.5,1.7-3.4,1.4c-2.6-1-5.1-2.5-7.3-4.2
				C502.3,111.6,501.5,109.6,501.9,108.8z M442.4,129.4c-1-4.4-0.1-6.1,3.9-4.9c4.9,1.5,9.6,3.1,14.8,1.5c0.2-0.1,1.9,2.8,1.5,3.4
				c-3.7,6-7.5,11.9-11.8,17.5c-2,2.6-5.1,4.1-8.1,6.4c-2.1-5.7-1.3-10.1,0.4-14.9C444,135.9,443.1,132.3,442.4,129.4z M454.3,150
				c-0.7,2.6-1.4,5.3-2.2,8.6C447.5,153.5,447.5,153.5,454.3,150z M425.2,121.9c3.5,2.2,1.8,4.8-0.3,6.3c-5.7,4.2-11.6,8.2-17.6,12
				c-5.1,3.2-10.5,3.1-15.8,1.2l-0.4-1.6c2.4-1.8,4.7-3.6,7.4-5.6c-4.4-4.1-1.7-7.2,1.4-9.7c3.9-3.2,8.1-6.1,13.4-10
				C416.8,116.8,421.1,119.2,425.2,121.9z M395,116.9c1.2-1,4.1,0.2,6.2,0.4c-0.8,1.3-1.5,2.7-2.5,3.8c-1.1,1.2-2.6,2.2-3.9,3.2
				c-0.7-0.3-1.3-0.7-2-1C393.5,121.1,393.5,118.1,395,116.9z M384,144.2c-8.1,5.6-15.7,11.9-23.9,17.2c-5.8,3.8-12.2,6.6-18.3,9.8
				c-0.5-0.8-1-1.6-1.5-2.4c6.4-5.2,12.3-11.2,19.2-15.4c5.9-3.6,8.5-9.5,12.5-14.4c0.6-0.7,1-1.9,1.7-2.3
				c5.9-3.2,11.8-6.2,17.7-9.3C392.5,134.1,389.2,140.7,384,144.2z M278.9,171.3c1.6,7.7,0.2,16.5-2.7,19.4
				C271.6,183.7,277.1,178.5,278.9,171.3z M277.3,159.4c-2.2,1.6-4.4,3.2-6.8,4.6c-0.2,0.1-1.9-1.8-2.1-2.9
				c-0.4-2.3,3.7-5.6,6.3-5.2c1.2,0.2,2.3,0.9,3.4,1.4C277.8,158,277.6,158.7,277.3,159.4z M292.7,131.9c3.1,5.3,3.2,6.3-1.8,9.4
				c-2.9,1.8-5.9,3.3-8.9,4.9c-0.7,0.4-1.5,0.4-3.2,0.9c-1.2-12.5-2.4-24.2,12-29.8c1.7,2,2.3,4.4,0.7,7.9
				C290.6,126.8,291.6,130,292.7,131.9z M296.4,123.6c4.6-2.5,9.3-4.8,11.6-10.4c1-2.5,8.4-1.6,12.3,1.7
				c-8.9,5.1-17.2,9.9-25.8,14.8C292.7,127.4,293.4,125.2,296.4,123.6z M298.3,178.7c0,4.9,0.3,9.6-0.2,14.3c-0.2,1.8-2,3.8-3.5,5.1
				c-4.2,3.9-8.7,7.5-13.1,11.1c-1.7,1.3-3.6,2.4-6.2,4C276.6,203.8,291.1,182.4,298.3,178.7z M283.6,166.3c0-0.9,1.9-2.4,2.9-2.5
				c5.8-0.5,11.7-0.7,18.7-1c-7.3,6.9-14,13.1-21,19.8C283.9,176.7,283.5,171.5,283.6,166.3z M299.8,204.6c0.4-2.8,2.6-6.3,6.7-3.1
				c0.4,0.3,2-0.3,2.2-0.9c2.8-6.2,4.8-9.6,10.1-10.2c-0.7,7.1-2.5,13.3-7,19.1c-3.8,4.8-6.3,10.8-9.3,16.3c-1,1.9-1.9,3.8-2.8,5.7
				c-0.6-0.2-1.3-0.4-1.9-0.5C298.4,222.2,298.7,213.3,299.8,204.6z M301.6,193c-0.2-4-0.3-8.2-0.7-12.4c-0.4-3.9,0.8-6.6,3.9-8.9
				c7.5-5.2,14.6-11.1,22.4-15.9c5.7-3.6,6.4-2.9,9.5,3.9c2.5-0.7,5.2-1.5,7.8-2.2C335.3,176.2,317.5,183.8,301.6,193z M336.3,151.4
				c1.2-1.2,2.3-2.8,3.7-3.6c4-2,8.2-3.8,12.4-5.4c2.5-1,5.1-1.5,7.6-2.2c0.7,2.2,0.7,3.6-1.9,5c-4.3,2.4-8.1,5.7-12.2,8.5
				c-1,0.7-2.6,1.8-3.4,1.5C340.3,154.3,338.4,152.7,336.3,151.4z M391.3,114.5c0,3.4,0.1,6.6-0.1,9.9c0,0.7-0.6,1.7-1.2,2
				c-4.1,2-8.5,3.5-12.5,5.7c-3.9,2.1-7.5,4.7-11.1,7.2c-2.1,1.4-3.8,3.9-6.3,0.9c0,0,0,0,0,0c1.3-0.9,2.7-1.9,4-2.8
				c1.1-0.8,2.5-1.5,3.2-2.6c5.7-8.9,14.9-13.6,22.6-20.1C390.2,114.5,390.8,114.6,391.3,114.5z M366.9,112.5
				c-0.4-1-0.7-1.4-0.8-1.8c-0.6-2.4-1.1-4.8-1.5-7.2c0-0.1,2-1,2.3-0.7c2.2,1.8,4.2,3.9,6.1,6c0.3,0.3-0.2,1.6,0.1,1.8
				c5.7,3.9,1.7,6.8-1,9.5c-4.6,4.5-9,9.7-14.4,13c-6.1,3.7-13.1,5.7-19.7,8.4c-0.4-0.5-0.8-1.1-1.2-1.6c1-1.2,2-3.3,3.1-3.4
				c4.5-0.5,6.7-3.8,9.3-6.8c1.5-1.7,3.8-2.6,5.3-4.2c2.2-2.4,7-2.9,5.7-8.1c-0.1-0.6,1.5-1.8,2.5-2.5
				C364,113.8,365.5,113.3,366.9,112.5z M351.4,101.8c0.8,0.7,2.1,0.6,3.1,0.9c1.8,0.5,4.8,0.4,5.3,1.6c1.5,3.1,3.1,6.6-1.4,9.4
				c-1.6,1-1.7,4.4-3.2,5.7c-3.9,3.4-8,6.8-12.5,9.4c-4.5,2.6-8.4,5.3-9.6,10.9c-0.3,1.4-1,2.9-2,3.9
				c-12.7,12.1-27.2,19.2-44.9,16.6c-1.3-0.2-3-2.4-3.2-3.8c-0.2-1.7,0.6-4.4,1.9-5.2c5.4-3.7,11.2-6.9,17.1-10.4
				c-3.6-7.5-2.9-8.9,3.6-12.6c8.1-4.6,16.7-8.9,23.5-15.2c4.4-4,9.2-7.2,13.8-10.6C345.6,100.4,348.4,99.3,351.4,101.8z M339,100.3
				c-3.6,2.6-6.1,4.3-9.6,6.7c-0.2-4.3-0.3-7.1-0.5-11.1C332.4,97.5,335,98.6,339,100.3z M308,101.6c0.5-0.6,1.2-1.2,1.9-1.4
				c4.9-1.4,9.7-2.9,14.7-4c1-0.2,3.2,1,3.2,1.4c-0.2,3.3,0.2,7.4-1.5,9.7c-2.7,3.8-7.5,6-11.8,2.8c-3.6-2.7-6.4-2.8-10-0.7
				c-0.7,0.4-2,0-3-0.1C304,106.4,306,104,308,101.6z M305,115.8c-2.4,1.6-4.7,3.5-7.3,4.7c-0.8,0.4-2.8-0.5-3.3-1.3
				c-0.8-1.5-1.4-3.7-1-5.2c0.2-0.8,2.9-1.4,4.3-1.1C300,113.2,301.9,114.4,305,115.8z M294,92.8c0.9,4.9-0.8,6.8-6.8,8
				C286.6,95.5,291,95.2,294,92.8z M297.1,102.3c0.7,0.2,1.5,1.4,1.4,2.1c-0.1,1-0.8,2.4-1.5,2.6c-3.5,1.1-7.2,1.8-11,2.7
				C287,104.6,293,100.9,297.1,102.3z M277.4,115.5c-0.3-0.3-0.6-0.6-0.9-0.9c1.9-2.4,3.8-4.7,6.5-8.1
				C283.7,112.9,280.5,114.2,277.4,115.5z M274.3,93.4c0.6-0.2,1.1-0.4,1.7-0.7c1.9,2.3,3.9,4.6,5.8,6.8c-2.6,1.9-5.3,3.7-7.9,5.6
				c-0.6-0.4-1.2-0.9-1.8-1.3C272.8,100.4,273.6,96.9,274.3,93.4z M273.1,143.4c0,2.5-2.6,5.9-4.7,6.5c-1.4-7.3-2.7-14.3-4.3-22.6
				C271.4,131.4,273,137,273.1,143.4z M257.5,92.6c3.4,1.1,6.7,2.7,10,4.1c0.1,0.7,0.3,1.3,0.4,2c-2.2,1.9-4.4,3.9-6.6,5.8
				c-2.2-3-4.4-5.9-6.4-9.1C254.8,95.2,257,92.5,257.5,92.6z M261.7,117c0,6.5-1.7,7.8-9,6.5C256,121.1,258.5,119.3,261.7,117z
				 M248.6,121.5c-0.5-6.3,5.4-11.2,10.9-9.4c0.5,0.2,1.2,0.9,1.2,1.3c0,0.7-0.4,1.8-0.9,2.1C256.2,117.5,252.5,119.4,248.6,121.5z
				 M245.5,104.7c0.6-2.1,1.9-4,3.1-6.4c2.2,3,4.8,6.4,7.8,10.4c-2.8,0.7-4.9,1.4-7.1,1.6c-1.2,0.1-3.1-0.3-3.5-1.1
				C245.2,108,245.1,106.1,245.5,104.7z M246.9,127.1c-3.3,3.8-6.6,7.6-10,11.4c-4.9-6-4-9,2.1-10.4c2.4-0.6,4.9-1.3,7.3-1.9
				C246.5,126.5,246.7,126.8,246.9,127.1z M238.3,96.2c1.6-1.7,3-3.2,4.2-4.4c0.9,2.3,1.3,3.9,2,5.4c1.9,3.8,0,7-5.2,8.7
				c1.2,2.2,3.3,4.3,3.5,6.6c0.2,1.9-1.9,4-3,6c-1.1-1.4-2.8-2.7-3.2-4.4c-1.4-6-2.3-12.1-3.6-19.1C235.9,95.7,237.2,96,238.3,96.2z
				 M231.5,101.8c0.3,4,0.6,8.1,1,13.6c-2.2-1.5-3.9-2.7-5-3.5c1-4.4,1.7-7.4,2.4-10.4C230.3,101.6,230.9,101.7,231.5,101.8z
				 M221.4,93.6c0.1-0.5,4.4-0.8,5.1,0.1c1.4,1.7,2.1,4.5,2,6.7c-0.1,1.7-1.9,3.3-3.3,5.5c-1.7-0.9-4.7-1.6-4.8-2.8
				C220,100.1,220.6,96.7,221.4,93.6z M219.6,107.2c1.1,0.3,2.3,1.1,3.1,2c2.3,2.5,4.1,5.6,6.7,7.7c4.4,3.4,4.8,6-0.3,8.1
				c-5.1,2.1-7.6,4.9-6.5,10.8c-6.7-2.6-8.2-5.2-6.6-10.4c-4-4.4-8-8.6-11.7-13c-1.1-1.3-1.6-3.2-2-5c-0.6-3,1.1-3.9,3.7-3.4
				C210.6,105,215.1,106,219.6,107.2z M196.2,136.5c-1.5-1.3-2-4.8-1.6-7c1.1-5.8,0.5-11.1-2.5-16.2c-3.4-5.8-2.6-8.2,3-11.7
				c1.4-0.9,2.9-1.4,4.2-2.3c2.7-1.9,3.9-0.5,5,2.3c-1.5,0.6-2.8,1.1-4.2,1.7c-0.2,5.6,1.4,10.2,5.7,13.9c3.3,2.9,6.3,5.7,6.3,11.4
				c0,2.8,4.4,6,7.3,8.5c6.3,5.5,13,10.3,11.5,20.7c-0.8,5.4,0.4,11.2,0.6,16.8c0,1.5-0.4,3.1-0.6,4.7c-9.7-10.3-20.2-18-31.7-24.3
				c-3-1.7-3.6-3.7-1.6-6.8C200.5,144,200.4,140.2,196.2,136.5z M185.9,137.4c0.7-2.9-1.8-5.4-5.4-4.9c-8.2,1.1-8.5,1-12.5-6.5
				c-0.5-0.9-0.7-2-1.4-2.6c-6.9-5.2-3.9-11.4-1.9-17.6c0.2-0.8,0.4-1.6,0.5-2.4c0-0.3-0.3-0.6-0.6-1.1c-1.3,0.6-2.7,1.2-4.4,2
				c-1-1.2-2-2.4-2.7-3.3c4.6-1.4,8.9-3.4,13.4-3.8c2.8-0.2,5.7,2.5,8.8,2.9c4.1,0.6,4.5,3,5,6.5c0.4,2.5,1.9,4.8,3.3,7
				c3.1,4.9,3.2,10,1.5,15.3c-1.4,4.4-0.3,8.2,2.5,11.5c2.4,2.7,2,5-0.9,7.4C188.1,145,184.4,143.2,185.9,137.4z M188.4,163.9
				c-4.2-2.2-5-4.9-2.6-9C189.7,157.2,189.6,160.1,188.4,163.9z M87.7,147.5c1.8,0.8,3.7,1.3,5.2,2.5c0.8,0.6,0.8,2.3,1.2,3.5
				c-1.4,0.1-3.4,0.8-4.1,0.2c-1.4-1.2-2.1-3.3-3.1-5C87.1,148.3,87.4,147.9,87.7,147.5z M83.9,128.5c0.8,1.9,1.5,3.7,2.4,5.8
				c4.2-0.3,5.9,1.4,6.1,7C83.1,140.5,82.1,139.3,83.9,128.5z M86.9,125.9c0.8-0.4,2.2-1,3.6-1.6v-3.5c1.8,0.3,3.5,0.4,5.1,0.7
				c0.9,0.2,2.3,0.2,2.7,0.7c5.1,8.4,14.9,8.5,21.9,13.5c4.4,3.1,9.8,4.8,14.7,7.2c1,0.5,2.8,1.3,2.8,1.6c-1.2,6.3,5.6,8.2,6.8,12.8
				c-6.5-2.4-13.5-3.5-18.7-7.3c-5.8-4.2-12.2-2.3-18-4.5c-5.4-2-10.7-3-13.2-9.7C93.3,132.3,89.8,129.5,86.9,125.9z M142.7,148.9
				c-0.7-1.4-0.6-3.5-0.3-5.2c0.4-2.7,0.9-5.6,2.1-8.1c0.8-1.6,2.9-2.5,4.4-3.7c0.9,1.5,2.9,3.3,2.6,4.5c-1.2,4.8,0.5,7.7,4.1,10.5
				c2,1.5,3.2,4.3,4,5.5c6.6,2.8,12.2,5.1,17.6,7.6c0.9,0.4,2,2.4,1.7,2.9c-3.1,5.6-0.1,8,4.6,10.6c-1,0.1-2.2,0.7-3,0.4
				c-8.9-3.1-17.9-6.3-26.7-9.7c-1.5-0.6-3-2-3.9-3.4C147.2,157.1,144.8,153,142.7,148.9z M174.8,149.2c2.2,1.3,3.5,4.4,5.5,7.2
				c-10.4,0.1-24.3-9.8-25.7-17.8C161.6,142.1,168.4,145.3,174.8,149.2z M159.3,127.8c0.7-0.8,1.2-1.9,1.5-2.3
				c6.2,6.6,11.7,12.6,17.3,18.6c-0.1,0.3-0.2,0.5-0.3,0.8c-2.5-1.1-5.1-2.2-7.5-3.5c-3.4-1.8-6.9-3.5-10.1-5.7
				C155.7,132.9,155.7,131.8,159.3,127.8z M207.1,93.4c5.6-6.3,5.6-6.3,11.7-4.6c0,3.6,0.1,6.7,0,9.7c0,0.9-0.5,2.5-1,2.5
				c-3.2,0.4-6.8,1.4-9.7,0.4C204.3,100.1,204.2,96.6,207.1,93.4z M204.6,89.9c-0.7,1.5-1.4,3.1-2.6,5.7c-1.5-2.7-2.2-4.1-3.7-6.9
				C201.1,89.3,202.9,89.6,204.6,89.9z M185.4,89.3c8.8-1.4,9.7-0.7,13.8,7.2c-3,1.7-6,3.3-7.8,4.3c-4.4-2.1-7.8-3.7-12.4-5.9
				C181.4,92.7,183.2,89.7,185.4,89.3z M180.2,90.8c-3.7,3.3-6.3,4.4-9.5,0H180.2z M169.1,96.4c-4.9,0.3-8.9,0.5-14.3,0.8
				C159,90.6,165.4,90.3,169.1,96.4z M144.7,91.1c1.8,7.7,5.6,13.6,12.4,17c3.7,1.9,2.1,4.4,0.9,8.1c-2.5-3.7-7.4-4.1-7.1-9.5
				c0-0.5-0.9-1.4-1.6-1.7C143.4,102,143.4,97,144.7,91.1z M137.4,90.4c1,1.5,2.6,2.9,2.9,4.5c0.3,2,1.7,5.1-1.9,6
				c-0.8-3.2-1.6-6.5-2.4-9.7C136.5,91,137,90.7,137.4,90.4z M138.4,101.1c5.7,6.5,11.5,12.9,17.4,19.6c-8.8,3.5-20.2-3.2-21-12
				C134.5,105.8,134.5,102.2,138.4,101.1z M115,97c2.5-1.3,5.2-3.1,7.7-2.9c2.8,0.2,5.5,2.2,8,3.8c0.7,0.5,0.9,2.4,0.8,3.6
				c-0.2,2.5-1,4.9-1,7.4c0.1,2.2,1,4.3,1.6,6.8c-4.7-0.6-9.1-1.1-13.4-1.8c-0.9-0.2-2.2-1.1-2.5-1.9c-1.1-3.9-2-7.9-2.7-11.9
				C113.5,99,114.3,97.4,115,97z M113.5,117.8c1.5,0.1,3.1,0.1,4.6-0.3c9.7-2.4,17.7,0.7,24.6,7.7c2.4,2.5,3.3,4.7-0.1,7.3
				c-1.3,1-2.1,3.3-2.4,5.1c-0.4,3.2-1.6,4.1-4.5,2.8c-7.9-3.6-16-6.7-23.5-10.9c-7.6-4.2-7.8-5.2-11.2-15.2
				c2.8,1.6,4.4,2.5,5.9,3.5c0-0.3,0-0.5,0-0.8C109.1,117.2,111.3,117.6,113.5,117.8z M109.7,109c-2.2-0.6-4.3-0.7-6-1.7
				c-1-0.6-1.6-2.6-1.6-4c0-0.6,2-1.3,3.2-1.7c1.6-0.6,3.3-1,5.8-1.7C110.7,102.8,110.2,105.6,109.7,109z M80.8,95.2
				c3.3-1.6,6.7-2.9,10-4.2c0.3-0.1,0.8-0.2,0.9-0.1c5.2,4.8,10.6,0.6,16,0.5c0.3,0,0.6,0.3,1.3,0.6c-0.1,1.4-0.1,2.7-0.3,4
				c-0.3,1.3-0.9,2.6-1.4,3.9c-1.1-0.5-2.3-0.8-3.1-1.6c-3.3-3.3-7.2-2.4-11-1.7c-3.9,0.7-7.7,1.9-11.5,2.6
				c-0.8,0.2-1.8-0.8-2.7-1.2C79.5,97,79.9,95.7,80.8,95.2z M79.7,128.8c0.8,1.1-0.4,3.6-0.7,5.5c-2.1-1.3-4.2-2.6-6.6-4.2
				C75.5,126.1,78.1,126.6,79.7,128.8z M26.6,114.5c1.8,0.6,3.6,1.3,6.6,2.3c0.6,0.1,2.2,0.2,3.8,0.4c0.9,0.1,2,0.8,2.5,0.5
				c4.6-3.1,7.3-0.6,9.6,4c4.6-4,9.1-3.2,13.2,0c1.1,0.8,1.5,4.8,0.9,5.2c-3.2,2.2-6.9,3.7-10.7,5.3c2.4-0.5,4.6,1.1,7.8,0.2
				c2.6-0.7,7.5-2.5,7.7,4c0,1.1,1.7,2.1,3,3.6c-5,0-9.5,0.6-13.8-0.1c-7.9-1.3-16.5-1-22.4-8.2c-3.2-3.8-6.6-7.5-9.3-11.6
				C24.7,119.1,26.1,116.5,26.6,114.5z M141.3,182.9C127,177.6,112.8,172,98.4,167c-8.3-2.9-17.1-4.3-25.5-7.1
				c-8.7-2.9-17.9-4.3-25.3-11.1c-6.7-6.1-14.6-10.8-21.8-16.2c-1.1-0.8-1.6-2.5-2.4-3.8c0.4-0.4,0.8-0.8,1.2-1.2
				c1.1,0.7,2.5,1.1,3.3,2.1c6.3,7.6,14.5,11.1,23.8,12.5c8.6,1.2,17.2,2.3,25.8,3.4c4.6,0.6,7.3,3.7,9.5,7.3c2.4,4,5.3,4.9,8.4,1.6
				c2.6-2.7,4.7-2.4,7.7-1c2.9,1.3,6.2,1.5,9.1,2.6c2.2,0.9,5.5,2.3,6,4.1c1.6,6.9,7.6,9,12.1,12.6c2.4,2,5.7,3,8.8,3.8
				c4.8,1.2,8.2,4.1,11.8,9.1C146.9,184.5,144,183.9,141.3,182.9z M153.3,183.4c-4.9-6-10.9-9.3-18.1-11.6c-4.6-1.5-8.5-5-12.6-7.9
				c-1-0.7-1.3-2.4-1.9-3.9c11.7-1.7,41.9,13.7,41.4,29.8C158.6,187.3,155.3,185.9,153.3,183.4z M217.9,248
				c-5.4-6.5-10.6-13.2-16.1-19.7c-4-4.7-8.3-9.1-12.5-13.7c-10.6-11.6-20.5-23.7-27.6-38c-0.3-0.6-0.4-1.4-0.7-2.8
				c2.2,0.5,3.9,0.6,5.5,1.2c7.8,2.8,16.3,4.7,23.3,9c5.1,3.2,8.7,9.3,12.3,14.7c3.1,4.5,5.8,9.5,4.9,15.7c-0.2,1.5,1.3,3.3,2,5
				c4,9.9,8,19.8,12.3,30.4C219.6,249,218.5,248.8,217.9,248z M235.5,251.8c-0.4,0.2-0.9,0.5-1.3,0.7c-1.6-2.6-3.7-5-4.8-7.8
				c-4.3-10.5-7.9-21.4-12.5-31.8c-5.1-11.7-11-23.1-16.5-34.7c-2.5-5.2-4.7-10.6-7.1-15.8c0.7-0.4,1.3-0.9,2-1.3
				c11.4,5.4,21.8,12.4,29.5,22.9c1.8,2.4,4.3,6.1-1.5,7.3c0.3,0.5,0.3,1,0.6,1.1c7.8,3.7,9.6,10.7,9.9,18.8
				c0.5,12.5,1.4,24.9,2.1,37.3C235.8,249.6,235.6,250.7,235.5,251.8z M244,178.2c0,1.7-0.8,3.4-1.3,5.1c-0.6-0.1-1.2-0.3-1.8-0.4
				c0.4-3.4,0.9-6.9,1.4-11.1c-3-2.3-2.4-6.5-1.6-10.5c0.8-4.4,0.2-8-2.9-11.5c-3.4-3.8-2.3-7.9,2-10.7c0.6-0.4,1.4-1,1.7-1.7
				c3.1-8.2,10-10,17.8-11.3c0.8,6,1.6,11.9,2.4,17.9c0.2,1.2,0,2.5,0.3,3.8c0.7,4.4,0.7,7.4-4.1,10.4
				C250.7,162.4,243.9,168,244,178.2z M262.7,162.5c-1,11.8-9.4,19.1-15.3,27.7C251.3,180.4,248.8,167,262.7,162.5z M248.8,249.2
				c-1.1-15.8-5.4-32,0.9-47c5.6-13.4,13.2-26.1,23.6-36.3l2.6,1.6c-1.6,3.4-2.7,7.2-4.9,10.2c-2,2.8-2.1,5.1-1.4,8.2
				c0.9,4.1,1,8.4,1.4,12.6c-0.6,0.1-1.2,0.2-1.7,0.2c-0.5-1.9-1-3.8-1.4-5.7l-0.7,0c-0.1,0.6-0.4,1.2-0.3,1.7
				c1.4,10.8-1.6,20.4-6.7,29.9c-3.7,6.7-5.9,14.3-8.9,21.5C250.8,247.3,250,248.3,248.8,249.2z M294,243.4
				c-1.2,7.4-2.2,14.8-4.3,21.9c-1,3.3-3.8,6.8-6.8,8.3c-5.4,2.9-7.8,7.9-11.2,12.4c-1.5,2.1-2.4,4.8-4.2,6.6c-1.5,1.5-4,3-5.9,2.8
				c-1.7-0.2-4.3-2.5-4.5-4.2c-1-6.6-2.4-13.5-1.7-20.1c1.5-13.6,5.5-26.9,12.7-38.4c4.8-7.7,11.8-13.9,18-20.5
				c2.6-2.8,5.7-5,8.5-7.5c0.5,0.3,0.9,0.6,1.4,0.8c-0.9,7.6-1.8,15.3-2.9,24.4C296.2,232.9,294.9,238.2,294,243.4z M377.1,201.5
				c3.7-8.4,10.7-9.6,18.2-10.4C394.2,196.3,385.8,201,377.1,201.5z M396.8,181.9c-0.8,4.1-2.8,6-6.7,6.6c-5.9,0.9-10.7,4-14.2,9.1
				c-0.7,1-1.6,1.8-3,3.4c-0.5-6.4-1-11.9-1.5-17.3c-0.3,0-0.6,0-0.9,0c0.2,2.7,0.2,5.5,0.6,8.1c1.2,7.8-1.6,15-8,18.6
				c-8,4.4-14.2,10.5-20.2,17.4c-7.5,8.6-16,16.2-24.3,23.9c-2.6,2.4-6,4.1-9.3,5.3c-3.5,1.4-7.4,1.9-11.7,2.9
				c-0.1-8.8,2.1-16.2,5.8-23.3c3.4-6.7,6.2-14,10.4-20.1c5.5-8.1,8.2-17,10.5-26.3c1.2-5,4.4-7.1,9.6-7c2.4,0,4.7-2.2,7.2-3.2
				c1.9-0.7,4-1,6.7-1.6c-0.1-5.7,5.8-7.6,10.2-10.8c5.4-3.9,11-7.8,16.5-11.7c7.3-5.1,14.5-10.1,23.9-10c7.6,0.1,13.5-3.9,19.3-8.7
				c3.3-2.7,7.4-4.3,11-6.6c1.8-1.1,3.2-2.8,4.9-4.2c1.1-0.9,2.3-2,3.5-2.1c0.7-0.1,1.7,1.6,2.2,2.7c2.5,5.6,3,11.1-0.4,16.6
				c-2.1,3.5-3.8,7.3-6.2,10.6c-1.1,1.5-3.4,2.9-5.1,2.7c-7.5-0.7-12.6,3.5-17.6,8.3c-0.8,0.8-1.5,2.2-2.4,2.3
				C399.3,168.6,398.1,175.3,396.8,181.9z M433.9,155.9c1.8-3.2,3.3-5.6,5.3-9C442,154,441.3,155,433.9,155.9z M424.3,163.1
				c-2.5,1.3-5,2.7-7.5,4c-0.3-0.6-0.7-1.3-1-1.9c2.4-1.5,4.8-3,7.2-4.5C423.5,161.5,423.9,162.3,424.3,163.1z M402.8,193.7
				c-0.2-3.5-0.4-5.6-0.5-7.8c-0.3-8-0.2-7.8,6.9-11.3c5.4-2.7,10.5-6,15.9-8.8c1.7-0.9,3.9-1.3,5.9-1.3c4.8,0.1,9.6,0.6,14.8,1
				c0.3,4.1-1.7,7.8-6.4,10.3c-8.8,4.6-17.4,9.6-26.2,14.2C410.2,191.6,406.8,192.4,402.8,193.7z M513.7,136.4
				c-4.6,9.7-11.4,17.6-19.2,24.6c-9.9,8.9-21.3,15.1-33.9,18c-11.9,2.7-22.7,7.8-33.8,12.5c-0.8,0.3-1.8,0.2-3.7,0.5
				c6.5-4.4,12-8.3,17.6-12c4.2-2.8,8.3-5.5,10-10.9c0.8-2.6,2.7-4.9,4.4-7c2.4-3,4.6-5.9,3.1-10.3c-0.3-1,0.7-3.1,1.7-3.7
				c5.6-3.4,7.2-9,8.1-15.1c0.3-2.3,0.9-4.5,1.6-7.8c6.3,1.1,12.3,2.5,18.4,2.9c4.2,0.3,8.3,1.6,12.8,0c3.2-1.1,7-0.7,10.5-0.2
				C514.2,128.3,515.3,132.9,513.7,136.4z M516.9,122.1c0.7-5.5,1.5-11,2.2-16.7h10.7c-4.4,6.6-8.1,12-11.7,17.4L516.9,122.1z
				 M529.4,125.3c-1.6,1.7-4.7,2.1-7.2,2.8c-0.3,0.1-1.9-2.3-1.6-2.7c3.4-5.2,7-10.3,10.6-15.4c0.1-0.2,0.6-0.1,1.8-0.3
				C533,115.5,533.3,121.1,529.4,125.3z"/>
			<path class="st5" d="M232.7,317.7c0.6-0.5,1.2-0.9,1.9-1.4c-0.5-0.7-1-1.4-1.5-2.1c-0.8,0.6-1.6,1.2-2.5,1.8
				C231.3,316.6,232,317.2,232.7,317.7z"/>
		</g>
	</g>
</g>
<g id="HMjUHO_1_">
	<g>
		<g>
			<path class="st5" d="M2458.8,157.5c3.4-2.2,6.5-4.1,9.6-6.2c-3.1-6.6-8.4-9.6-16.8-9.6c-6.4,0-12.8-0.4-19.8-0.7
				c0.5-2.1,1.2-4,0.9-4.2c-8.1-4-10.1-17.1-24.1-12.5c-1.1,0.4-2.8-0.3-4.2-0.7c-10.6-2.6-21.2-5.5-31.9-7.9
				c-4.6-1-7.1-2.2-5.9-7.1c0.8-3.6-0.7-6.8-6.7-6.4c-5.7,0.4-11.4,0.1-17.2-0.1c-11-0.4-21.9-3.8-33.2-1.2
				c-1.3,0.3-3.2-1.3-4.7-2.1c-1.4-0.8-2.3-2.3-3.8-2.8c-5.6-1.8-11.3-3.3-17-4.9c0.4-0.8,0.8-1.8,0.8-1.8c-3.1,0.6-6.3,1.8-9.5,1.6
				c-5.8-0.4-11.6-2.1-17.4-2.3c-8.8-0.2-17.7,0.3-26.5,0.8c-10.8,0.6-21.5,1.4-32.2,2.4c-8.3,0.8-16.5,2.2-24.8,2.8
				c-2.8,0.2-7.2-0.4-8.3-1.9c-3.8-5.5-8.9-2.5-13.2-2.1c-6.7,0.7-13.2,3.3-19.9,3.7c-5.7,0.4-10.8,1.1-15.7,3.9
				c-1.4,0.8-3.7,0.9-5.4,0.7c-14.1-1.4-25.9,5-38.2,9.1c-6.8,2.2-12.1,7.6-19.7,9c-1.7,0.3-3,1.9-4.7,2.7
				c-6.4,3.1-12.8,6.2-20.6,4.7c-3.6-0.7-7.3-1.4-10.9-1.3c-6.5,0.2-13,1-20.4,1.7c-7.8,10.3-24.8,9.6-35.4,18.2
				c1,1.3,2.1,2.5,2.8,3.8c1.1,2.2-0.7,6.4,5.7,3.2c3.7-1.8,9.6-0.3,12.6-0.3c-1,0.7-3.3,2.2-5.7,3.7c0.7,0.7,1.5,1.4,2.2,2.1
				c2.4-0.3,4.8-0.6,7.7-1c-1.6,2.4-2.6,4.3-4.1,5.8c-1.8,1.7-4.1,3-6,4.3c6.3-0.4,12.9-1.1,19.5-1.2c7.5-0.1,12.3-4.1,16.9-8.2
				c3.8,10.1,8.4-1.3,12,1.4c0.8,4.7,4,7.5,9.9,7.4c3.4,0,6.9-0.3,10.3-0.2c4,0.1,8,0.5,13.8,0.9c2.3-2.7,7.1-4.9,11.3-2.9
				c6.6-2.6,11.7-4.6,16.7-6.5c3,4.1,2.3,5.3-2.6,6.4c-4.6,1-8.5,4-12.8,6.1c0.2,0.2,0.4,0.5,0.6,0.7c3-1,6.1-2,10.5-3.5
				c-1.4,3-2.1,4.4-2.8,5.9c2,0.2,4,0.4,5.3,0.6c0.7,2.4,1.3,4.1,2.3,7.4c3.5-7.5,6.2-13.3,9.5-20.3c6.8,3.2,13.2,6.1,19.4,9.1
				c5.4,2.6,10.4,5.9,16.1,8c7.1,2.6,14.8,4.1,22,6.4c11.2,3.6,22.5,7.3,33.5,11.4c3.4,1.3,6.6,3.6,9.1,6
				c7.5,7.3,14.1,15.5,22.2,22.2c5.3,4.4,6.7,9.1,4,13.7c-2.9,5.1-0.3,8.3,1.7,12.3c3.4,6.8,6.4,13.7,9.9,21.5
				c-5.4-0.5-9.2-0.9-15-1.5c5.3,5.9,10.5,8,17.3,8.5c9.4,0.7,18.2,3.1,25.2,8.9c1.4,1.1,2.6,3,2.7,4.6c0.2,2.6-0.6,5.2-1,7.9
				c-0.8-0.5-1.8-1.2-2.8-1.9c-3.8,4.6-9.3,4.1-14.5,4c0,0,0,0,0,0.1c0,0.4,0,0.7-0.1,1.1c3,0.1,5.6,1,6.3,5.1
				c0.1,0.8,2.1,1.9,3.4,2c10.9,1.4,10.8,8.4,10.8,15.3c-2.1,1-3.9,2.1-5.9,2.8c0.2,0.4,0.4,0.7,0.6,1.1c0.8,1.8,2.3,5.8,2.6,6.5
				c0.8,1.7,1.2,3.4,1.3,5.1c3.3-1.2,6.6-2.4,10.5-3.7c0.2,0.1,2,1,3.7,0.8c5.8-0.5,11.2-0.8,16,3.1c1.2,0.9,4.9-0.5,7.5-0.9
				c0-0.5-0.1-1-0.1-1.4c2,0.9,4,1.8,4.2,1.9c6.5-4.2,8.9-8.8,1.9-13.3c-0.5,0.7-1.1,1.3-1.6,2c-0.5-4.2-0.7-8.3,1.1-11.5
				c1.8-3.3,1.8-5.2-1.5-7.3c-3.1-1.9-6.4-3.7-9-6.1c-2.8-2.6-6.3-5.6-7-8.8c-1.1-5-4.7-7.6-8.9-9.7c-5.8-3-12.1-5.2-18.2-7.8
				c5.7,1.1,8.7-0.8,8.7-7.7c4.7,6.2,8.1,10.8,12.4,16.5c5.3-14.7-1.2-27.4-14.3-33.5c1.8-2.1,3.7-4.3,5.6-6.5
				c-12.8-2.4-20.8-9.9-25.6-19.7c-2.8-5.8,5.3-8.4,7.8-12.8c1.3-2.4,3.4-4.4,5.1-6.6c-0.6-0.5-1.2-1-1.8-1.4
				c-3.2,2.1-6.4,4.3-9.8,6.6c-1.5-11.8,9.4-22.8,19.6-28.8c9-5.3,12.5,4.8,20.1-0.8c1.4-4.7,8.4,0.2,13-1.3c2.6-0.8,5.4-1,8-2.3
				c8.6,0.4,12.3,6.9,17.1,12c1,1.1-0.3,4.6-1.7,6.4c-1.5,1.9-4.3,3-6.5,4.5c-5.1,3.2-9.9,7.4-15.4,4.2c-0.2,2.5,0.6,5.8-0.9,7.4
				c-5.8,6.4-11.9,12.8-18.8,18.3c-8,6.3-8.6,6.6-2.9,16c-3-0.5-5.2-0.8-7.4-1.1c1.4,1.6,2.8,3.2,4.1,4.7
				c14.2-7.3,25.6-15.6,33.5-27.1c6.6-9.6,15.5-16,28.5-17.7c2.2-0.3,4.2-1.4,6.3-2.1c-0.1-0.5-0.2-0.9-0.3-1.4
				c-2.1-0.4-4.2-0.9-6.8-1.4c0.7-2.8,1.2-7.2,2-7.2c7.4-0.6,5.5-6.4,7.1-8.1c-1.5-3.7-4.1-6.8-3.3-8.7c1.9-4.3,6.1-2.2,9.8-1.1
				c1.5,0.4,3.3,0.1,4.9,0.1c-2.7-2.3-5-4.2-7.8-6.6c11.7-1.2,21.8-1.3,31.4,2.4c-0.9,1.8-1.5,3-1.5,2.9c10.7,1,21.3,2,33.7,3.1
				c-0.9-4-1.9-8.1-3.3-14.1c5.9,2.2,10.6,3.9,15.3,5.7c1.3,0.5,2.7,2,3.7,1.8c6.4-1.2,12.8-2.8,18.8-4.2c1.5-6.1-14.2-5.3-6.5-13.5
				C2451.5,154.4,2455.6,156.1,2458.8,157.5z M2151.4,174.2c-11.9-4.5-23.7-9.2-35.6-13.9c-1.3-0.5-2.8-0.9-3.7-1.8
				c-1.4-1.3-2.3-3-3.4-4.6c1.9-0.6,3.7-1.5,5.6-1.6c3.6-0.2,7.3,0.2,11,0.4c-0.3,0.6-0.9,1.6-1.2,2.1c7.1-1.2,14.6-2.4,22.1-3.6
				c0.3,0.6,0.6,1.1,0.8,1.7c-2.7,1.4-5.4,2.7-8.5,4.3c1.4,0.9,3,2,4.5,3c3.1-1,6.9-2.2,9.8-3.1c3.3,6.6,6.5,12.8,10.3,20.2
				C2158.7,176.1,2154.9,175.5,2151.4,174.2z M2237.9,168c1.9,1.3,2.4,4.2,3.5,6.4c-2,0.5-4.3,1.9-5.9,1.4
				c-4.9-1.5-9.5-3.7-14.6-5.7C2226.4,165,2232.1,163.9,2237.9,168z M2223.3,213c-5.2-6.2-9.5-11.4-14.2-16.9
				C2218.1,196.3,2224.2,203.2,2223.3,213z M2227.2,189.6c-1,0.9-3.9,1.1-5.6,0.7c-6-1.6-11.8-3.7-17.9-5.7c1.4-2.1,2.8-4.2,4.4-6.6
				c0.8,1.3,1.4,2.4,2.8,4.7v-7.9c4.3,1.6,10.5-1.6,11.4,5.3c0.1,0.4,2.5,0.9,3.8,0.8c2.7-0.3,5.3-0.9,8-1.4c0.2,0.5,0.3,1,0.5,1.6
				C2232.2,183.9,2230.1,187,2227.2,189.6z M2236.3,205.2c-3.8-6.5-2.2-11.1,5.8-17.1c2.4,3.9,1.9,16.4-0.9,18.4
				C2240.5,207.1,2236.9,206.2,2236.3,205.2z M2265.1,265.2c-2.9,3.1-4.6,4.9-5.9,6.3c-4.5-2.9-9-5.7-13.4-8.5l0.7-1.1
				c1.5,0.1,3,0.2,5.8,0.4c-9.9-8-15.1-16.9-11.9-28.7C2248.6,244.2,2256.9,254.7,2265.1,265.2z"/>
		</g>
	</g>
</g>
</svg>
